<?xml version="1.0" standalone="no"?>
<!DOCTYPE svg PUBLIC "-//W3C//DTD SVG 20010904//EN"
 "http://www.w3.org/TR/2001/REC-SVG-20010904/DTD/svg10.dtd">
<svg version="1.0" xmlns="http://www.w3.org/2000/svg"
 width="4032.000000pt" height="3024.000000pt" viewBox="0 0 4032.000000 3024.000000"
 preserveAspectRatio="xMidYMid meet">

<g transform="translate(0.000000,3024.000000) scale(0.100000,-0.100000)"
fill="#0E292A" stroke="none">
<path d="M0 15120 l0 -15120 20160 0 20160 0 0 15120 0 15120 -20160 0 -20160
0 0 -15120z m14337 1068 c-3 -8 -6 -5 -6 6 -1 11 2 17 5 13 3 -3 4 -12 1 -19z
m43 -112 c-7 -7 -10 -6 -10 2 0 7 -9 22 -20 34 -20 22 -28 54 -11 43 5 -3 13
0 17 7 4 7 12 -6 20 -33 9 -28 10 -47 4 -53z m124 -87 c93 -33 163 -68 170
-86 4 -9 9 -13 13 -9 4 3 22 -8 40 -26 19 -18 37 -32 41 -32 14 3 32 -8 27
-16 -3 -4 3 -14 13 -21 15 -13 16 -12 3 4 -16 21 1 23 19 2 7 -8 16 -12 22 -9
11 7 62 -25 54 -33 -3 -4 -16 2 -28 13 l-23 19 19 -22 c11 -13 25 -23 31 -23
7 0 20 -16 29 -35 9 -19 22 -35 28 -35 7 0 7 -5 -1 -14 -13 -16 2 -32 19 -21
10 6 31 -34 24 -46 -1 -3 -64 1 -138 9 l-135 13 -81 -25 c-45 -14 -87 -26 -94
-26 -8 0 -17 -12 -20 -26 -9 -36 -84 -68 -139 -60 -48 8 -80 24 -72 37 4 5 0
10 -7 10 -104 10 -299 -6 -339 -26 -51 -27 -87 -35 -93 -22 -2 7 -5 3 -6 -8
l-1 -20 -8 20 c-10 26 -3 125 15 195 12 48 25 66 96 137 98 98 165 136 268
153 41 6 86 13 99 15 13 3 27 8 30 13 5 9 29 18 55 21 5 0 36 -9 70 -20z m236
-439 c0 -5 -9 -10 -21 -10 -11 0 -17 5 -14 10 3 6 13 10 21 10 8 0 14 -4 14
-10z m151 -34 c4 2 11 -1 15 -7 5 -8 3 -9 -6 -4 -9 6 -10 2 -5 -16 l7 -23 -30
25 c-16 13 -35 32 -41 41 -10 16 -7 15 21 -2 17 -10 35 -17 39 -14z m82 18 c2
6 9 1 16 -11 14 -26 -1 -59 -31 -66 -10 -3 -16 -1 -13 3 3 5 -4 14 -17 21 -21
11 -21 12 -2 27 16 12 16 14 2 9 -10 -4 -18 -2 -18 3 0 6 -9 10 -21 10 -11 0
-18 4 -14 9 3 6 23 5 50 -3 32 -10 45 -11 48 -2z m-203 -14 c0 -11 -2 -12 -52
-15 -43 -2 -48 2 -15 15 30 12 67 12 67 0z m-450 -65 c28 -15 48 -50 35 -63
-4 -4 -11 1 -16 11 -6 9 -14 17 -20 17 -5 0 -22 11 -37 25 -22 21 -24 25 -9
25 10 0 31 -7 47 -15z m-84 -80 c-9 -23 -26 -9 -26 23 0 24 1 25 16 10 10 -9
14 -24 10 -33z m896 -35 c20 -86 24 -163 13 -234 -6 -37 -5 -47 4 -42 20 13 6
-189 -19 -275 -22 -74 -65 -169 -81 -180 -5 -3 -9 -16 -9 -30 1 -31 -5 -83
-20 -185 -13 -84 -7 -171 11 -143 5 9 9 10 9 2 0 -6 -4 -14 -9 -17 -5 -3 -7
-15 -4 -26 3 -11 0 -20 -6 -20 -6 0 -11 -13 -11 -30 0 -20 -5 -30 -15 -30 -8
0 -16 -6 -16 -12 -1 -7 -2 -20 -3 -28 0 -8 -5 -15 -11 -15 -22 -1 -37 -19 -32
-41 2 -14 0 -21 -6 -17 -6 4 -8 0 -4 -10 4 -11 1 -17 -9 -17 -8 0 -12 -5 -9
-10 4 -6 11 -8 16 -5 5 4 16 -1 25 -9 13 -14 13 -18 0 -43 -8 -16 -15 -23 -16
-18 0 6 -10 -1 -21 -15 -11 -14 -17 -19 -13 -11 5 9 3 12 -4 7 -7 -4 -12 -18
-12 -31 0 -15 -7 -26 -20 -30 -11 -3 -20 -15 -20 -25 0 -10 -4 -22 -10 -25
-13 -8 -13 -25 -1 -25 9 0 27 38 23 51 0 3 17 11 39 18 36 11 39 14 32 39 -5
22 -4 25 8 15 11 -9 22 -4 54 23 22 18 34 34 28 35 -34 4 -38 6 -36 17 2 7 -2
12 -7 12 -6 0 -10 6 -10 13 0 8 7 14 15 14 8 0 12 -4 9 -9 -3 -4 1 -8 8 -8 7
0 19 -9 26 -20 7 -11 19 -20 27 -20 18 0 20 -46 3 -54 -10 -5 -10 -7 0 -12 6
-3 12 -17 12 -30 0 -24 20 -35 20 -11 1 7 6 4 15 -7 7 -10 17 -16 22 -13 13 8
46 -20 38 -33 -4 -7 -16 -10 -26 -7 -10 3 -22 1 -25 -4 -3 -5 6 -9 19 -9 26 0
52 -23 43 -38 -3 -6 5 -9 19 -8 14 0 25 6 25 12 0 14 28 39 36 32 2 -3 0 -17
-5 -32 -7 -17 -7 -26 -1 -26 6 0 10 6 10 14 0 8 7 17 16 20 8 3 12 10 9 16
-10 16 5 12 32 -10 14 -11 31 -20 38 -20 9 0 9 -11 -2 -47 -35 -120 -57 -183
-63 -183 -4 0 -10 -11 -12 -25 -3 -13 -2 -22 3 -19 16 9 42 71 83 196 38 115
43 125 59 114 9 -7 17 -25 17 -39 0 -14 5 -29 10 -32 6 -3 10 -16 11 -28 1
-18 2 -17 9 7 7 21 5 35 -7 52 -22 34 -30 109 -11 101 12 -4 14 5 10 45 -3 36
-1 49 7 44 6 -4 11 0 11 9 0 10 -5 14 -12 10 -7 -4 -5 0 4 8 10 8 16 16 14 18
-2 2 2 10 10 17 8 7 14 10 14 7 0 -3 9 -1 20 5 23 12 64 4 54 -11 -3 -5 0 -8
8 -7 20 4 43 41 39 62 -1 11 7 27 21 38 l23 18 -35 0 c-37 0 -105 21 -120 36
-6 6 -6 23 -1 44 5 19 12 49 15 65 l6 30 -14 -25 c-7 -14 -17 -42 -20 -64 -9
-48 -27 -35 -30 22 -1 22 -7 47 -14 55 -6 7 -9 16 -6 20 10 10 -16 189 -31
211 -19 27 -19 55 1 63 8 3 44 -2 80 -12 74 -20 98 -44 83 -82 -13 -34 -11
-41 6 -19 18 24 19 68 3 84 -17 17 -8 15 79 -17 87 -32 209 -101 293 -166 30
-23 109 -72 175 -108 67 -36 130 -76 141 -89 34 -37 159 -220 182 -263 21 -43
51 -136 106 -340 37 -135 112 -509 216 -1080 33 -181 70 -357 81 -390 13 -37
25 -112 32 -197 12 -160 3 -235 -44 -332 -32 -66 -33 -70 -19 -61 12 8 13 -6
1 -38 -6 -15 -6 -41 0 -67 7 -30 6 -58 -1 -89 -6 -25 -12 -51 -12 -58 -1 -7
-5 -10 -10 -7 -4 3 -8 -5 -9 -18 0 -13 -3 -17 -6 -10 -2 6 -9 12 -14 12 -6 0
-7 -4 -4 -10 3 -5 2 -10 -3 -10 -6 0 -13 -16 -16 -35 -5 -23 -11 -32 -21 -29
-13 5 -42 -32 -37 -48 1 -4 -7 -10 -18 -13 -11 -4 -20 -15 -20 -26 0 -11 -7
-19 -16 -19 -12 0 -14 -3 -6 -13 7 -8 7 -18 2 -27 -9 -13 -10 -13 -10 0 0 8
-14 -13 -30 -46 -15 -34 -34 -65 -41 -69 -8 -5 -10 -4 -5 3 4 7 2 12 -3 12 -6
0 -11 -9 -11 -20 0 -11 -6 -20 -13 -20 -6 0 -26 -15 -44 -34 -17 -19 -33 -32
-36 -30 -3 3 -31 -18 -63 -45 -33 -28 -93 -77 -134 -108 -41 -32 -81 -63 -88
-70 -7 -7 -18 -13 -23 -13 -6 0 -17 -7 -26 -15 -8 -8 -19 -13 -24 -9 -5 3 -8
0 -7 -8 3 -12 -2 -14 -44 -17 -10 0 -18 -8 -18 -16 0 -9 -8 -19 -17 -22 -10
-4 -33 -19 -52 -34 -31 -25 -36 -26 -46 -12 -11 14 -13 13 -18 -7 -4 -14 -10
-19 -18 -14 -7 4 -10 3 -6 -3 4 -6 -3 -17 -16 -26 -31 -21 -117 -169 -117
-203 0 -82 -56 -331 -120 -539 -11 -33 -30 -99 -44 -146 -14 -48 -35 -97 -47
-110 -11 -13 -18 -18 -14 -11 8 15 6 15 -34 1 -27 -10 -32 -16 -28 -35 4 -25
-14 -49 -34 -42 -9 3 -8 8 3 18 11 11 14 31 10 87 -5 72 5 127 35 207 9 25 11
42 4 49 -14 14 -34 -31 -69 -153 -47 -162 -60 -186 -94 -181 -4 0 -20 2 -37 3
-17 1 -33 9 -36 16 -14 38 27 239 56 278 17 22 -4 22 -28 0 -17 -16 -35 -60
-63 -159 -51 -178 -63 -201 -98 -192 -50 13 -92 15 -92 5 0 -6 5 -10 11 -10 6
0 3 -7 -5 -16 -9 -8 -21 -24 -27 -35 -10 -20 -9 -20 20 -4 28 14 46 5 20 -10
-6 -4 -8 -13 -5 -21 3 -8 -1 -14 -10 -14 -8 0 -12 5 -9 10 3 6 1 10 -4 10 -6
0 -11 -6 -11 -12 0 -7 -5 -5 -11 5 -16 27 -7 103 11 100 13 -2 13 -1 -1 9 -18
12 -17 14 38 221 19 71 33 141 31 155 -4 23 -8 18 -33 -38 -16 -36 -59 -125
-96 -197 -37 -73 -65 -133 -61 -133 4 0 2 -4 -5 -8 -7 -4 -13 -22 -15 -40 -1
-21 -7 -31 -15 -28 -7 3 -15 1 -18 -4 -7 -11 -44 21 -38 33 8 13 -7 7 -32 -15
-29 -25 -33 -56 -7 -65 24 -9 33 -26 19 -35 -8 -5 -6 -8 6 -8 10 0 15 -4 12
-10 -3 -5 -17 -10 -30 -10 -37 0 -51 59 -37 152 18 118 31 170 52 220 25 58
26 81 2 52 -19 -25 -57 -39 -66 -26 -6 10 35 70 64 92 11 8 53 78 93 155 41
77 82 154 91 170 9 17 25 56 37 87 11 31 31 73 45 93 14 21 23 39 21 41 -2 2
-26 -2 -53 -10 -27 -7 -89 -19 -139 -26 -49 -6 -100 -16 -113 -21 -13 -5 -37
-9 -55 -8 -23 0 1 11 83 39 101 33 184 63 310 112 35 13 58 36 72 70 7 17 5
17 -21 4 -16 -9 -31 -12 -35 -9 -3 4 -6 0 -6 -7 0 -7 -3 -11 -6 -8 -3 3 -33
-5 -67 -19 -69 -28 -179 -51 -249 -52 -27 0 -56 -4 -65 -9 -16 -9 -145 -26
-263 -36 -99 -8 -82 10 55 54 75 24 138 47 141 52 4 7 -33 13 -58 9 -4 0 -5 8
-3 19 3 15 -2 20 -16 20 -11 0 -18 -4 -14 -9 7 -12 -12 -24 -25 -16 -8 5 -8
11 -1 19 6 7 7 16 3 20 -4 4 -2 7 3 6 6 -1 19 -2 29 -1 35 2 7 15 -37 16 -72
3 -157 17 -157 26 0 5 24 10 53 10 28 1 65 4 81 8 l29 6 -42 18 c-25 11 -52
16 -66 13 -19 -5 -23 -3 -19 9 4 8 1 15 -5 15 -6 0 -11 -5 -11 -11 0 -5 -5 -7
-10 -4 -6 4 -1 15 14 26 17 13 41 19 83 20 32 1 81 2 108 2 73 2 138 -5 153
-16 9 -7 11 -5 5 8 -5 15 -3 17 13 11 28 -11 123 -28 172 -31 30 -1 42 2 42
12 0 9 -12 13 -37 13 -52 -1 -113 10 -113 21 0 5 7 9 15 9 8 0 15 7 15 16 0
17 18 16 135 -1 11 -2 23 -4 28 -4 4 -1 7 -7 7 -13 0 -17 120 -58 187 -65 49
-5 52 -4 67 25 11 21 12 33 5 37 -5 4 -14 18 -19 31 -8 20 -16 24 -50 24 -22
0 -40 4 -40 10 0 5 -22 19 -50 31 -27 12 -50 25 -50 28 0 4 -16 15 -35 24 -19
9 -34 22 -33 29 2 8 -9 14 -24 16 -16 2 -28 -2 -28 -8 0 -8 -6 -8 -21 1 -13 7
-19 7 -15 1 11 -18 -31 -23 -68 -8 -20 8 -38 11 -41 6 -3 -5 -20 -4 -38 1 -17
5 -58 6 -89 3 -49 -6 -58 -4 -58 9 0 20 14 24 125 37 84 10 234 33 298 46 70
14 6 19 -246 17 -149 -1 -279 1 -287 4 -8 4 -19 7 -24 7 -5 1 -11 7 -14 14 -2
7 2 10 10 7 7 -2 24 4 38 15 18 14 20 20 9 20 -8 0 -20 -5 -25 -10 -7 -7 -21
6 -43 41 -42 64 -45 85 -11 81 27 -3 106 -21 130 -29 19 -7 73 -3 80 6 5 6 21
8 149 16 40 3 80 10 87 16 10 8 14 8 14 0 0 -6 7 -11 16 -11 8 0 12 4 9 10 -4
6 5 7 23 4 16 -3 65 1 108 10 44 9 115 24 159 32 44 9 96 21 115 27 19 6 58
11 85 13 50 3 98 8 169 20 25 4 36 3 32 -4 -3 -6 0 -13 6 -16 9 -4 8 -5 -2 -4
-8 1 -31 -6 -50 -14 -19 -9 -51 -19 -70 -23 -19 -4 -53 -16 -74 -26 -22 -11
-43 -19 -47 -19 -3 0 -24 -8 -45 -17 -42 -18 -53 -21 -97 -26 -15 -2 -32 -8
-38 -14 -16 -16 70 -25 137 -14 33 5 71 7 85 4 26 -5 52 5 244 90 44 20 93 37
108 39 22 3 38 20 75 75 90 135 129 182 270 331 57 61 55 48 32 182 -21 117
-41 214 -48 224 -3 6 -7 16 -8 21 -1 6 -14 55 -29 110 -15 55 -38 152 -51 215
-91 439 -119 610 -128 780 -7 117 -32 295 -36 250 -1 -14 -1 -37 0 -52 1 -14
-3 -29 -9 -33 -6 -3 -11 -1 -11 5 0 6 -4 8 -10 5 -5 -3 -10 2 -11 12 0 10 -3
13 -5 7 -3 -6 5 -45 16 -85 24 -85 61 -307 66 -391 1 -32 6 -63 10 -69 5 -8 3
-9 -6 -4 -10 6 -12 4 -6 -11 4 -10 4 -15 0 -12 -9 10 -57 -49 -49 -61 3 -6 23
-20 44 -31 21 -12 46 -35 55 -52 22 -37 30 -84 16 -93 -5 -3 -10 -15 -10 -26
0 -20 -20 -25 -36 -9 -7 7 -16 4 -28 -8 -14 -16 -15 -26 -7 -63 14 -58 13 -75
-2 -91 -7 -7 -12 -22 -12 -33 0 -11 -6 -28 -14 -37 -7 -10 -11 -27 -8 -39 4
-15 0 -23 -13 -26 -11 -3 -22 -18 -25 -34 -4 -17 -13 -29 -22 -29 -11 0 -13
-3 -5 -13 8 -9 8 -17 0 -27 -8 -12 -9 -11 -4 4 5 15 2 17 -19 12 -16 -4 -24
-2 -23 5 3 13 -40 20 -48 7 -3 -4 5 -8 18 -8 20 0 21 -2 7 -15 -11 -11 -22
-13 -47 -5 -20 5 -43 5 -57 0 -19 -7 -23 -6 -18 5 3 8 0 15 -5 15 -6 0 -14 -9
-17 -21 -6 -18 -9 -19 -28 -6 -29 18 -57 28 -56 19 4 -21 -4 -32 -33 -46 -17
-9 -32 -15 -32 -14 -1 2 -7 13 -14 26 -11 19 -10 25 3 38 8 9 15 20 15 25 0
13 -53 7 -72 -9 -9 -8 -21 -11 -26 -8 -6 3 -13 -1 -16 -10 -11 -27 -7 -37 9
-24 12 10 18 10 30 0 16 -13 49 -73 35 -65 -20 12 -18 -15 2 -29 12 -9 17 -16
10 -16 -6 0 -12 -4 -12 -10 0 -5 7 -10 15 -10 8 0 15 5 15 11 0 5 5 7 10 4 6
-4 7 -11 4 -17 -4 -6 -3 -8 2 -5 6 3 16 -8 23 -25 11 -25 17 -29 39 -23 16 4
28 1 34 -7 6 -10 10 -10 19 2 9 13 10 12 5 -2 -3 -10 0 -18 6 -18 6 0 1 -11
-12 -25 -22 -23 -22 -25 -4 -27 30 -2 37 -1 64 6 19 6 22 5 10 -3 -13 -9 -12
-12 8 -17 12 -4 22 -10 22 -16 0 -9 5 -17 45 -62 28 -32 32 -51 11 -59 -26
-10 -146 11 -179 32 -19 12 -44 21 -57 21 -15 0 -20 4 -16 15 3 10 -2 16 -17
19 -33 7 -90 17 -110 19 -11 1 -15 7 -12 15 4 11 -2 13 -26 10 -19 -3 -33 0
-36 8 -3 8 -24 11 -64 10 -32 -1 -59 1 -59 5 0 3 -16 6 -36 7 -21 1 -42 9 -49
18 -7 10 -19 15 -29 11 -9 -4 -16 -2 -16 4 0 6 -4 8 -9 5 -4 -3 -26 4 -47 15
-21 11 -49 18 -61 16 -13 -2 -23 0 -23 6 0 5 -7 4 -15 -3 -13 -11 -14 -10 -9
5 5 13 4 16 -4 11 -7 -4 -12 -2 -12 4 0 6 -18 10 -42 10 -63 -2 -181 11 -194
21 -6 5 -51 10 -100 10 -178 2 -209 4 -222 17 -7 6 -24 13 -38 13 -44 3 -68
15 -59 30 9 13 -9 11 -23 -3 -9 -9 -12 -8 -12 5 0 9 -3 17 -8 17 -4 0 -13 14
-21 31 -8 18 -25 35 -43 41 -21 8 -26 13 -18 23 8 9 3 14 -20 18 -17 4 -30 13
-30 21 0 24 -20 29 -35 10 -13 -18 -14 -18 -34 0 -12 11 -21 23 -21 28 0 12
21 10 34 -5 6 -7 10 -10 9 -8 -1 2 3 13 9 25 6 11 7 18 3 14 -15 -14 -34 25
-23 46 9 16 6 23 -13 39 -16 12 -23 30 -25 55 -1 35 -3 37 -38 38 -20 0 -42 6
-48 12 -7 7 -22 12 -35 12 -13 0 -23 4 -23 8 0 5 -19 16 -42 25 -23 9 -39 19
-36 22 3 4 34 -6 69 -21 87 -36 219 -36 219 1 0 9 6 12 18 8 14 -5 14 -3 -3
14 -11 11 -28 18 -37 15 -24 -6 -70 16 -91 45 -17 22 -17 26 -3 66 15 39 15
45 -2 90 -10 26 -21 44 -25 41 -4 -4 -7 -2 -7 5 0 7 -5 9 -10 6 -6 -4 -8 -9
-6 -13 2 -4 -23 -8 -55 -9 -63 -2 -71 6 -44 41 8 11 15 27 15 36 0 22 28 47
62 55 17 4 29 16 32 31 4 15 11 22 18 18 6 -4 8 -3 4 4 -3 5 0 13 6 15 31 13
-64 -7 -125 -26 -82 -25 -91 -20 -88 59 2 69 14 88 53 80 29 -6 43 6 34 29 -3
10 -13 11 -33 6 -25 -7 -29 -4 -49 36 -12 23 -20 51 -18 60 2 10 -5 29 -17 43
-11 14 -17 19 -13 11 4 -9 2 -12 -7 -9 -8 3 -19 -2 -26 -11 -11 -14 -12 -12
-13 15 0 16 -4 34 -9 40 -5 5 -11 46 -14 91 -3 46 -8 87 -12 93 -8 13 -8 160
0 168 4 4 12 -1 19 -11 11 -15 13 -12 10 23 -3 49 -13 68 -25 49 -10 -17 -29
-19 -48 -5 -11 8 -13 8 -8 -1 4 -6 3 -14 -2 -17 -11 -7 3 -76 17 -85 6 -3 13
-20 17 -36 5 -23 4 -26 -4 -15 -13 19 -14 5 -1 -20 7 -14 6 -17 -7 -16 -9 0
-18 -5 -20 -12 -3 -7 1 -10 11 -6 23 9 34 -26 13 -38 -10 -5 -17 -14 -17 -20
0 -7 4 -7 13 1 10 8 14 7 14 -4 0 -7 -5 -13 -10 -12 -5 1 -14 -12 -19 -30 -18
-66 -26 -38 -32 110 -5 146 -6 170 -9 210 -1 18 -2 18 -15 0 -7 -10 -11 -28
-9 -41 3 -14 0 -21 -7 -19 -6 3 -10 9 -9 14 1 5 -5 10 -13 10 -7 0 -14 -4 -14
-8 0 -14 -42 -17 -68 -3 -33 17 -46 18 -36 2 4 -7 3 -8 -4 -4 -7 4 -12 14 -12
23 0 11 -4 13 -12 6 -18 -14 -54 -22 -65 -14 -16 11 -43 165 -43 249 0 72 4
90 30 141 31 61 66 97 107 107 19 5 32 -1 57 -25 31 -31 66 -41 66 -20 0 6 8
8 19 4 15 -4 23 5 41 50 12 30 26 53 30 50 4 -3 11 2 14 10 3 8 10 14 15 13 5
-2 20 8 34 22 51 51 56 53 63 26 6 -25 -20 -144 -35 -159 -5 -5 -20 -10 -34
-10 -14 -1 -23 -5 -21 -9 2 -4 0 -9 -6 -13 -13 -8 -13 -42 -1 -47 14 -5 -9
-31 -49 -55 -49 -30 -119 -53 -162 -53 -39 0 -48 -10 -25 -28 29 -23 195 -39
250 -24 28 8 37 7 41 -4 9 -24 -17 -54 -54 -61 -60 -11 -81 -63 -32 -81 30
-11 100 -10 120 1 6 5 12 3 12 -2 0 -6 -5 -11 -12 -11 -8 0 -6 -6 5 -17 14
-14 19 -15 29 -4 11 10 9 11 -6 5 -14 -5 -17 -3 -14 7 3 8 13 13 24 12 10 -1
23 4 28 12 6 7 23 20 38 30 l27 16 -5 -38 c-3 -21 -5 -46 -5 -56 0 -10 -6 -20
-14 -23 -8 -3 -11 -12 -8 -20 3 -8 -1 -14 -10 -14 -8 0 -18 6 -20 13 -3 6 -6
2 -6 -11 -1 -17 -11 -28 -38 -39 -21 -9 -42 -16 -48 -14 -5 1 -7 -1 -3 -5 4
-4 3 -13 -3 -21 -9 -10 -6 -13 12 -13 13 -1 41 -7 61 -14 31 -11 41 -11 68 2
18 9 34 20 36 26 2 6 20 11 39 10 19 -1 32 2 29 7 -3 5 6 14 20 21 24 10 30
20 27 41 0 4 4 7 10 7 6 0 8 7 5 16 -3 8 -2 13 3 10 5 -3 34 -58 65 -122 31
-64 59 -114 62 -112 2 3 -2 18 -10 34 -47 91 -59 136 -43 158 13 17 15 17 39
-5 14 -13 27 -33 29 -43 2 -10 14 -23 27 -27 20 -8 22 -6 17 11 -5 17 -2 20
24 20 16 0 33 5 37 11 5 8 9 8 14 -1 4 -7 13 -9 19 -5 9 5 9 11 0 22 -11 12
-10 14 2 13 26 -4 104 1 93 6 -14 6 -7 43 13 66 17 19 53 20 46 1 -5 -12 9
-18 31 -14 5 1 4 -4 -2 -12 -18 -21 -5 -43 23 -42 33 2 39 9 26 34 -9 17 -9
20 3 15 8 -3 13 -16 11 -29 -1 -14 2 -22 7 -19 5 3 7 12 4 19 -2 7 -1 16 4 21
5 5 2 24 -7 43 -15 29 -18 31 -24 15 -6 -17 -8 -17 -17 6 -6 17 -6 29 0 37 6
7 8 20 4 28 -8 23 4 45 24 45 11 0 22 5 25 10 3 6 16 11 28 11 16 1 14 3 -8 8
-27 6 -30 10 -28 41 2 24 0 31 -7 20 -5 -8 -7 -17 -5 -21 3 -3 -6 -4 -18 -2
-14 3 -23 12 -24 24 -2 17 0 18 13 4 19 -19 28 -19 21 -2 -4 10 7 13 43 11 38
-1 47 1 43 12 -3 8 0 14 6 14 6 0 11 -7 11 -15 0 -19 7 -19 26 -1 10 11 11 15
2 18 -7 3 -5 7 6 11 9 4 15 3 12 -2 -13 -20 23 -30 92 -26 44 2 74 -1 78 -7 4
-7 2 -8 -4 -4 -7 4 -12 2 -12 -4 0 -7 7 -9 16 -6 9 3 20 6 25 6 6 0 7 5 3 11
-4 7 1 7 16 -1 17 -9 19 -14 10 -20 -14 -9 -7 -40 9 -40 5 0 11 7 14 14 4 11
1 13 -11 10 -14 -5 -15 -4 -2 5 22 15 28 14 35 -10 4 -12 1 -27 -9 -37 -10
-12 -12 -22 -6 -32 8 -13 10 -12 10 3 0 9 16 32 36 51 21 20 31 35 24 38 -9 3
-8 24 5 88 9 46 19 90 22 97 3 7 -2 13 -11 13 -9 0 -16 7 -16 15 0 8 -4 15
-10 15 -5 0 -10 7 -10 15 0 8 -4 15 -10 15 -5 0 -10 5 -10 11 0 13 -25 39 -39
39 -5 0 -9 9 -8 20 1 11 7 20 14 20 13 0 17 17 14 53 -1 9 3 17 8 17 6 0 11 7
11 15 0 7 6 18 14 22 8 4 15 17 18 28 2 11 10 20 18 20 8 0 16 10 18 23 2 12
8 22 13 22 5 0 9 6 9 14 0 8 6 16 14 19 8 3 12 16 11 31 -2 14 1 24 6 21 5 -4
27 22 49 57 22 35 44 68 50 75 5 7 10 17 10 23 0 6 7 13 15 16 17 7 21 34 5
34 -5 0 -10 -4 -10 -10 0 -19 -110 -120 -132 -120 -27 -1 -61 -24 -51 -34 4
-4 -1 -4 -11 0 -14 5 -17 4 -12 -5 4 -6 4 -11 -1 -10 -16 4 -63 -14 -71 -27
-9 -16 -96 -30 -177 -27 -86 2 -98 4 -120 19 -11 8 -38 14 -60 15 -22 0 -34 3
-27 6 18 7 4 23 -22 23 -12 0 -28 6 -35 13 -10 8 -12 8 -7 0 4 -8 -1 -11 -14
-10 -22 1 -26 12 -7 21 6 3 0 4 -15 1 -22 -4 -27 -1 -30 17 -2 16 -10 23 -28
25 -14 0 -31 1 -37 2 -7 1 -13 9 -13 18 0 9 -3 13 -7 10 -10 -10 -54 34 -46
46 3 6 1 7 -6 3 -7 -5 -16 4 -25 24 -7 17 -26 40 -42 51 -16 10 -25 19 -20 19
5 0 2 7 -5 16 -7 9 -18 26 -24 38 -6 11 -17 21 -25 21 -9 0 -14 9 -13 19 1 11
-5 26 -13 34 -10 10 -13 25 -8 49 5 24 3 34 -4 30 -20 -13 -44 82 -48 198 -1
44 -5 87 -7 95 -13 40 -14 60 -1 70 15 14 37 4 28 -12 -4 -6 -3 -8 2 -5 5 3
33 -16 61 -42 l52 -48 98 4 c111 4 174 21 230 62 38 28 77 91 87 142 3 15 14
37 24 49 24 30 51 21 84 -30 14 -22 56 -73 93 -112 104 -111 110 -142 30 -147
-31 -1 -54 -9 -68 -22 -18 -17 -29 -19 -62 -13 -22 3 -56 6 -75 5 -19 -1 -55
-3 -80 -4 l-45 -2 -3 38 c-2 20 -7 37 -11 37 -15 0 -75 -70 -60 -71 8 0 4 -5
-9 -11 -13 -6 -21 -17 -18 -24 7 -18 -30 -58 -45 -48 -9 5 -10 1 -6 -15 3 -13
3 -20 0 -17 -4 3 -15 -1 -25 -10 -13 -13 -37 -17 -95 -16 -100 1 -119 -4 -101
-26 10 -12 10 -14 1 -8 -8 4 -13 1 -13 -8 0 -9 6 -16 13 -16 18 -1 54 -34 58
-54 2 -9 7 -17 12 -17 4 1 17 -9 28 -20 17 -17 19 -23 8 -30 -11 -7 -10 -9 4
-9 13 0 17 8 17 40 0 43 25 66 59 55 19 -6 22 -11 45 -79 14 -43 36 -60 36
-27 0 38 49 50 106 26 20 -8 45 -15 55 -15 29 0 32 19 5 30 -31 12 -33 31 -5
56 16 15 22 16 29 5 5 -9 14 -11 26 -6 22 10 21 10 134 29 47 8 96 17 109 20
14 3 30 1 37 -5 6 -5 18 -8 25 -7 8 2 14 -5 14 -17 0 -12 -7 -20 -17 -20 -19
0 -21 -6 -12 -30 3 -8 10 -12 15 -9 5 3 6 10 3 16 -4 6 -2 8 4 4 6 -3 13 -2
17 4 3 5 26 23 50 40 57 39 80 30 89 -35 13 -81 27 -37 25 75 -2 116 -4 123
-31 133 -11 4 -16 14 -13 26 2 11 1 20 -3 20 -4 -1 -10 0 -14 1 -5 1 -11 3
-16 4 -4 0 -25 20 -46 44 -21 23 -54 49 -72 58 -49 23 -42 34 24 34 31 0 91 9
132 20 64 17 81 26 113 61 20 23 40 54 44 68 13 57 33 82 61 79 24 -3 28 -9
44 -78z m-1052 35 c0 -8 -4 -15 -10 -15 -5 0 -10 7 -10 15 0 8 5 15 10 15 6 0
10 -7 10 -15z m-180 -10 c0 -8 5 -15 10 -15 6 0 10 -9 10 -19 0 -23 31 -35 65
-27 15 4 25 1 29 -9 3 -8 13 -15 22 -15 13 0 14 -3 4 -15 -11 -13 -9 -13 16 0
34 17 146 30 171 20 17 -6 17 -7 -2 -21 -19 -15 -18 -15 9 -8 30 7 50 21 94
62 31 30 36 24 23 -26 -24 -88 -90 -131 -217 -141 -45 -4 -97 -3 -115 2 -39
10 -84 43 -70 51 13 8 10 47 -3 43 -13 -4 -52 31 -43 39 3 4 0 13 -8 21 -17
16 -20 73 -5 73 6 0 10 -7 10 -15z m434 0 c3 -8 1 -15 -4 -15 -6 0 -10 7 -10
15 0 8 2 15 4 15 2 0 6 -7 10 -15z m333 -24 c35 1 75 8 89 16 30 15 95 17 110
4 10 -10 86 -32 91 -27 2 2 -3 11 -12 20 -9 9 -12 16 -7 16 5 0 15 -7 23 -16
11 -14 15 -13 31 8 l19 23 -7 -30 c-17 -71 -66 -106 -179 -126 -144 -25 -237
20 -270 130 l-7 24 28 -22 c23 -18 39 -22 91 -20z m57 -302 c16 -17 40 -38 53
-46 12 -8 23 -20 23 -25 0 -5 7 -16 15 -24 36 -36 20 -42 -99 -41 -77 0 -120
-4 -129 -12 -8 -6 -46 -12 -84 -13 -38 0 -105 -11 -153 -24 -46 -13 -89 -24
-96 -24 -15 0 -13 51 3 68 7 8 18 33 24 57 13 53 37 62 74 27 15 -14 40 -25
56 -26 16 -1 29 -4 29 -8 0 -16 69 -8 82 10 7 9 37 28 67 42 29 13 60 35 68
47 20 30 32 29 67 -8z m720 -825 c3 -8 2 -12 -4 -9 -6 3 -10 10 -10 16 0 14 7
11 14 -7z m-1989 -114 c-10 -11 -20 -18 -23 -15 -7 6 18 35 31 35 5 0 2 -9 -8
-20z m-157 -135 c10 -22 9 -25 -7 -25 -21 0 -31 17 -23 38 7 19 18 14 30 -13z
m1487 -14 c3 -5 1 -12 -5 -16 -5 -3 -10 1 -10 9 0 18 6 21 15 7z m30 -61 c3
-5 1 -10 -4 -10 -6 0 -11 5 -11 10 0 6 2 10 4 10 3 0 8 -4 11 -10z m435 -106
c0 -8 -5 -12 -10 -9 -6 4 -8 11 -5 16 9 14 15 11 15 -7z m-1640 -48 c0 -3 -4
-15 -9 -29 -7 -19 -17 -24 -48 -25 l-38 -1 35 30 c30 25 60 38 60 25z m120
-108 c-11 -46 -21 -68 -30 -68 -25 0 -12 65 17 88 22 16 22 17 13 -20z m521
-41 c-10 -9 -11 -8 -5 6 3 10 9 15 12 12 3 -3 0 -11 -7 -18z m54 12 c11 -17
-1 -21 -15 -4 -8 9 -8 15 -2 15 6 0 14 -5 17 -11z m-1010 -179 c-3 -5 -16 -10
-28 -9 -21 0 -21 1 -2 9 28 12 37 12 30 0z m132 -311 c-13 -18 -13 -23 9 -44
28 -28 31 -45 7 -45 -25 -1 -51 -22 -46 -38 3 -7 -1 -10 -11 -6 -9 3 -16 15
-16 26 0 15 5 19 20 15 22 -6 23 -5 14 17 -3 8 -12 12 -20 9 -8 -3 -14 1 -14
11 0 9 5 16 11 16 8 0 8 4 0 14 -9 10 -8 16 4 26 8 7 15 9 15 6 0 -4 8 -2 18
3 24 15 25 14 9 -10z m8 -139 c3 -6 -1 -7 -9 -4 -18 7 -21 14 -7 14 6 0 13 -4
16 -10z m85 -186 c0 -8 -5 -12 -10 -9 -6 4 -8 11 -5 16 9 14 15 11 15 -7z
m284 -510 c3 -8 2 -12 -4 -9 -6 3 -10 10 -10 16 0 14 7 11 14 -7z m1558 -376
c-15 -15 -24 -6 -16 16 5 12 10 14 17 7 8 -8 8 -14 -1 -23z m-1317 -8 c3 -5 1
-10 -4 -10 -6 0 -11 5 -11 10 0 6 2 10 4 10 3 0 8 -4 11 -10z m1450 -20 c-3
-5 -12 -10 -18 -10 -7 0 -6 4 3 10 19 12 23 12 15 0z m-51 -89 c3 -5 -1 -11
-9 -14 -9 -4 -12 -1 -8 9 6 16 10 17 17 5z m16 -61 c0 -5 -4 -10 -10 -10 -5 0
-10 5 -10 10 0 6 5 10 10 10 6 0 10 -4 10 -10z m-1125 -115 c39 -13 90 -26
115 -30 25 -4 59 -14 75 -23 36 -19 53 -24 82 -23 12 0 24 -3 27 -7 2 -4 22
-7 45 -6 22 0 38 -3 36 -7 -5 -8 44 -24 60 -20 39 11 63 10 74 -3 7 -8 21 -12
32 -9 12 4 25 0 29 -8 5 -7 29 -14 54 -15 26 -1 44 2 40 7 -3 5 0 9 6 9 6 0
16 -12 23 -27 9 -21 18 -27 35 -25 12 2 29 -4 38 -12 19 -20 38 -21 31 -2 -4
10 -1 13 9 9 7 -3 14 -10 14 -15 0 -6 9 -8 20 -5 11 3 20 1 20 -5 0 -5 9 -6
20 -3 11 4 20 2 20 -4 0 -6 -8 -11 -17 -11 -13 0 -14 -3 -5 -12 15 -15 42 -19
42 -6 0 6 7 8 15 4 9 -3 15 0 15 9 0 8 5 15 11 15 6 0 9 -7 5 -15 -3 -8 -1
-15 4 -15 6 0 10 -7 10 -15 0 -14 9 -17 72 -19 14 0 24 -4 22 -8 -8 -13 17
-19 32 -7 11 9 18 9 26 1 6 -6 17 -8 24 -5 8 3 14 -1 14 -10 0 -8 -7 -18 -16
-21 -21 -8 -10 -22 33 -45 22 -11 32 -21 24 -25 -6 -4 -11 -2 -11 4 0 6 -5 8
-12 3 -7 -4 -24 -9 -38 -11 -14 -2 -34 -12 -45 -22 -20 -18 -80 -28 -227 -36
-35 -2 -87 -6 -115 -10 -47 -5 -53 -4 -53 13 -1 17 -2 17 -13 1 -9 -11 -18
-14 -27 -8 -23 14 -132 4 -168 -15 -18 -9 -54 -17 -81 -17 -27 1 -57 -5 -67
-13 -12 -9 -14 -14 -6 -15 7 0 11 -4 8 -9 -3 -5 -29 -9 -58 -9 -42 0 -56 -4
-70 -22 -13 -16 -25 -21 -41 -16 -16 4 -27 -1 -37 -14 -8 -11 -24 -20 -37 -20
-12 0 -26 -7 -31 -17 -9 -14 -10 -14 -16 5 -4 12 -5 26 -2 31 4 5 -8 19 -24
31 -17 12 -29 27 -27 33 2 7 -6 20 -17 30 -12 10 -15 16 -9 12 24 -12 -20 50
-52 75 -18 14 -30 30 -28 37 4 9 0 11 -13 6 -14 -5 -16 -3 -11 11 4 9 3 15 -2
12 -5 -3 -11 1 -15 9 -3 8 0 17 6 21 6 4 8 3 5 -2 -3 -6 5 -10 18 -10 14 0 22
2 19 6 -3 3 -11 5 -16 5 -6 0 -13 6 -16 14 -3 10 0 12 12 8 10 -4 15 -3 11 3
-3 6 1 10 10 10 9 0 15 -7 13 -16 -3 -19 30 -28 48 -13 8 7 14 6 19 -1 4 -6
19 -9 35 -6 16 2 40 -2 54 -10 15 -7 34 -10 43 -7 15 6 14 7 -3 14 -11 4 4 7
38 7 49 -1 57 -3 62 -21 9 -37 17 -12 8 29 -7 35 -11 39 -41 42 -23 2 -31 7
-27 18 3 8 1 14 -4 14 -6 0 -10 5 -10 11 0 6 8 9 18 7 9 -2 16 -9 15 -16 -2
-7 4 -9 13 -5 15 5 14 7 -1 16 -13 7 -14 11 -5 17 8 5 -3 10 -28 15 -22 3 -51
15 -63 26 -12 10 -29 19 -37 19 -9 0 -12 3 -9 6 4 4 -21 27 -56 51 -34 24 -69
57 -79 74 -9 17 -25 37 -35 45 -16 13 -15 14 12 8 17 -3 62 -17 100 -29z m740
-165 c19 -8 19 -9 -2 -9 -12 -1 -25 4 -28 9 -7 12 2 12 30 0z m1740 -570 c3
-6 -1 -7 -9 -4 -18 7 -21 14 -7 14 6 0 13 -4 16 -10z m-209 -168 c18 -12 25
-42 9 -42 -9 0 -12 6 -9 15 5 12 -2 15 -27 15 -19 0 -41 -5 -49 -10 -13 -9
-13 -12 3 -21 9 -6 15 -15 11 -20 -3 -6 3 -13 15 -16 12 -3 21 -13 21 -23 0
-13 11 -19 45 -25 25 -3 43 -10 40 -15 -3 -5 6 -12 20 -16 15 -4 28 -15 31
-30 3 -13 11 -22 18 -21 6 1 10 -8 9 -20 -3 -26 24 -32 45 -11 17 17 28 2 12
-17 -10 -12 -10 -15 4 -15 9 0 16 5 16 11 0 5 4 8 9 5 5 -3 7 -15 4 -26 -4
-15 0 -20 15 -20 26 0 40 -20 15 -21 -11 0 -13 -3 -5 -6 7 -3 24 -16 37 -29
13 -13 31 -24 40 -24 8 0 15 -7 15 -15 0 -8 -5 -15 -11 -15 -7 0 -8 -7 -4 -17
4 -10 8 -22 9 -28 1 -5 5 -15 9 -22 4 -6 4 -18 1 -26 -4 -13 1 -15 27 -10 26
4 31 2 26 -11 -4 -9 -1 -15 6 -13 7 1 12 -7 12 -18 0 -11 -6 -21 -12 -21 -7
-1 -15 -2 -17 -3 -3 0 1 -13 9 -28 10 -19 11 -31 4 -40 -12 -14 -4 -33 14 -33
8 0 7 3 -2 9 -17 11 -5 32 14 25 8 -3 11 -12 8 -21 -4 -11 -2 -14 5 -9 8 4 10
2 6 -8 -4 -11 5 -18 35 -26 22 -6 43 -10 48 -9 19 3 33 -2 33 -11 0 -13 -114
-3 -142 12 -26 13 -127 19 -104 6 17 -9 17 -11 -1 -31 -10 -13 -12 -17 -3 -11
8 7 24 8 35 4 17 -6 15 -8 -13 -12 -23 -3 -37 1 -49 14 -9 10 -13 18 -9 18 4
0 2 8 -3 19 -6 11 -21 19 -36 19 -22 0 -25 -5 -25 -33 0 -19 4 -35 10 -37 5
-1 7 -13 4 -25 -7 -25 -40 -26 -54 -2 -7 10 -29 14 -74 14 -63 0 -66 -1 -71
-27 -4 -15 -4 -32 0 -37 3 -6 -2 -19 -11 -30 -16 -19 -18 -19 -32 -3 -13 16
-13 16 -8 -1 4 -11 2 -16 -5 -12 -5 4 -7 15 -4 26 6 19 -9 27 -20 9 -9 -14
-35 0 -35 19 -1 13 -3 13 -18 -4 -10 -12 -26 -19 -39 -17 -25 4 -76 59 -67 73
3 5 0 9 -6 9 -6 0 -12 -6 -14 -12 -2 -7 -8 -28 -14 -47 -10 -30 -9 -33 7 -28
14 3 17 0 14 -13 -3 -10 -13 -20 -23 -23 -14 -4 -20 3 -25 32 -4 20 -12 39
-18 43 -7 4 -7 11 3 23 7 9 9 15 4 13 -14 -4 -74 66 -74 86 0 11 -4 14 -12 10
-10 -6 -10 -5 -1 7 10 13 10 16 -2 16 -8 0 -15 -4 -15 -8 0 -4 -6 -9 -12 -12
-8 -3 -14 6 -15 24 -2 24 2 29 20 30 l22 0 -22 9 c-13 5 -23 14 -23 20 0 5 -7
10 -15 10 -8 0 -15 6 -15 14 0 8 -9 17 -19 21 -25 8 -39 85 -22 121 6 14 11
36 11 49 0 29 53 137 83 169 12 12 36 40 52 61 47 59 101 90 182 102 27 4 34
1 41 -17 7 -20 9 -20 22 -5 11 13 11 21 2 35 -9 15 -7 21 11 34 24 16 65 20
83 8z m-1631 -72 c-3 -5 -12 -7 -20 -3 -21 7 -19 13 6 13 11 0 18 -4 14 -10z
m-192 -177 c-7 -2 -21 -2 -30 0 -10 3 -4 5 12 5 17 0 24 -2 18 -5z m452 -3 c3
-5 1 -10 -4 -10 -6 0 -11 5 -11 10 0 6 2 10 4 10 3 0 8 -4 11 -10z m-763 -192
c-7 -7 -12 -8 -12 -2 0 14 12 26 19 19 2 -3 -1 -11 -7 -17z m2514 -43 c13 -13
13 -15 1 -15 -8 0 -17 7 -21 15 -3 8 -3 15 0 15 3 0 12 -7 20 -15z m74 -100
c7 -9 8 -15 2 -15 -5 0 -12 7 -16 15 -3 8 -4 15 -2 15 2 0 9 -7 16 -15z
m-2450 -23 c0 -5 -64 -14 -142 -21 -79 -7 -179 -16 -223 -22 -87 -10 -171 -12
-163 -4 5 6 178 31 278 41 30 4 56 7 57 8 7 6 193 4 193 -2z m2434 -17 c3 -8
1 -15 -3 -15 -5 0 -11 7 -15 15 -3 8 -1 15 3 15 5 0 11 -7 15 -15z m-877 -37
c-3 -7 -5 -2 -5 12 0 14 2 19 5 13 2 -7 2 -19 0 -25z m923 -8 c0 -11 -4 -20
-10 -20 -5 0 -10 9 -10 20 0 11 5 20 10 20 6 0 10 -9 10 -20z m-15 -151 c22
-12 42 -24 45 -28 3 -4 16 -12 30 -19 22 -11 17 -11 -35 -6 -33 3 -72 6 -88 6
-27 1 -27 1 -11 25 8 14 13 27 10 31 -3 3 -6 1 -6 -5 0 -6 -7 -13 -15 -17 -13
-4 -14 -2 -5 14 14 25 26 25 75 -1z m-665 -9 c8 -5 12 -11 10 -14 -3 -2 -14 2
-24 10 -22 15 -10 19 14 4z m43 -60 c3 -11 3 -20 1 -20 -2 0 -8 9 -14 20 -6
11 -7 20 -2 20 6 0 12 -9 15 -20z m-1373 -660 c-24 -34 -37 -38 -37 -12 0 24
16 42 39 42 19 0 19 -1 -2 -30z m-173 -45 c0 -18 -19 -15 -25 3 -2 7 3 12 11
12 7 0 14 -7 14 -15z m118 -15 c3 -6 -1 -7 -9 -4 -18 7 -21 14 -7 14 6 0 13
-4 16 -10z m2200 -1350 c8 -13 -5 -13 -25 0 -13 8 -13 10 2 10 9 0 20 -4 23
-10z m-330 -445 c101 -23 147 -41 166 -63 16 -20 19 -21 46 -7 15 8 35 15 44
15 18 0 44 -43 35 -58 -3 -5 6 -18 21 -27 38 -25 70 -64 94 -115 37 -78 111
-188 195 -290 71 -86 84 -108 99 -167 9 -37 32 -126 51 -198 31 -115 33 -136
24 -182 -22 -119 -83 -168 -158 -129 -30 16 -80 67 -105 109 -16 24 -23 27
-72 27 -34 0 -55 -4 -55 -11 0 -8 14 -10 40 -6 42 5 67 -9 28 -17 -62 -13
-181 -25 -189 -20 -14 8 -39 -15 -39 -36 0 -10 5 -20 11 -22 17 -6 189 11 228
22 19 5 37 8 39 6 14 -14 -146 -56 -213 -56 -52 0 -83 18 -78 44 4 21 4 21
-11 2 -9 -11 -16 -25 -16 -31 0 -6 -13 -24 -30 -40 -16 -16 -28 -31 -25 -33 7
-7 -73 -42 -95 -42 -30 0 -81 26 -93 47 -7 11 -22 39 -35 62 -18 33 -28 41
-51 41 l-28 0 -7 113 c-8 130 -8 126 0 194 4 35 1 62 -9 85 -8 18 -17 40 -20
50 -3 9 -29 23 -62 32 -70 21 -75 33 -75 170 0 74 4 107 15 122 10 14 13 33 8
69 -8 66 1 55 22 -25 23 -92 74 -220 102 -253 17 -21 23 -41 23 -78 0 -36 9
-68 30 -111 19 -38 30 -75 30 -102 0 -23 7 -51 15 -62 8 -10 15 -15 15 -10 0
5 10 1 21 -10 22 -19 22 -19 16 8 -10 37 23 134 67 201 21 32 34 62 30 68 -4
7 -3 9 3 6 6 -4 20 9 32 28 19 32 41 47 41 27 0 -12 -56 -98 -69 -106 -6 -4
-11 -12 -11 -17 0 -6 10 -3 22 5 17 12 51 16 148 16 69 1 149 6 178 13 l53 13
-35 17 c-20 9 -36 21 -36 26 0 5 13 3 30 -5 20 -10 35 -12 46 -6 15 8 14 12
-10 27 -19 13 -58 20 -134 25 -113 8 -126 6 -118 -15 3 -8 -2 -19 -9 -25 -15
-13 -15 -13 -30 35 -8 25 -63 18 -90 -11 -14 -15 -25 -30 -25 -35 0 -4 -9 -11
-21 -14 -24 -8 -59 19 -59 47 0 23 112 78 160 78 28 0 31 2 20 15 -19 22 -92
19 -120 -5 -27 -23 -40 -25 -62 -7 -27 21 -28 44 -3 67 22 20 32 22 90 18 l66
-6 -3 32 c-3 30 -4 31 -58 34 -30 2 -64 -2 -76 -8 -11 -7 -32 -10 -45 -8 -33
4 -38 49 -10 77 18 18 29 20 79 15 31 -4 61 -10 67 -15 19 -18 25 -8 9 16 -13
20 -14 28 -4 40 20 24 4 30 -72 30 -67 0 -71 1 -75 24 -4 31 -6 33 -27 25 -21
-8 -20 -20 4 -44 25 -25 19 -39 -15 -32 -31 6 -43 43 -24 78 10 19 18 24 34
19 11 -4 36 -8 55 -9 19 -1 52 -13 73 -25 21 -13 40 -21 42 -19 3 3 -8 29 -25
59 -17 32 -30 69 -30 90 0 37 0 37 -32 29 -81 -21 -93 -27 -96 -48 -3 -19 -9
-21 -53 -20 -54 1 -61 7 -74 66 -6 28 -3 36 14 48 12 9 21 23 21 33 0 45 62
50 215 16z m175 -21 c0 -19 -4 -33 -9 -30 -5 4 -8 14 -6 24 2 9 4 23 4 30 2
28 11 9 11 -24z m-221 -110 c46 -9 38 -24 -14 -24 -35 0 -43 3 -39 15 7 17 9
17 53 9z m-159 -133 c0 -9 6 -23 13 -30 10 -11 9 -13 -1 -7 -12 7 -52 79 -52
93 1 16 40 -40 40 -56z m88 -174 c12 -29 22 -56 22 -61 0 -16 -37 39 -48 73
-14 40 -14 41 -4 41 5 0 18 -24 30 -53z m39 -159 c-3 -7 -5 -2 -5 12 0 14 2
19 5 13 2 -7 2 -19 0 -25z m23 -140 c0 -31 3 -38 13 -31 6 6 20 13 29 16 30
10 10 -17 -24 -33 -17 -8 -40 -31 -50 -50 -14 -27 -18 -30 -18 -14 0 12 7 41
15 64 8 23 15 56 15 72 0 17 4 27 10 23 6 -3 10 -24 10 -47z m-2500 -223 c60
-44 108 -98 116 -130 12 -47 -2 -46 -36 2 -19 26 -59 74 -89 106 -30 31 -51
57 -46 57 4 0 29 -16 55 -35z m3040 -184 c0 -9 -66 -22 -179 -36 -43 -6 -53
-4 -49 6 3 10 38 17 114 25 60 6 110 12 112 13 1 0 2 -3 2 -8z m40 -65 c0 -2
-15 -13 -33 -24 -64 -37 -259 -57 -271 -27 -4 12 8 15 72 16 43 0 103 9 137
19 60 18 95 24 95 16z m30 -41 c0 -2 -10 -14 -22 -25 -56 -52 -251 -78 -325
-44 -51 25 -26 37 36 18 65 -22 160 -10 242 30 53 25 69 30 69 21z m60 -19 c0
-23 -11 -46 -20 -41 -4 3 -13 -2 -20 -10 -7 -8 -20 -15 -29 -14 -12 0 -11 3 5
10 11 6 25 24 31 40 12 30 33 40 33 15z m52 -28 c-7 -7 -12 -8 -12 -2 0 14 12
26 19 19 2 -3 -1 -11 -7 -17z m-497 -66 c5 -12 16 -23 25 -25 8 -3 -3 -3 -25
-1 -38 3 -70 27 -59 45 9 16 49 3 59 -19z m-101 -7 c-6 -16 -24 -21 -24 -7 0
11 11 22 21 22 5 0 6 -7 3 -15z"/>
<path d="M13906 14915 c-9 -26 -7 -32 5 -12 6 10 9 21 6 23 -2 3 -7 -2 -11
-11z"/>
<path d="M14660 14781 c0 -5 6 -14 14 -20 12 -10 13 -8 9 8 -5 21 -23 30 -23
12z"/>
<path d="M14407 14743 c-10 -10 -8 -43 2 -43 9 0 21 24 21 41 0 11 -14 12 -23
2z"/>
<path d="M14600 14733 c0 -17 4 -20 22 -15 16 4 18 7 8 10 -8 3 -18 10 -22 16
-5 6 -8 2 -8 -11z"/>
<path d="M14450 14730 c0 -5 5 -10 10 -10 6 0 10 5 10 10 0 6 -4 10 -10 10 -5
0 -10 -4 -10 -10z"/>
<path d="M14550 14720 c0 -14 7 -20 23 -20 16 0 18 3 8 9 -7 5 -10 14 -7 20 4
6 0 11 -8 11 -9 0 -16 -9 -16 -20z"/>
<path d="M14076 14691 c-4 -5 -2 -12 4 -16 6 -4 8 -11 5 -16 -4 -5 1 -9 9 -9
19 0 20 9 2 33 -8 11 -17 14 -20 8z"/>
<path d="M14115 14631 c-3 -5 6 -21 19 -36 l24 -26 -2 24 c-1 17 -5 23 -16 19
-13 -5 -13 -3 -1 11 12 15 11 17 -2 17 -9 0 -18 -4 -22 -9z"/>
<path d="M14479 14624 c-6 -8 -4 -14 6 -18 8 -3 15 -1 15 5 0 6 7 6 19 -1 26
-14 31 -13 25 5 -4 8 -1 15 5 15 6 0 11 -4 11 -10 0 -15 26 -12 40 5 12 14 6
16 -49 13 -34 -2 -67 -8 -72 -14z"/>
<path d="M14840 14218 c0 -19 2 -20 10 -8 13 19 13 30 0 30 -5 0 -10 -10 -10
-22z"/>
<path d="M14880 14050 c-6 -11 -8 -20 -6 -20 3 0 10 9 16 20 6 11 8 20 6 20
-3 0 -10 -9 -16 -20z"/>
<path d="M15031 13779 c18 -11 52 -11 45 0 -3 5 -17 9 -32 9 -18 0 -22 -3 -13
-9z"/>
<path d="M15222 13668 c-18 -18 -15 -33 4 -17 13 10 17 10 25 -2 7 -11 9 -9 9
9 0 24 -19 29 -38 10z"/>
<path d="M14693 13640 c1 -11 4 -20 8 -20 10 0 19 27 12 34 -12 12 -22 5 -20
-14z"/>
<path d="M15165 13650 c-3 -5 -2 -10 4 -10 5 0 13 5 16 10 3 6 2 10 -4 10 -5
0 -13 -4 -16 -10z"/>
<path d="M13356 13566 c3 -9 11 -16 16 -16 13 0 5 23 -10 28 -7 2 -10 -2 -6
-12z"/>
<path d="M13116 13495 c-4 -10 1 -15 16 -15 17 0 18 2 8 15 -7 8 -14 15 -15
15 -2 0 -5 -7 -9 -15z"/>
<path d="M14225 13500 c3 -5 8 -10 11 -10 2 0 4 5 4 10 0 6 -5 10 -11 10 -5 0
-7 -4 -4 -10z"/>
<path d="M13530 13485 c0 -8 4 -15 10 -15 5 0 7 7 4 15 -4 8 -8 15 -10 15 -2
0 -4 -7 -4 -15z"/>
<path d="M14650 13480 c0 -11 7 -20 15 -20 17 0 18 2 9 24 -9 23 -24 20 -24
-4z"/>
<path d="M13551 13444 c0 -11 3 -14 6 -6 3 7 2 16 -1 19 -3 4 -6 -2 -5 -13z"/>
<path d="M14329 13430 c-3 -26 -5 -122 -2 -112 3 6 9 10 14 7 5 -4 6 8 2 26
-4 21 -2 34 8 40 12 7 11 11 -3 26 -10 9 -18 15 -19 13z"/>
<path d="M15226 13384 c-5 -14 -4 -15 9 -4 17 14 19 20 6 20 -5 0 -12 -7 -15
-16z"/>
<path d="M14371 13374 c0 -11 3 -14 6 -6 3 7 2 16 -1 19 -3 4 -6 -2 -5 -13z"/>
<path d="M14565 13369 c-11 -4 -14 -8 -7 -8 6 -1 12 -11 12 -23 0 -16 3 -19
11 -11 6 6 9 20 7 30 -2 16 -7 18 -23 12z"/>
<path d="M14460 13319 c0 -23 4 -30 16 -27 9 2 21 13 25 26 5 14 5 21 0 17 -5
-3 -12 -1 -16 5 -12 20 -25 9 -25 -21z"/>
<path d="M13609 12782 c14 -26 14 -35 1 -27 -6 4 -10 -5 -10 -20 0 -24 1 -25
16 -11 18 19 15 67 -4 74 -11 3 -12 0 -3 -16z"/>
<path d="M13935 12760 c-11 -5 -39 -9 -63 -9 -39 -1 -42 -3 -28 -16 17 -17 36
-20 36 -4 0 5 4 7 10 4 9 -6 70 21 70 30 0 6 1 6 -25 -5z"/>
<path d="M13676 12565 c4 -8 8 -15 10 -15 2 0 4 7 4 15 0 8 -4 15 -10 15 -5 0
-7 -7 -4 -15z"/>
<path d="M13886 12213 c-11 -12 -6 -51 9 -66 32 -33 64 -4 51 47 -5 21 -45 34
-60 19z"/>
<path d="M13976 12144 c-4 -9 -4 -19 -1 -22 2 -3 7 3 11 12 4 9 4 19 1 22 -2
3 -7 -3 -11 -12z"/>
<path d="M13907 12075 c-9 -22 8 -26 21 -4 10 15 10 19 -2 19 -8 0 -16 -7 -19
-15z"/>
<path d="M13971 12014 c0 -11 3 -14 6 -6 3 7 2 16 -1 19 -3 4 -6 -2 -5 -13z"/>
<path d="M15718 11963 c7 -3 16 -2 19 1 4 3 -2 6 -13 5 -11 0 -14 -3 -6 -6z"/>
<path d="M15595 11920 c3 -5 12 -7 20 -3 21 7 19 13 -6 13 -11 0 -18 -4 -14
-10z"/>
<path d="M15211 11904 c9 -11 8 -18 -2 -31 -11 -15 -11 -16 1 -5 8 6 24 12 37
12 13 0 23 5 23 10 0 6 1 13 3 18 1 4 -15 7 -36 8 -30 1 -35 -1 -26 -12z"/>
<path d="M15300 11860 c0 -5 5 -10 10 -10 6 0 10 5 10 10 0 6 -4 10 -10 10 -5
0 -10 -4 -10 -10z"/>
<path d="M15277 11833 c-10 -9 -9 -23 1 -23 5 0 9 7 9 15 0 17 -1 18 -10 8z"/>
<path d="M15310 11824 c0 -9 5 -14 12 -12 18 6 21 28 4 28 -9 0 -16 -7 -16
-16z"/>
<path d="M15190 11820 c0 -5 5 -10 10 -10 6 0 10 5 10 10 0 6 -4 10 -10 10 -5
0 -10 -4 -10 -10z"/>
<path d="M15300 11790 c0 -5 9 -10 20 -10 11 0 20 5 20 10 0 6 -9 10 -20 10
-11 0 -20 -4 -20 -10z"/>
<path d="M15737 10976 c-3 -7 -23 -18 -46 -25 -23 -6 -41 -16 -41 -21 0 -5 -9
-11 -20 -15 -11 -3 -42 -22 -70 -41 -63 -43 -250 -135 -262 -128 -4 3 -8 0 -8
-7 0 -7 -8 -9 -21 -6 -23 6 -69 -11 -69 -25 0 -5 -9 -6 -20 -3 -11 4 -39 0
-63 -9 -23 -8 -55 -17 -70 -21 -45 -9 -23 -22 50 -29 71 -7 242 13 265 31 22
17 50 24 42 11 -5 -8 2 -9 26 -5 18 4 41 7 51 7 34 0 299 256 299 288 0 13
-38 11 -43 -2z m-492 -256 c-3 -5 -12 -10 -18 -10 -7 0 -6 4 3 10 19 12 23 12
15 0z"/>
<path d="M14520 10896 c0 -2 7 -7 16 -10 8 -3 12 -2 9 4 -6 10 -25 14 -25 6z"/>
<path d="M14628 10843 c7 -3 16 -2 19 1 4 3 -2 6 -13 5 -11 0 -14 -3 -6 -6z"/>
<path d="M14568 10823 c7 -3 16 -2 19 1 4 3 -2 6 -13 5 -11 0 -14 -3 -6 -6z"/>
<path d="M14838 10643 c7 -3 16 -2 19 1 4 3 -2 6 -13 5 -11 0 -14 -3 -6 -6z"/>
<path d="M14875 10440 c3 -5 8 -10 11 -10 2 0 4 5 4 10 0 6 -5 10 -11 10 -5 0
-7 -4 -4 -10z"/>
<path d="M14996 10391 c-18 -7 -18 -8 -2 -14 29 -11 88 -8 81 4 -4 6 -13 8
-21 5 -7 -3 -16 -1 -19 4 -7 11 -13 12 -39 1z"/>
<path d="M14605 10350 c-18 -8 -18 -9 5 -8 14 0 36 4 50 8 24 8 24 8 -5 8 -16
0 -39 -3 -50 -8z"/>
<path d="M14638 10293 c-20 -2 -39 -10 -41 -18 -4 -10 3 -12 31 -9 20 2 52 5
71 7 19 2 36 8 38 13 4 11 -33 13 -99 7z"/>
<path d="M14823 10195 c-43 -19 -42 -26 2 -12 19 6 35 14 35 19 0 10 2 10 -37
-7z"/>
<path d="M14908 10203 c7 -3 16 -2 19 1 4 3 -2 6 -13 5 -11 0 -14 -3 -6 -6z"/>
<path d="M15295 11330 c-3 -5 -1 -10 4 -10 6 0 11 5 11 10 0 6 -2 10 -4 10 -3
0 -8 -4 -11 -10z"/>
<path d="M14580 11301 c0 -6 4 -12 10 -16 5 -3 7 -13 4 -23 -5 -13 -4 -14 4
-3 11 15 4 51 -9 51 -5 0 -9 -4 -9 -9z"/>
<path d="M16365 10610 c-3 -5 -1 -10 4 -10 6 0 11 5 11 10 0 6 -2 10 -4 10 -3
0 -8 -4 -11 -10z"/>
<path d="M16971 10124 c0 -11 3 -14 6 -6 3 7 2 16 -1 19 -3 4 -6 -2 -5 -13z"/>
<path d="M16986 10077 c3 -10 9 -15 12 -12 3 3 0 11 -7 18 -10 9 -11 8 -5 -6z"/>
<path d="M16835 10020 c4 -6 11 -8 16 -5 14 9 11 15 -7 15 -8 0 -12 -5 -9 -10z"/>
<path d="M16895 9971 c-3 -5 -2 -12 3 -15 5 -3 9 1 9 9 0 17 -3 19 -12 6z"/>
<path d="M16340 9880 c0 -5 5 -10 11 -10 5 0 7 5 4 10 -3 6 -8 10 -11 10 -2 0
-4 -4 -4 -10z"/>
<path d="M16765 7240 c-3 -5 1 -10 9 -10 9 0 16 5 16 10 0 6 -4 10 -9 10 -6 0
-13 -4 -16 -10z"/>
<path d="M16695 7160 c3 -5 8 -10 11 -10 2 0 4 5 4 10 0 6 -5 10 -11 10 -5 0
-7 -4 -4 -10z"/>
<path d="M17114 7124 c5 -10 11 -27 13 -36 3 -10 12 -18 20 -18 14 0 52 -38
53 -52 0 -5 -6 -8 -14 -8 -28 0 -28 -22 -1 -50 16 -16 32 -27 37 -24 11 7 68
-34 68 -50 0 -8 -7 -19 -15 -26 -21 -17 -21 -84 0 -76 22 8 65 -11 65 -29 0
-9 -9 -15 -26 -15 -15 0 -23 -4 -19 -11 4 -6 13 -8 21 -5 8 3 14 1 14 -4 0
-13 -7 -13 -45 1 -21 8 -52 9 -91 4 l-59 -8 92 -13 c50 -7 110 -22 132 -33 33
-17 40 -25 39 -51 -1 -16 -5 -27 -10 -24 -4 3 -8 1 -8 -5 0 -5 27 -22 61 -37
66 -30 148 -111 150 -148 0 -18 2 -16 11 7 8 22 7 38 -5 65 -31 79 -47 139
-41 156 5 13 -10 35 -58 84 -35 37 -72 79 -81 93 -8 14 -58 71 -109 125 -51
54 -104 113 -116 131 -13 18 -37 42 -54 55 -29 20 -31 21 -24 2z m226 -305 c0
-34 -16 -20 -27 24 l-11 42 19 -24 c10 -13 19 -32 19 -42z m35 -69 c9 -16 11
-30 6 -30 -5 0 -14 14 -20 30 -5 17 -8 30 -6 30 3 0 11 -13 20 -30z m73 -115
c4 -6 30 -27 58 -48 29 -20 55 -45 59 -54 5 -14 2 -13 -17 3 -32 30 -62 44
-92 44 -27 0 -35 15 -13 23 9 4 9 7 0 14 -6 5 -17 22 -22 38 -11 28 -10 29 5
10 8 -11 18 -25 22 -30z"/>
<path d="M17150 6938 c0 -14 32 -133 39 -141 4 -4 15 -5 23 -2 22 9 4 74 -33
117 -15 18 -28 30 -29 26z"/>
<path d="M16840 6905 c-13 -16 -7 -45 10 -45 5 0 10 14 10 30 0 34 -3 36 -20
15z"/>
<path d="M17074 6785 c-8 -21 4 -65 17 -65 7 0 9 10 4 28 -4 15 -8 33 -8 40 0
16 -6 15 -13 -3z"/>
<path d="M16874 6756 c-4 -10 -2 -22 4 -28 8 -8 13 -7 18 6 4 10 2 22 -4 28
-8 8 -13 7 -18 -6z"/>
<path d="M16897 6623 c-10 -9 -9 -23 2 -23 5 0 11 7 15 15 5 15 -5 20 -17 8z"/>
<path d="M17193 6193 c-7 -2 -13 -9 -13 -15 0 -6 6 -6 15 2 8 6 18 9 24 6 5
-3 20 -2 33 3 21 9 20 10 -12 10 -19 -1 -41 -3 -47 -6z"/>
</g>
</svg>
