<?xml version="1.0" standalone="no"?>
<!DOCTYPE svg PUBLIC "-//W3C//DTD SVG 20010904//EN"
 "http://www.w3.org/TR/2001/REC-SVG-20010904/DTD/svg10.dtd">
<svg version="1.0" xmlns="http://www.w3.org/2000/svg"
 width="4032.000000pt" height="3024.000000pt" viewBox="0 0 4032.000000 3024.000000"
 preserveAspectRatio="xMidYMid meet">

<g transform="translate(0.000000,3024.000000) scale(0.100000,-0.100000)"
fill="#0E292A" stroke="none">
<path d="M0 15120 l0 -15120 20160 0 20160 0 0 15120 0 15120 -20160 0 -20160
0 0 -15120z m12128 -299 c24 -7 52 -9 63 -6 12 4 21 1 25 -9 3 -9 14 -16 23
-16 21 -1 61 -30 40 -30 -8 0 9 -13 36 -29 48 -28 128 -105 119 -114 -3 -3 6
-13 20 -24 17 -14 22 -24 15 -34 -7 -12 -9 -11 -9 2 0 9 -7 19 -15 23 -8 3
-15 1 -15 -4 0 -6 5 -10 11 -10 5 0 7 -5 4 -10 -3 -6 0 -17 8 -25 13 -13 16
-12 22 3 6 16 7 16 19 0 7 -10 15 -16 17 -14 2 3 3 -16 3 -40 -1 -25 -4 -48
-8 -51 -10 -11 -7 -23 7 -23 16 0 39 -108 25 -116 -5 -4 -9 -20 -8 -38 3 -58
2 -61 -22 -39 -27 24 -77 35 -168 36 -95 0 -150 -12 -150 -33 0 -10 -7 -21
-16 -24 -8 -3 -12 -10 -9 -16 3 -6 -1 -7 -10 -4 -9 4 -15 3 -14 -2 1 -5 -1
-17 -6 -27 -5 -13 -10 -15 -15 -7 -11 18 -22 -240 -12 -274 l8 -30 23 23 c12
12 20 29 17 37 -3 9 -2 12 5 9 6 -4 8 -13 5 -21 -3 -8 -1 -14 4 -14 13 0 13
22 0 54 -8 23 -7 26 11 26 11 0 17 5 14 10 -8 13 8 13 22 -1 5 -5 26 -11 45
-12 25 -1 34 -6 30 -16 -4 -11 -1 -11 17 -1 18 9 109 18 210 20 13 0 13 2 -4
83 -2 10 0 15 6 12 5 -4 7 -10 4 -15 -3 -5 -1 -11 5 -15 6 -4 8 -11 5 -16 -4
-5 3 -9 14 -9 23 0 28 15 9 23 -8 3 -6 6 5 6 9 1 17 -4 17 -10 0 -6 7 -17 15
-25 10 -10 13 -25 9 -42 -5 -22 -3 -24 6 -12 9 12 10 1 5 -47 -4 -43 -2 -62 6
-65 9 -3 9 -23 -1 -89 -7 -46 -13 -99 -13 -116 0 -24 -5 -33 -18 -33 -11 0
-18 -10 -22 -32 -5 -37 -3 -43 12 -33 6 3 11 17 11 31 0 14 4 23 9 19 19 -11
8 -66 -17 -85 -14 -11 -22 -20 -19 -20 10 0 -23 -103 -54 -165 -34 -70 -92
-145 -82 -107 5 22 3 23 -37 20 -24 -2 -45 -9 -48 -15 -2 -7 1 -13 8 -13 6 0
8 5 5 10 -3 6 1 10 9 10 8 0 20 -9 26 -20 6 -12 7 -20 1 -20 -5 0 -12 6 -15
13 -4 6 -4 2 -2 -9 5 -29 -10 -55 -19 -32 -4 9 -13 14 -21 11 -10 -3 -11 -9
-5 -17 7 -8 0 -11 -25 -10 -28 2 -34 -2 -34 -18 0 -18 -2 -19 -17 -7 -15 12
-16 12 -10 -3 3 -10 2 -20 -2 -23 -5 -3 -11 2 -15 10 -3 8 -1 17 5 20 5 4 7
11 4 16 -3 5 1 6 9 3 9 -4 16 -1 16 6 0 8 -8 10 -22 6 -13 -3 -26 -6 -30 -6
-11 0 -5 -44 7 -53 5 -5 0 -6 -12 -2 -15 4 -25 0 -31 -12 -10 -17 -11 -17 -31
1 -21 19 -21 19 -43 0 -20 -18 -21 -18 -15 -1 5 12 3 16 -4 11 -7 -4 -19 3
-28 15 -15 19 -21 21 -45 12 -15 -6 -41 -11 -57 -11 -17 0 -43 -7 -58 -15 -16
-8 -31 -11 -35 -8 -3 4 -6 2 -6 -3 0 -5 -9 -10 -20 -11 -67 -6 -95 -4 -98 6
-2 6 -13 11 -23 11 -11 0 -30 5 -42 12 -12 7 -32 11 -44 9 -22 -2 -108 47 -98
57 8 8 -16 32 -26 27 -8 -6 -52 28 -100 78 -15 15 -32 27 -38 27 -6 0 -16 12
-22 28 -5 15 -21 48 -34 73 -23 44 -33 89 -55 259 -5 41 -14 93 -20 115 -14
57 -12 115 5 182 8 31 15 91 15 133 0 66 5 86 41 170 23 52 48 103 56 112 8 9
12 21 9 27 -4 5 -3 12 2 15 4 2 9 21 10 42 2 20 7 45 13 55 7 13 6 19 -2 19
-6 0 -13 -9 -16 -19 -3 -11 -12 -22 -20 -26 -13 -4 -14 -3 -4 9 7 8 10 19 8
23 -3 5 25 37 61 71 37 34 82 76 99 93 19 17 38 27 44 23 8 -4 9 -3 5 4 -9 15
118 76 204 98 63 16 84 23 133 44 44 19 165 20 235 1z m-795 -396 c-3 -9 -8
-14 -10 -11 -3 3 -2 9 2 15 9 16 15 13 8 -4z m1124 -318 c1 -2 -9 -10 -25 -18
-15 -8 -30 -18 -33 -22 -3 -5 -27 -5 -53 -2 -38 6 -44 10 -35 21 8 10 8 14 0
14 -6 0 -11 4 -11 10 0 8 148 6 157 -3z m-1406 -69 c-5 -15 -18 -24 -35 -26
-29 -4 -31 0 -16 29 6 11 21 19 35 19 21 0 23 -3 16 -22z m1334 -47 c-3 -6
-11 -11 -17 -11 -6 0 -6 6 2 15 14 17 26 13 15 -4z m-1245 -278 c0 -13 -4 -23
-9 -23 -12 0 -18 29 -13 53 6 24 22 2 22 -30z m5 -66 c6 -5 3 -7 -7 -3 -10 3
-18 1 -18 -5 0 -6 -5 -7 -10 -4 -8 5 -7 11 1 21 6 8 15 11 18 7 3 -4 11 -12
16 -16z m59 -100 c8 -21 6 -31 -7 -44 -13 -13 -23 -15 -44 -7 -36 12 -42 42
-12 66 31 24 51 19 63 -15z m105 -252 c8 -16 18 -33 23 -36 6 -3 9 -9 9 -12
-1 -11 34 -67 42 -67 4 0 7 -5 7 -11 0 -6 12 -26 26 -44 14 -19 23 -39 19 -45
-4 -6 -3 -10 2 -9 25 4 35 -3 30 -21 -3 -12 1 -25 11 -33 22 -15 54 -74 57
-101 4 -35 4 -36 19 -30 18 7 34 -22 32 -59 -1 -23 2 -27 16 -24 10 3 18 0 18
-6 -1 -19 -28 -62 -36 -59 -5 2 -10 -2 -13 -9 -2 -8 2 -10 13 -6 14 6 15 3 6
-14 -12 -21 -37 -21 -32 0 1 6 -3 11 -9 11 -7 0 -9 -10 -7 -25 3 -14 1 -25 -3
-25 -5 0 -9 9 -9 20 0 14 -7 20 -22 20 -19 0 -20 -2 -8 -10 11 -7 6 -10 -21
-10 -34 0 -35 1 -31 30 4 26 0 31 -35 45 -34 14 -40 20 -40 47 0 18 -5 34 -11
36 -7 2 -10 8 -6 13 3 5 1 9 -4 9 -13 0 -59 125 -72 195 -6 33 -13 94 -16 135
-2 41 -6 88 -9 103 -4 25 -2 28 18 25 13 -2 28 -15 36 -33z m131 -559 c0 -8
-4 -18 -10 -21 -5 -3 -7 0 -4 9 4 9 -2 16 -18 19 -21 4 -20 4 5 6 17 1 27 -4
27 -13z m1904 -748 c5 -10 7 -10 12 0 9 20 41 14 47 -10 8 -31 -10 -63 -28
-48 -10 8 -19 8 -34 -2 -16 -9 -23 -10 -32 -1 -9 9 -16 7 -30 -10 l-18 -22
-22 22 c-22 22 -22 23 -4 43 13 14 26 19 41 16 14 -4 24 -1 28 9 7 18 32 20
40 3z m109 -42 c9 -7 17 -23 17 -35 0 -38 -31 -19 -43 27 -6 25 0 27 26 8z
m-97 -61 c4 -15 1 -32 -6 -41 -10 -11 -10 -18 -2 -26 17 -17 15 -53 -3 -68
-13 -10 -19 -10 -35 5 -24 22 -26 48 -5 65 14 12 14 15 -1 31 -22 25 -10 59
21 59 18 0 26 -7 31 -25z m124 -58 c0 -25 -2 -27 -21 -17 -11 7 -18 14 -15 17
3 3 1 13 -4 23 -12 23 -2 32 21 17 11 -7 19 -23 19 -40z m-1180 -317 c0 -5 -5
-12 -11 -16 -12 -7 -31 15 -23 28 6 9 34 -1 34 -12z m248 -12 c-6 -18 -28 -21
-28 -4 0 9 7 16 16 16 9 0 14 -5 12 -12z m-339 -64 c-12 -15 -39 -8 -36 9 3
19 20 27 34 15 10 -8 10 -14 2 -24z m46 18 c0 -18 -20 -15 -23 4 -3 10 1 15
10 12 7 -3 13 -10 13 -16z m55 3 c0 -8 -7 -15 -15 -15 -8 0 -15 7 -15 15 0 8
7 15 15 15 8 0 15 -7 15 -15z m50 0 c0 -8 -4 -15 -9 -15 -13 0 -22 16 -14 24
11 11 23 6 23 -9z m48 -3 c2 -7 -3 -12 -12 -12 -9 0 -16 7 -16 16 0 17 22 14
28 -4z m56 10 c8 -13 -11 -35 -23 -28 -16 10 -14 36 3 36 8 0 17 -4 20 -8z
m49 -7 c7 -18 -9 -29 -30 -21 -12 5 -13 9 -3 21 16 19 26 19 33 0z m-357 -6
c10 -17 -13 -36 -27 -22 -12 12 -4 33 11 33 5 0 12 -5 16 -11z m-46 -14 c0 -8
-9 -15 -20 -15 -20 0 -26 11 -13 23 12 13 33 7 33 -8z m448 3 c-6 -18 -28 -21
-28 -4 0 9 7 16 16 16 9 0 14 -5 12 -12z m48 1 c10 -17 -13 -36 -27 -22 -12
12 -4 33 11 33 5 0 12 -5 16 -11z m-546 -14 c0 -8 -7 -15 -15 -15 -8 0 -15 7
-15 15 0 8 7 15 15 15 8 0 15 -7 15 -15z m575 -4 c3 -5 2 -12 -3 -15 -5 -3 -9
1 -9 9 0 17 3 19 12 6z m-107 -34 c2 -10 -3 -17 -12 -17 -10 0 -16 9 -16 21 0
24 23 21 28 -4z m44 -19 c-15 -15 -26 -4 -18 18 5 13 9 15 18 6 9 -9 9 -15 0
-24z m46 10 c18 -18 15 -28 -8 -28 -13 0 -20 7 -20 20 0 23 10 26 28 8z m-750
-16 c2 -7 -3 -12 -12 -12 -9 0 -16 7 -16 16 0 17 22 14 28 -4z m477 -13 c0 -7
-8 -15 -17 -17 -18 -3 -25 18 -11 32 10 10 28 1 28 -15z m-102 5 c9 -10 -4
-34 -19 -34 -8 0 -14 9 -14 20 0 19 19 27 33 14z m57 -3 c0 -13 -26 -32 -33
-24 -14 13 -6 33 13 33 11 0 20 -4 20 -9z m90 -7 c0 -9 -5 -14 -12 -12 -18 6
-21 28 -4 28 9 0 16 -7 16 -16z m55 -4 c0 -22 -29 -18 -33 3 -3 14 1 18 15 15
10 -2 18 -10 18 -18z m-310 -11 c0 -7 -8 -15 -17 -17 -18 -3 -25 18 -11 32 10
10 28 1 28 -15z m55 6 c0 -8 -7 -15 -15 -15 -8 0 -15 7 -15 15 0 8 7 15 15 15
8 0 15 -7 15 -15z m300 0 c0 -8 -4 -15 -10 -15 -5 0 -10 7 -10 15 0 8 5 15 10
15 6 0 10 -7 10 -15z m58 -8 c2 -10 -3 -17 -12 -17 -18 0 -29 16 -21 31 9 14
29 6 33 -14z m-513 -15 c0 -18 -20 -15 -23 4 -3 10 1 15 10 12 7 -3 13 -10 13
-16z m585 -8 c0 -17 -22 -14 -28 4 -2 7 3 12 12 12 9 0 16 -7 16 -16z m-312
-17 c2 -10 -3 -17 -12 -17 -10 0 -16 9 -16 21 0 24 23 21 28 -4z m102 3 c0
-11 -7 -20 -15 -20 -15 0 -21 21 -8 33 12 13 23 7 23 -13z m53 -9 c-3 -12 -11
-17 -19 -14 -21 8 -17 33 5 33 14 0 18 -5 14 -19z m47 -6 c0 -9 -6 -12 -15 -9
-8 4 -15 10 -15 15 0 5 7 9 15 9 8 0 15 -7 15 -15z m-552 -48 c2 -10 -3 -17
-12 -17 -18 0 -29 16 -21 31 9 14 29 6 33 -14z m1547 -7 c4 -6 10 -8 14 -6 5
4 6 -77 0 -94 -1 -3 -1 -9 0 -14 1 -4 -5 -19 -14 -32 -8 -13 -14 -34 -14 -46
l2 -23 4 23 c2 12 9 22 14 22 13 0 11 -137 -2 -161 -7 -15 -7 -24 1 -34 9 -10
7 -22 -6 -47 -9 -18 -21 -36 -27 -39 -5 -4 -9 -18 -9 -33 0 -27 -23 -54 -35
-42 -4 4 -1 12 7 17 13 9 13 10 0 6 -10 -3 -14 -14 -12 -39 2 -23 -2 -39 -13
-48 -13 -10 -13 -15 -3 -21 10 -6 8 -12 -7 -23 -16 -12 -17 -16 -6 -30 12 -14
11 -16 -5 -10 -18 5 -18 5 -1 -9 17 -14 16 -15 -4 -20 -17 -5 -20 -9 -12 -19
8 -10 6 -19 -7 -36 -17 -20 -19 -21 -23 -5 -3 10 -5 3 -6 -14 0 -18 -6 -33
-12 -33 -5 0 -8 -4 -5 -9 3 -5 -2 -8 -11 -7 -10 0 -18 -5 -19 -11 -1 -7 -2
-15 -3 -18 0 -3 -1 -8 -2 -12 -1 -5 -5 -16 -11 -27 -7 -13 -7 -16 1 -12 6 4
11 3 11 -2 0 -5 6 -9 14 -9 8 0 12 6 9 14 -3 8 3 13 17 13 12 0 18 4 15 11 -4
6 -13 8 -19 6 -7 -3 -19 -2 -26 3 -9 6 -7 11 10 20 18 10 21 9 15 -1 -6 -9 -3
-11 9 -6 10 4 19 1 22 -8 7 -18 -19 -71 -34 -68 -7 2 -12 -2 -12 -8 0 -6 -83
-94 -183 -195 -101 -101 -181 -187 -178 -190 3 -4 1 -4 -6 0 -7 4 -27 -9 -49
-33 -19 -22 -39 -40 -42 -39 -12 2 -47 -15 -54 -26 -4 -6 -11 -11 -16 -11 -12
0 -42 -32 -36 -38 3 -3 -3 -3 -14 0 -12 3 -25 -2 -33 -14 -8 -11 -21 -22 -29
-26 -27 -12 -53 -31 -77 -56 -14 -15 -23 -19 -23 -10 0 10 -3 10 -12 1 -10
-10 -10 -15 2 -22 12 -8 11 -10 -5 -10 -11 0 -32 -6 -47 -14 -15 -8 -37 -12
-48 -9 -19 5 -20 2 -15 -23 3 -16 2 -23 -1 -16 -5 10 -9 10 -20 1 -18 -14 -30
-5 -18 14 5 7 2 5 -7 -5 -10 -10 -29 -22 -43 -28 -18 -7 -24 -14 -19 -26 5
-13 3 -16 -10 -11 -11 4 -17 1 -17 -8 0 -21 -18 -19 -23 3 -4 13 -5 11 -6 -5
-1 -19 -7 -23 -35 -23 -19 0 -37 6 -39 13 -3 6 -6 3 -7 -8 0 -11 -7 -29 -16
-40 -13 -17 -16 -18 -24 -5 -12 19 -12 27 0 35 17 11 10 49 -14 78 l-23 28
-17 -26 -17 -25 -46 35 c-53 40 -75 44 -94 14 -19 -27 -116 -42 -106 -16 4 11
2 14 -9 10 -7 -3 -14 -9 -14 -13 0 -5 -3 -15 -6 -24 -5 -13 2 -14 48 -9 29 3
67 11 83 18 59 25 61 24 102 -18 22 -23 47 -53 57 -67 17 -26 22 -95 7 -105
-6 -3 -24 -30 -40 -59 -24 -41 -31 -66 -31 -107 0 -59 -21 -170 -45 -234 -19
-52 -18 -65 1 -65 13 0 14 3 4 15 -11 13 -8 13 16 5 16 -5 43 -11 59 -14 17
-3 46 -10 65 -16 19 -7 44 -13 55 -15 40 -6 111 -28 160 -51 28 -12 64 -26 80
-30 17 -4 46 -15 65 -25 19 -9 61 -30 93 -45 31 -16 57 -32 57 -36 0 -4 6 -8
14 -8 7 0 34 -22 60 -50 26 -27 60 -57 76 -65 17 -9 30 -22 30 -29 0 -8 11
-21 25 -30 14 -9 25 -21 25 -26 0 -5 16 -35 36 -66 20 -31 43 -77 51 -103 9
-25 22 -55 30 -66 7 -11 13 -28 13 -37 0 -10 4 -26 9 -36 6 -9 13 -30 17 -47
9 -36 7 -30 24 -82 7 -24 17 -43 22 -43 5 0 6 -5 3 -11 -12 -18 -13 -64 -3
-70 15 -9 -6 -43 -39 -64 l-28 -19 28 33 c15 19 26 35 24 37 -1 2 -16 0 -32
-5 -23 -5 -32 -16 -40 -43 -5 -19 -22 -51 -37 -71 -16 -19 -41 -70 -57 -112
-20 -51 -49 -100 -88 -147 -87 -107 -182 -200 -198 -195 -7 3 -15 -3 -18 -15
-4 -14 -11 -19 -22 -14 -9 3 -14 2 -11 -3 6 -9 -47 -51 -64 -51 -5 0 -10 -5
-10 -10 0 -13 -180 -101 -191 -94 -5 3 -9 0 -9 -6 0 -7 -7 -9 -16 -6 -8 3 -13
2 -10 -3 3 -4 -43 -29 -101 -53 -88 -38 -109 -43 -120 -33 -14 15 -17 26 -5
24 19 -3 23 2 12 15 -15 19 -41 10 -33 -11 5 -12 2 -14 -8 -9 -8 4 -3 -1 11
-12 14 -12 22 -23 19 -27 -4 -3 -67 -17 -141 -30 -141 -26 -269 -28 -292 -5
-8 8 -4 9 17 1 18 -7 27 -7 27 -1 0 6 -13 13 -30 17 -16 3 -30 9 -30 14 0 17
-19 9 -25 -11 -6 -18 -8 -19 -34 -5 -16 8 -31 11 -35 8 -3 -4 -6 1 -6 10 0 9
-5 19 -12 23 -8 5 -9 2 -5 -9 5 -13 1 -16 -17 -15 -15 1 -22 7 -19 15 3 7 9
10 14 7 5 -3 9 -1 9 4 0 6 10 12 23 16 12 3 38 19 56 35 19 17 38 28 43 25 4
-3 6 -9 4 -13 -3 -4 4 -8 15 -8 23 -2 24 6 2 22 -15 11 -15 14 5 40 27 34 29
56 3 26 -12 -14 -25 -20 -32 -15 -8 4 -9 3 -5 -5 9 -14 -40 -57 -108 -93 -63
-34 -73 -34 -103 -2 -27 30 -25 41 5 25 28 -15 32 -14 32 9 0 11 -6 20 -14 20
-7 0 -16 14 -20 31 -3 19 -10 28 -17 23 -8 -5 -8 -9 1 -14 8 -5 7 -9 -5 -13
-10 -5 -14 -3 -9 5 5 7 0 9 -14 6 -13 -4 -23 0 -26 8 -3 8 -14 14 -25 14 -11
0 -22 4 -25 9 -3 5 -16 7 -29 5 -12 -2 -16 -2 -9 2 22 10 2 24 -36 24 -35 1
-36 2 -18 15 11 8 15 15 8 15 -6 0 -15 12 -18 26 -4 14 -19 39 -33 55 -21 23
-30 26 -39 17 -9 -9 -12 -7 -12 10 0 12 11 29 25 38 14 9 25 26 25 38 0 31 51
50 137 51 40 0 73 -3 73 -6 0 -9 40 -49 50 -49 5 0 7 7 4 15 -10 26 3 47 23
37 12 -7 24 -4 45 11 31 23 36 37 12 37 -8 0 -13 -3 -11 -7 3 -5 -12 -8 -34
-7 -47 1 -83 35 -77 75 3 21 1 25 -17 22 -17 -4 -20 -11 -18 -46 2 -23 0 -35
-4 -27 -9 21 -35 39 -55 40 -12 0 -16 5 -11 18 5 16 5 16 -8 0 -12 -16 -18
-16 -51 -5 -48 17 -62 32 -23 24 27 -5 31 -3 33 19 1 19 -3 24 -22 24 -14 0
-26 3 -28 8 -6 14 -81 47 -101 44 -10 -2 -24 4 -31 13 -7 10 -25 18 -39 18
-17 0 -27 5 -27 14 0 9 6 13 15 9 11 -4 15 1 14 17 0 12 -3 17 -5 10 -7 -16
-34 -5 -34 14 0 8 -4 11 -10 8 -5 -3 -10 3 -10 13 0 18 -25 37 -43 34 -14 -4
17 37 38 48 12 6 22 18 22 25 0 18 -65 25 -79 8 -6 -7 -14 -13 -19 -13 -17 0
-8 19 26 56 40 42 43 54 15 54 -11 0 -20 5 -20 11 0 8 16 10 50 5 41 -6 49 -4
44 8 -3 8 -12 12 -20 9 -12 -4 -14 0 -8 21 5 22 3 26 -15 26 -12 0 -21 5 -21
10 0 6 7 10 17 10 9 0 14 3 10 6 -3 3 0 12 6 19 9 10 15 10 26 1 11 -8 13 -8
8 0 -4 7 2 14 13 17 20 5 29 37 11 37 -5 0 -17 3 -26 6 -13 5 -15 2 -9 -21 5
-19 3 -26 -4 -21 -6 3 -13 2 -17 -4 -12 -19 -25 0 -15 21 6 11 8 24 5 29 -3 5
5 12 19 16 21 5 23 9 16 35 l-9 29 29 -15 c16 -8 39 -15 51 -15 22 0 22 1 4
13 -11 9 -15 19 -10 27 6 10 9 9 16 -1 7 -12 11 -11 24 2 14 14 14 17 -6 35
-19 17 -22 17 -32 3 -14 -19 -38 -14 -30 7 3 8 1 14 -4 14 -15 0 -12 -33 5
-52 18 -21 0 -25 -20 -5 -7 8 -18 12 -25 10 -6 -2 -14 0 -17 5 -3 6 2 9 12 8
10 0 17 6 17 16 0 9 4 20 8 24 4 4 4 23 1 41 -7 37 -3 40 20 17 14 -14 16 -14
16 0 0 9 -13 19 -32 24 -31 8 -32 10 -29 53 2 36 0 42 -10 32 -17 -17 -26 -16
-33 3 -3 8 -2 12 4 9 19 -12 10 29 -12 52 -19 21 -20 23 -4 23 14 0 16 3 7 13
-6 8 -8 16 -5 19 3 4 1 22 -4 42 -6 21 -7 36 -1 36 5 0 9 7 9 15 0 8 -6 15
-14 15 -19 0 -31 39 -17 53 12 12 -5 51 -19 42 -5 -3 -2 7 7 23 l17 29 19 -21
18 -21 -10 22 c-14 28 -14 26 7 50 9 11 23 18 31 15 8 -3 11 0 7 7 -4 6 -1 11
7 11 22 0 37 23 27 40 -7 10 -10 11 -10 3 0 -7 -4 -13 -10 -13 -5 0 -10 7 -10
15 0 17 26 19 85 5 22 -5 83 -10 135 -11 52 -1 107 -5 122 -10 26 -7 31 -2 81
64 66 89 117 164 117 172 0 3 15 29 33 58 49 77 49 77 38 77 -6 0 -11 -7 -11
-15 0 -10 -11 -15 -32 -15 -54 0 -68 -3 -68 -12 0 -14 -47 -9 -60 7 -7 8 -18
15 -24 14 -7 0 -6 -2 2 -6 6 -2 12 -9 12 -15 0 -6 -7 -8 -15 -4 -8 3 -15 0
-15 -6 0 -6 -9 -3 -20 7 -11 10 -17 23 -13 29 3 6 0 5 -8 -1 -7 -7 -21 -13
-30 -13 -26 0 -78 33 -85 53 -6 20 -24 23 -24 5 0 -9 -4 -8 -10 2 -6 10 -10
11 -10 3 0 -20 -28 -15 -32 4 -3 14 -12 17 -51 14 -42 -2 -48 0 -45 16 2 10 7
21 13 25 5 4 7 9 4 12 -3 3 -14 -2 -25 -12 -20 -18 -64 -26 -64 -11 0 5 4 9
10 9 5 0 7 7 4 15 -4 8 -10 12 -15 9 -5 -3 -9 0 -9 7 0 8 -10 9 -30 5 -19 -3
-29 -2 -25 4 3 5 -3 20 -15 32 -13 15 -19 31 -16 44 5 18 2 21 -12 17 -10 -2
-27 4 -39 14 -26 23 -63 88 -63 112 0 10 -9 21 -20 24 -14 4 -18 11 -14 24 5
15 4 15 -5 3 -8 -12 -13 -12 -23 -2 -9 9 -9 12 0 12 8 0 9 7 2 24 -5 13 -6 27
-3 30 4 3 1 6 -6 6 -7 0 -10 4 -6 9 3 6 -5 20 -17 32 -13 12 -17 19 -10 15 6
-4 12 -3 12 3 0 5 21 13 48 16 26 4 61 11 77 15 17 5 64 18 105 30 41 11 82
25 90 29 9 5 39 12 68 16 41 5 52 4 52 -7 0 -8 -5 -19 -12 -26 -9 -9 -9 -15 0
-24 7 -7 12 -31 12 -54 0 -30 5 -44 18 -49 27 -12 55 -13 74 -4 11 6 19 5 24
-3 4 -7 3 -8 -4 -4 -7 4 -12 2 -12 -4 0 -7 19 -11 48 -11 70 1 181 -8 232 -18
170 -34 205 -42 214 -49 6 -5 31 -14 56 -21 39 -12 42 -15 24 -21 -24 -9 -57
-52 -68 -87 -8 -26 5 -30 24 -8 21 26 48 17 66 -20 23 -49 38 -56 30 -14 -23
112 -19 125 43 155 23 10 41 22 41 27 0 4 -18 -2 -40 -13 -54 -28 -57 -25 -13
12 21 18 40 36 43 39 3 3 30 25 60 48 96 75 270 224 270 231 0 4 -14 4 -32 2
-79 -12 -78 115 2 148 25 10 33 9 60 -10 19 -14 30 -30 30 -46 0 -25 14 -32
26 -12 4 6 2 14 -4 16 -15 5 -16 47 -2 73 14 25 66 51 89 44 14 -4 28 7 55 45
30 41 33 50 18 50 -10 0 -36 13 -59 30 l-40 30 10 -46 c9 -37 8 -47 -3 -54
-18 -11 -16 -14 -36 55 -30 112 -33 102 31 120 53 16 58 16 76 -1 21 -19 24
-45 9 -74 -8 -14 -5 -21 13 -33 23 -15 26 -13 108 81 46 53 116 123 156 156
70 60 88 81 58 70 -15 -6 -16 -1 -20 116 -1 19 -5 43 -9 52 -11 24 1 116 18
140 48 68 224 135 471 179 111 19 280 25 290 9z m-1595 -15 c0 -8 -7 -15 -15
-15 -8 0 -15 7 -15 15 0 8 7 15 15 15 8 0 15 -7 15 -15z m660 0 c0 -8 -7 -15
-15 -15 -8 0 -15 7 -15 15 0 8 7 15 15 15 8 0 15 -7 15 -15z m-700 -21 c0 -9
-9 -18 -20 -21 -11 -3 -20 -9 -20 -14 0 -5 -7 -9 -15 -9 -8 0 -15 5 -15 10 0
6 6 10 14 10 7 0 16 9 19 20 6 24 37 27 37 4z m418 -2 c2 -7 -3 -12 -12 -12
-9 0 -16 7 -16 16 0 17 22 14 28 -4z m-102 -3 c10 -17 -13 -36 -27 -22 -12 12
-4 33 11 33 5 0 12 -5 16 -11z m-51 -19 c0 -22 -29 -18 -33 3 -3 14 1 18 15
15 10 -2 18 -10 18 -18z m83 -93 c2 -10 -3 -17 -12 -17 -18 0 -29 16 -21 31 9
14 29 6 33 -14z m-52 2 c10 -17 -13 -36 -27 -22 -12 12 -4 33 11 33 5 0 12 -5
16 -11z m311 -5 c3 -9 0 -20 -8 -25 -21 -13 -29 -11 -29 9 0 33 26 44 37 16z
m-521 -5 c8 -14 -18 -31 -30 -19 -9 9 0 30 14 30 5 0 12 -5 16 -11z m110 -10
c10 -17 -13 -36 -27 -22 -12 12 -4 33 11 33 5 0 12 -5 16 -11z m449 -9 c3 -5
-1 -10 -9 -10 -9 0 -16 5 -16 10 0 6 4 10 9 10 6 0 13 -4 16 -10z m65 -27 c0
-8 -7 -10 -21 -5 -11 5 -20 11 -20 15 1 4 1 12 1 17 0 6 8 5 20 -2 11 -7 20
-18 20 -25z m-670 6 c0 -24 -23 -21 -28 4 -2 10 3 17 12 17 10 0 16 -9 16 -21z
m52 -31 c-15 -15 -26 -4 -18 18 5 13 9 15 18 6 9 -9 9 -15 0 -24z m-99 16 c8
-8 -3 -34 -14 -34 -5 0 -9 9 -9 20 0 19 11 26 23 14z m437 -40 c0 -8 -9 -14
-20 -14 -22 0 -28 26 -7 33 16 6 27 -1 27 -19z m-470 -4 c0 -11 -4 -20 -10
-20 -5 0 -10 9 -10 20 0 11 5 20 10 20 6 0 10 -9 10 -20z m360 -14 c-13 -13
-35 7 -25 24 5 8 11 8 21 -1 10 -8 12 -15 4 -23z m60 20 c0 -20 -19 -31 -32
-18 -6 6 -7 15 -4 21 10 16 36 13 36 -3z m98 -4 c2 -7 -3 -12 -12 -12 -9 0
-16 7 -16 16 0 17 22 14 28 -4z m49 3 c7 -20 -2 -29 -21 -22 -9 4 -13 13 -10
22 8 19 23 19 31 0z m-257 -15 c0 -11 -4 -20 -9 -20 -14 0 -23 18 -16 30 10
17 25 11 25 -10z m310 -5 c0 -8 -7 -15 -15 -15 -8 0 -15 7 -15 15 0 8 7 15 15
15 8 0 15 -7 15 -15z m-357 -10 c1 -5 -6 -11 -15 -13 -11 -2 -18 3 -18 13 0
17 30 18 33 0z m397 5 c0 -5 11 -10 25 -10 16 0 25 -6 25 -16 0 -10 6 -14 15
-10 8 3 15 1 15 -3 0 -5 -5 -11 -11 -13 -9 -3 -2 -101 17 -230 6 -35 -1 -76
-10 -67 -3 2 -12 42 -21 89 -37 194 -38 201 -55 194 -41 -16 -219 -77 -340
-115 -74 -23 -160 -53 -190 -67 -91 -41 -190 -103 -190 -120 0 -9 9 -45 20
-81 35 -119 62 -254 67 -341 5 -77 4 -84 -10 -70 -10 9 -20 47 -26 95 -5 44
-17 107 -25 140 -9 32 -16 73 -16 90 0 16 -9 45 -20 63 -11 18 -20 46 -20 62
0 23 -4 30 -20 30 -11 0 -20 7 -20 15 0 8 7 15 15 15 12 0 14 7 9 26 -6 23 -4
25 14 20 14 -5 53 11 128 53 65 35 156 74 224 96 63 20 131 42 150 49 63 23
134 48 183 62 35 11 47 20 47 34 0 11 5 20 10 20 6 0 10 -4 10 -10z m-700 -20
c0 -11 -4 -20 -10 -20 -5 0 -10 9 -10 20 0 11 5 20 10 20 6 0 10 -9 10 -20z
m250 -5 c-7 -8 -16 -15 -21 -15 -5 0 -9 7 -9 15 0 9 9 15 21 15 18 0 19 -2 9
-15z m-277 -30 c8 -18 -11 -31 -25 -17 -11 11 -3 32 12 32 4 0 10 -7 13 -15z
m131 -61 c3 -8 2 -12 -4 -9 -6 3 -10 10 -10 16 0 14 7 11 14 -7z m-20 -29 c3
-9 0 -15 -9 -15 -8 0 -15 7 -15 15 0 8 4 15 9 15 5 0 11 -7 15 -15z m586 -14
c0 -5 -7 -25 -15 -44 -20 -49 -19 -54 15 -72 38 -20 38 -32 -1 -40 -22 -5 -36
-2 -50 11 -20 18 -22 14 -19 -23 1 -13 -3 -23 -8 -23 -6 0 -17 -2 -25 -5 -21
-9 -66 153 -46 166 22 14 44 6 47 -19 5 -31 20 -28 28 6 4 15 13 33 22 40 18
14 52 16 52 3z m-620 -36 c0 -8 -4 -15 -10 -15 -5 0 -10 7 -10 15 0 8 5 15 10
15 6 0 10 -7 10 -15z m435 -39 c16 -12 17 -16 6 -30 -8 -10 -22 -14 -35 -10
-29 7 -60 -27 -51 -55 8 -25 46 -28 65 -6 18 22 50 19 50 -4 0 -25 -50 -61
-85 -61 -36 0 -85 50 -85 87 0 69 83 117 135 79z m-161 -110 c31 -35 56 -67
56 -70 0 -3 -10 -10 -21 -17 -19 -10 -26 -6 -59 32 l-37 44 -8 -55 c-7 -54
-17 -70 -43 -70 -11 0 -12 17 -7 88 11 136 34 145 119 48z m-168 0 c17 -45 31
-142 22 -153 -16 -20 -27 -15 -34 13 -11 42 -39 27 -39 -21 0 -29 -4 -40 -17
-43 -12 -2 -18 7 -23 40 -4 24 -14 58 -21 77 -11 25 -11 37 -3 47 17 21 28 17
39 -12 14 -36 36 -25 32 16 -3 42 31 70 44 36z m-236 -76 c0 -11 -4 -20 -10
-20 -5 0 -10 9 -10 20 0 11 5 20 10 20 6 0 10 -9 10 -20z m0 -48 c0 -13 -12
-22 -22 -16 -10 6 -1 24 13 24 5 0 9 -4 9 -8z m33 -8 c9 -9 -4 -35 -14 -28 -5
3 -9 12 -9 20 0 14 12 19 23 8z m521 -38 c17 -35 17 -41 3 -71 -21 -45 -78
-71 -118 -54 -36 14 -63 62 -54 96 3 14 17 36 30 49 21 21 33 25 73 22 44 -3
48 -6 66 -42z m-206 -23 c-2 -10 -18 -21 -36 -27 -21 -6 -32 -15 -32 -27 0
-22 7 -23 40 -4 32 18 40 18 40 0 0 -9 -15 -23 -34 -32 l-34 -16 13 -38 c12
-32 11 -38 -1 -43 -17 -7 -26 10 -52 96 l-20 66 47 21 c57 25 73 26 69 4z
m-326 -8 c0 -5 -5 -11 -11 -13 -6 -2 -11 4 -11 13 0 9 5 15 11 13 6 -2 11 -8
11 -13z m-57 -45 c3 -5 1 -10 -4 -10 -6 0 -11 5 -11 10 0 6 2 10 4 10 3 0 8
-4 11 -10z m5 -43 c0 -8 -6 -14 -14 -14 -8 0 -12 6 -9 14 3 7 9 13 14 13 5 0
9 -6 9 -13z m48 -19 c-6 -18 -28 -21 -28 -4 0 9 7 16 16 16 9 0 14 -5 12 -12z
m1978 -23 c65 -20 97 -37 146 -77 88 -72 249 -237 340 -349 67 -82 78 -102 89
-157 13 -62 13 -64 -10 -81 l-23 -18 27 -42 c16 -23 28 -54 27 -69 0 -15 -16
-133 -36 -262 -19 -129 -40 -273 -46 -320 -7 -47 -19 -109 -27 -138 -8 -29
-15 -78 -15 -110 0 -50 -4 -60 -30 -84 -19 -18 -38 -27 -56 -26 -28 2 -55 21
-46 31 3 3 -4 3 -16 0 -12 -3 -24 -12 -27 -19 -3 -8 -11 -14 -19 -14 -8 0 -14
-7 -14 -15 0 -12 -10 -14 -45 -11 -68 7 -117 25 -111 42 3 8 1 14 -4 14 -6 0
-10 -6 -10 -12 0 -10 -2 -10 -9 0 -4 8 -10 13 -12 12 -11 -4 -39 14 -39 25 0
7 -11 16 -25 19 -13 3 -35 20 -47 36 -25 35 -53 39 -61 10 -3 -11 -2 -20 2
-20 4 0 34 -25 66 -55 33 -30 67 -55 75 -55 9 0 52 -29 98 -65 53 -42 89 -64
104 -62 13 1 23 -4 25 -14 3 -11 -6 -16 -39 -18 -24 -1 -53 -9 -65 -16 -29
-19 -52 -10 -45 17 3 14 1 19 -6 15 -5 -4 -12 -2 -14 5 -3 7 -15 13 -29 14
-26 2 -54 10 -82 25 -11 6 -20 9 -21 7 -2 -2 -8 -12 -15 -23 -11 -18 -12 -18
-8 8 3 20 1 25 -6 18 -15 -15 -30 -14 -21 1 5 8 2 9 -10 5 -13 -5 -24 1 -38
18 -11 14 -26 25 -34 25 -8 0 -13 5 -12 11 4 16 -82 59 -119 59 -37 0 -48 -12
-34 -39 9 -16 6 -19 -21 -25 -17 -3 -41 -6 -53 -6 -21 0 -35 -17 -35 -40 0
-13 35 -44 68 -61 31 -16 151 -108 170 -132 26 -31 -29 -77 -73 -61 -11 5 -13
9 -5 14 6 4 -6 18 -32 36 -98 66 -148 105 -144 113 6 9 -25 38 -75 68 -19 13
-41 34 -47 48 -6 14 -17 25 -24 25 -10 0 -10 2 -1 8 8 5 3 13 -16 26 -32 22
-76 82 -76 105 -1 9 -6 15 -12 14 -5 -1 -10 11 -9 27 1 24 5 30 24 30 13 0 20
4 17 10 -3 6 -2 10 4 10 5 0 15 -8 20 -17 10 -17 10 -17 11 0 0 9 -4 17 -8 17
-13 0 -34 69 -25 82 4 7 8 33 9 58 0 25 4 63 7 84 5 29 4 37 -4 29 -6 -6 -17
-9 -25 -6 -15 6 -68 -73 -60 -92 2 -7 1 -16 -4 -21 -5 -5 -10 -22 -12 -39 -2
-16 -7 -33 -13 -37 -6 -5 -5 -8 3 -8 8 0 11 -9 8 -26 -4 -21 -1 -25 17 -22 16
2 21 -2 20 -19 -1 -36 -3 -39 -13 -23 -5 8 -15 15 -21 15 -22 0 -30 57 -18
120 12 64 60 166 103 218 14 18 55 73 90 123 36 50 72 94 80 97 9 4 22 23 31
43 18 43 19 54 5 54 -5 0 -10 -8 -10 -18 0 -28 -10 -33 -39 -18 -32 16 -103
31 -81 16 13 -8 13 -11 -2 -27 -10 -9 -18 -12 -18 -6 0 6 -11 13 -25 15 -30 6
-22 -10 11 -22 l24 -10 -39 -62 c-22 -35 -54 -85 -71 -113 -17 -27 -44 -70
-60 -95 -16 -25 -36 -59 -44 -76 -8 -17 -20 -35 -27 -39 -7 -5 -10 -4 -6 1 3
6 2 16 -4 24 -5 8 -9 10 -9 4 0 -16 -117 -7 -157 12 -18 8 -33 18 -33 22 0 4
-14 8 -30 9 -17 1 -28 -2 -25 -7 3 -4 -8 -3 -24 3 -17 6 -27 16 -24 24 3 7 -2
13 -11 13 -9 0 -16 7 -16 16 0 8 -4 12 -10 9 -5 -3 -18 11 -27 32 -10 21 -28
46 -40 56 -13 10 -23 27 -23 38 0 10 -7 19 -15 19 -11 0 -15 11 -15 39 0 33 4
40 25 45 15 4 23 11 19 17 -4 8 -9 7 -15 -2 -7 -12 -9 -12 -9 0 0 7 -6 11 -15
7 -8 -3 -14 -2 -14 2 5 29 -18 46 -46 36 -11 -5 -12 -11 -4 -25 11 -22 -5 -27
-18 -5 -4 7 -15 16 -23 19 -12 4 -11 6 3 6 9 1 17 6 17 12 0 13 46 59 53 53 2
-2 17 8 33 22 20 20 38 27 64 26 19 -1 36 -6 38 -12 2 -5 11 -10 20 -10 15 0
15 2 2 10 -17 11 -21 12 160 -20 63 -11 131 -25 150 -30 45 -13 45 -13 29 7
-8 9 -27 22 -44 29 l-30 13 33 1 c22 0 32 5 32 15 0 11 -7 14 -25 9 -30 -7
-31 1 -5 41 11 17 20 26 20 21 0 -5 9 -1 19 8 11 10 18 23 15 30 -3 7 2 25 10
41 12 23 13 31 3 37 -9 6 -9 8 0 8 14 0 46 68 38 80 -3 5 -2 10 2 12 5 1 16
20 25 41 17 35 17 37 0 38 -10 0 -12 3 -5 6 7 2 15 3 19 1 4 -2 19 22 34 52
15 30 37 74 50 98 27 51 171 215 223 255 55 41 140 78 193 82 25 2 49 7 53 10
10 11 97 -3 187 -30z m-2036 -10 c0 -8 -7 -15 -15 -15 -16 0 -20 12 -8 23 11
12 23 8 23 -8z m388 -101 c-2 -9 -11 -21 -20 -25 -10 -5 -26 -13 -35 -18 -10
-4 -20 -17 -22 -27 -3 -18 -18 -34 -33 -34 -12 0 -10 38 3 61 22 43 114 79
107 43z m25 -53 c3 -11 -3 -28 -15 -40 -24 -26 -28 -26 -20 1 4 17 2 20 -11
15 -26 -10 -21 18 6 31 31 15 34 14 40 -7z m-993 -102 c0 -6 -4 -7 -10 -4 -5
3 -10 11 -10 16 0 6 5 7 10 4 6 -3 10 -11 10 -16z m1881 -172 c-10 -9 -11 -8
-5 6 3 10 9 15 12 12 3 -3 0 -11 -7 -18z m-301 -137 c0 -5 -5 -10 -11 -10 -5
0 -7 5 -4 10 3 6 8 10 11 10 2 0 4 -4 4 -10z m-135 -100 c-3 -5 -12 -10 -18
-10 -7 0 -6 4 3 10 19 12 23 12 15 0z m-19 -102 c-3 -18 -10 -35 -14 -39 -9
-8 -72 9 -72 20 0 11 60 49 79 50 10 1 12 -7 7 -31z m-126 18 c0 -11 -19 -15
-25 -6 -3 5 1 10 9 10 9 0 16 -2 16 -4z m90 -460 c0 -3 -4 -8 -10 -11 -5 -3
-10 -1 -10 4 0 6 5 11 10 11 6 0 10 -2 10 -4z m-1655 -305 c-4 -21 -2 -30 10
-34 10 -4 15 -17 13 -36 -2 -25 -5 -28 -20 -20 -10 5 -18 12 -18 15 0 3 4 3 9
0 5 -3 11 2 14 13 2 10 -3 23 -14 29 -16 10 -17 16 -7 37 15 33 21 32 13 -4z
m3315 -271 c0 -21 -5 -30 -16 -30 -12 0 -14 -4 -6 -12 5 -8 6 -31 2 -58 -6
-35 -8 -38 -9 -15 -1 23 -3 27 -11 15 -7 -12 -10 -8 -10 15 0 37 -15 22 -24
-24 -5 -29 -4 -32 9 -21 8 7 15 8 15 2 0 -12 -30 -38 -30 -26 0 5 -5 1 -11 -9
-5 -9 -8 -21 -5 -26 4 -5 -3 -7 -14 -4 -21 6 -25 -3 -11 -26 5 -8 14 -10 22
-5 11 6 12 5 3 -7 -6 -8 -10 -22 -8 -32 2 -13 -2 -17 -13 -13 -8 3 -21 6 -29
6 -9 0 -12 5 -9 10 4 6 10 8 14 6 4 -3 7 4 8 14 1 11 -3 23 -9 26 -7 4 -8 2
-4 -4 4 -6 -5 -19 -19 -28 -18 -11 -22 -19 -15 -24 8 -5 8 -10 2 -14 -6 -4 -6
-22 0 -52 8 -37 7 -48 -3 -55 -10 -6 -11 -9 -1 -9 6 0 12 -7 12 -15 0 -8 -5
-15 -11 -15 -7 0 -9 -9 -6 -22 7 -24 -29 -82 -44 -73 -5 4 -9 1 -9 -5 0 -7 -7
-10 -15 -6 -17 6 -22 -29 -5 -39 6 -3 10 1 10 9 0 29 18 17 24 -16 4 -18 15
-44 26 -58 l20 -25 -3 25 c-1 14 -10 32 -19 41 -26 24 -12 29 27 10 32 -15 48
-41 25 -41 -5 0 -10 -10 -9 -22 0 -22 1 -22 9 -3 10 24 12 9 4 -33 -4 -21 -11
-29 -20 -25 -9 3 -14 -1 -14 -12 0 -9 5 -13 10 -10 12 7 12 -2 0 -30 -8 -18
-9 -18 -9 -2 -1 10 -5 16 -10 13 -5 -4 -7 3 -4 14 6 23 -9 26 -27 5 -7 -8 -16
-12 -21 -9 -5 3 -9 1 -9 -4 0 -5 -10 -8 -22 -6 -33 3 -35 5 -17 12 15 6 15 8
0 24 -16 16 -17 14 -18 -23 -1 -23 2 -37 8 -34 5 4 9 1 9 -4 0 -6 7 -11 15
-11 8 0 15 5 15 12 0 9 3 9 12 0 10 -10 10 -15 -1 -21 -7 -5 -11 -13 -7 -19 8
-13 49 -3 59 15 17 28 25 11 13 -29 -9 -35 -9 -63 2 -143 13 -101 10 -211 -7
-228 -10 -10 -41 13 -41 29 0 4 -8 16 -17 26 -18 20 -27 52 -12 42 5 -3 7 -9
4 -14 -3 -5 3 -14 14 -19 15 -9 20 -7 24 10 3 12 10 18 16 14 7 -4 8 0 4 10
-5 13 -7 14 -14 3 -6 -9 -9 -8 -9 7 0 12 5 26 11 32 8 8 8 24 -1 60 -14 59
-14 92 1 109 9 11 8 14 0 14 -6 0 -14 -7 -16 -15 -16 -49 -15 -48 -30 -35 -9
7 -14 24 -12 39 3 21 9 26 33 26 40 1 39 28 -1 30 -34 2 -45 -9 -45 -43 0 -13
-4 -21 -9 -18 -5 3 -11 -3 -14 -14 -3 -13 -1 -18 6 -13 6 4 8 0 4 -10 -3 -8 0
-18 7 -20 20 -8 27 -47 9 -47 -9 0 -13 -6 -9 -15 7 -20 -4 -46 -17 -38 -5 3
-7 1 -4 -5 10 -15 -3 -42 -20 -42 -7 0 -13 -6 -12 -12 2 -22 -13 -58 -25 -58
-6 0 -2 -7 8 -15 27 -21 29 -98 2 -103 -10 -2 -23 2 -30 9 -8 9 -8 10 1 5 9
-5 11 -2 6 10 -4 11 -8 13 -11 6 -2 -7 -10 -12 -18 -12 -8 0 -11 -6 -8 -15 4
-8 12 -15 20 -15 8 0 14 -4 14 -8 0 -5 7 -9 15 -9 8 0 15 5 15 10 0 6 3 8 6 4
10 -9 -6 -47 -20 -47 -8 0 -19 7 -26 15 -9 11 -16 12 -26 4 -7 -6 -26 -8 -42
-4 -21 4 -34 1 -46 -11 -9 -9 -19 -14 -22 -11 -3 3 -19 1 -36 -4 -22 -6 -36
-4 -52 6 -19 14 -17 15 30 15 53 0 92 19 80 39 -4 6 -12 9 -17 6 -5 -4 -9 -2
-9 3 0 5 8 12 18 15 23 5 37 47 16 47 -8 0 -14 9 -14 20 0 11 -4 20 -10 20 -5
0 -10 7 -10 15 0 19 17 19 37 -1 13 -13 17 -13 24 -2 14 21 11 25 -21 32 -18
3 -30 12 -30 21 0 18 5 19 32 4 16 -9 24 -7 36 5 11 11 12 16 4 16 -7 0 -23
11 -36 25 -13 14 -28 25 -34 25 -7 0 -9 13 -5 34 3 19 0 42 -6 52 -6 11 -11
14 -11 7 0 -7 -6 -10 -13 -8 -8 4 -19 -14 -30 -47 -38 -108 -62 -168 -69 -168
-5 0 -8 -14 -8 -31 0 -16 -3 -28 -7 -26 -5 3 -9 -7 -10 -21 0 -15 -6 -28 -12
-30 -5 -2 -7 -10 -4 -18 3 -8 -1 -22 -9 -32 -8 -9 -25 -37 -37 -62 -26 -56
-45 -80 -60 -80 -6 0 -11 -13 -11 -28 0 -15 -10 -54 -23 -86 -17 -46 -30 -63
-57 -77 -22 -12 -38 -15 -44 -9 -6 6 -23 10 -38 10 -30 0 -32 6 -22 59 9 45
34 41 27 -4 -5 -31 -3 -36 22 -45 32 -12 37 -9 41 23 8 63 19 94 40 114 21 19
29 41 25 66 0 4 6 7 14 7 8 0 15 4 15 9 0 5 3 24 6 42 5 32 5 33 -10 15 -12
-15 -16 -16 -17 -5 0 8 -6 0 -12 -18 -9 -25 -15 -30 -27 -23 -13 9 -13 10 0
10 9 1 6 5 -7 10 -27 11 -31 30 -7 30 9 0 28 12 42 27 14 15 34 29 45 30 26 4
31 9 22 22 -4 8 -12 8 -25 1 -14 -7 -20 -6 -25 7 -3 10 -1 19 4 21 6 2 9 8 5
13 -3 5 -1 9 4 9 12 0 22 25 28 64 2 16 6 31 10 35 4 3 4 -7 2 -22 -4 -18 -1
-26 6 -24 6 2 11 21 11 42 1 39 17 56 31 34 4 -7 3 -9 -4 -6 -6 5 -8 0 -5 -13
6 -22 22 -27 24 -7 1 6 2 39 3 72 1 51 4 60 19 57 9 -2 17 2 17 8 0 5 -4 10
-10 10 -5 0 -10 9 -10 19 0 11 -5 23 -10 26 -6 4 -3 15 7 30 17 21 41 25 28 4
-4 -5 -2 -9 4 -9 20 0 23 22 5 36 -14 11 -16 17 -6 20 6 3 9 10 6 16 -4 6 0
15 7 20 11 7 11 11 2 15 -17 6 -16 28 1 43 8 6 12 18 10 25 -9 22 14 54 34 48
28 -7 37 25 15 51 -17 19 -17 20 0 7 15 -12 17 -11 17 10 0 13 9 38 20 54 11
17 17 39 14 50 -4 16 -3 17 5 5 6 -8 11 -10 11 -5 0 6 5 3 10 -5 8 -13 10 -12
11 5 1 11 0 29 -1 39 -3 28 21 96 32 90 5 -3 9 9 9 28 0 86 3 117 10 113 4 -3
5 4 2 15 -3 11 0 20 6 20 6 0 36 12 68 26 31 15 75 28 98 31 22 2 64 16 93 30
45 22 54 24 70 12 15 -13 16 -12 3 4 -11 13 -11 17 -1 17 8 0 10 3 7 7 -4 3
-1 13 7 22 7 9 19 33 26 54 9 29 17 37 36 37 13 0 24 5 24 10 0 6 2 10 5 10 3
0 5 -13 5 -30z m-685 1 c-3 -5 -1 -12 5 -16 5 -3 10 -1 10 5 0 6 12 3 28 -8
15 -11 37 -22 49 -26 19 -6 99 -78 131 -118 16 -20 5 -48 -20 -48 -14 0 -18 5
-14 15 5 14 -11 21 -38 16 -5 -1 -6 5 -3 13 4 9 3 15 -1 14 -4 -1 -31 1 -60 5
-42 6 -60 15 -81 38 -16 16 -38 31 -49 32 -14 1 -18 5 -12 11 6 6 10 22 10 38
0 19 4 26 14 22 8 -3 17 -1 21 5 3 6 8 11 11 11 3 0 3 -4 -1 -9z m278 -91 c-3
-11 -7 -20 -8 -20 -1 0 -5 9 -8 20 -3 12 0 20 8 20 8 0 11 -8 8 -20z m-2698
-59 c3 -5 2 -12 -3 -15 -5 -3 -9 1 -9 9 0 17 3 19 12 6z m3066 -57 c-7 -31 -9
-34 -10 -12 -1 27 9 62 15 55 3 -2 0 -22 -5 -43z m-22 -63 c-15 -5 -22 6 -14
19 6 9 10 9 16 -1 5 -8 4 -15 -2 -18z m-435 0 c-3 -3 -11 -6 -17 -6 -7 0 -11
-9 -9 -20 2 -18 1 -18 -8 -3 -9 14 -16 15 -38 7 -14 -6 -23 -7 -19 -2 10 10
66 30 84 30 7 0 10 -3 7 -6z m366 -33 c0 -4 -9 -8 -20 -8 -11 0 -20 4 -20 9 0
6 9 9 20 8 11 -1 20 -5 20 -9z m67 -10 c-3 -8 -6 -5 -6 6 -1 11 2 17 5 13 3
-3 4 -12 1 -19z m-527 -58 c0 -5 -2 -10 -4 -10 -3 0 -8 5 -11 10 -3 6 -1 10 4
10 6 0 11 -4 11 -10z m505 -49 c-6 -29 -25 -44 -25 -21 0 6 -8 10 -17 10 -13
0 -11 5 10 18 15 9 27 21 27 26 0 5 3 7 6 3 3 -3 3 -19 -1 -36z m-29 -36 c4
-8 9 -13 14 -10 4 2 5 -7 2 -21 l-4 -25 -22 23 c-11 13 -18 25 -13 26 4 2 5 8
1 13 -3 5 0 9 6 9 6 0 13 -7 16 -15z m-506 -29 c0 -2 -7 -7 -16 -10 -8 -3 -12
-2 -9 4 6 10 25 14 25 6z m-120 -20 c0 -3 -4 -8 -10 -11 -5 -3 -10 -1 -10 4 0
6 5 11 10 11 6 0 10 -2 10 -4z m45 -6 c3 -5 1 -10 -4 -10 -6 0 -11 5 -11 10 0
6 2 10 4 10 3 0 8 -4 11 -10z m577 -30 c-3 -28 -13 -40 -19 -22 -3 6 -10 9
-16 5 -7 -3 -3 4 8 17 11 13 14 20 6 15 -10 -6 -12 -4 -7 4 12 19 31 6 28 -19z
m-805 -12 c-3 -8 -6 -5 -6 6 -1 11 2 17 5 13 3 -3 4 -12 1 -19z m32 -101 c13
-13 14 -27 2 -27 -11 0 -31 56 -30 84 1 13 4 8 9 -12 4 -19 13 -39 19 -45z
m20 -68 c18 -53 12 -67 -9 -20 -23 49 -23 51 -11 51 5 0 14 -14 20 -31z
m-2194 -91 c6 -4 -2 -7 -17 -6 -21 2 -24 5 -16 15 6 8 14 10 17 6 3 -4 11 -11
16 -15z m30 -56 c-7 -8 -35 7 -35 18 0 6 7 6 20 -2 10 -7 17 -14 15 -16z
m2825 -168 c0 -21 -29 -24 -40 -5 -8 16 -6 19 15 17 14 0 25 -6 25 -12z m-16
-84 c-7 -6 -24 22 -23 40 0 9 6 5 14 -10 7 -14 11 -27 9 -30z m-65 -33 c6 -8
8 -17 4 -20 -11 -12 -21 -7 -26 13 -6 23 5 26 22 7z m-262 -37 c-3 -10 0 -18
5 -17 6 1 13 -4 15 -11 3 -8 -1 -10 -12 -6 -9 4 -15 2 -13 -4 2 -5 -1 -9 -7
-8 -13 2 -16 26 -4 48 13 24 23 23 16 -2z m259 -27 c-7 -7 -26 7 -26 19 0 6 6
6 15 -2 9 -7 13 -15 11 -17z m60 -4 c6 -5 15 -5 19 -1 5 4 5 2 1 -5 -3 -6 -2
-14 4 -18 5 -3 10 -17 10 -31 0 -19 -5 -24 -24 -24 -14 0 -31 6 -38 14 -8 8
-21 16 -29 19 -8 2 -3 3 11 1 14 -1 33 -6 43 -9 27 -11 20 10 -15 44 -24 23
-27 30 -13 25 11 -4 25 -11 31 -15z m-362 -56 c-7 -37 -14 -42 -14 -11 0 21 7
38 16 38 1 0 0 -12 -2 -27z m36 -19 c0 -8 -19 -13 -24 -6 -3 5 1 9 9 9 8 0 15
-2 15 -3z m315 -34 c3 -5 1 -10 -4 -10 -6 0 -11 5 -11 10 0 6 2 10 4 10 3 0 8
-4 11 -10z m24 -36 c3 -3 5 -26 4 -52 0 -55 -54 -316 -62 -304 -10 14 -40 22
-46 12 -3 -5 -12 -7 -20 -3 -22 8 -18 -15 4 -27 11 -5 29 -10 40 -10 12 0 21
-6 21 -13 0 -7 30 -42 66 -77 36 -36 83 -91 105 -123 21 -32 50 -73 64 -92
l26 -33 -23 5 c-13 3 -36 15 -53 27 -45 33 -107 67 -100 56 10 -16 129 -95
139 -92 14 5 47 -30 68 -73 12 -22 29 -51 38 -65 10 -14 21 -36 25 -50 7 -23
5 -22 -27 10 -39 40 -49 48 -138 109 -36 25 -68 50 -72 55 -4 6 -11 7 -15 2
-9 -9 28 -42 104 -91 68 -45 131 -102 148 -135 8 -15 30 -105 50 -199 l35
-172 -20 -40 c-12 -22 -27 -42 -35 -45 -7 -3 -12 -11 -9 -18 7 -18 -112 -62
-216 -81 -47 -9 -110 -20 -141 -26 -80 -16 -199 -16 -309 0 l-96 13 -57 68
c-33 39 -57 77 -57 91 0 22 0 22 15 3 17 -23 18 -19 6 24 -6 20 -6 30 0 27 5
-4 9 1 9 9 0 9 3 16 8 16 10 0 62 -56 62 -68 0 -14 58 -42 84 -41 18 1 18 2
-4 8 -17 5 -24 13 -22 25 3 14 -1 16 -16 12 -15 -5 -21 -1 -26 20 -5 18 -3 30
6 35 8 6 9 9 2 9 -7 0 -14 13 -16 29 -2 17 -1 28 3 26 4 -3 9 2 13 10 5 13 -3
18 -24 17 -3 0 -6 12 -6 26 -1 15 -4 41 -7 57 -3 17 -6 49 -6 72 -1 30 -5 41
-13 38 -20 -8 -16 70 5 93 22 24 22 32 -3 32 -11 0 -20 5 -20 11 0 6 -9 8 -22
4 -16 -4 -19 -3 -9 3 9 7 10 12 2 16 -16 10 -14 36 3 36 8 0 16 5 18 11 5 15
36 0 43 -22 7 -21 20 -25 31 -8 3 6 0 15 -7 20 -8 5 -9 9 -4 9 6 1 -2 8 -18
16 -24 13 -26 18 -16 36 8 16 8 22 -2 28 -7 5 -23 39 -35 75 -24 70 -22 85 12
132 15 20 14 21 -7 16 -17 -5 -21 -3 -16 9 3 9 -4 35 -15 58 -17 33 -21 60
-20 128 1 145 7 177 43 220 35 42 28 40 249 78 175 30 262 36 279 18z m-2589
-14 c0 -5 -2 -10 -4 -10 -3 0 -8 5 -11 10 -3 6 -1 10 4 10 6 0 11 -4 11 -10z
m27 -76 c-3 -3 -12 -4 -19 -1 -8 3 -5 6 6 6 11 1 17 -2 13 -5z m-747 -496 c-9
-111 -10 -152 -1 -161 6 -6 11 -23 11 -38 0 -15 8 -32 20 -40 29 -20 34 -56 9
-62 -16 -4 -18 -3 -9 8 9 10 7 13 -7 11 -10 -2 -19 -10 -21 -18 -5 -24 26 -30
56 -10 14 9 23 12 19 5 -4 -6 -1 -14 5 -17 7 -2 4 -4 -7 -3 -11 1 -20 -2 -20
-8 0 -5 5 -10 10 -10 19 -1 55 -26 54 -38 0 -9 -2 -9 -6 1 -8 20 -26 14 -20
-8 4 -15 0 -20 -17 -20 -25 0 -69 28 -61 40 8 12 -34 60 -49 54 -20 -8 -66 60
-80 119 -8 28 -16 81 -20 117 l-5 65 14 -50 c8 -27 15 -66 16 -85 1 -32 2 -33
9 -10 7 21 8 22 10 5 1 -11 1 -37 0 -57 -1 -21 3 -38 9 -38 6 0 8 7 4 16 -5
14 -3 14 16 3 11 -8 21 -21 21 -30 0 -27 25 -42 40 -24 7 8 20 15 29 16 13 0
14 1 1 6 -23 9 -51 41 -41 48 6 3 4 16 -3 30 -7 14 -12 49 -10 82 2 32 4 58 4
58 1 0 4 43 6 95 5 100 12 137 22 111 2 -8 -1 -81 -8 -163z m2751 69 c-10 -9
-11 -8 -5 6 3 10 9 15 12 12 3 -3 0 -11 -7 -18z m-2601 -43 c0 -2 -9 -4 -21
-4 -11 0 -18 4 -14 10 5 8 35 3 35 -6z m125 -10 c0 -10 5 -18 11 -17 6 1 11
-3 12 -10 0 -7 4 -22 7 -34 5 -15 3 -23 -5 -23 -7 0 -10 7 -6 15 3 10 -1 18
-11 22 -9 4 -18 2 -20 -4 -7 -20 -103 27 -103 50 0 3 10 5 23 4 12 0 31 3 42
8 l20 8 -20 -16 c-14 -11 -17 -19 -9 -27 18 -18 45 -1 40 27 -3 16 -1 23 7 20
7 -2 12 -12 12 -23z m2383 -22 c13 -18 18 -37 15 -55 -5 -26 -23 -39 -23 -16
0 6 -9 8 -22 4 -18 -5 -20 -4 -8 4 13 9 12 12 -5 25 -18 13 -18 15 -4 21 11 4
15 14 12 26 -8 28 13 23 35 -9z m78 -108 c17 -42 18 -39 -6 -41 -24 -2 -36 15
-22 29 7 7 7 19 1 35 -14 38 10 17 27 -23z m-2456 -18 c0 -2 -11 -6 -25 -8
-14 -3 -25 -1 -25 3 0 5 11 9 25 9 14 0 25 -2 25 -4z m40 -106 c0 -5 -5 -10
-11 -10 -5 0 -7 5 -4 10 3 6 8 10 11 10 2 0 4 -4 4 -10z m488 -42 c2 -46 -22
-93 -43 -85 -16 7 -55 -20 -55 -38 0 -13 -58 -35 -100 -39 -9 -1 -20 -5 -26
-9 -6 -3 -38 -9 -72 -13 -52 -5 -63 -4 -68 10 -3 9 -11 16 -16 16 -6 0 -8 -7
-4 -15 3 -10 -1 -15 -14 -15 -21 0 -38 20 -18 21 10 0 10 2 1 6 -24 9 -13 31
20 42 17 5 70 14 116 20 55 7 99 20 129 36 49 28 56 30 47 15 -3 -5 -1 -10 4
-10 13 0 14 6 1 29 -6 13 -5 24 6 39 12 18 25 23 80 31 6 0 11 -17 12 -41z
m-538 -33 c0 -8 -2 -15 -4 -15 -2 0 -6 7 -10 15 -3 8 -1 15 4 15 6 0 10 -7 10
-15z m-270 -45 c0 -18 -19 -11 -30 11 -11 19 -10 20 9 9 12 -6 21 -15 21 -20z"/>
<path d="M12479 14507 c-10 -8 -14 -19 -9 -31 5 -14 9 -16 14 -7 5 7 5 15 2
18 -3 3 -1 12 5 20 14 16 9 16 -12 0z"/>
<path d="M11586 14253 c-11 -3 -42 -21 -70 -39 -27 -19 -55 -33 -61 -30 -16 6
-35 -32 -33 -62 2 -16 7 -21 18 -16 52 23 91 33 105 28 11 -5 14 -2 9 11 -6
14 -1 16 27 14 19 -2 40 -7 47 -12 8 -6 12 -5 12 2 0 7 5 9 11 5 8 -4 7 -9 -2
-15 -9 -6 -2 -9 22 -9 21 0 47 -8 60 -18 l22 -19 -55 -6 c-31 -3 -70 -13 -88
-22 -40 -21 -51 -12 -19 14 l24 20 -30 -8 c-58 -17 -86 -31 -80 -41 3 -5 1
-10 -5 -10 -6 0 -18 -6 -25 -14 -12 -12 -11 -15 8 -20 12 -3 38 -6 57 -6 19 0
60 -9 90 -20 30 -11 60 -20 66 -20 7 0 25 20 40 44 16 25 32 42 36 40 13 -8 9
-44 -5 -44 -8 0 -19 -11 -25 -25 -12 -26 -12 -26 26 -19 47 8 57 14 42 24 -8
5 3 11 29 15 25 4 41 12 41 21 0 8 10 14 24 14 21 0 25 6 32 53 12 82 11 87
-3 87 -8 0 -12 4 -9 8 3 5 -7 23 -22 42 l-28 32 -134 3 c-74 2 -144 1 -154 -2z
m39 -243 c3 -5 1 -10 -4 -10 -6 0 -11 5 -11 10 0 6 2 10 4 10 3 0 8 -4 11 -10z"/>
<path d="M11580 14124 c0 -11 5 -14 16 -10 9 3 20 6 25 6 5 0 9 5 9 10 0 6
-11 10 -25 10 -16 0 -25 -6 -25 -16z"/>
<path d="M12145 13793 c5 -17 -2 -31 -30 -59 -34 -34 -37 -35 -50 -17 -13 17
-15 17 -36 -3 -21 -21 -22 -21 -40 -3 -21 21 -39 23 -84 11 -33 -10 -58 -5
-49 9 3 5 0 9 -6 9 -6 0 -8 5 -5 10 15 24 -33 7 -58 -20 -16 -17 -34 -27 -39
-23 -7 3 -8 1 -4 -5 4 -6 -2 -17 -14 -24 -11 -7 -20 -18 -20 -24 0 -15 -46
-53 -74 -60 -14 -3 -27 -13 -30 -21 -4 -8 -13 -13 -21 -9 -8 3 -15 2 -15 -3 0
-4 -11 -6 -25 -3 -26 4 -35 -12 -12 -22 6 -3 3 -4 -8 -1 -11 2 -26 1 -34 -4
-11 -7 -11 -10 1 -17 8 -5 20 -18 26 -29 6 -11 12 -15 12 -8 0 6 9 9 19 6 11
-3 27 -1 36 5 16 8 16 9 1 15 -10 4 -15 3 -11 -3 3 -6 1 -10 -4 -10 -6 0 -11
7 -11 15 0 11 8 15 28 13 35 -4 50 -18 54 -54 3 -26 6 -28 53 -32 110 -8 109
-8 113 10 2 12 -1 16 -11 12 -8 -3 -17 2 -20 10 -4 9 0 15 11 15 9 1 33 4 52
8 75 14 224 10 265 -7 22 -9 45 -15 52 -13 6 2 14 -5 18 -17 9 -29 -19 -49
-68 -50 -23 0 -36 -4 -32 -10 3 -5 15 -10 26 -10 10 0 19 -4 19 -10 0 -5 -4
-10 -10 -10 -5 0 -10 -5 -10 -11 0 -8 5 -8 15 1 8 7 15 18 15 25 0 7 7 15 15
19 18 7 20 -5 3 -22 -9 -9 -3 -12 30 -10 25 1 42 6 42 13 0 7 7 18 15 25 11 9
20 6 44 -19 30 -30 48 -41 36 -21 -3 6 -1 10 4 10 6 0 11 6 11 13 0 6 7 25 15
41 9 16 13 36 10 44 -4 10 0 12 12 8 17 -6 17 -5 1 8 -24 18 -22 24 6 22 26
-1 32 -28 12 -55 -8 -11 -8 -13 1 -8 6 4 14 1 16 -5 3 -7 6 -3 6 10 1 19 5 22
21 17 12 -4 20 -2 20 5 0 7 -9 14 -19 17 -12 3 -17 11 -14 19 5 15 4 15 -40
18 -25 1 -31 8 -46 53 -29 87 -131 226 -157 216 -9 -3 -20 0 -26 8 -7 10 -8 8
-3 -8z m52 -62 c11 -18 10 -19 -20 -10 -17 5 -34 9 -37 9 -9 0 25 20 35 20 6
0 16 -9 22 -19z m-315 -41 c69 -58 121 -90 146 -90 15 0 49 12 77 25 37 18 51
21 57 12 5 -8 8 -7 8 4 0 23 59 24 67 1 12 -39 59 -128 72 -138 25 -20 -3 -22
-34 -3 -17 11 -24 19 -15 20 8 0 4 5 -9 10 -27 11 -43 3 -21 -11 23 -14 4 -23
-22 -9 -12 6 -25 15 -28 18 -3 3 -21 11 -40 18 -35 11 -185 11 -197 -1 -11
-11 -24 -6 -17 6 5 8 2 9 -11 4 -10 -4 -38 -11 -63 -17 -24 -5 -57 -16 -73
-24 -51 -27 -91 -11 -58 22 13 13 28 39 64 110 34 68 56 78 97 43z m455 -192
c-3 -8 -6 -5 -6 6 -1 11 2 17 5 13 3 -3 4 -12 1 -19z m8 -48 c3 -5 1 -10 -4
-10 -6 0 -11 5 -11 10 0 6 2 10 4 10 3 0 8 -4 11 -10z"/>
<path d="M12550 13600 c0 -5 5 -10 10 -10 6 0 10 5 10 10 0 6 -4 10 -10 10 -5
0 -10 -4 -10 -10z"/>
<path d="M11457 13523 c-12 -12 -7 -33 8 -33 17 0 19 9 7 28 -5 7 -11 9 -15 5z"/>
<path d="M12465 13520 c-19 -8 -19 -9 3 -9 12 -1 22 4 22 9 0 6 -1 10 -2 9 -2
0 -12 -4 -23 -9z"/>
<path d="M12518 13519 c-20 -11 -24 -44 -6 -55 7 -4 8 -3 4 4 -4 7 -3 12 3 12
5 0 11 -8 14 -17 4 -17 4 -17 12 1 5 12 3 21 -6 28 -11 7 -11 11 -1 15 13 5
17 23 5 23 -5 0 -16 -5 -25 -11z"/>
<path d="M12490 13450 c0 -5 5 -10 11 -10 5 0 7 5 4 10 -3 6 -8 10 -11 10 -2
0 -4 -4 -4 -10z"/>
<path d="M12447 13434 c6 -15 23 -19 23 -5 0 5 -7 11 -14 14 -10 4 -13 1 -9
-9z"/>
<path d="M11916 13398 c3 -5 10 -6 15 -3 13 9 11 12 -6 12 -8 0 -12 -4 -9 -9z"/>
<path d="M12030 13318 c-25 -4 -69 -8 -97 -8 -53 1 -53 0 -42 -24 13 -27 34
-31 192 -39 68 -4 79 -2 88 14 6 13 6 19 -1 19 -5 0 -10 -7 -10 -15 0 -8 -8
-15 -17 -15 -15 0 -16 2 -3 10 13 9 13 10 0 11 -9 0 -7 4 8 11 12 6 22 19 22
30 0 19 -16 25 -22 8 -2 -5 -18 -6 -38 -2 -19 4 -55 4 -80 0z"/>
<path d="M12417 13264 c-8 -8 1 -24 14 -24 5 0 9 7 9 15 0 15 -12 20 -23 9z"/>
<path d="M12791 10764 c-7 -8 -11 -18 -7 -21 9 -10 36 6 36 22 0 19 -11 19
-29 -1z"/>
<path d="M12347 10493 c-4 -3 2 -13 14 -21 22 -15 47 -3 35 17 -8 12 -39 15
-49 4z"/>
<path d="M12327 10248 c-10 -7 -19 -24 -22 -36 -3 -20 -2 -22 10 -12 8 6 17
20 20 31 4 11 11 16 17 13 7 -4 8 -2 4 4 -9 15 -8 15 -29 0z"/>
<path d="M12156 10174 c-25 -24 -17 -59 13 -59 31 0 50 28 35 52 -15 24 -29
26 -48 7z"/>
<path d="M11933 9764 c4 -4 17 -12 29 -18 12 -6 28 -22 34 -35 15 -30 33 -48
30 -30 -7 39 -20 61 -46 74 -29 15 -59 20 -47 9z"/>
<path d="M10780 9621 c0 -10 26 -9 36 2 4 4 -2 7 -14 7 -12 0 -22 -4 -22 -9z"/>
<path d="M10876 9518 c3 -5 10 -6 15 -3 13 9 11 12 -6 12 -8 0 -12 -4 -9 -9z"/>
<path d="M10905 8890 c-3 -5 -1 -10 4 -10 6 0 11 5 11 10 0 6 -2 10 -4 10 -3
0 -8 -4 -11 -10z"/>
<path d="M11660 8666 c-8 -23 -18 -80 -41 -246 -6 -41 -16 -80 -22 -86 -14
-14 -109 -35 -101 -23 3 5 -8 9 -24 9 -45 0 -58 33 -44 119 21 126 11 141 -13
20 -12 -60 -24 -218 -38 -521 -1 -10 -4 -18 -7 -18 -3 0 -4 -17 -2 -37 5 -51
-14 -72 -69 -79 l-47 -6 3 33 c2 19 4 37 4 40 3 28 71 11 71 -17 0 -8 4 -13 9
-9 25 15 -10 102 -44 111 -22 5 -26 11 -20 31 8 33 -3 66 -21 59 -7 -3 -18 2
-23 12 -12 22 -21 13 -26 -29 -2 -19 -9 -65 -14 -102 -6 -40 -6 -79 -1 -92 5
-13 6 -25 3 -29 -3 -3 -2 -13 2 -23 4 -10 7 -28 6 -40 -2 -15 3 -23 13 -23 9
0 16 -8 16 -20 0 -11 5 -20 10 -20 14 0 13 -27 -1 -32 -17 -6 -1 -48 18 -48
13 0 15 12 9 90 -6 75 -5 90 7 90 8 0 22 -11 31 -25 9 -14 23 -25 30 -25 17 0
39 26 43 50 1 11 10 38 18 62 18 48 23 67 24 86 1 6 6 12 12 12 5 0 8 -4 5 -8
-2 -4 4 -8 14 -8 16 0 17 2 4 20 -18 26 -18 40 1 33 10 -4 22 10 40 48 14 30
25 57 25 60 0 4 6 12 13 19 14 14 47 17 47 4 0 -7 70 -13 70 -5 0 1 7 40 14
86 14 83 23 501 11 501 -3 0 -10 -11 -15 -24z"/>
<path d="M11267 8595 c-9 -55 -23 -107 -72 -265 -18 -58 -36 -118 -40 -135
-14 -60 -31 -206 -25 -210 7 -5 50 180 50 214 0 10 8 29 18 42 11 13 22 50 26
83 3 32 18 99 32 149 14 50 24 108 22 131 l-3 41 -8 -50z"/>
<path d="M11446 8584 c-4 -14 -5 -28 -3 -31 3 -2 8 8 11 23 4 14 5 28 3 31 -3
2 -8 -8 -11 -23z"/>
<path d="M11861 8533 c0 -12 -3 -27 -6 -35 -5 -13 11 -46 18 -38 3 3 1 25 -3
50 -4 25 -8 35 -9 23z"/>
<path d="M11950 8530 c0 -5 5 -10 11 -10 5 0 7 5 4 10 -3 6 -8 10 -11 10 -2 0
-4 -4 -4 -10z"/>
<path d="M11930 8518 c0 -12 7 -18 23 -17 15 0 17 2 7 6 -8 3 -18 11 -22 17
-5 7 -8 4 -8 -6z"/>
<path d="M10947 8503 c-4 -3 -7 -11 -7 -17 0 -6 5 -5 12 2 6 6 9 14 7 17 -3 3
-9 2 -12 -2z"/>
<path d="M10970 8501 c0 -5 5 -13 10 -16 6 -3 10 -2 10 4 0 5 -4 13 -10 16 -5
3 -10 2 -10 -4z"/>
<path d="M11825 8186 c-5 -11 -3 -21 6 -26 19 -12 21 -7 10 21 -8 22 -10 22
-16 5z"/>
<path d="M11007 8110 c-3 -24 -3 -49 1 -54 10 -16 21 54 13 78 -6 15 -9 10
-14 -24z"/>
<path d="M11800 8135 c-10 -12 -9 -15 4 -15 11 0 14 -5 10 -12 -4 -7 -3 -8 4
-4 14 8 16 33 3 40 -5 3 -14 -1 -21 -9z"/>
<path d="M11850 8140 c-9 -6 -10 -10 -3 -10 6 0 15 5 18 10 8 12 4 12 -15 0z"/>
<path d="M10946 8081 c-3 -5 1 -11 9 -15 8 -3 15 -1 15 4 0 13 -18 22 -24 11z"/>
<path d="M11031 8035 c-1 -16 -3 -17 -10 -6 -8 12 -11 9 -16 -12 -7 -28 -1
-57 12 -57 17 0 29 36 22 65 -4 19 -7 23 -8 10z"/>
<path d="M11295 8030 c3 -5 8 -10 11 -10 2 0 4 5 4 10 0 6 -5 10 -11 10 -5 0
-7 -4 -4 -10z"/>
<path d="M11296 7995 c4 -8 7 -15 9 -15 1 0 8 7 15 15 10 13 9 15 -8 15 -15 0
-20 -5 -16 -15z"/>
<path d="M10865 7970 c-8 -13 -1 -24 14 -19 6 3 7 10 2 18 -6 10 -10 10 -16 1z"/>
<path d="M11723 7489 c4 -13 7 -32 7 -41 0 -27 17 -22 22 6 3 16 -2 30 -15 41
-19 17 -20 16 -14 -6z"/>
<path d="M11530 7481 c-14 -8 -27 -18 -30 -22 -3 -3 -14 -9 -24 -12 -29 -11
-11 -20 27 -13 39 7 86 50 65 58 -7 3 -24 -2 -38 -11z"/>
<path d="M11593 7430 c-13 -20 3 -45 38 -60 21 -9 20 -10 -10 -5 -19 3 -40 10
-48 17 -8 6 -38 10 -68 9 -30 -1 -64 3 -77 10 -22 12 -22 12 -7 -12 23 -35
112 -68 184 -69 81 0 96 11 62 43 -15 13 -27 29 -27 35 0 6 -8 16 -17 22 -16
9 -15 10 5 5 12 -4 22 -2 22 3 0 18 -47 20 -57 2z"/>
<path d="M11723 7378 c-15 -25 -12 -46 7 -51 15 -4 24 2 35 23 8 16 15 31 15
35 0 11 -49 5 -57 -7z"/>
<path d="M12442 7342 c-7 -5 -10 -16 -6 -25 9 -25 24 -20 24 8 0 28 0 28 -18
17z"/>
<path d="M12503 7323 c-7 -15 -11 -29 -8 -31 3 -3 5 0 5 7 0 7 4 10 9 6 14 -8
23 12 14 29 -6 12 -11 9 -20 -11z"/>
<path d="M12588 7343 c7 -3 16 -2 19 1 4 3 -2 6 -13 5 -11 0 -14 -3 -6 -6z"/>
<path d="M11465 7310 c9 -15 106 -63 113 -56 3 3 11 1 18 -5 7 -6 14 -6 18 0
3 5 -13 16 -36 24 -24 8 -60 22 -81 32 -22 9 -36 11 -32 5z"/>
<path d="M12245 7310 c-3 -5 1 -10 9 -10 9 0 16 5 16 10 0 6 -4 10 -9 10 -6 0
-13 -4 -16 -10z"/>
<path d="M12216 7296 c3 -8 0 -17 -7 -22 -8 -4 -10 -3 -5 4 5 8 2 10 -8 6 -29
-11 -17 -31 23 -39 24 -4 36 32 16 51 -17 18 -26 18 -19 0z"/>
<path d="M11397 7284 c6 -15 23 -19 23 -5 0 5 -7 11 -14 14 -10 4 -13 1 -9 -9z"/>
<path d="M11855 7290 c-4 -6 -11 -8 -16 -5 -5 4 -9 1 -9 -4 0 -15 13 -14 28 1
10 10 15 10 22 -2 8 -13 10 -12 10 3 0 18 -25 24 -35 7z"/>
<path d="M12075 7280 c3 -5 14 -10 23 -10 15 0 15 2 2 10 -20 13 -33 13 -25 0z"/>
<path d="M12007 7272 c0 -2 -3 -17 -7 -33 -8 -27 -7 -28 11 -19 22 12 24 21 7
41 -7 8 -12 13 -11 11z"/>
<path d="M11723 7250 c-13 -5 -23 -14 -23 -19 0 -7 9 -6 25 1 14 6 25 15 25
20 0 9 2 9 -27 -2z"/>
<path d="M12379 7247 c7 -9 20 -17 29 -17 14 0 8 15 -6 15 -4 0 -14 4 -22 10
-13 8 -13 7 -1 -8z"/>
<path d="M11450 7241 c0 -9 24 -21 41 -21 5 0 9 7 9 15 0 9 -9 15 -25 15 -14
0 -25 -4 -25 -9z"/>
<path d="M11673 7238 c-15 -19 -23 -48 -15 -48 4 0 13 14 19 30 12 32 11 37
-4 18z"/>
<path d="M12255 7230 c-4 -6 -10 -8 -15 -5 -5 3 -11 1 -15 -5 -3 -5 -2 -10 4
-10 5 0 16 -2 23 -5 9 -4 14 2 14 15 0 23 -2 24 -11 10z"/>
<path d="M11510 7210 c0 -5 5 -10 10 -10 6 0 10 5 10 10 0 6 -4 10 -10 10 -5
0 -10 -4 -10 -10z"/>
<path d="M12377 7213 c-11 -10 -8 -25 3 -18 6 3 10 2 10 -3 0 -5 7 -9 15 -9
13 0 13 3 -2 19 -18 21 -17 20 -26 11z"/>
<path d="M11834 7201 c4 -5 13 -8 21 -7 25 4 25 12 -1 14 -14 1 -23 -2 -20 -7z"/>
<path d="M11883 7117 c-3 -6 -1 -13 5 -15 7 -2 12 -10 12 -18 0 -21 24 -17 49
10 19 20 20 24 7 29 -10 4 -16 1 -16 -8 0 -7 -4 -17 -10 -20 -5 -3 -7 0 -4 8
6 17 -33 30 -43 14z"/>
<path d="M11424 7095 c1 -18 4 -20 19 -11 22 14 22 22 -2 29 -14 3 -18 -1 -17
-18z"/>
<path d="M11966 7091 c-3 -5 3 -11 14 -14 24 -6 36 8 14 17 -20 8 -22 8 -28
-3z"/>
<path d="M12110 7061 c0 -17 14 -18 40 -5 l25 14 -32 0 c-18 0 -33 -4 -33 -9z"/>
<path d="M11940 7030 c0 -5 -9 -10 -20 -10 -22 0 -26 -10 -9 -27 11 -11 59 -6
59 7 0 5 10 6 22 2 14 -3 19 -2 14 6 -4 7 -16 12 -27 12 -10 0 -19 5 -19 10 0
6 -4 10 -10 10 -5 0 -10 -4 -10 -10z"/>
<path d="M11655 7000 c-3 -5 1 -10 10 -10 9 0 13 5 10 10 -3 6 -8 10 -10 10
-2 0 -7 -4 -10 -10z"/>
<path d="M11755 7000 c-3 -5 -16 -10 -29 -10 -38 0 -38 -13 -1 -26 22 -7 49
-9 70 -4 19 4 36 6 38 3 3 -2 8 1 13 8 4 7 3 10 -4 5 -6 -3 -12 3 -15 16 l-4
23 -2 -22 c-1 -28 -12 -29 -29 -3 -13 22 -27 26 -37 10z"/>
<path d="M11535 6990 c-3 -5 -1 -10 4 -10 6 0 11 5 11 10 0 6 -2 10 -4 10 -3
0 -8 -4 -11 -10z"/>
<path d="M12151 10416 c-45 -48 9 -118 64 -82 31 20 33 58 5 86 -26 26 -42 25
-69 -4z"/>
<path d="M12850 9465 c7 -9 15 -13 17 -11 7 7 -7 26 -19 26 -6 0 -6 -6 2 -15z"/>
<path d="M12428 9403 c7 -3 16 -2 19 1 4 3 -2 6 -13 5 -11 0 -14 -3 -6 -6z"/>
<path d="M12441 9374 c0 -11 3 -14 6 -6 3 7 2 16 -1 19 -3 4 -6 -2 -5 -13z"/>
<path d="M12407 9233 c-11 -10 -8 -55 2 -48 5 3 12 1 16 -5 8 -14 25 -13 25 2
0 6 -3 9 -6 5 -11 -11 -34 21 -28 37 6 17 2 21 -9 9z"/>
<path d="M13585 9169 c-4 -6 -5 -12 -2 -15 2 -3 7 2 10 11 7 17 1 20 -8 4z"/>
<path d="M13606 9139 c3 -5 24 -19 47 -30 23 -12 79 -53 125 -91 46 -39 86
-67 89 -64 8 8 -37 56 -51 56 -6 0 -17 9 -24 21 -11 17 -11 24 -1 37 11 14 11
15 -1 5 -8 -7 -19 -13 -24 -13 -6 0 -4 5 4 10 13 8 13 12 -3 27 -17 17 -18 17
-23 -4 -6 -22 -7 -22 -36 7 -16 17 -34 28 -39 24 -5 -3 -23 1 -39 10 -17 8
-28 10 -24 5z"/>
<path d="M13780 9100 c0 -5 5 -10 10 -10 6 0 10 5 10 10 0 6 -4 10 -10 10 -5
0 -10 -4 -10 -10z"/>
<path d="M13848 9073 c7 -3 16 -2 19 1 4 3 -2 6 -13 5 -11 0 -14 -3 -6 -6z"/>
<path d="M13035 8989 c-4 -6 -5 -12 -2 -15 2 -3 7 2 10 11 7 17 1 20 -8 4z"/>
<path d="M13630 8966 c0 -19 177 -181 240 -220 27 -17 68 -44 90 -60 48 -35
130 -52 130 -28 0 9 8 24 18 35 16 20 16 20 -3 13 -56 -21 -73 -18 -156 25
-46 24 -88 48 -94 54 -5 6 -35 31 -65 55 -30 24 -77 66 -104 92 -53 53 -56 54
-56 34z"/>
<path d="M13970 8950 c0 -13 18 -22 24 -11 3 5 -1 11 -9 15 -8 3 -15 1 -15 -4z"/>
<path d="M13905 8920 c3 -5 10 -10 16 -10 5 0 9 5 9 10 0 6 -7 10 -16 10 -8 0
-12 -4 -9 -10z"/>
<path d="M13955 8870 c-9 -15 0 -25 42 -49 36 -20 36 -20 13 -1 -14 11 -31 25
-38 31 -7 5 -10 14 -7 20 4 5 4 9 1 9 -3 0 -8 -4 -11 -10z"/>
<path d="M14105 8651 c-7 -7 6 -21 20 -21 7 0 15 6 18 13 4 12 -28 19 -38 8z"/>
<path d="M13940 8260 c20 -13 33 -13 25 0 -3 6 -14 10 -23 10 -15 0 -15 -2 -2
-10z"/>
<path d="M13940 8230 c0 -5 5 -10 10 -10 6 0 10 5 10 10 0 6 -4 10 -10 10 -5
0 -10 -4 -10 -10z"/>
<path d="M13910 8130 c0 -13 5 -18 15 -14 12 5 13 10 4 20 -15 19 -19 18 -19
-6z"/>
<path d="M13834 7996 c1 -8 5 -18 8 -22 4 -3 5 1 4 10 -1 8 -5 18 -8 22 -4 3
-5 -1 -4 -10z"/>
<path d="M13844 7874 c3 -9 6 -18 6 -20 0 -3 4 -3 10 1 11 7 2 35 -12 35 -6 0
-7 -7 -4 -16z"/>
<path d="M13877 7805 c-17 -24 -17 -26 4 -47 17 -18 21 -19 16 -5 -4 9 -2 17
3 17 6 0 10 -7 10 -16 0 -8 4 -13 10 -9 5 3 6 13 3 22 -4 11 -3 14 5 9 20 -12
13 18 -8 37 -25 21 -21 21 -43 -8z"/>
<path d="M13840 7809 c0 -5 5 -7 10 -4 6 3 10 8 10 11 0 2 -4 4 -10 4 -5 0
-10 -5 -10 -11z"/>
<path d="M13532 7738 c-7 -7 -12 -16 -12 -21 0 -5 7 -1 16 8 9 9 14 18 12 20
-2 3 -10 -1 -16 -7z"/>
<path d="M13495 7670 c3 -5 11 -10 16 -10 6 0 7 5 4 10 -3 6 -11 10 -16 10 -6
0 -7 -4 -4 -10z"/>
<path d="M13530 7626 c0 -2 7 -7 16 -10 8 -3 12 -2 9 4 -6 10 -25 14 -25 6z"/>
<path d="M13801 7604 c0 -11 3 -14 6 -6 3 7 2 16 -1 19 -3 4 -6 -2 -5 -13z"/>
<path d="M13892 7580 c0 -14 2 -19 5 -12 2 6 2 18 0 25 -3 6 -5 1 -5 -13z"/>
<path d="M13666 7574 c-6 -15 -1 -16 28 -5 19 7 19 8 -1 13 -14 4 -24 0 -27
-8z"/>
<path d="M13623 7545 c-3 -9 -2 -19 2 -23 4 -4 10 -1 12 6 3 6 10 9 16 5 7 -4
6 1 -2 10 -17 21 -20 21 -28 2z"/>
<path d="M13700 7522 c0 -5 7 -16 16 -23 14 -12 16 -11 13 5 -4 20 -29 35 -29
18z"/>
<path d="M13756 7511 c-4 -7 -5 -15 -2 -18 9 -9 19 4 14 18 -4 11 -6 11 -12 0z"/>
<path d="M13741 7373 c-1 -23 22 -32 34 -13 3 5 0 7 -9 4 -8 -3 -16 2 -19 13
-4 14 -5 14 -6 -4z"/>
<path d="M13750 7250 c-12 -7 -10 -9 7 -7 12 0 19 5 17 9 -6 10 -6 10 -24 -2z"/>
<path d="M13675 7230 c3 -5 13 -10 21 -10 8 0 14 5 14 10 0 6 -9 10 -21 10
-11 0 -17 -4 -14 -10z"/>
<path d="M13680 7176 c0 -2 9 -6 20 -9 11 -3 20 -1 20 4 0 5 -9 9 -20 9 -11 0
-20 -2 -20 -4z"/>
<path d="M13740 6766 c0 -2 7 -7 16 -10 8 -3 12 -2 9 4 -6 10 -25 14 -25 6z"/>
<path d="M13612 6739 c3 -8 15 -13 26 -12 16 2 21 -4 24 -25 3 -23 9 -28 44
-34 23 -3 70 -21 104 -38 34 -17 64 -29 66 -27 7 7 -115 101 -155 121 -50 24
-115 33 -109 15z"/>
<path d="M13565 6730 c-3 -5 -1 -10 4 -10 6 0 11 5 11 10 0 6 -2 10 -4 10 -3
0 -8 -4 -11 -10z"/>
<path d="M13545 6698 c-2 -7 -5 -30 -7 -51 -4 -33 -1 -38 21 -44 15 -4 35 -6
45 -5 18 1 129 -82 211 -159 25 -23 53 -39 74 -41 l34 -5 -29 21 c-72 52 -188
152 -192 166 -3 9 9 4 31 -13 45 -34 107 -61 107 -47 0 9 -8 12 -26 9 -4 0
-10 3 -13 8 -9 14 -131 84 -131 76 0 -4 -5 -2 -11 4 -8 8 -18 7 -37 -3 -34
-17 -43 -8 -49 50 -5 44 -19 60 -28 34z"/>
<path d="M13424 6513 c-4 -10 -8 -20 -8 -23 -1 -3 -5 -10 -9 -16 -4 -7 1 -18
10 -25 10 -9 14 -9 10 -2 -11 18 3 63 19 63 8 0 14 5 14 10 0 17 -27 11 -36
-7z"/>
<path d="M13470 6510 c0 -5 6 -10 14 -10 8 0 18 5 21 10 3 6 -3 10 -14 10 -12
0 -21 -4 -21 -10z"/>
<path d="M13440 6489 c0 -5 5 -7 10 -4 6 3 10 8 10 11 0 2 -4 4 -10 4 -5 0
-10 -5 -10 -11z"/>
<path d="M13448 6417 c-6 -16 1 -37 13 -37 12 0 12 37 0 44 -5 3 -11 0 -13 -7z"/>
<path d="M13516 6285 c-3 -9 0 -15 9 -15 9 0 12 6 9 15 -4 8 -7 15 -9 15 -2 0
-5 -7 -9 -15z"/>
<path d="M13473 6233 c-4 -10 2 -23 16 -35 29 -23 44 -15 29 17 -14 30 -37 40
-45 18z"/>
<path d="M13485 5830 c-3 -5 -1 -10 4 -10 6 0 11 5 11 10 0 6 -2 10 -4 10 -3
0 -8 -4 -11 -10z"/>
<path d="M10545 6260 c-3 -5 -1 -10 4 -10 6 0 11 5 11 10 0 6 -2 10 -4 10 -3
0 -8 -4 -11 -10z"/>
<path d="M10560 6225 c0 -8 4 -15 10 -15 5 0 7 7 4 15 -4 8 -8 15 -10 15 -2 0
-4 -7 -4 -15z"/>
<path d="M10640 6144 c0 -8 5 -12 10 -9 6 4 8 11 5 16 -9 14 -15 11 -15 -7z"/>
</g>
</svg>
