<?xml version="1.0" encoding="utf-8"?>
<!-- Generator: Adobe Illustrator 25.2.0, SVG Export Plug-In . SVG Version: 6.00 Build 0)  -->
<svg version="1.1" id="Capa_1" xmlns="http://www.w3.org/2000/svg" xmlns:xlink="http://www.w3.org/1999/xlink" x="0px" y="0px"
	 viewBox="0 0 64 64" style="enable-background:new 0 0 64 64;" xml:space="preserve">
<style type="text/css">
	.st0{fill:#FF0000;}
	.st1{fill:#FFFF00;}
	.st2{fill:#32FF00;}
	.st3{fill:#00FFDA;}
</style>
<g id="Capa_2_1_">
	<g>
		<g>
			<path d="M47.6,64c9,0,16.4-7.4,16.4-16.5v-31C64,7.4,56.6,0,47.5,0h-31C7.4,0,0,7.4,0,16.5v31C0,56.6,7.4,64,16.6,64"/>
		</g>
	</g>
	<g>
		<g>
			<g>
				<path class="st0" d="M34.4,0L10.6,62.9c1.8,0.7,3.8,1.1,5.9,1.1H17L41.2,0H34.4z"/>
				<path class="st1" d="M48.4,0L48.4,0c-0.3,0-0.5,0-0.8,0h-6h-0.4L17,64h0.3h6.6L48.2,0C48.3,0,48.3,0,48.4,0z"/>
				<path class="st2" d="M48.3,0c-0.1,0-0.1,0-0.2,0L23.9,64H24h6.7L54.4,1.5C52.5,0.7,50.4,0.1,48.3,0z"/>
				<path class="st2" d="M54.5,1.6L54.5,1.6L54.5,1.6L54.5,1.6z"/>
				<path class="st3" d="M54.5,1.6L54.5,1.6c-0.1-0.1-0.1-0.1-0.2-0.1l0,0L30.7,64h0.2h6.8L59.9,5.6C58.4,3.9,56.6,2.6,54.5,1.6z"/>
			</g>
		</g>
	</g>
</g>
</svg>
