<?xml version="1.0" standalone="no"?>
<!DOCTYPE svg PUBLIC "-//W3C//DTD SVG 20010904//EN"
 "http://www.w3.org/TR/2001/REC-SVG-20010904/DTD/svg10.dtd">
<svg version="1.0" xmlns="http://www.w3.org/2000/svg"
 width="4032.000000pt" height="3024.000000pt" viewBox="0 0 4032.000000 3024.000000"
 preserveAspectRatio="xMidYMid meet">
<metadata>
Created by potrace 1.16, written by Peter Selinger 2001-2019
</metadata>
<g transform="translate(0.000000,3024.000000) scale(0.100000,-0.100000)"
fill="#0E292A" stroke="none" >
<path d="M0 15120 l0 -15120 20160 0 20160 0 0 15120 0 15120 -20160 0 -20160
0 0 -15120z m7031 -890 c-22 -101 -4 -195 45 -240 l24 -23 0 56 c0 31 -4 58
-9 61 -5 4 -7 -7 -5 -24 6 -38 -10 -39 -25 -2 -21 51 2 222 30 222 14 0 22
-71 10 -96 -11 -24 -15 -64 -7 -64 2 0 10 -2 18 -5 10 -4 13 5 13 34 0 28 3
37 13 34 7 -3 11 -12 8 -20 -3 -8 2 -17 12 -20 22 -9 92 -74 92 -88 1 -13 90
-55 118 -55 11 0 24 5 27 10 4 6 15 0 27 -15 16 -21 58 -36 58 -21 0 2 3 11 6
20 4 9 1 16 -6 16 -12 0 -39 28 -40 41 0 4 9 9 20 12 11 3 20 1 20 -4 0 -5 5
-8 11 -6 6 1 23 -19 38 -44 33 -58 63 -99 74 -99 4 0 5 6 1 13 -6 9 -4 9 7 1
8 -6 22 -9 31 -5 16 6 16 9 3 35 -9 16 -33 49 -55 72 -44 48 -47 61 -24 106
11 22 18 27 24 18 6 -9 11 -7 19 8 13 24 41 19 41 -7 0 -20 62 -127 90 -155
16 -16 18 -16 16 -3 -1 9 -10 25 -21 37 -16 18 -17 20 -1 20 9 0 19 -7 22 -15
7 -17 44 -21 44 -4 0 5 4 8 9 5 5 -3 11 4 14 15 3 12 11 19 18 17 14 -5 59
-83 59 -103 0 -9 6 -12 15 -9 8 4 15 18 15 33 0 20 2 23 10 11 9 -13 10 -13
10 0 0 13 2 13 11 0 12 -16 10 -9 -5 30 -8 19 9 45 23 36 6 -4 11 -16 11 -27
0 -21 16 -26 22 -7 2 6 15 0 30 -15 33 -33 98 -70 98 -56 0 6 7 6 20 -1 18 -9
19 -13 6 -25 -18 -19 -106 -9 -123 13 -7 9 -13 11 -13 5 0 -6 -21 -13 -47 -16
-79 -10 -114 -16 -124 -22 -5 -4 -9 0 -9 7 -1 7 -8 -3 -16 -22 -16 -38 -33
-52 -51 -45 -12 4 -17 -7 -14 -27 0 -5 -4 -8 -9 -8 -6 0 -10 5 -10 11 0 8 -4
8 -14 -1 -8 -6 -13 -17 -10 -24 3 -8 -9 -13 -37 -14 -27 -2 -38 1 -34 8 3 6
11 7 17 4 6 -4 5 2 -2 15 -7 15 -17 20 -29 16 -17 -5 -71 34 -71 52 0 30 -164
55 -259 41 -31 -5 -87 -9 -124 -9 -39 0 -75 -5 -84 -12 -39 -31 -61 -60 -57
-72 3 -7 -3 -15 -13 -18 -16 -4 -15 -5 3 -6 11 0 25 -6 31 -12 8 -8 21 -8 47
1 20 6 42 9 49 7 6 -3 3 -6 -8 -6 -14 -1 -16 -4 -7 -9 9 -7 7 -15 -12 -35 -14
-15 -26 -37 -28 -49 -3 -21 1 -23 47 -23 28 -1 59 -6 71 -12 17 -10 21 -9 21
2 0 8 -4 13 -8 12 -17 -5 -12 40 5 46 10 4 13 1 10 -7 -8 -20 22 -44 61 -52
46 -8 60 -2 76 35 18 39 28 40 27 1 -1 -45 -75 -90 -148 -90 -52 0 -53 -1 -36
-19 25 -28 93 -42 154 -32 29 4 52 6 52 4 0 -6 74 51 78 60 2 4 14 7 26 7 29
0 64 38 72 78 6 32 30 53 66 59 23 4 55 -32 63 -69 4 -16 18 -56 31 -88 18
-45 22 -70 18 -103 -5 -33 -1 -52 15 -82 23 -43 27 -70 11 -80 -5 -3 -10 -11
-10 -16 0 -6 4 -8 9 -4 6 3 15 -3 20 -13 9 -17 7 -18 -16 -14 -21 4 -25 2 -20
-12 5 -11 1 -16 -12 -16 -22 0 -91 -61 -91 -79 0 -11 -3 -11 -15 -1 -8 7 -15
21 -15 31 0 20 -46 49 -78 49 -23 0 -42 -19 -42 -41 0 -13 -7 -16 -27 -14
l-26 3 24 -19 c13 -10 38 -19 54 -19 23 0 35 -7 48 -29 9 -15 14 -31 10 -35
-3 -3 -1 -6 5 -6 6 0 18 -7 26 -16 15 -15 21 -8 17 19 -1 4 8 3 19 -3 11 -5
29 -14 40 -20 10 -5 26 -7 35 -4 20 8 19 -9 -3 -36 -16 -20 -26 -21 -131 -21
-62 1 -143 -5 -181 -13 -73 -16 -115 -10 -115 14 0 8 -10 16 -21 18 -19 3 -22
-3 -28 -47 -6 -44 -9 -49 -29 -46 -22 4 -22 4 2 -16 28 -23 73 -23 109 -1 12
8 34 12 50 9 15 -3 47 -1 70 5 48 12 182 -7 182 -25 0 -5 -14 -7 -30 -5 -17 3
-33 1 -36 -4 -3 -4 4 -8 16 -8 12 0 18 -4 15 -10 -3 -5 3 -10 14 -10 12 0 21
-4 21 -8 0 -4 -25 -7 -55 -5 -36 1 -55 -2 -55 -9 0 -6 3 -9 6 -5 12 11 54 -41
47 -59 -3 -10 -2 -15 3 -12 23 14 104 48 113 48 6 0 11 -4 11 -10 0 -5 7 -7
15 -4 11 5 13 10 5 19 -5 6 -6 16 -2 20 4 5 1 5 -5 1 -7 -4 -13 -2 -13 4 0 6
-5 8 -10 5 -6 -3 -18 2 -27 11 -17 16 -16 17 12 9 17 -5 40 -8 52 -8 13 1 21
-3 18 -7 -3 -5 -1 -11 4 -14 5 -4 12 -2 15 3 3 5 35 12 71 16 36 3 63 11 60
16 -4 5 1 6 9 3 22 -8 49 -55 52 -89 3 -26 2 -27 -6 -9 -10 26 -30 41 -30 23
0 -6 11 -22 26 -35 26 -25 22 -28 -38 -18 -34 6 -37 9 -32 30 5 19 2 24 -14
24 -11 0 -23 6 -25 13 -3 7 -6 5 -6 -5 -1 -10 5 -18 12 -18 6 0 12 -11 12 -25
0 -14 -4 -25 -8 -25 -5 0 -5 -5 -2 -10 4 -6 10 -8 15 -5 4 3 10 -1 12 -7 4
-10 14 -11 46 -2 23 6 39 7 36 2 -3 -5 0 -17 8 -26 12 -15 11 -16 -4 -4 -11 9
-29 11 -52 6 -24 -4 -36 -2 -36 5 0 6 -4 11 -10 11 -5 0 -7 -7 -4 -15 4 -9 20
-16 43 -16 24 -1 29 -3 13 -6 -22 -4 -23 -6 -7 -23 15 -17 15 -18 -8 -16 -14
0 -23 5 -20 10 3 5 0 6 -8 4 -9 -3 -13 -16 -11 -32 2 -16 -1 -25 -7 -22 -14 9
-42 -5 -34 -17 4 -6 0 -8 -10 -4 -9 3 -24 -1 -33 -10 -15 -15 -17 -15 -26 0
-5 9 -17 17 -26 17 -13 0 -14 -2 -4 -9 20 -12 -25 -22 -70 -14 -29 4 -38 2
-38 -8 0 -11 -2 -11 -10 1 -7 12 -13 10 -34 -13 -26 -28 -48 -38 -26 -12 14
16 10 18 -14 9 -9 -3 -14 -10 -11 -14 4 -7 -8 -5 -70 10 -23 6 -35 -1 -35 -20
0 -23 -18 -27 -26 -6 -4 11 -13 12 -37 5 -27 -8 -36 -5 -69 22 -21 16 -57 39
-81 49 l-42 19 -6 -22 -5 -22 -8 23 c-6 19 -26 32 -26 17 0 -10 40 -85 46 -85
3 0 2 5 -2 12 -5 8 -2 9 12 3 10 -4 28 -8 39 -9 29 -1 44 -25 39 -63 -2 -17 0
-35 6 -38 5 -3 10 0 10 8 0 22 45 48 58 35 7 -7 20 -13 29 -14 121 -19 169
-36 157 -56 -3 -5 -12 -1 -20 9 -7 10 -14 16 -15 13 -8 -36 -8 -60 0 -60 6 0
8 6 6 13 -3 7 4 13 20 13 14 1 25 -1 25 -3 0 -11 -35 -32 -52 -33 -9 0 -18 -4
-20 -9 -5 -15 -43 -18 -40 -3 2 14 -14 16 -23 2 -14 -22 -42 -9 -55 26 -8 20
-22 40 -32 45 -25 13 -67 -6 -65 -29 0 -11 6 -18 13 -15 7 3 10 12 8 21 -5 15
-4 15 9 0 8 -10 21 -18 30 -18 9 0 18 -4 22 -9 3 -6 -5 -8 -19 -5 -21 3 -23 1
-18 -18 3 -12 7 -17 10 -10 4 14 22 16 22 3 0 -5 -7 -17 -16 -25 -14 -15 -14
-16 0 -16 9 0 16 -6 16 -14 0 -7 9 -16 20 -19 11 -3 20 -12 20 -21 0 -12 10
-16 41 -16 22 0 38 -4 35 -9 -3 -5 -15 -7 -26 -4 -33 9 -23 -5 25 -33 33 -19
45 -32 45 -50 0 -19 5 -23 29 -21 16 1 27 6 24 11 -3 4 5 5 17 1 18 -6 22 -4
17 8 -5 14 11 27 33 27 10 0 -27 -75 -45 -90 -10 -9 -15 -6 -20 9 -6 21 -25
29 -25 11 0 -5 5 -10 10 -10 19 0 10 -19 -16 -37 -25 -16 -27 -16 -43 6 -10
13 -25 21 -37 19 -15 -2 -19 3 -19 27 0 25 -5 31 -25 33 -24 2 -24 2 -6 -13
25 -19 7 -19 -30 0 -16 8 -22 15 -14 15 8 0 24 8 35 17 16 12 16 14 3 10 -10
-3 -20 -2 -23 3 -3 5 -14 7 -25 5 -11 -2 -23 1 -26 7 -5 7 -2 8 7 3 12 -8 12
-6 0 8 -16 20 -31 14 -26 -12 3 -18 2 -18 -35 2 -22 11 -37 24 -34 29 3 4 -2
8 -11 8 -8 0 -18 -7 -21 -15 -5 -11 -11 -12 -25 -4 -13 6 -19 6 -19 0 0 -6 9
-15 20 -21 23 -13 26 -27 5 -27 -8 0 -12 4 -9 8 6 11 -34 32 -50 26 -7 -3 -19
-1 -27 4 -10 6 -4 9 19 9 19 0 31 4 27 10 -3 5 -13 6 -22 3 -9 -4 -14 -2 -11
3 5 7 -37 10 -60 5 -2 -1 4 -8 13 -17 20 -20 14 -28 -14 -19 -22 7 -28 29 -11
40 6 4 8 10 5 14 -6 11 -55 1 -55 -11 0 -5 5 -6 12 -2 7 4 8 3 4 -5 -4 -6 -13
-8 -19 -4 -7 4 -23 9 -37 11 -29 4 -50 19 -50 37 0 6 -11 18 -25 25 -14 7 -25
19 -25 26 0 7 -4 16 -10 19 -6 4 -7 -1 -3 -11 4 -12 3 -15 -5 -10 -21 13 -13
-16 19 -66 66 -102 203 -191 467 -303 126 -53 199 -45 322 38 29 20 56 34 59
31 15 -15 -138 -124 -175 -124 -7 0 -11 -6 -8 -14 10 -26 -51 -39 -149 -33
-76 5 -88 4 -69 -7 18 -9 20 -14 10 -25 -11 -11 -9 -12 7 -7 15 4 23 -1 32
-21 13 -27 9 -48 -8 -38 -5 4 -9 1 -9 -4 0 -17 19 -13 50 9 16 11 46 27 67 34
35 12 90 38 171 81 36 18 109 16 121 -4 4 -5 15 3 26 19 11 16 30 34 43 40 23
10 24 9 18 -12 -3 -13 -6 -28 -6 -35 0 -7 -10 -22 -23 -35 -13 -13 -26 -31
-30 -40 -5 -14 -65 -48 -85 -48 -11 0 47 40 60 41 7 0 4 4 -7 9 -11 5 -14 9
-7 9 6 1 12 6 12 13 0 9 -3 9 -12 0 -7 -7 -20 -12 -30 -12 -10 0 -18 -4 -18
-9 0 -5 10 -7 23 -5 14 3 11 -1 -10 -11 -22 -10 -31 -20 -27 -30 4 -11 -5 -20
-30 -30 -39 -17 -83 -20 -88 -6 -1 4 -12 5 -23 0 -19 -7 -19 -8 3 -8 40 -2 23
-21 -18 -21 -23 0 -52 -7 -65 -16 -23 -15 -25 -15 -25 0 0 18 -5 19 -35 6 -19
-8 -18 -9 4 -9 26 -1 21 -13 -7 -17 -98 -14 -122 -22 -122 -39 0 -9 6 -12 17
-8 11 4 14 3 9 -5 -4 -7 -18 -12 -31 -12 -18 0 -22 -4 -18 -20 6 -24 -12 -27
-21 -4 -6 15 -9 14 -25 -5 -10 -11 -22 -17 -26 -13 -5 4 -5 2 -2 -4 4 -7 0
-17 -8 -24 -8 -7 -15 -20 -15 -30 0 -10 -7 -21 -16 -24 -9 -3 -14 -12 -11 -19
3 -8 0 -14 -6 -15 -7 0 -23 -4 -37 -7 -19 -5 -22 -4 -10 4 13 10 13 11 0 11
-8 0 -21 4 -29 9 -11 7 -10 13 2 32 9 13 16 26 17 29 5 35 16 51 38 57 14 3
43 16 64 28 l39 22 -40 7 c-22 3 -47 3 -55 0 -9 -3 -16 -1 -16 5 0 6 -17 10
-42 8 -32 -1 -43 2 -44 13 0 8 -3 29 -7 45 -10 43 14 116 42 126 18 7 20 6 12
-9 -8 -15 -5 -18 22 -20 17 -2 47 -12 65 -22 l33 -20 -7 22 c-3 13 -11 25 -15
26 -5 2 -9 10 -9 18 0 8 -4 15 -10 15 -5 1 -16 2 -22 3 -7 1 -16 -3 -20 -8 -4
-6 -12 2 -17 17 -6 15 -22 32 -36 39 -14 6 -25 17 -25 24 0 7 -6 11 -14 8 -15
-6 -41 74 -38 115 3 34 -31 66 -85 82 -42 11 -47 11 -60 -7 -8 -11 -11 -29 -8
-42 3 -13 0 -31 -7 -40 -8 -9 -9 -17 -3 -19 27 -9 38 -23 38 -47 0 -14 3 -26
8 -26 14 0 10 62 -6 90 -21 37 -19 80 3 80 28 0 62 -29 63 -53 0 -12 3 -16 6
-9 8 20 23 14 23 -9 0 -12 -7 -27 -15 -33 -13 -9 -16 -50 -18 -258 -1 -135 1
-257 4 -269 6 -21 7 -20 8 9 1 38 31 72 65 72 20 0 25 -7 33 -49 7 -37 6 -53
-4 -67 -7 -10 -13 -33 -13 -51 0 -22 -5 -33 -14 -33 -16 0 -31 -34 -21 -50 3
-5 2 -10 -3 -10 -18 0 -23 -62 -7 -92 13 -26 13 -29 0 -24 -8 3 -15 1 -15 -4
0 -6 6 -10 14 -10 8 0 17 -10 19 -22 3 -13 3 8 2 46 -3 63 -2 68 12 53 13 -13
14 -19 3 -31 -11 -14 -9 -16 14 -16 32 0 106 64 106 92 0 11 5 16 10 13 6 -4
7 -11 4 -17 -4 -6 -1 -9 6 -6 19 6 36 35 27 45 -5 4 -12 1 -17 -7 -7 -11 -10
-12 -10 -2 0 7 -4 10 -10 7 -11 -7 -13 6 -4 30 5 12 9 13 14 5 14 -22 32 0 25
30 -6 26 -4 28 16 23 19 -5 21 -3 17 20 -3 15 -1 27 3 27 5 0 9 -7 9 -15 0
-10 10 -15 28 -15 17 0 22 3 15 8 -10 6 -7 17 13 43 14 19 30 33 35 31 14 -3
11 15 -7 32 -14 15 -11 20 8 17 4 0 5 5 2 13 -7 17 12 30 33 22 12 -5 13 -9 4
-20 -8 -10 -9 -16 -1 -21 6 -3 8 -11 5 -16 -4 -5 1 -9 10 -9 8 0 18 -7 21 -15
4 -8 25 -18 47 -22 33 -5 37 -8 22 -14 -19 -7 -19 -8 2 -8 12 -1 23 5 26 12 2
6 10 -1 18 -18 7 -16 20 -34 27 -38 11 -7 11 -11 -1 -20 -17 -15 -30 -47 -18
-47 5 0 11 6 14 13 2 6 8 8 13 4 5 -5 1 -14 -9 -22 -19 -13 -7 -32 13 -20 6 3
10 1 10 -4 0 -6 -13 -11 -30 -11 -21 0 -30 -5 -30 -16 0 -13 3 -14 14 -5 18
15 46 3 46 -20 0 -10 5 -19 10 -19 6 0 8 -11 4 -27 -9 -36 -13 -40 -23 -24 -6
10 -10 10 -16 1 -4 -6 -4 -14 -1 -18 10 -9 46 -10 40 0 -3 4 0 8 5 8 6 0 10
10 8 23 -1 14 3 22 13 22 8 0 21 5 28 12 7 7 20 9 30 6 16 -6 16 -6 0 11 -26
25 -22 46 7 46 16 0 25 6 25 15 0 9 9 15 25 15 14 0 25 4 25 9 0 6 12 6 31 1
41 -12 53 -24 15 -14 -21 5 -27 4 -22 -5 4 -6 17 -11 28 -11 21 0 21 0 -1 -19
-16 -14 -18 -21 -9 -24 7 -3 0 -6 -17 -6 -46 -2 -9 -21 40 -21 l40 0 3 63 c1
34 10 118 18 187 9 69 18 145 20 170 3 25 12 67 20 94 8 27 14 61 14 75 0 28
16 18 22 -14 2 -12 11 -20 23 -20 20 0 35 -12 35 -29 0 -5 -7 -3 -15 4 -8 6
-19 9 -25 5 -5 -3 -10 -1 -10 4 0 6 -6 11 -14 11 -14 0 -33 -86 -22 -98 3 -3
6 0 6 6 0 7 5 12 10 12 6 0 10 -11 10 -25 0 -14 8 -29 19 -35 23 -12 58 -75
38 -67 -8 3 -14 -3 -14 -14 -1 -11 2 -17 7 -14 7 4 5 -50 -5 -97 -1 -9 2 -19
9 -21 8 -3 8 -8 -1 -18 -9 -9 -9 -16 -2 -25 7 -9 7 -19 0 -33 -15 -27 -14 -54
1 -45 7 5 8 3 2 -7 -18 -29 -13 -41 9 -21 28 25 126 77 132 70 3 -3 -17 -47
-44 -99 -61 -117 -80 -175 -62 -192 11 -10 12 -8 7 8 -3 11 -1 27 5 35 9 13
10 12 5 -2 -3 -10 -2 -18 3 -18 4 0 14 19 21 43 7 23 22 49 33 58 13 11 16 18
8 23 -7 5 -4 14 9 28 11 12 20 30 20 39 0 24 50 63 64 49 15 -15 36 -12 36 5
0 27 38 93 75 129 19 20 35 41 35 48 0 10 2 10 8 1 6 -10 17 -10 42 -3 19 6
55 11 80 11 25 1 37 3 27 6 -9 2 -14 9 -10 15 4 8 0 9 -13 4 -27 -10 -74 -19
-74 -14 0 2 12 15 27 27 18 17 24 19 20 7 -4 -9 -2 -16 2 -16 15 0 19 23 9 44
-7 12 -6 22 1 29 7 7 7 15 -1 24 -9 12 -7 13 15 8 15 -4 27 -5 27 -2 0 14 -13
36 -19 33 -3 -2 -7 16 -9 39 -2 44 10 66 24 44 4 -8 3 -9 -4 -5 -13 8 -16 -12
-6 -39 6 -13 9 -14 16 -3 6 8 7 2 3 -19 -4 -19 -2 -34 5 -38 17 -11 27 5 10
16 -13 8 -13 11 3 20 18 11 24 39 7 39 -5 0 -10 18 -10 40 0 43 2 45 30 30 17
-9 63 2 80 20 3 3 11 5 18 6 6 1 19 2 27 3 9 0 15 10 14 24 0 21 -1 21 -9 2
-8 -19 -9 -19 -9 2 -1 12 7 27 17 32 15 9 15 10 -5 11 -13 0 -23 -4 -23 -10 0
-5 -8 -10 -17 -10 -16 -1 -16 -2 1 -15 19 -14 19 -15 -7 -15 -22 0 -27 5 -27
25 0 20 5 24 23 22 19 -2 22 2 20 28 -2 28 -1 29 12 11 14 -19 15 -19 37 0 40
34 50 44 42 44 -3 0 -2 6 2 13 5 6 9 27 9 45 0 18 4 32 11 32 20 0 24 39 6 50
-14 8 -14 9 -2 10 15 0 40 42 40 67 0 7 7 13 15 13 8 0 15 7 15 16 0 9 -5 12
-12 8 -8 -5 -7 0 2 11 11 14 12 19 3 22 -14 5 -18 24 -5 22 19 -3 29 2 29 16
0 8 -5 15 -11 15 -6 0 2 11 18 23 20 16 26 26 17 31 -6 4 -9 12 -6 17 4 5 1 9
-5 9 -6 0 0 11 12 24 13 13 28 21 33 18 6 -3 2 4 -9 16 -12 14 -16 28 -11 39
5 14 9 15 12 4 4 -9 7 -10 12 -2 5 8 16 5 34 -9 l27 -21 2 28 c0 15 2 33 3 38
2 6 3 15 4 22 0 6 20 14 44 16 l42 3 -32 8 c-18 5 -30 12 -27 17 10 17 47 9
79 -16 18 -13 35 -21 39 -18 3 4 6 2 6 -4 0 -6 9 -13 21 -16 12 -3 18 -10 14
-16 -3 -6 -11 -8 -17 -5 -6 4 -14 0 -19 -7 -13 -21 -11 -30 9 -28 30 3 38 -1
22 -11 -8 -5 -11 -12 -7 -16 3 -4 13 -1 22 6 14 11 13 14 -2 26 -15 10 -16 15
-5 25 10 11 18 6 42 -21 16 -19 34 -47 41 -63 8 -19 25 -32 61 -45 l50 -17 -5
-80 c-5 -76 -4 -83 25 -135 17 -30 34 -57 38 -60 26 -18 34 -64 36 -202 1 -88
6 -153 12 -161 6 -7 16 -53 22 -102 6 -49 15 -94 20 -101 6 -6 6 -14 2 -18 -4
-4 0 -6 8 -4 14 3 16 -2 19 -42 0 -11 5 -20 10 -20 14 0 21 44 9 51 -6 4 -12
17 -13 28 -2 19 0 20 16 5 20 -18 109 -166 126 -209 20 -53 16 -93 -12 -111
-20 -13 -23 -19 -14 -30 6 -8 15 -14 20 -14 30 0 107 -129 134 -225 9 -33 33
-98 52 -145 97 -233 189 -552 223 -770 7 -41 16 -100 22 -130 5 -30 12 -128
15 -217 8 -227 -11 -293 -84 -293 -23 0 -32 -4 -27 -12 4 -7 3 -8 -5 -4 -6 4
-19 2 -27 -5 -8 -6 -44 -13 -81 -14 -63 -2 -68 -1 -95 28 -15 18 -28 28 -28
25 0 -4 -17 -1 -38 6 -20 7 -52 12 -69 11 -18 -2 -38 3 -44 11 -6 8 -18 14
-25 14 -8 0 -14 5 -14 11 0 6 -9 9 -20 6 -11 -3 -18 -2 -15 2 4 7 -22 23 -50
31 -5 2 -14 9 -20 16 -5 8 -41 30 -79 49 -38 19 -84 44 -102 56 -62 38 -58 14
4 -29 34 -23 64 -42 67 -42 3 0 13 -8 24 -17 41 -39 84 -73 92 -73 5 0 9 -4 9
-9 0 -4 41 -50 91 -101 62 -64 87 -95 78 -101 -15 -9 -46 2 -126 47 -34 19
-73 34 -87 34 -14 0 -26 4 -26 9 0 10 -47 27 -70 25 -8 -1 -24 -3 -35 -4 -19
-1 -19 -2 3 -12 12 -6 22 -17 22 -25 0 -7 9 -13 20 -13 11 0 20 -4 20 -9 0 -5
24 -21 54 -35 71 -34 78 -52 23 -61 -23 -4 -46 -11 -52 -15 -16 -12 -89 -34
-104 -31 -7 1 -10 -2 -7 -8 4 -6 -12 -15 -36 -22 -24 -6 -44 -10 -44 -8 -1 2
-10 -3 -20 -12 -11 -9 -36 -22 -56 -30 -21 -7 -34 -17 -31 -23 3 -6 3 -8 -1
-5 -4 4 -24 2 -44 -3 -20 -5 -46 -11 -57 -13 -11 -3 -29 -6 -40 -9 -11 -2 -33
-5 -49 -5 -21 -1 -27 -5 -22 -16 4 -11 -2 -15 -21 -15 -14 0 -31 -8 -38 -17
-9 -12 -25 -16 -58 -15 -30 2 -50 -2 -60 -13 -17 -17 -57 -21 -57 -5 0 6 -7
10 -16 10 -14 0 -14 -3 -4 -15 11 -13 10 -14 -4 -9 -11 4 -16 1 -16 -10 0 -15
-2 -15 -25 0 -17 11 -25 12 -25 4 0 -6 -10 -10 -22 -9 -28 4 -51 -9 -42 -23 5
-8 -3 -9 -24 -5 -20 4 -32 2 -32 -4 0 -6 -7 -9 -15 -6 -8 4 -17 1 -21 -5 -4
-7 -9 -6 -14 2 -5 8 -13 9 -21 4 -8 -5 -18 -9 -24 -10 -5 0 -16 -2 -22 -2 -7
-1 -13 -7 -13 -13 0 -6 8 -8 18 -5 13 4 18 1 18 -14 0 -24 -1 -24 -26 -8 -10
7 -23 8 -27 4 -4 -5 -2 -11 5 -13 6 -3 12 -9 12 -15 0 -6 -7 -8 -15 -5 -8 4
-17 2 -20 -3 -9 -15 -25 -12 -25 5 0 8 5 15 10 15 16 0 12 27 -6 34 -12 4 -14
1 -9 -14 5 -14 2 -20 -9 -20 -9 0 -16 -4 -16 -8 0 -10 -44 -32 -62 -32 -6 0
-2 8 10 18 21 19 21 19 -13 19 -31 0 -33 -2 -24 -24 7 -19 5 -23 -11 -23 -11
0 -20 7 -20 15 0 8 -7 15 -16 15 -8 0 -13 4 -10 8 2 4 -13 8 -35 7 -21 0 -39
-3 -39 -7 0 -5 12 -8 26 -8 16 0 23 -4 18 -12 -5 -7 0 -9 14 -6 32 9 37 -20 6
-32 -32 -13 -54 -13 -35 -1 22 14 3 32 -27 24 -15 -3 -30 -10 -33 -15 -3 -5
-17 -4 -33 3 -19 9 -23 15 -14 21 9 5 3 8 -15 8 -16 0 -26 -4 -22 -10 3 -5 -3
-10 -14 -10 -13 0 -21 7 -21 18 0 14 -2 15 -10 2 -19 -30 -12 -43 23 -38 17 3
41 2 52 -3 18 -7 18 -8 -5 -8 -14 -1 -32 -6 -40 -11 -11 -7 -6 -10 20 -10 39
1 194 -6 198 -9 6 -3 17 5 15 11 -7 19 48 18 86 -1 28 -15 40 -17 39 -9 -2 8
5 12 17 11 60 -8 139 -3 145 8 5 8 22 10 51 6 32 -4 53 0 82 15 22 11 48 17
58 15 11 -3 17 -2 14 3 -2 4 14 6 38 5 23 -2 50 1 59 6 11 6 19 5 24 -2 4 -8
9 -8 17 0 6 6 19 11 29 11 10 0 18 5 18 10 0 6 5 10 10 10 18 0 10 -21 -17
-46 -44 -39 -142 -96 -153 -89 -5 3 -10 -1 -10 -10 0 -8 -8 -18 -17 -22 -10
-3 -27 -13 -37 -22 -16 -13 -18 -13 -11 -1 6 11 3 10 -11 -2 -11 -10 -31 -19
-45 -22 -13 -2 -23 -9 -21 -16 1 -6 -2 -9 -8 -5 -5 3 -10 1 -10 -4 0 -6 -3
-10 -7 -9 -11 4 -73 -26 -73 -34 0 -4 -7 -5 -15 -2 -9 4 -18 -1 -21 -11 -4 -9
-12 -14 -19 -11 -7 2 -34 -9 -60 -25 -25 -16 -51 -26 -57 -23 -6 4 -14 0 -19
-7 -7 -12 -9 -12 -9 0 0 11 -4 9 -14 -4 -8 -12 -28 -20 -47 -21 -18 -1 -35 -7
-37 -14 -4 -12 -40 -29 -57 -26 -5 0 -9 4 -8 9 2 4 -2 7 -8 7 -6 0 -9 -7 -5
-15 4 -11 -1 -15 -17 -15 -12 0 -28 -9 -35 -20 -7 -12 -23 -20 -40 -20 -35 0
-57 -14 -47 -30 5 -8 4 -11 -3 -6 -6 3 -13 2 -16 -2 -3 -5 -23 -9 -44 -10 -30
-1 -41 3 -46 16 -3 9 -10 24 -15 32 -5 8 -17 32 -27 52 -10 21 -35 50 -56 65
-21 15 -38 31 -38 36 0 4 -5 7 -10 7 -15 0 6 -37 52 -89 41 -48 46 -61 23 -61
-9 0 -18 -6 -21 -14 -3 -8 -12 -12 -20 -9 -8 3 -14 -1 -14 -11 0 -9 -8 -16
-20 -16 -11 0 -20 4 -20 8 0 11 -182 5 -189 -6 -3 -4 -17 -9 -30 -9 -13 -1
-28 -6 -34 -12 -10 -10 -1 -31 14 -31 6 0 8 4 5 8 -3 5 4 8 15 7 17 -1 46 -29
47 -45 1 -29 16 -80 23 -80 5 0 9 -16 9 -35 0 -26 -3 -33 -15 -29 -8 4 -12 10
-9 15 3 5 0 9 -7 9 -6 0 -9 -8 -6 -20 7 -25 -13 -41 -43 -33 -19 5 -22 3 -17
-10 3 -9 1 -18 -6 -21 -7 -2 -5 -5 5 -5 9 -1 18 -4 21 -8 2 -5 3 -3 1 3 -1 6
10 17 24 23 24 10 25 10 9 -3 -15 -12 -16 -15 -2 -26 12 -10 13 -16 4 -27 -7
-7 -14 -11 -17 -8 -3 3 -17 -6 -31 -19 -14 -13 -36 -27 -48 -31 -18 -5 -23 -2
-23 13 0 11 6 20 13 19 30 -1 47 4 47 13 0 15 -52 0 -72 -21 -23 -23 -23 -25
5 -34 13 -4 17 -8 9 -12 -6 -2 -9 -10 -6 -15 4 -7 2 -8 -5 -4 -6 4 -14 0 -18
-11 -3 -10 -16 -30 -28 -44 -17 -21 -25 -24 -37 -15 -8 6 -13 17 -11 24 3 6 0
12 -6 12 -14 0 -163 116 -174 136 -4 8 -15 14 -22 14 -8 0 -15 4 -15 8 0 10
-115 132 -124 132 -13 0 76 -107 162 -196 17 -18 32 -40 32 -49 0 -9 5 -13 10
-10 11 7 40 -18 40 -34 0 -6 11 -13 25 -17 47 -12 29 -79 -40 -156 -25 -28
-43 -54 -40 -58 3 -4 -2 -13 -10 -20 -13 -11 -14 -10 -8 6 6 17 5 17 -10 5
-10 -8 -15 -16 -12 -19 6 -7 -15 -32 -27 -32 -5 0 -6 5 -3 10 3 6 -3 10 -14
10 -12 0 -21 -5 -21 -11 0 -5 5 -7 10 -4 6 3 10 -3 10 -14 0 -24 -56 -91 -76
-91 -8 0 -14 -5 -14 -11 0 -5 6 -7 13 -3 6 4 1 -5 -13 -20 -22 -24 -25 -25
-31 -9 -6 15 -8 15 -8 2 -1 -9 -8 -22 -16 -29 -9 -7 -15 -29 -15 -54 0 -44
-12 -72 -27 -63 -4 3 -8 -12 -8 -34 0 -25 4 -39 13 -39 10 0 10 -5 1 -21 -8
-16 -13 -18 -19 -9 -4 7 -10 8 -13 3 -5 -8 -84 -11 -133 -4 -13 1 -6 49 25
171 20 77 25 118 21 180 l-2 35 -10 -35 c-5 -19 -10 -42 -12 -50 -8 -43 -40
-141 -47 -146 -5 -3 -9 -14 -9 -25 0 -10 -4 -19 -10 -19 -5 0 -10 -15 -10 -32
0 -58 -10 -75 -43 -82 -23 -5 -28 -9 -19 -15 8 -5 -8 -8 -40 -7 -42 1 -58 6
-77 25 -20 21 -23 32 -18 74 3 33 1 44 -5 33 -5 -9 -14 -16 -21 -16 -7 0 -32
-14 -56 -30 -51 -35 -66 -38 -51 -10 6 12 7 20 1 20 -5 0 -7 9 -4 20 3 11 10
17 17 13 6 -4 5 1 -3 10 -12 15 -11 17 8 17 11 0 21 5 21 11 0 6 6 9 14 6 8
-3 18 5 26 21 15 32 49 283 50 363 0 49 4 60 35 96 19 23 35 49 35 60 0 15 -2
16 -10 3 -8 -13 -11 -13 -22 2 -25 33 -213 20 -192 -13 8 -13 -17 -7 -33 8
-19 17 -16 30 7 36 11 3 20 1 20 -4 0 -5 5 -9 11 -9 6 0 8 9 4 20 -4 13 -2 20
6 20 10 0 10 3 1 12 -10 10 -15 10 -22 -1 -7 -12 -11 -12 -24 2 -12 12 -23 14
-40 8 -13 -6 -29 -5 -37 0 -8 5 -25 9 -38 9 -15 0 -21 5 -18 13 3 8 2 20 -3
27 -4 7 -2 28 6 46 20 47 17 61 -6 36 -11 -12 -20 -26 -20 -32 0 -5 -2 -10 -4
-10 -2 0 -13 -3 -23 -6 -17 -5 -17 -5 1 10 17 14 17 16 2 31 -9 9 -16 13 -16
8 0 -4 -11 5 -26 20 -14 15 -22 32 -18 39 4 7 3 8 -4 4 -22 -14 -23 41 -2 100
12 32 32 89 45 126 34 96 53 125 88 132 17 4 36 1 41 -4 8 -8 6 -9 -5 -5 -10
4 -16 0 -16 -11 0 -13 7 -15 33 -11 17 3 50 1 73 -4 22 -5 73 -11 112 -14 46
-3 81 -11 98 -22 28 -19 28 -19 109 -22 37 -1 52 -5 52 -15 0 -7 15 -17 33
-21 53 -13 78 -14 72 -4 -8 12 2 12 26 -1 13 -8 19 -7 19 0 0 7 8 9 22 4 13
-4 39 -8 59 -9 21 -2 42 -6 47 -9 14 -9 128 87 146 123 15 27 80 91 94 91 4 0
50 31 102 68 85 61 97 73 110 116 9 26 20 50 25 54 6 4 10 13 11 20 1 6 2 16
3 21 2 12 151 98 201 116 23 8 62 15 86 15 66 0 186 20 214 36 14 8 50 26 80
40 30 14 71 40 90 58 74 69 167 131 227 151 43 14 91 42 152 90 50 38 112 77
138 86 34 12 48 21 46 34 -1 11 2 14 9 7 15 -15 70 21 106 71 17 24 46 54 65
67 19 13 45 43 58 66 13 24 50 67 83 96 56 49 63 53 122 56 50 3 63 8 67 23 6
21 63 59 90 59 11 0 17 8 17 21 0 30 36 58 82 65 21 4 41 11 44 15 7 12 5 12
-62 -6 -31 -8 -68 -22 -81 -30 -17 -12 -23 -12 -23 -3 0 9 -3 9 -10 -2 -15
-25 -20 6 -17 115 2 116 16 131 56 66 14 -22 29 -38 33 -35 4 3 8 1 8 -4 0 -6
8 -8 18 -5 16 4 18 11 12 48 -5 34 -3 45 8 50 12 4 12 8 1 23 -13 15 -12 16 4
3 11 -8 22 -10 30 -4 6 5 25 10 40 12 16 1 45 9 65 16 l37 14 -35 -2 c-19 0
-38 -5 -41 -9 -3 -5 -45 -9 -95 -11 l-89 -2 -9 58 c-12 73 -7 77 91 77 59 0
71 3 67 14 -3 8 -18 15 -32 15 -15 0 -38 3 -52 6 -14 4 -45 11 -70 15 -131 23
-196 74 -213 165 -5 26 -1 33 24 48 27 15 29 20 24 50 -6 31 -2 38 60 99 50
50 66 72 63 90 -5 36 -42 35 -78 -2 -16 -17 -30 -28 -30 -25 0 4 -13 -3 -30
-15 -16 -12 -30 -18 -30 -13 0 4 -6 1 -13 -9 -13 -17 -27 -21 -63 -19 -21 1
-22 4 -16 83 4 65 12 98 39 157 19 42 37 85 39 96 17 83 17 88 4 80 -10 -6
-12 -4 -7 8 3 10 2 17 -3 17 -6 0 -10 -7 -10 -15 0 -8 -7 -15 -15 -15 -32 0
-4 87 60 189 14 22 168 176 177 176 11 0 60 46 55 52 -11 11 -46 -8 -40 -23 4
-10 -2 -14 -19 -14 -14 0 -37 -11 -52 -25 -15 -14 -29 -25 -31 -25 -3 0 -34
-20 -69 -44 -36 -24 -75 -47 -88 -51 -59 -17 -56 -20 -46 42 5 32 8 70 6 84
-3 21 -1 26 11 22 9 -3 6 2 -6 11 -29 22 -30 64 -2 142 11 32 29 86 39 120 19
63 46 123 87 188 41 65 9 31 -41 -43 -54 -81 -70 -95 -61 -54 22 95 37 149 45
157 6 6 10 22 10 36 0 15 3 30 7 33 6 7 43 102 47 124 1 7 13 25 25 39 20 23
21 26 5 19 -11 -4 -25 -8 -32 -8 -34 -1 -112 -226 -136 -395 -8 -53 -21 -137
-30 -187 -9 -52 -19 -218 -25 -395 -9 -267 -25 -488 -36 -499 -2 -1 -8 0 -14
3 -7 5 -7 15 0 33 5 15 8 32 5 40 -3 7 -2 13 2 13 9 0 7 58 -1 67 -3 3 -1 17
4 31 10 27 4 74 -9 70 -4 -1 -18 4 -31 11 -17 9 -20 16 -12 24 16 16 14 27 -4
21 -25 -10 -17 -42 15 -61 37 -21 35 -42 -10 -116 -17 -26 -27 -46 -22 -44 4
3 14 -2 22 -11 13 -14 13 -15 0 -10 -50 18 -56 18 -57 -4 -1 -11 -6 -24 -12
-27 -5 -4 10 -16 35 -27 38 -18 44 -19 39 -5 -4 10 -3 13 4 6 5 -5 12 -35 16
-65 l6 -55 -46 -29 c-41 -26 -49 -27 -71 -16 -21 12 -26 11 -43 -9 -11 -13
-24 -20 -30 -17 -5 4 -7 -3 -3 -16 4 -18 2 -20 -16 -16 -12 4 -25 2 -28 -3 -8
-13 31 -11 98 7 33 8 74 14 91 12 27 -3 30 -7 31 -38 2 -53 -21 -153 -45 -197
-31 -55 -106 -141 -139 -158 -33 -17 -102 -27 -110 -17 -3 4 -17 15 -32 25
-27 17 -28 17 -28 -3 0 -11 3 -19 8 -19 18 3 30 -2 36 -16 3 -9 1 -15 -7 -14
-29 4 -38 -2 -35 -23 2 -11 -2 -23 -8 -25 -7 -2 -10 16 -10 53 1 33 -4 59 -10
61 -7 2 -9 -17 -6 -56 l4 -60 -38 -10 c-22 -6 -82 -20 -134 -31 -52 -12 -134
-35 -182 -51 -102 -34 -118 -36 -118 -10 0 28 -11 52 -21 46 -4 -3 -6 -12 -3
-19 5 -12 -24 -32 -33 -23 -4 5 -11 33 -20 82 -9 56 -16 40 -7 -20 12 -91 11
-130 -3 -128 -7 2 -13 -1 -13 -7 0 -5 -6 -7 -13 -4 -7 2 -31 -3 -53 -13 -21
-9 -52 -18 -69 -20 -16 -2 -41 -15 -55 -29 -14 -15 -18 -23 -10 -18 12 6 13 5
3 -7 -7 -8 -35 -21 -63 -29 -27 -7 -50 -18 -50 -22 0 -5 -5 -6 -10 -3 -6 3
-13 -1 -16 -10 -4 -10 -13 -13 -25 -10 -11 4 -19 2 -19 -5 0 -8 -9 -10 -25 -6
-18 5 -27 2 -30 -9 -16 -51 -17 -51 -25 -30 -6 14 -9 15 -10 5 -1 -14 -97 -67
-112 -62 -5 1 -8 -3 -8 -9 0 -5 -4 -8 -9 -4 -5 3 -32 -4 -59 -14 -27 -11 -53
-17 -58 -13 -4 4 -4 2 -1 -4 9 -15 -12 -23 -44 -17 -16 3 -33 -3 -48 -16 -14
-12 -27 -18 -30 -13 -3 5 -24 9 -45 9 -24 1 -45 7 -52 17 -15 21 -28 21 -20 0
4 -11 2 -15 -6 -11 -55 20 -57 19 -64 -20 -6 -33 -8 -35 -15 -15 -9 24 -17 26
-37 14 -8 -5 -10 -16 -5 -28 7 -19 6 -19 -12 0 -18 18 -19 18 -38 -5 -10 -13
-14 -25 -8 -27 12 -4 3 -32 -10 -32 -5 0 -9 6 -9 14 0 8 -6 17 -12 19 -8 4 -7
6 3 6 11 1 17 10 17 26 l0 25 -19 -21 c-11 -12 -19 -19 -19 -15 0 4 -5 4 -11
0 -8 -4 -7 -9 2 -15 10 -6 4 -9 -18 -9 -32 0 -45 14 -20 23 6 2 9 8 5 12 -4 4
-14 0 -23 -8 -8 -9 -22 -14 -30 -11 -9 4 -15 0 -15 -9 0 -20 16 -30 54 -34 35
-4 32 -1 40 -33 3 -14 3 -19 0 -12 -3 6 -14 12 -24 12 -10 0 -20 5 -22 11 -3
9 -10 9 -27 0 -20 -11 -26 -10 -47 10 l-24 22 0 -37 c0 -23 -5 -39 -15 -42
-21 -8 -19 -21 5 -27 11 -3 20 0 20 6 0 7 4 6 9 -2 8 -12 12 -12 26 2 9 9 13
21 10 27 -4 6 5 10 20 10 15 0 24 -4 20 -10 -4 -6 -11 -8 -16 -5 -5 3 -6 -2
-2 -11 4 -11 3 -15 -5 -10 -6 3 -17 -2 -24 -12 -15 -21 -45 -42 -34 -24 10 16
-10 15 -26 -1 -7 -8 -18 -12 -25 -10 -6 2 -14 -1 -18 -6 -3 -6 -14 -11 -23
-10 -11 0 -12 3 -4 6 6 2 12 11 12 19 0 8 6 11 15 8 9 -4 15 0 15 9 0 17 -33
33 -38 18 -2 -5 -10 -7 -19 -4 -11 4 -14 0 -11 -14 3 -20 -17 -53 -33 -53 -5
0 -9 7 -9 15 0 10 -9 15 -27 14 -17 -1 -21 -3 -10 -6 21 -6 22 -19 2 -27 -8
-3 -14 -16 -14 -28 1 -15 3 -18 6 -7 2 10 12 19 23 22 13 3 17 1 13 -9 -3 -8
1 -14 8 -14 9 -1 8 -4 -3 -11 -10 -5 -18 -16 -18 -24 0 -9 -6 -12 -15 -9 -8 4
-23 3 -32 -1 -17 -6 -17 -7 0 -16 9 -6 27 -7 39 -3 21 6 21 6 5 -10 -10 -10
-22 -14 -29 -9 -20 12 -42 13 -49 1 -4 -6 -12 -7 -18 -4 -6 4 -9 12 -6 17 4 5
-1 9 -10 9 -12 0 -14 -4 -6 -19 13 -24 2 -36 -14 -14 -18 24 -35 7 -36 -35 -2
-72 -12 -97 -38 -97 -15 0 -25 -7 -27 -18 -1 -9 2 -17 7 -17 12 0 -7 -36 -33
-64 -10 -11 -16 -27 -13 -34 3 -8 1 -20 -4 -26 -5 -6 -11 -22 -13 -35 -5 -40
-25 -36 -30 6 -6 42 -1 55 12 34 4 -8 6 14 3 50 -3 39 2 102 12 159 16 91 23
395 10 475 -25 159 -69 426 -80 490 -8 44 -22 136 -30 205 -8 69 -20 148 -25
175 -5 28 -19 102 -31 165 -11 63 -25 123 -31 133 -8 17 -12 17 -26 4 -12 -10
-38 -14 -83 -13 -54 1 -65 -2 -61 -13 3 -9 1 -12 -6 -7 -8 5 -12 -1 -11 -16 0
-13 3 -17 6 -10 6 17 32 15 39 -2 3 -8 12 -12 20 -9 8 3 14 0 14 -7 0 -6 5 -8
10 -5 17 11 11 -11 -8 -28 -10 -10 -22 -14 -25 -10 -4 3 -7 1 -7 -6 0 -8 -5
-9 -19 -2 -17 9 -19 7 -17 -20 1 -16 -1 -32 -5 -35 -4 -2 -6 -14 -4 -25 3 -16
0 -19 -12 -14 -15 5 -15 4 -2 -12 9 -10 16 -29 17 -43 0 -13 11 -33 24 -43 16
-13 19 -20 10 -24 -6 -2 -10 -9 -6 -14 3 -5 -1 -9 -9 -9 -8 0 -13 -10 -13 -22
1 -15 -7 -27 -21 -33 -26 -11 -30 -30 -9 -38 7 -3 16 -14 18 -25 4 -14 2 -19
-7 -15 -8 2 -18 -4 -24 -15 -9 -17 -6 -19 22 -19 18 0 35 5 39 11 5 8 8 7 8
-1 0 -9 17 -13 48 -14 26 -1 37 -4 24 -6 -12 -2 -20 -9 -16 -14 3 -5 10 -7 15
-3 6 3 19 -3 30 -15 13 -14 15 -21 7 -21 -9 0 -9 -3 2 -10 13 -8 12 -10 -3
-10 -10 0 -20 -7 -23 -15 -4 -8 -10 -15 -14 -15 -4 0 -28 -12 -51 -26 -24 -14
-36 -23 -26 -20 26 8 21 -19 -8 -42 -16 -12 -33 -18 -47 -14 -14 3 -19 1 -14
-6 3 -6 -1 -18 -10 -27 -18 -17 -13 -28 14 -31 9 -1 43 -9 75 -18 32 -9 62
-14 66 -12 4 3 8 -5 8 -16 2 -16 -1 -18 -10 -9 -16 16 -27 14 -27 -5 0 -10 -8
-15 -22 -14 -36 3 -48 1 -48 -9 0 -6 9 -8 20 -6 13 2 20 -2 20 -11 0 -8 -5
-14 -11 -14 -5 0 -7 -5 -4 -10 4 -6 3 -10 -2 -9 -21 4 -33 -2 -33 -17 0 -11 6
-15 18 -12 9 3 26 -4 37 -15 11 -11 14 -16 6 -12 -8 4 -1 -12 16 -36 20 -28
30 -55 29 -77 -1 -17 2 -32 6 -32 4 0 3 -11 -2 -25 -6 -15 -6 -34 -1 -48 8
-20 5 -25 -21 -36 -28 -13 -29 -14 -9 -27 17 -12 18 -19 9 -44 -5 -17 -16 -30
-24 -30 -8 0 -26 -7 -39 -16 -13 -9 -29 -13 -34 -10 -6 4 -19 -1 -31 -11 -11
-10 -23 -17 -26 -15 -9 5 -34 -26 -34 -42 0 -9 6 -16 13 -16 7 0 19 -6 25 -12
7 -7 28 -11 48 -9 25 2 40 -3 51 -16 8 -10 12 -12 8 -5 -8 16 6 15 30 -2 11
-7 34 -16 50 -20 19 -4 25 -3 16 2 -16 12 1 25 22 17 14 -6 12 -55 -3 -55 -4
0 -6 -15 -5 -34 2 -30 0 -35 -27 -40 -52 -10 -91 -7 -146 13 -73 27 -142 20
-142 -15 0 -8 -5 -14 -11 -14 -5 0 -7 5 -3 11 4 7 1 10 -6 7 -21 -7 -48 -49
-55 -85 -5 -28 -4 -32 9 -27 11 4 15 2 11 -8 -4 -9 1 -15 10 -16 8 -1 22 -3
30 -4 18 -2 20 -14 3 -21 -8 -3 -7 -6 4 -6 9 -1 20 4 23 9 12 19 35 10 41 -16
4 -16 12 -23 20 -20 9 3 14 -2 14 -14 0 -11 5 -20 10 -20 6 0 10 -5 10 -11 0
-6 -10 -8 -22 -5 -23 6 -23 6 0 -6 17 -8 22 -18 19 -35 -2 -13 -1 -23 4 -23 4
0 1 -16 -7 -35 -13 -31 -12 -37 3 -55 10 -11 27 -20 38 -20 12 0 26 -5 32 -11
6 -6 46 -27 89 -47 113 -53 123 -66 131 -162 5 -67 3 -86 -13 -118 -25 -48
-44 -67 -75 -75 -14 -4 -31 -17 -38 -29 -6 -13 -9 -15 -7 -5 9 31 -8 17 -38
-29 -24 -38 -26 -48 -15 -55 16 -10 8 -12 -15 -3 -9 3 -13 10 -10 15 12 20 -9
7 -28 -16 -11 -14 -24 -23 -29 -20 -5 4 -6 -1 -3 -9 5 -14 9 -14 35 0 16 8 34
12 40 8 13 -8 69 15 69 28 0 6 -8 7 -17 4 -9 -4 3 13 28 37 24 24 47 41 51 38
4 -4 12 -27 16 -51 5 -25 25 -68 45 -96 40 -56 56 -119 38 -153 -7 -12 -16
-19 -21 -16 -5 3 -14 -4 -20 -15 -6 -11 -15 -18 -20 -15 -6 3 -7 -1 -4 -9 3
-9 2 -16 -4 -16 -6 0 -12 6 -15 13 -6 17 -63 -46 -69 -77 l-5 -25 27 19 c15
10 32 26 39 33 6 8 25 20 41 27 16 7 31 19 33 28 2 10 11 -7 20 -37 9 -30 24
-65 33 -78 12 -20 35 -154 38 -225 0 -21 27 -24 55 -6 36 22 65 -11 110 -126
22 -58 41 -117 41 -130 0 -34 -45 -171 -70 -211 -11 -18 -20 -40 -20 -49 0
-10 -4 -15 -9 -12 -4 3 -11 -15 -15 -41 -10 -74 -9 -76 18 -58 21 14 25 14 39
0 9 -8 20 -15 26 -15 13 0 13 -2 2 -33 -7 -19 -6 -27 4 -30 9 -4 15 5 19 27 4
18 20 60 37 92 17 32 38 72 46 87 9 16 19 25 23 20 16 -18 50 -140 50 -181 0
-60 -37 -136 -98 -201 -33 -34 -48 -59 -46 -74 1 -12 3 -25 3 -29 2 -17 79 -6
129 17 69 32 97 32 118 0 22 -33 12 -43 -81 -88 -41 -20 -75 -41 -75 -47 0 -5
-7 -10 -15 -10 -8 0 -15 -5 -15 -10 0 -6 -12 -15 -26 -20 -15 -6 -24 -16 -21
-23 4 -10 -4 -14 -24 -14 -17 0 -45 -12 -67 -29 -47 -37 -85 -54 -111 -49 -12
2 -21 0 -21 -6 0 -5 -4 -9 -10 -9 -18 0 -110 -44 -110 -52 0 -4 -6 -8 -12 -8
-34 0 -87 -23 -93 -39 -3 -9 -23 -28 -45 -40 -34 -19 -40 -27 -40 -54 0 -18
-4 -27 -8 -20 -5 8 -12 8 -26 -2 -10 -8 -15 -18 -12 -24 3 -5 -1 -16 -9 -24
-8 -9 -15 -22 -15 -29 0 -20 -21 -38 -43 -38 -10 0 -53 30 -94 68 -67 59 -81
78 -119 161 -28 60 -44 108 -44 132 0 22 -5 47 -10 57 -6 9 -30 89 -54 177
-81 298 -274 959 -325 1110 -67 202 -68 208 -86 665 -20 513 -26 2003 -8 2135
7 50 17 135 23 190 22 201 72 493 107 625 19 74 68 216 108 315 40 99 76 191
80 205 22 77 35 88 261 245 268 186 323 219 442 266 22 8 22 10 7 38 -22 43
-19 60 20 113 35 47 96 98 160 132 l33 18 31 -31 c17 -17 34 -31 38 -31 5 0
33 -26 64 -58 79 -83 90 -86 30 -6 -94 125 -126 161 -138 157 -7 -3 -13 2 -13
11 0 9 -46 61 -101 116 l-102 100 7 53 c10 81 55 207 92 258 70 97 176 169
293 199 51 13 233 67 252 75 9 3 19 18 22 33 3 15 21 44 40 65 28 29 42 37 70
37 26 0 39 -6 47 -19 5 -11 19 -23 30 -26 12 -4 20 -15 20 -27 0 -11 8 -27 18
-34 9 -8 12 -14 5 -14 -7 0 0 -12 15 -27 15 -15 32 -26 38 -25 7 1 17 -11 22
-28 6 -16 18 -30 26 -30 9 0 16 -4 16 -10 0 -5 5 -10 10 -10 6 0 8 25 4 69 -4
38 -1 113 6 167 6 54 12 113 12 131 0 18 4 36 9 39 5 3 9 15 9 27 1 12 9 46
19 74 17 49 19 52 37 38 26 -20 52 -19 58 3 2 9 7 46 11 82 9 89 42 226 53
216 2 -3 -1 -28 -7 -56z m870 -680 c9 0 22 -7 29 -15 11 -13 31 -15 102 -12
48 2 88 0 88 -5 0 -13 17 -9 34 7 15 16 53 20 72 7 6 -4 14 -17 18 -28 5 -16
12 -20 26 -17 12 3 20 0 20 -6 0 -7 -4 -10 -9 -6 -6 3 -9 -4 -8 -15 1 -11 7
-20 14 -20 7 0 13 -4 13 -10 0 -5 -7 -10 -15 -10 -9 0 -15 -9 -14 -22 0 -22 1
-22 10 -3 8 17 9 16 5 -8 -2 -15 1 -30 5 -33 15 -9 10 -24 -6 -18 -8 4 -15 1
-15 -5 0 -6 5 -11 10 -11 16 0 7 -34 -12 -45 -12 -7 -14 -15 -8 -25 8 -13 10
-12 10 3 0 9 5 17 10 17 19 0 10 -19 -22 -49 -20 -19 -44 -31 -60 -31 -15 0
-30 -4 -33 -10 -6 -9 20 -15 57 -12 23 2 31 -26 10 -39 -13 -8 -17 -20 -13
-47 3 -34 2 -35 -13 -23 -9 8 -15 20 -12 28 3 8 -2 13 -14 13 -27 0 -33 16
-13 36 16 16 16 17 1 12 -9 -4 -18 -2 -20 4 -2 6 -9 8 -16 4 -9 -5 -8 -16 4
-44 9 -20 18 -43 21 -49 3 -7 0 -13 -5 -13 -6 0 -12 10 -15 23 -3 20 -4 20
-11 4 -6 -12 -3 -24 8 -36 18 -20 22 -51 6 -51 -5 0 -10 11 -10 25 0 14 -5 25
-11 25 -7 0 -8 -11 -4 -31 5 -20 3 -29 -3 -25 -14 8 -23 -35 -11 -50 7 -8 6
-14 -2 -19 -6 -4 -17 -23 -25 -42 -13 -31 -42 -38 -30 -7 3 8 0 11 -10 7 -18
-7 -18 1 3 40 9 18 19 47 24 65 5 25 4 32 -9 32 -8 0 -12 3 -9 7 4 3 -2 13
-13 20 -11 8 -18 18 -15 23 3 5 -4 15 -16 23 -13 10 -17 17 -9 22 13 8 -5 35
-24 35 -6 0 -11 13 -11 29 0 16 3 27 7 25 3 -2 4 5 1 16 -3 11 -9 17 -14 14
-5 -3 -9 2 -9 10 0 9 -4 16 -9 16 -6 0 -9 8 -9 18 1 9 -5 37 -12 62 -7 25 -14
50 -15 55 -1 6 -9 28 -19 49 -10 22 -16 50 -13 63 2 13 1 23 -3 23 -6 0 -30
44 -30 55 0 2 12 -3 28 -11 15 -7 34 -14 43 -14z m530 -596 c6 7 4 -67 -3 -84
-3 -8 -13 -60 -23 -115 -9 -55 -27 -133 -41 -173 -13 -40 -24 -81 -24 -92 0
-11 -4 -20 -10 -20 -5 0 -10 -9 -10 -20 0 -11 -6 -23 -14 -26 -8 -3 -12 -12
-9 -20 3 -7 -3 -21 -12 -30 -10 -11 -14 -25 -11 -40 3 -12 2 -24 -3 -26 -13
-5 -51 -88 -40 -88 5 0 9 5 9 10 0 6 7 10 15 10 9 0 12 6 9 15 -4 8 -1 15 5
15 6 0 11 6 11 13 0 7 9 18 20 25 11 7 20 19 20 27 0 8 4 15 10 15 5 0 7 7 4
15 -4 8 -1 15 6 15 7 0 10 7 6 15 -3 8 0 15 6 15 9 0 9 3 0 12 -8 8 -6 16 10
30 12 10 18 18 13 18 -4 0 -2 7 5 15 6 8 8 20 4 26 -4 7 -3 9 3 6 6 -4 14 0
17 9 3 8 14 14 23 12 15 -2 18 4 16 35 -1 20 1 37 6 37 5 0 12 11 15 25 4 17
11 23 24 19 10 -4 13 -3 6 3 -14 11 -18 93 -4 93 6 0 8 5 5 10 -3 6 4 10 16
10 18 0 19 2 9 15 -13 16 -35 21 -26 6 3 -5 -1 -12 -10 -15 -23 -9 -28 -1 -11
15 10 9 13 27 10 54 -4 38 -3 39 11 21 15 -19 22 -11 17 18 -1 5 5 16 14 26 8
9 12 20 8 23 -3 4 -1 7 5 7 15 0 15 -15 2 -41 -6 -10 -7 -19 -3 -19 10 0 10
-61 0 -78 -5 -7 -2 -14 7 -18 9 -3 16 -15 16 -25 0 -15 7 -19 40 -19 23 0 40
5 40 11 0 6 7 9 15 5 9 -3 15 0 15 8 0 8 -5 16 -12 18 -12 4 -3 28 10 28 20 0
10 -82 -17 -142 -48 -109 -230 -375 -239 -350 -2 7 -8 12 -14 12 -6 0 -6 -6 2
-15 10 -12 10 -18 0 -30 -7 -8 -17 -12 -23 -8 -5 3 -7 1 -4 -5 9 -13 -128
-154 -170 -176 -18 -9 -33 -21 -33 -26 0 -6 -5 -9 -11 -7 -6 1 -14 -4 -17 -12
-3 -8 0 -11 7 -7 6 4 11 5 11 3 0 -3 -15 -14 -34 -25 -26 -15 -36 -17 -39 -8
-6 15 9 43 18 34 10 -10 55 38 55 59 0 12 10 28 23 36 l22 16 -23 0 c-13 1
-20 -3 -17 -9 3 -5 -1 -10 -9 -10 -8 0 -22 -18 -32 -40 -10 -21 -20 -37 -24
-35 -4 2 -13 -7 -20 -20 -13 -24 -30 -34 -30 -17 0 4 -11 8 -25 8 -14 1 -25
-2 -25 -6 0 -4 -11 -10 -25 -12 -20 -4 -25 -1 -25 14 0 17 -5 19 -30 13 -22
-5 -30 -3 -30 8 0 7 6 14 13 14 6 0 21 4 31 9 14 5 17 4 12 -4 -5 -8 -2 -10 8
-6 20 8 20 13 -1 31 -17 14 -17 14 1 9 20 -7 49 11 40 25 -3 5 0 9 5 9 6 0 11
-13 11 -30 0 -22 -4 -28 -15 -24 -15 6 -22 -16 -9 -28 21 -22 73 94 54 118
-11 12 -6 18 46 46 17 10 35 14 39 10 4 -4 3 2 -2 12 -15 27 3 76 28 76 15 0
19 8 20 38 1 20 0 44 -1 52 -2 12 2 12 17 -3 24 -21 34 -22 27 -2 -4 8 -1 15
5 15 6 0 11 9 11 21 0 11 4 18 8 15 5 -3 9 1 9 9 0 8 -6 16 -14 19 -9 4 -13
-3 -14 -22 0 -24 -1 -25 -8 -7 -9 22 4 46 22 40 25 -10 38 10 27 40 -12 32 2
57 28 48 13 -4 14 -3 3 5 -10 7 -10 11 -1 17 6 4 9 13 6 21 -3 7 1 19 8 26 7
7 11 19 8 27 -2 7 0 16 7 20 6 4 12 17 14 30 2 13 16 38 31 57 15 19 23 34 17
34 -5 0 -11 -5 -13 -12 -2 -6 -4 8 -4 30 1 31 6 44 19 48 15 5 24 44 18 78 -1
5 4 4 12 -2 8 -7 16 -10 18 -8z m329 -350 c0 -8 -4 -14 -10 -14 -5 0 -10 -9
-10 -20 0 -11 -4 -20 -8 -20 -5 0 -9 -14 -10 -31 0 -17 -5 -36 -10 -42 -5 -7
-6 -21 -2 -32 4 -11 3 -27 -1 -35 -4 -8 -13 -36 -21 -62 -7 -27 -16 -48 -20
-48 -4 0 -5 -7 -2 -15 4 -8 1 -15 -5 -15 -6 0 -8 -7 -5 -15 4 -8 2 -15 -4 -15
-5 0 -8 -17 -7 -37 2 -21 1 -32 -2 -25 -5 13 -33 17 -33 4 0 -4 6 -14 13 -21
10 -11 8 -12 -10 -6 -26 7 -30 -7 -8 -25 13 -11 13 -15 3 -21 -10 -6 -8 -12 7
-23 18 -14 18 -15 3 -16 -11 0 -15 -5 -12 -15 5 -11 -1 -15 -25 -15 -17 0 -31
-4 -31 -10 0 -5 -4 -10 -10 -10 -6 0 -5 10 2 26 9 20 9 27 -1 33 -9 6 -10 10
-2 15 6 4 9 12 6 17 -4 5 -1 9 5 9 6 0 9 4 5 10 -3 5 -12 7 -20 3 -11 -4 -13
-1 -9 12 4 10 14 15 25 12 15 -4 16 -2 6 14 -6 10 -16 19 -20 19 -13 0 -2 25
11 26 25 3 25 4 6 19 -11 8 -14 15 -6 15 6 0 12 11 12 25 0 16 6 25 15 25 10
0 15 10 15 30 0 17 -4 30 -9 30 -6 0 -6 12 0 30 6 17 16 27 22 23 6 -3 7 -1 3
6 -12 19 4 70 25 76 11 4 17 10 15 14 -3 4 1 19 9 34 8 15 11 27 8 27 -3 0 0
7 8 16 7 8 21 13 32 10 10 -2 16 -2 13 1 -3 3 -1 14 5 25 8 15 13 17 25 7 8
-6 14 -18 14 -25z m-480 -2605 c0 -6 -9 -8 -22 -4 -19 5 -20 4 -8 -5 12 -9 12
-13 2 -17 -9 -4 -10 -8 -2 -18 6 -7 9 -18 8 -25 -2 -7 3 -15 11 -18 8 -3 11 0
7 7 -4 6 -2 11 3 11 13 0 14 -10 3 -28 -5 -8 -16 -10 -28 -5 -17 6 -17 5 -5
-10 9 -12 10 -17 2 -17 -7 0 -10 -4 -6 -10 9 -15 -18 -50 -38 -50 -11 0 -21
-9 -24 -20 -3 -11 -9 -20 -14 -20 -5 0 -6 -6 -3 -14 3 -8 -3 -16 -16 -19 -12
-3 -19 -10 -15 -16 3 -6 -1 -11 -9 -11 -9 0 -16 -4 -16 -10 0 -5 -8 -11 -17
-11 -17 -1 -17 -2 0 -6 21 -5 23 -23 2 -23 -9 0 -12 -6 -9 -15 4 -8 1 -15 -5
-15 -6 0 -8 -7 -5 -15 4 -10 0 -15 -11 -15 -9 0 -19 -9 -22 -20 -3 -11 -14
-20 -24 -20 -10 0 -21 -5 -24 -11 -4 -5 -18 -14 -31 -19 -15 -6 -24 -18 -24
-30 0 -11 -7 -23 -15 -26 -14 -6 -13 -8 2 -19 17 -13 17 -13 -1 -12 -11 1 -25
-11 -37 -33 -10 -19 -19 -28 -20 -20 0 8 -4 5 -9 -7 -5 -13 -16 -23 -24 -23
-8 0 -17 -6 -19 -12 -4 -10 -7 -10 -15 0 -6 9 -11 6 -20 -13 -6 -14 -20 -25
-30 -25 -9 0 -25 -9 -34 -20 -10 -11 -30 -22 -45 -26 -15 -4 -35 -12 -43 -19
-15 -12 -67 -37 -103 -49 -13 -4 -17 -12 -12 -28 6 -21 5 -22 -8 -5 -17 21
-27 22 -27 3 0 -16 -60 -47 -75 -39 -5 4 -7 3 -3 -2 11 -12 -11 -45 -31 -45
-10 0 -21 -3 -25 -7 -4 -4 -13 -8 -19 -9 -7 0 -21 -2 -32 -3 -15 -1 -17 -3 -6
-10 18 -11 5 -31 -20 -31 -10 0 -27 -9 -36 -20 -10 -11 -32 -25 -50 -31 -17
-5 -35 -19 -38 -29 -6 -18 -68 -43 -98 -39 -35 4 -49 -2 -44 -20 4 -18 -14
-24 -28 -9 -3 3 -23 4 -44 2 -34 -3 -38 -1 -34 15 3 13 11 17 25 13 16 -4 19
-1 14 14 -4 15 2 22 25 33 18 8 34 22 36 32 3 11 14 19 24 19 11 0 19 6 19 13
0 9 2 9 9 -1 7 -11 9 -11 14 2 4 9 28 26 54 39 72 35 125 74 111 81 -7 3 -4 4
7 1 12 -3 32 5 50 20 17 13 24 24 18 25 -7 0 -13 5 -13 11 0 7 11 9 28 6 30
-6 68 15 57 32 -4 7 4 11 19 11 14 0 28 5 32 12 5 8 -5 9 -36 4 l-44 -7 26 21
c27 21 48 26 48 12 0 -4 10 -8 23 -9 12 0 16 1 10 4 -21 8 -15 23 9 23 20 0
21 1 3 20 -10 11 -15 23 -11 27 4 4 10 3 14 -2 4 -6 17 -16 30 -23 20 -11 22
-10 23 10 0 13 3 17 6 11 7 -19 23 -16 24 5 1 16 2 16 6 0 6 -22 33 -24 33 -2
0 8 4 13 9 10 5 -4 7 3 4 14 -4 16 -14 20 -43 20 -22 0 -40 6 -43 13 -3 9 5
12 31 9 24 -3 33 -1 28 7 -4 6 0 18 8 27 15 14 16 13 16 -7 0 -18 3 -20 12
-11 7 7 22 12 35 12 13 0 22 3 21 8 -2 4 1 8 6 9 5 1 12 7 16 13 6 9 13 9 28
1 14 -7 23 -8 27 -1 3 5 14 10 24 10 13 0 18 8 18 28 0 16 9 38 22 51 l22 22
6 -21 c5 -21 6 -21 19 -1 8 11 11 26 8 35 -4 11 -1 16 10 16 9 0 16 5 16 10 0
7 6 7 19 0 25 -13 34 -13 25 1 -3 6 -1 15 7 19 10 7 10 11 0 23 -10 13 -8 16
11 19 20 3 23 8 20 42 -3 36 -2 38 22 32 13 -3 35 -2 48 3 13 6 19 10 15 10
-5 1 -5 6 -1 13 5 8 9 7 13 -5 4 -10 11 -13 19 -8 17 10 4 44 -14 37 -22 -8
-16 4 11 26 14 11 25 26 25 34 0 8 7 17 15 20 8 4 13 9 11 13 -3 4 7 20 20 37
14 16 29 34 32 39 19 28 92 48 92 24z m-1284 -2653 c8 -8 14 -22 14 -31 0 -29
-91 -143 -122 -154 -16 -6 -27 -15 -24 -20 9 -14 -19 -31 -48 -29 -25 2 -26 3
-9 17 17 13 17 13 -1 7 -18 -6 -46 8 -46 25 0 4 7 15 16 23 14 15 18 14 45 -5
27 -19 43 -19 45 -1 5 43 34 86 34 50 0 -6 8 -3 18 8 18 18 18 19 1 26 -10 4
-16 15 -14 25 2 10 4 22 4 27 1 4 8 6 16 2 8 -3 15 -1 15 4 0 9 28 40 36 40 3
0 12 -6 20 -14z m-616 -987 c39 -67 173 -200 237 -235 31 -17 58 -35 60 -40 2
-5 -25 -24 -59 -42 -78 -40 -312 -183 -336 -205 -10 -10 -21 -17 -24 -17 -10
0 -230 -149 -273 -185 -22 -19 -59 -51 -83 -73 -23 -22 -44 -37 -46 -33 -2 3
-10 44 -16 91 -17 121 -39 211 -60 240 -10 14 -21 47 -24 75 -4 27 -14 57 -21
65 -19 21 -8 60 16 60 11 0 19 5 19 10 0 6 -5 10 -11 10 -18 0 19 30 51 41 16
6 30 17 30 25 0 7 6 11 13 8 17 -6 67 33 67 52 0 8 6 15 13 15 16 2 27 4 55
14 22 7 26 15 23 48 -1 9 3 17 9 17 7 0 10 -7 6 -15 -4 -11 1 -14 19 -13 14 1
25 6 25 11 0 4 5 5 12 1 7 -4 8 -3 4 4 -8 14 30 36 46 26 6 -4 8 -3 5 3 -8 13
18 24 38 17 8 -4 17 1 21 9 3 9 13 15 22 15 30 -2 122 33 116 44 -4 6 -1 9 7
6 8 -2 25 -24 39 -49z m1751 -74 c38 -39 68 -44 136 -20 42 14 42 14 72 -16
46 -46 42 -61 -8 -34 -49 25 -42 5 17 -51 62 -58 52 -56 167 -33 97 20 126 30
146 50 19 19 55 25 75 11 18 -12 37 -180 39 -347 1 -94 6 -179 14 -205 7 -25
17 -63 23 -85 5 -22 23 -60 39 -84 16 -25 29 -50 29 -57 0 -16 77 -169 110
-219 52 -79 70 -150 70 -283 0 -66 -5 -133 -11 -149 -21 -56 -76 -107 -161
-150 -143 -72 -275 -102 -483 -110 -122 -5 -134 -3 -197 20 -84 32 -135 66
-159 106 -20 33 -25 56 -10 47 5 -4 11 -2 13 4 6 19 49 19 93 0 55 -24 120
-37 112 -23 -4 6 -19 13 -34 16 -47 9 -57 12 -88 29 -36 20 -85 65 -85 78 0 6
-7 10 -15 10 -8 0 -15 3 -14 8 3 17 -14 51 -22 46 -5 -3 -9 -1 -9 5 0 5 -7 17
-16 25 -9 10 -14 29 -12 48 l3 33 18 -34 c9 -19 17 -40 17 -47 0 -7 10 -19 23
-25 12 -7 25 -18 30 -25 10 -18 37 -6 37 15 0 18 -70 81 -89 81 -6 0 -11 5
-11 10 0 6 7 10 15 10 8 0 15 8 15 19 0 20 -25 46 -37 38 -4 -3 -6 18 -4 46 4
50 4 51 13 20 5 -18 17 -34 29 -38 31 -10 36 3 5 14 -29 12 -30 13 -17 58 7
24 6 35 -4 43 -10 8 -16 7 -23 -7 -8 -14 -11 -9 -17 28 -5 36 -2 55 15 93 13
25 32 53 43 61 26 18 17 19 -18 3 -14 -6 -26 -16 -27 -22 0 -6 -4 9 -7 34 -3
25 -1 106 5 180 6 74 9 172 6 218 -4 70 -7 82 -22 82 -25 0 -42 53 -29 86 5
14 7 56 4 92 -3 45 -1 62 5 52 7 -11 10 -6 10 21 0 22 8 45 20 59 15 17 17 26
9 31 -18 11 44 39 86 39 40 0 75 15 75 32 0 6 -10 25 -23 42 -33 44 -39 56
-29 56 5 0 24 -16 43 -35z m-1362 -315 c98 -91 113 -105 229 -228 53 -57 108
-110 122 -119 25 -15 60 -72 60 -98 0 -9 11 -25 24 -36 14 -12 22 -28 19 -35
-3 -8 -1 -14 4 -14 14 0 65 -135 61 -162 -4 -29 -48 -46 -85 -32 -18 6 -29 19
-35 42 -6 22 -15 32 -27 32 -27 0 -52 11 -46 20 3 4 -6 15 -20 24 -14 9 -25
26 -25 37 0 11 -16 36 -35 55 -19 18 -35 38 -35 43 0 5 -7 11 -15 15 -9 3 -25
22 -36 41 -18 30 -24 34 -37 23 -13 -11 -15 -10 -9 5 4 11 2 17 -8 17 -8 0
-29 18 -46 40 -18 22 -38 40 -46 40 -7 0 -13 5 -13 10 0 21 -19 8 -29 -20 -5
-16 -17 -30 -25 -30 -8 0 -16 -6 -19 -12 -3 -9 -10 -7 -21 7 -13 17 -15 18
-16 3 0 -9 -3 -18 -7 -20 -5 -1 -15 -19 -24 -38 -15 -33 -15 -41 3 -120 11
-47 22 -105 25 -130 3 -25 8 -47 12 -50 9 -6 69 -107 107 -180 16 -30 31 -57
34 -60 3 -3 18 -24 34 -47 16 -24 58 -76 93 -115 78 -89 109 -139 118 -196 9
-54 -6 -73 -51 -70 -24 1 -36 8 -40 23 -4 11 -15 26 -25 33 -23 16 -24 35 -4
52 21 17 8 29 -35 31 -37 2 -120 35 -120 48 0 14 -118 129 -136 133 -9 1 -36
37 -59 78 -87 157 -98 176 -124 210 -29 39 -69 55 -56 23 4 -10 13 -44 21 -77
8 -32 23 -71 34 -86 11 -16 25 -51 30 -79 5 -28 19 -68 30 -89 11 -20 38 -79
60 -131 22 -52 56 -118 74 -145 50 -76 98 -175 90 -188 -4 -6 -8 -20 -8 -32
-1 -11 -7 -20 -14 -18 -7 1 -15 -5 -18 -13 -8 -20 -50 -19 -66 0 -7 9 -20 24
-29 33 -9 9 -19 30 -21 45 -4 22 -1 30 15 36 15 6 17 10 8 15 -7 5 -17 1 -25
-9 -23 -32 -49 -13 -98 70 -25 44 -64 107 -85 140 -21 33 -48 77 -61 97 -13
21 -30 68 -38 105 -7 37 -18 77 -23 88 -4 11 -16 46 -25 77 -9 31 -25 66 -35
79 -16 20 -18 20 -24 5 -4 -9 -3 -15 2 -11 19 11 17 -21 -4 -60 -16 -28 -20
-47 -15 -65 5 -16 8 -19 9 -7 1 9 6 17 11 17 12 0 13 -80 1 -112 -13 -35 11
-234 27 -224 4 2 9 -5 9 -16 1 -12 8 -25 15 -29 7 -5 9 -9 3 -9 -6 0 -6 -3 1
-8 6 -4 27 -59 47 -122 21 -63 42 -123 47 -132 6 -11 6 -19 0 -23 -5 -3 -7
-12 -3 -20 7 -19 -36 -56 -62 -52 -13 1 -29 20 -45 54 -14 29 -35 63 -47 75
-21 24 -52 92 -98 218 -15 41 -36 96 -48 122 -17 41 -20 69 -21 212 -1 91 -4
162 -7 158 -29 -34 -50 -154 -29 -167 13 -8 13 -49 -1 -95 -9 -28 -8 -57 5
-129 9 -51 14 -97 11 -101 -3 -5 -1 -11 5 -15 5 -3 10 -16 10 -29 0 -12 3 -26
8 -30 20 -21 27 -82 15 -130 -7 -27 -15 -51 -18 -54 -3 -3 -18 7 -34 22 -24
23 -30 38 -35 98 -7 63 -10 71 -37 86 -24 14 -29 24 -30 57 0 22 -3 65 -7 95
-8 67 -8 126 2 390 5 113 8 246 7 295 l-2 91 103 81 c57 45 115 93 129 106 14
14 48 38 75 53 27 16 67 42 89 57 42 29 190 119 238 144 15 8 50 30 78 49 28
19 60 34 72 34 12 0 53 -30 96 -70z"/>
<path d="M6395 13468 c-16 -6 -32 -14 -35 -17 -3 -3 -16 -6 -30 -7 -14 -1 -46
-9 -72 -20 -50 -19 -74 -13 -42 11 17 13 16 14 -14 5 -79 -22 -199 -114 -223
-172 -6 -15 -16 -28 -21 -28 -5 0 -8 -25 -6 -56 l3 -57 149 -144 c82 -79 161
-150 176 -158 24 -12 35 -12 86 2 94 26 120 51 138 133 6 30 56 107 96 150 27
29 48 66 31 56 -18 -11 -63 55 -116 171 -30 67 -55 127 -55 133 0 13 -26 12
-65 -2z"/>
<path d="M6797 13112 c-13 -3 -16 -9 -11 -20 4 -10 9 -38 12 -65 4 -45 1 -50
-37 -88 -22 -23 -39 -44 -36 -48 2 -5 -4 -24 -15 -44 -48 -89 -40 -483 9 -453
4 3 13 -9 20 -25 20 -46 24 -28 12 63 -13 100 -16 213 -6 250 4 16 16 29 30
32 18 5 26 15 30 44 3 20 10 54 15 76 5 21 6 44 4 51 -3 6 2 18 11 25 14 12
18 11 25 0 7 -12 10 -12 15 2 6 15 -12 83 -34 133 -5 11 -13 31 -18 45 -5 18
-14 25 -26 22z"/>
<path d="M6023 12188 c76 -73 138 -138 137 -144 0 -14 107 -124 114 -116 3 3
6 0 6 -7 0 -7 4 -10 9 -7 5 3 11 0 14 -7 3 -6 22 -20 43 -31 22 -10 46 -22 54
-27 8 -5 31 -17 50 -25 19 -9 53 -28 75 -43 22 -14 47 -30 56 -36 53 -34 98
-72 99 -83 0 -8 8 -12 18 -10 9 2 41 -13 71 -34 65 -45 81 -48 81 -10 0 15 3
37 6 49 7 25 -36 73 -65 73 -9 0 -36 10 -61 21 -35 16 -42 22 -30 30 11 8 10
9 -8 4 -15 -4 -35 1 -60 17 -20 12 -58 33 -85 45 -26 12 -50 29 -53 38 -3 8
-10 12 -15 9 -5 -3 -16 1 -23 8 -8 7 -39 28 -70 47 -31 18 -56 37 -56 42 0 5
-6 9 -14 9 -8 0 -45 25 -83 54 -37 30 -86 69 -108 86 -95 73 -133 103 -174
138 -92 77 -61 39 72 -90z"/>
<path d="M5480 11620 c0 -5 8 -18 18 -28 10 -10 24 -33 31 -51 13 -29 12 -34
-4 -49 -16 -15 -17 -15 -12 -1 4 13 1 15 -14 12 -22 -6 -23 -8 -8 -34 5 -11
14 -17 20 -14 5 4 8 3 7 -2 -2 -4 16 -28 40 -52 24 -25 48 -53 53 -63 8 -16 5
-18 -23 -18 -89 0 -123 -11 -83 -26 8 -4 15 -12 15 -19 0 -8 7 -11 18 -8 10 2
25 -4 35 -14 14 -16 18 -28 26 -73 1 -3 5 2 11 10 12 19 16 13 23 -33 6 -38 6
-38 -12 -19 -22 26 -53 14 -31 -12 7 -9 9 -20 5 -24 -4 -4 -10 -1 -12 6 -6 17
-23 15 -23 -3 0 -8 -9 -20 -20 -27 -24 -15 -26 -28 -5 -28 8 0 14 -3 14 -7 -3
-20 2 -34 11 -28 14 9 38 -17 32 -35 -3 -8 -1 -12 3 -7 5 4 19 0 32 -8 13 -9
23 -12 23 -9 0 4 8 1 18 -8 9 -8 29 -19 44 -26 27 -11 27 -11 22 21 -3 18 -17
82 -30 142 -14 61 -30 130 -35 155 -18 82 -42 165 -51 175 -4 5 -8 17 -8 27 0
28 -59 129 -93 161 -33 30 -37 32 -37 17z"/>
<path d="M9087 11075 c-22 -11 -54 -33 -71 -50 -16 -16 -26 -23 -22 -15 4 8 0
6 -8 -4 -9 -11 -23 -21 -31 -22 -22 -3 -70 -45 -89 -78 -13 -23 -14 -27 -2
-23 8 3 16 2 18 -2 4 -12 122 68 187 128 31 27 67 59 81 70 l25 20 -24 -2
c-13 -1 -42 -11 -64 -22z"/>
<path d="M9297 9954 c-3 -3 -19 -7 -34 -8 -39 -4 -83 -17 -83 -26 0 -4 53 -10
118 -13 64 -3 144 -11 177 -17 117 -20 125 -21 125 -10 0 5 -7 10 -16 10 -9 0
-25 9 -35 21 -10 11 -23 18 -28 14 -6 -3 -20 -1 -32 6 -15 7 -19 8 -15 0 5 -7
1 -9 -8 -5 -9 3 -14 9 -12 13 2 3 -24 7 -58 9 -33 1 -68 5 -77 7 -8 3 -18 2
-22 -1z"/>
<path d="M5308 8723 c-16 -2 -28 -9 -28 -14 0 -5 -5 -9 -11 -9 -5 0 -7 5 -3
12 4 7 3 8 -4 4 -7 -4 -12 -13 -12 -20 0 -8 -9 -16 -20 -19 -14 -3 -20 0 -20
10 0 14 -2 14 -18 0 -10 -10 -25 -17 -34 -17 -8 0 -18 -3 -22 -7 -4 -5 -16 -8
-27 -8 -10 0 -19 -4 -20 -10 -1 -16 -20 -35 -29 -30 -4 3 -18 -6 -31 -19 -13
-13 -31 -26 -39 -29 -17 -7 173 2 240 12 25 4 68 4 95 0 28 -3 60 -2 72 2 11
4 46 5 77 2 38 -4 61 -2 71 7 11 9 18 10 28 1 8 -6 16 -8 19 -5 3 2 8 -2 12
-11 3 -9 2 -14 -2 -11 -5 3 -9 -1 -9 -9 0 -23 21 -12 35 20 10 22 15 26 21 16
7 -11 15 -9 40 10 34 25 40 39 16 39 -8 0 -15 6 -15 13 0 21 -58 35 -166 41
-56 4 -118 13 -138 21 -19 8 -39 14 -43 14 -4 -1 -20 -4 -35 -6z"/>
<path d="M5895 7509 c-4 -6 -14 -8 -22 -5 -8 3 -12 2 -8 -3 3 -5 -1 -11 -7
-13 -7 -3 -13 -13 -13 -24 0 -10 -6 -18 -12 -16 -7 1 -13 -5 -13 -13 0 -8 -7
-15 -15 -15 -18 0 -49 -64 -41 -85 5 -13 13 -11 48 12 24 15 46 32 49 36 3 5
9 8 13 7 15 -4 66 23 66 36 0 8 6 14 13 14 8 0 22 9 32 20 18 20 17 20 -9 20
-15 0 -25 4 -21 9 3 6 -3 15 -14 20 -25 14 -38 14 -46 0z"/>
</g>
</svg>
