<?xml version="1.0" standalone="no"?>
<!DOCTYPE svg PUBLIC "-//W3C//DTD SVG 20010904//EN"
 "http://www.w3.org/TR/2001/REC-SVG-20010904/DTD/svg10.dtd">
<svg version="1.0" xmlns="http://www.w3.org/2000/svg"
 width="4032.000000pt" height="3024.000000pt" viewBox="0 0 4032.000000 3024.000000"
 preserveAspectRatio="xMidYMid meet">

<g transform="translate(0.000000,3024.000000) scale(0.100000,-0.100000)"
fill="#0E292A" stroke="none">
<path d="M0 15120 l0 -15120 20160 0 20160 0 0 15120 0 15120 -20160 0 -20160
0 0 -15120z m16840 6658 c0 -4 -11 -8 -25 -8 -14 0 -25 4 -25 10 0 5 11 9 25
8 14 -1 25 -6 25 -10z m-514 -128 c10 -27 21 -50 24 -50 3 0 4 -17 2 -37 -4
-31 -6 -34 -13 -18 -4 11 -8 15 -8 8 -1 -13 -41 -5 -41 8 0 5 3 9 8 9 4 0 6
20 4 45 -3 28 -9 45 -17 45 -14 0 -27 25 -18 34 20 19 42 3 59 -44z m491 -27
c-3 -10 -5 -4 -5 12 0 17 2 24 5 18 2 -7 2 -21 0 -30z m-347 -24 c0 -17 38
-30 52 -16 21 20 72 16 81 -7 7 -17 10 -18 17 -6 7 11 10 12 10 2 0 -7 4 -11
9 -8 12 8 61 -32 61 -49 0 -16 -74 -35 -132 -34 -51 1 -103 28 -103 55 0 27
-20 58 -33 50 -6 -4 -8 -14 -5 -24 4 -13 2 -13 -10 3 -21 25 -21 39 -2 31 9
-3 15 0 15 8 0 9 7 12 20 9 11 -3 20 -9 20 -14z m279 -55 c1 -7 -5 -14 -12
-17 -9 -3 -12 5 -11 32 1 20 3 38 4 41 2 6 17 -39 19 -56z m-463 12 c1 -15 -3
-23 -10 -20 -16 6 -18 44 -3 44 7 0 13 -11 13 -24z m534 -20 c0 -8 -5 -16 -11
-18 -7 -2 -7 -12 0 -31 6 -16 11 -42 11 -58 0 -23 -4 -29 -21 -29 -11 0 -18
-4 -15 -9 10 -15 -6 -43 -20 -37 -7 3 -16 0 -20 -6 -4 -7 -10 -6 -16 3 -6 10
-7 6 -2 -11 3 -14 3 -22 -1 -18 -5 4 -14 3 -21 -3 -9 -7 -18 -2 -34 21 -12 16
-30 30 -41 30 -10 0 -19 6 -19 14 0 8 -5 16 -11 18 -5 2 -7 11 -4 20 5 14 49
29 92 32 12 1 33 19 81 68 30 30 52 36 52 14z m-470 -41 c-12 -31 3 -75 26
-75 8 0 14 6 11 13 -2 6 -9 11 -15 10 -7 -2 -9 4 -5 13 5 14 9 13 24 -7 20
-26 25 -51 10 -46 -5 1 -16 -7 -24 -17 -15 -20 -97 -33 -97 -16 0 5 -9 12 -20
15 -25 8 -18 21 14 27 14 3 23 0 22 -6 -2 -6 -1 -8 1 -3 3 4 9 4 15 1 6 -4 6
2 -1 14 -15 28 -14 42 4 42 9 0 15 9 15 24 0 20 6 28 27 35 1 1 -2 -10 -7 -24z
m-560 -16 c0 -6 -4 -7 -10 -4 -5 3 -10 11 -10 16 0 6 5 7 10 4 6 -3 10 -11 10
-16z m1047 -26 c-3 -10 -5 -4 -5 12 0 17 2 24 5 18 2 -7 2 -21 0 -30z m-801
-5 c14 -15 -6 -21 -63 -22 -62 0 -113 10 -113 22 0 9 166 9 176 0z m-216 -13
c10 -12 10 -15 -4 -15 -9 0 -16 7 -16 15 0 8 2 15 4 15 2 0 9 -7 16 -15z
m1111 -28 c-8 -8 -11 -7 -11 4 0 20 13 34 18 19 3 -7 -1 -17 -7 -23z m-1001
-7 c57 -1 63 -2 47 -14 -14 -11 -15 -15 -5 -19 7 -3 -1 -6 -17 -6 -17 -1 -36
-6 -43 -13 -6 -6 -24 -12 -41 -13 -23 -1 -29 2 -26 17 2 10 -1 18 -6 18 -6 0
-18 7 -27 16 -15 15 -14 16 6 10 17 -6 22 -3 22 10 0 14 3 15 12 6 7 -7 40
-12 78 -12z m570 -32 c0 -5 -6 -8 -13 -8 -8 0 -14 6 -14 13 0 6 -4 21 -8 32
-5 16 -3 15 14 -5 11 -14 21 -28 21 -32z m-497 -49 c12 -12 16 -19 10 -15 -8
4 -13 1 -13 -8 0 -10 -9 -16 -24 -16 -14 0 -28 -5 -31 -11 -5 -6 -13 -3 -22
11 -10 15 -21 19 -36 15 -21 -6 -21 -5 2 13 14 11 30 18 37 15 7 -2 15 0 19 6
10 17 34 13 58 -10z m747 -123 c0 -13 2 -30 5 -38 3 -7 1 -20 -5 -28 -17 -27
-31 3 -24 48 7 45 24 57 24 18z m-280 -80 c18 -1 26 -7 28 -23 4 -27 -40 -49
-120 -58 -48 -5 -58 -4 -68 12 -8 13 -13 14 -16 6 -11 -26 -34 -13 -34 18 0
24 4 30 15 25 9 -3 24 0 35 6 13 9 25 9 42 1 18 -8 27 -6 43 9 11 11 25 16 35
12 8 -4 26 -7 40 -8z m-489 -43 c13 -16 12 -17 -3 -4 -10 7 -18 15 -18 17 0 8
8 3 21 -13z m36 -35 c-3 -8 -6 -5 -6 6 -1 11 2 17 5 13 3 -3 4 -12 1 -19z
m653 -34 c0 -8 5 -12 10 -9 12 7 12 3 4 -19 -10 -26 -31 -18 -36 14 -3 17 -2
32 0 35 8 8 22 -5 22 -21z m-10 -183 c3 -2 -3 -1 -13 2 -10 4 -16 3 -12 -2 9
-16 -6 -41 -26 -41 -23 0 -25 18 -4 26 8 4 15 15 15 26 0 20 7 18 40 -11z
m-164 -27 c6 -8 19 -14 28 -14 9 0 16 -7 16 -15 0 -8 -6 -15 -14 -15 -8 0 -18
-4 -21 -10 -3 -6 5 -10 18 -10 17 0 26 7 30 21 3 12 10 18 16 15 15 -10 -5
-39 -35 -53 -17 -8 -35 -8 -57 -2 -18 5 -53 10 -79 11 -50 2 -56 6 -36 26 9 9
9 12 0 12 -7 0 -12 4 -12 9 0 4 11 6 25 3 21 -4 24 -1 19 13 -4 10 -1 21 7 26
19 12 81 1 95 -17z m566 -349 c51 -25 170 -72 263 -105 94 -33 269 -98 390
-144 175 -67 224 -90 240 -112 11 -15 43 -53 70 -84 48 -52 53 -64 89 -190
l39 -135 -5 -200 c-5 -199 -14 -253 -41 -240 -7 4 -3 -1 8 -10 16 -12 17 -19
8 -33 -6 -9 -16 -16 -23 -14 -7 1 -9 -5 -5 -16 11 -37 -16 -76 -136 -194 -66
-65 -113 -118 -105 -118 8 0 21 7 29 15 16 15 27 10 27 -12 0 -7 -9 -13 -21
-13 -15 0 -19 -4 -15 -16 4 -12 2 -15 -9 -11 -26 10 -26 -11 0 -30 40 -29 19
-45 -69 -51 -62 -4 -76 -2 -76 10 0 8 5 19 12 26 12 12 20 42 11 42 -2 0 -13
-5 -23 -10 -17 -9 -19 -8 -11 12 4 12 14 24 21 26 7 3 10 0 7 -6 -4 -5 2 -12
13 -15 12 -3 18 -1 14 5 -4 6 0 14 7 19 11 7 10 9 -3 9 -10 0 -18 5 -18 10 0
6 7 10 15 10 9 0 12 6 9 15 -4 8 -2 15 3 15 5 0 17 19 27 43 10 23 29 65 42
94 13 28 24 60 23 70 0 10 -8 0 -17 -22 -24 -56 -52 -95 -68 -95 -8 0 -14 5
-14 10 0 6 -3 10 -7 10 -11 0 -43 -81 -43 -109 0 -18 -4 -22 -19 -18 -27 7
-34 -18 -16 -52 8 -16 11 -32 7 -35 -3 -4 0 -11 8 -16 13 -8 12 -10 -2 -10
-10 0 -18 7 -18 15 0 8 -3 15 -7 15 -5 0 -17 3 -28 6 -20 5 -21 1 -18 -53 1
-32 3 -67 5 -78 2 -13 -5 -23 -19 -30 -20 -8 -23 -17 -23 -67 0 -31 -4 -59 -9
-62 -4 -3 -11 -36 -14 -73 -4 -37 -12 -102 -18 -143 -6 -41 -12 -201 -13 -355
-1 -206 -4 -286 -14 -302 -23 -41 2 -441 31 -484 25 -38 36 -156 29 -312 -4
-75 -4 -137 1 -137 4 0 8 6 8 13 1 6 3 19 4 27 1 8 3 30 4 48 1 33 16 45 18
15 1 -10 5 -37 9 -60 4 -28 3 -48 -5 -57 -9 -11 -9 -20 -2 -34 6 -11 8 -21 6
-24 -5 -5 22 -114 32 -131 4 -6 11 -3 19 8 12 16 14 15 20 -11 4 -16 14 -37
22 -47 15 -16 14 -17 -1 -11 -10 4 -19 0 -23 -9 -7 -18 21 -87 35 -87 15 0 13
16 -4 33 -8 8 -11 17 -8 21 4 3 0 6 -7 6 -20 0 -2 13 23 17 17 2 19 1 7 -7
-15 -9 -13 -11 13 -14 6 0 13 -16 15 -35 2 -19 -1 -31 -6 -27 -20 12 -34 -23
-28 -71 4 -33 3 -42 -3 -28 -11 23 -12 19 -16 -68 -2 -48 0 -59 16 -68 14 -7
16 -14 10 -27 -23 -47 -28 -79 -15 -97 8 -10 14 -32 14 -48 0 -16 4 -26 10
-22 6 3 10 2 10 -3 0 -5 10 -12 22 -15 19 -5 20 -8 7 -23 -16 -19 -13 -84 4
-99 13 -11 14 -55 2 -75 -5 -9 -2 -10 13 -6 26 8 38 -20 14 -33 -26 -14 -258
-70 -337 -81 -38 -6 -133 -19 -210 -31 -277 -40 -472 -49 -890 -44 -422 6
-927 22 -1014 33 l-54 7 -17 55 c-53 172 -63 210 -57 217 4 3 2 12 -3 18 -6 7
-21 34 -35 60 -19 35 -22 46 -10 42 9 -4 15 -1 15 8 0 8 5 15 10 15 6 0 10 6
10 13 0 7 15 28 32 46 l32 33 -23 19 c-13 10 -29 19 -36 19 -7 0 -15 7 -19 15
-4 11 1 15 19 15 29 0 33 21 9 41 -14 12 -14 14 0 24 12 9 13 19 7 41 -6 22
-4 33 8 45 19 19 55 34 46 19 -4 -6 5 -5 20 2 16 7 24 17 20 26 -3 7 -5 28 -5
47 0 22 -12 47 -38 81 -46 59 -66 106 -58 137 5 20 10 22 57 20 53 -2 89 9 89
27 0 6 -5 10 -11 10 -5 0 -7 -4 -4 -10 3 -5 1 -10 -5 -10 -7 0 -14 9 -17 19
-3 12 -12 18 -23 16 -12 -2 -17 1 -14 9 3 7 -7 18 -21 24 -14 6 -25 16 -25 22
0 5 -8 10 -18 10 -10 0 -19 7 -19 15 0 9 6 14 14 11 7 -3 13 1 13 9 0 8 8 15
19 15 10 0 21 9 24 20 4 17 9 18 38 10 18 -5 34 -8 37 -6 8 9 -24 45 -53 59
-17 8 -45 26 -62 41 -29 24 -31 29 -22 59 6 21 6 62 -1 118 -6 47 -10 90 -9
95 1 5 -1 18 -5 29 -4 11 -12 32 -18 48 -6 15 -15 27 -20 27 -5 0 -6 5 -3 10
3 6 1 10 -5 10 -7 0 -9 7 -6 17 4 10 4 14 0 10 -4 -4 -17 12 -27 35 -18 40
-19 56 -12 223 4 99 7 206 6 238 0 43 3 57 13 57 8 0 17 6 19 13 3 6 4 -1 4
-17 -2 -22 5 -33 28 -46 17 -9 35 -15 42 -13 13 5 43 -57 43 -88 0 -27 17 -23
24 5 3 13 3 82 0 152 l-5 128 20 -18 c33 -30 27 2 -10 52 -18 25 -25 42 -18
42 10 0 10 3 1 12 -14 14 -16 32 -3 24 4 -3 13 6 19 19 8 17 17 23 28 18 14
-5 14 -3 2 16 -11 18 -11 23 2 31 10 6 11 10 3 10 -7 0 -13 9 -13 21 0 11 -4
18 -9 15 -5 -3 -11 4 -14 17 -2 12 -8 30 -12 40 -4 10 -3 17 4 17 6 0 11 -9
11 -20 0 -11 5 -20 10 -20 13 0 13 25 -1 73 -5 21 -14 35 -20 32 -11 -7 -39
53 -33 69 2 6 14 12 27 13 75 5 88 7 93 14 2 4 -14 13 -37 19 -29 8 -39 15
-35 26 3 9 -1 14 -12 14 -9 0 -26 7 -36 15 -10 8 -22 12 -26 10 -9 -6 -23 26
-15 34 3 3 15 0 25 -7 16 -10 18 -9 13 3 -4 13 -1 14 21 5 30 -11 55 0 76 34
7 12 9 18 6 15 -12 -11 -52 35 -48 54 3 11 0 17 -9 15 -7 -2 -13 5 -14 15 0
10 -6 21 -13 26 -17 10 -12 42 8 58 10 8 11 12 3 13 -6 0 -15 -4 -18 -10 -3
-5 -15 -10 -26 -10 -10 0 -19 -4 -19 -8 0 -5 -15 -8 -32 -7 -35 1 -39 15 -14
41 8 7 12 23 9 35 -4 14 -8 17 -13 9 -6 -9 -14 -6 -29 9 -12 12 -19 26 -16 31
8 12 -17 50 -33 50 -7 0 -18 11 -24 25 -9 19 -14 22 -20 13 -6 -9 -7 -6 -3 8
4 16 -2 28 -22 44 -15 12 -23 19 -16 15 24 -12 -18 52 -71 108 -13 14 -21 16
-29 8 -6 -6 -14 -11 -19 -11 -11 0 -26 65 -34 148 -6 64 -10 75 -30 84 -32 15
-50 66 -80 235 l-27 148 17 139 c15 118 22 149 51 206 l34 67 123 36 c132 39
309 77 356 77 28 0 91 18 297 85 l100 33 5 -37 c17 -114 219 -305 395 -372 76
-29 173 -50 125 -27 -14 7 -28 18 -33 25 -4 7 -13 10 -20 7 -7 -2 -21 4 -31
15 -14 16 -15 23 -6 38 9 15 10 15 4 -7 -6 -23 -6 -24 11 -10 11 9 16 10 11 3
-4 -7 -5 -13 -1 -13 3 0 15 6 26 13 16 9 23 9 26 0 3 -8 12 -9 34 -1 22 8 38
7 56 -1 13 -6 29 -9 34 -6 5 4 9 2 9 -4 0 -5 11 -8 25 -5 14 2 25 0 25 -6 0
-5 7 -10 15 -10 7 0 18 -7 23 -16 8 -15 11 -15 29 3 13 13 31 19 47 18 14 -2
26 1 26 6 0 5 10 14 23 19 12 5 16 9 10 9 -21 1 -15 18 10 26 42 14 66 14 78
-1 10 -13 10 -17 -1 -24 -8 -5 -18 -6 -22 -4 -4 3 -5 -2 -1 -11 3 -10 8 -13
12 -6 8 13 51 10 51 -4 0 -5 5 -3 10 5 8 13 10 13 10 -2 0 -9 -12 -21 -27 -26
-21 -8 -23 -11 -9 -11 51 -2 167 85 249 187 64 79 85 246 34 270 -12 6 -19 11
-15 11 4 1 49 -19 100 -44z m-564 -13 c2 -8 -10 -12 -34 -12 -35 0 -36 1 -19
14 22 16 47 15 53 -2z m485 -99 c-3 -7 -9 -13 -14 -13 -4 0 -6 -7 -3 -15 4 -8
1 -15 -5 -15 -11 0 -16 42 -6 52 11 10 33 4 28 -9z m-339 -59 c3 -8 2 -12 -4
-9 -6 3 -10 10 -10 16 0 14 7 11 14 -7z m-80 -20 c9 -3 16 -15 16 -26 0 -10
-5 -16 -10 -13 -6 4 -7 11 -4 17 4 7 2 8 -4 4 -6 -4 -9 -13 -6 -21 4 -10 0
-12 -16 -8 -13 4 -26 0 -31 -8 -7 -12 -9 -12 -9 0 0 7 -6 11 -15 7 -10 -4 -15
1 -15 15 0 16 3 18 17 10 12 -6 21 -5 31 7 7 10 11 12 8 5 -4 -6 -2 -14 4 -18
9 -6 14 7 11 28 -1 9 3 9 23 1z m-109 -26 c-1 -12 -7 -24 -15 -26 -7 -3 -11
-1 -8 4 3 5 8 17 11 27 9 23 14 21 12 -5z m349 -104 c23 -9 20 -24 -4 -24 -11
0 -20 7 -20 15 0 17 2 18 24 9z m-30 -46 c-5 -7 -50 -6 -72 1 -1 1 3 7 10 14
9 10 19 11 39 3 15 -5 25 -14 23 -18z m-239 -5 c-2 -10 -4 -20 -4 -22 -1 -3
-7 1 -13 7 -10 10 -10 15 2 22 19 12 19 13 15 -7z m-71 -28 c3 -8 1 -15 -4
-15 -6 0 -10 7 -10 15 0 8 2 15 4 15 2 0 6 -7 10 -15z m1372 -1345 c13 0 24
-4 24 -10 0 -5 -6 -10 -14 -10 -8 0 -16 -6 -19 -14 -6 -16 -57 -28 -57 -13 0
5 -7 3 -17 -4 -13 -11 -17 -11 -20 -1 -3 6 -13 12 -24 12 -10 0 -19 7 -19 15
0 8 7 15 15 15 8 0 15 5 15 11 0 8 15 10 46 5 26 -3 57 -6 70 -6z m-2486 -64
c0 -2 -7 -6 -15 -10 -8 -3 -15 -1 -15 4 0 6 7 10 15 10 8 0 15 -2 15 -4z
m2451 -36 c3 -29 -3 -45 -20 -59 -16 -13 -17 -16 -2 -33 8 -10 22 -18 31 -19
8 0 4 -5 -10 -11 -29 -12 -186 8 -196 24 -10 16 38 49 61 44 18 -4 17 -3 -4
15 -13 11 -21 23 -17 26 30 30 155 40 157 13z m87 -117 c-10 -2 -26 -2 -35 0
-10 3 -2 5 17 5 19 0 27 -2 18 -5z m-258 -1493 c0 -20 4 -40 9 -45 12 -13 29
-131 21 -145 -9 -15 -38 115 -45 202 -2 20 -6 47 -9 60 -4 16 -1 14 9 -7 8
-16 14 -46 15 -65z m42 -350 c-1 -33 3 -43 18 -47 20 -5 93 -146 88 -171 -2
-11 -87 107 -88 123 0 3 -9 14 -20 25 -19 19 -22 33 -22 95 0 38 1 40 13 28 6
-6 11 -30 11 -53z m26 -1088 c-2 -8 -14 -16 -28 -18 -14 -1 -52 -5 -85 -9 -60
-7 -118 -9 -165 -5 -24 2 -24 2 5 11 17 5 38 7 48 5 9 -2 15 0 11 5 -3 5 2 9
10 9 8 0 18 -4 21 -10 7 -12 55 -14 55 -2 0 15 47 29 65 19 13 -7 20 -5 27 6
11 20 40 11 36 -11z m2 -62 c0 -5 -2 -10 -4 -10 -3 0 -8 5 -11 10 -3 6 -1 10
4 10 6 0 11 -4 11 -10z m-37 -7 c-7 -2 -19 -2 -25 0 -7 3 -2 5 12 5 14 0 19
-2 13 -5z m-1663 -14 c47 -6 106 -11 132 -11 26 0 45 -4 42 -9 -3 -5 -1 -9 5
-9 5 0 13 5 16 10 3 6 13 10 21 10 20 0 17 -20 -3 -21 -12 0 -13 -2 -5 -6 7
-3 19 0 26 6 16 13 89 1 84 -14 -2 -6 -12 -9 -23 -7 -20 3 -20 3 0 -12 20 -15
19 -15 -2 -9 -21 5 -27 15 -24 36 0 4 -6 7 -15 7 -9 0 -14 -6 -11 -13 4 -10
-1 -13 -17 -10 -16 3 -24 -2 -33 -24 l-11 -28 -1 28 c-1 15 -5 27 -10 27 -5 0
-17 3 -27 7 -14 5 -16 3 -11 -11 6 -15 3 -17 -13 -13 -11 3 -22 1 -25 -3 -3
-5 3 -11 12 -13 14 -4 13 -5 -4 -6 -13 -1 -23 -7 -23 -16 0 -8 -6 -15 -13 -15
-9 0 -12 10 -9 30 4 31 -3 36 -27 21 -9 -6 -10 -11 -2 -15 6 -4 9 -10 7 -14
-8 -14 23 -45 39 -39 16 7 21 -8 6 -18 -5 -3 -31 -6 -58 -7 -34 -2 -53 -8 -64
-22 -10 -12 -20 -16 -29 -11 -11 7 -9 10 6 17 15 7 14 7 -6 4 -14 -3 -38 -8
-54 -12 -21 -5 -27 -4 -22 5 4 6 2 11 -3 11 -6 0 -11 -7 -11 -15 0 -8 -5 -15
-11 -15 -5 0 -8 4 -4 10 3 5 3 20 0 32 -8 32 -45 33 -45 1 0 -14 -6 -23 -16
-23 -8 0 -13 -4 -9 -10 3 -5 15 -6 29 0 17 6 23 5 23 -6 0 -22 -44 -16 -61 8
-20 28 -21 44 -3 29 14 -11 27 -5 27 13 0 7 -24 11 -63 11 -34 -1 -66 4 -70
10 -6 7 -10 6 -14 -2 -7 -18 -24 -16 -17 2 4 8 1 15 -5 15 -6 0 -11 -7 -11
-16 0 -8 -4 -12 -10 -9 -5 3 -10 14 -10 24 0 14 9 18 37 19 20 1 41 6 47 12 6
6 14 6 23 -1 13 -11 18 3 14 38 -2 12 53 28 82 24 10 -1 24 2 30 7 28 23 82
26 197 11z m660 -43 c0 -69 -19 -156 -38 -176 -13 -13 -14 -11 -8 15 3 17 11
72 18 123 13 102 28 122 28 38z m795 44 c5 8 24 10 64 5 79 -9 91 -14 91 -36
0 -22 -4 -23 -33 -8 -12 7 -19 8 -15 4 5 -5 -1 -15 -12 -22 -11 -8 -17 -19
-14 -25 4 -7 2 -8 -4 -4 -7 4 -12 3 -12 -2 0 -6 -9 -8 -20 -5 -11 3 -27 0 -35
-7 -9 -7 -18 -10 -22 -6 -3 3 0 6 8 6 11 0 11 2 -1 10 -19 12 -31 12 -50 0
-13 -9 -13 -11 -1 -19 10 -6 3 -9 -22 -8 -23 1 -37 6 -37 14 0 7 -5 13 -11 13
-6 0 -9 -9 -6 -20 4 -15 0 -20 -13 -20 -10 0 -25 -3 -34 -6 -11 -4 -16 -1 -16
11 0 11 -5 15 -15 11 -9 -3 -15 1 -15 11 0 12 -3 13 -13 4 -8 -6 -12 -23 -9
-41 4 -29 3 -30 -29 -23 -31 6 -33 5 -21 -10 12 -14 9 -16 -32 -13 -25 1 -46
-1 -46 -5 0 -4 -10 -5 -22 -1 -13 3 -19 1 -15 -5 6 -9 -6 -10 -48 -4 -6 1 -6
4 1 9 6 4 16 16 22 27 6 11 12 14 12 8 0 -7 5 -13 11 -13 16 0 36 23 32 37 -2
6 2 11 9 10 34 -1 46 5 53 26 4 15 8 18 12 8 4 -11 7 -11 13 0 7 10 11 10 24
0 17 -15 19 -11 17 34 -2 24 0 27 9 15 7 -10 12 -12 18 -4 7 11 70 26 105 25
9 0 17 4 17 9 0 5 15 6 34 3 21 -3 36 -1 41 7 6 10 9 10 15 0 6 -9 9 -9 15 0z
m205 -16 c0 -2 -9 -4 -20 -4 -11 0 -20 4 -20 9 0 5 9 7 20 4 11 -3 20 -7 20
-9z m-602 -16 c-3 -7 -19 -20 -37 -30 -18 -10 -30 -14 -27 -9 4 5 2 12 -4 16
-5 3 -10 -1 -10 -10 0 -19 -35 -33 -67 -27 -28 5 -31 22 -4 22 10 0 22 7 25
16 4 9 13 14 21 10 8 -3 15 -1 15 4 0 9 27 16 68 19 14 0 22 -4 20 -11z m619
-10 c-3 -8 -6 -5 -6 6 -1 11 2 17 5 13 3 -3 4 -12 1 -19z m-1297 8 c0 -2 -7
-6 -15 -10 -8 -3 -15 -1 -15 4 0 6 7 10 15 10 8 0 15 -2 15 -4z m449 -28 c0
-18 -4 -42 -9 -53 -6 -15 -9 -6 -9 33 -1 28 4 52 9 52 6 0 10 -15 9 -32z m766
2 c3 -5 1 -10 -4 -10 -6 0 -11 5 -11 10 0 6 2 10 4 10 3 0 8 -4 11 -10z m-25
-4 c0 -3 -4 -8 -10 -11 -5 -3 -10 -1 -10 4 0 6 5 11 10 11 6 0 10 -2 10 -4z
m-1040 -25 c0 -4 -6 -15 -13 -26 -13 -17 -14 -16 -11 6 1 13 3 28 3 32 1 10
21 -1 21 -12z m33 -27 c-4 -12 -8 -13 -14 -3 -9 15 -2 32 11 24 5 -3 6 -13 3
-21z m-1009 1 c3 -8 1 -15 -4 -15 -6 0 -10 7 -10 15 0 8 2 15 4 15 2 0 6 -7
10 -15z m579 -10 c-3 -9 -8 -14 -10 -11 -3 3 -2 9 2 15 9 16 15 13 8 -4z m60
1 c3 -8 -1 -20 -9 -27 -12 -10 -13 -9 -7 6 5 14 3 17 -10 12 -9 -3 -17 -2 -17
3 0 5 8 11 18 13 9 3 18 5 18 6 1 0 4 -5 7 -13z m804 -8 c-3 -8 -6 -5 -6 6 -1
11 2 17 5 13 3 -3 4 -12 1 -19z m683 2 c0 -11 -5 -20 -12 -20 -7 0 -6 -5 3
-12 9 -7 23 -25 32 -39 l16 -27 -40 -6 c-21 -3 -39 -12 -39 -19 0 -7 -3 -8 -8
-2 -11 16 -71 34 -78 24 -10 -17 -42 -10 -40 8 1 12 -7 19 -24 21 -23 2 -24 2
-7 -12 16 -12 16 -14 1 -20 -9 -3 -20 -4 -25 0 -11 7 -51 -21 -42 -29 3 -4 20
-7 37 -7 24 0 27 3 16 10 -14 9 -13 10 18 10 4 0 7 -4 7 -9 0 -5 3 -13 8 -17
4 -4 7 -3 7 3 0 6 16 10 35 9 26 -1 35 -5 35 -18 0 -10 5 -18 11 -18 6 0 9 7
5 15 -4 12 0 14 22 8 15 -4 35 -6 45 -5 11 0 17 -6 17 -19 0 -12 4 -17 11 -13
22 13 -9 -30 -44 -63 -28 -26 -36 -30 -41 -17 -3 8 -10 13 -15 10 -14 -9 -41
4 -41 19 0 8 -5 17 -12 21 -7 4 -8 3 -4 -4 4 -8 -3 -16 -20 -22 -21 -9 -29 -7
-39 7 -13 17 -13 17 -12 -2 2 -18 -4 -20 -45 -19 -27 1 -48 -2 -48 -7 0 -5
-12 -6 -26 -3 -20 5 -31 2 -43 -14 -11 -14 -31 -22 -64 -25 -27 -3 -51 -8 -54
-11 -4 -3 -12 -1 -20 5 -8 7 -13 8 -13 1 0 -5 -9 -12 -20 -15 -11 -3 -20 0
-20 5 0 7 -4 7 -12 1 -7 -5 -31 -11 -53 -13 -63 -4 -90 -7 -90 -9 0 -2 -8 -4
-17 -6 -27 -5 -22 1 22 24 22 12 53 21 68 21 16 0 37 7 48 15 10 8 26 14 34
15 13 0 13 -2 1 -9 -9 -6 21 -9 82 -8 97 2 115 9 96 38 -6 9 -9 10 -9 2 0 -8
-16 -11 -46 -10 -30 1 -48 -3 -55 -13 -8 -11 -12 -12 -16 -2 -2 6 -16 12 -29
12 -31 0 -31 15 0 35 13 9 26 25 29 35 4 17 14 20 60 20 l55 0 -6 43 c-5 38
-4 41 11 28 20 -16 23 -41 5 -41 -9 0 -9 -3 -1 -11 8 -8 17 -8 33 1 12 6 24 9
28 6 3 -3 0 -6 -6 -6 -7 0 -12 -4 -12 -9 0 -19 45 -5 57 19 10 20 10 26 -3 33
-8 4 -22 7 -32 6 -9 -1 -28 -1 -41 0 -23 1 -23 2 -7 19 9 11 45 27 81 37 36
11 65 22 65 26 0 12 79 27 130 26 28 -1 50 0 50 3 0 3 11 7 25 8 19 1 25 -3
25 -18z m-430 -10 c0 -5 -8 -10 -17 -10 -15 0 -16 2 -3 10 19 12 20 12 20 0z
m-681 -27 c-1 -16 1 -36 5 -45 10 -22 4 -50 -12 -56 -7 -2 -10 2 -7 11 3 7 -1
20 -10 27 -21 17 -19 66 3 79 24 14 24 14 21 -16z m-859 7 c0 -5 -5 -10 -11
-10 -5 0 -7 5 -4 10 3 6 8 10 11 10 2 0 4 -4 4 -10z m787 -12 c-3 -8 -6 -5 -6
6 -1 11 2 17 5 13 3 -3 4 -12 1 -19z m318 -46 c-6 -16 -7 -16 -15 -1 -6 10 -5
26 3 42 l12 27 3 -26 c2 -14 1 -33 -3 -42z m-575 54 c0 -11 -19 -15 -25 -6 -3
5 1 10 9 10 9 0 16 -2 16 -4z m-330 -30 c0 -11 -19 -15 -25 -6 -3 5 1 10 9 10
9 0 16 -2 16 -4z m-90 -36 c0 -5 -2 -10 -4 -10 -3 0 -8 5 -11 10 -3 6 -1 10 4
10 6 0 11 -4 11 -10z m1104 -6 c3 -8 2 -12 -4 -9 -6 3 -10 10 -10 16 0 14 7
11 14 -7z m-1124 -34 c0 -5 -2 -10 -4 -10 -3 0 -8 5 -11 10 -3 6 -1 10 4 10 6
0 11 -4 11 -10z m-290 -24 c0 -10 -30 0 -34 11 -4 11 -1 11 14 3 11 -6 20 -12
20 -14z m907 -5 c-2 -9 -8 -15 -14 -14 -5 1 -29 3 -51 4 -23 2 -43 8 -46 15
-3 8 2 11 14 9 10 -2 31 0 47 4 36 10 55 3 50 -18z m-237 -7 c0 -2 -7 -4 -15
-4 -8 0 -15 4 -15 10 0 5 7 7 15 4 8 -4 15 -8 15 -10z m110 6 c0 -5 -8 -10
-17 -10 -15 0 -16 2 -3 10 19 12 20 12 20 0z m432 -19 c2 -17 1 -28 -4 -25 -8
5 -12 54 -4 54 2 0 6 -13 8 -29z m-712 10 c0 -6 -5 -13 -10 -16 -6 -4 -8 -16
-4 -27 4 -14 2 -18 -5 -14 -12 8 -15 49 -4 59 9 10 23 8 23 -2z m74 1 c3 -5 0
-9 -7 -10 -7 0 -22 -4 -35 -7 -18 -6 -21 -4 -16 9 6 17 49 22 58 8z m46 -7 c0
-8 -4 -15 -10 -15 -5 0 -7 7 -4 15 4 8 8 15 10 15 2 0 4 -7 4 -15z m327 9 c-3
-3 -12 -4 -19 -1 -8 3 -5 6 6 6 11 1 17 -2 13 -5z m-509 -30 c-3 -20 -39 -28
-49 -12 -5 7 -20 8 -45 2 -38 -8 -39 -8 -9 -12 42 -5 51 -17 30 -39 -10 -10
-21 -18 -24 -18 -3 0 -5 -4 -3 -10 2 -5 -2 -4 -9 3 -16 15 -61 16 -77 0 -9 -9
-12 -9 -12 0 0 6 -7 9 -15 6 -11 -5 -15 1 -15 20 0 14 -5 26 -11 26 -5 0 -8
-4 -4 -9 3 -5 1 -12 -5 -16 -6 -3 -13 2 -17 12 -4 10 -11 22 -17 26 -7 6 -5 7
5 4 9 -3 21 -1 25 3 15 15 83 26 172 28 74 2 83 1 80 -14z m1617 -82 c138 -3
152 -5 137 -25 -4 -7 -8 -19 -7 -27 1 -8 -3 -23 -7 -32 -6 -12 -5 -18 3 -18
12 0 8 -53 -7 -100 -7 -22 -6 -23 8 -12 14 11 17 10 22 -5 7 -22 3 -50 -9 -60
-4 -4 -5 -3 -2 3 4 7 1 14 -6 17 -8 3 -14 -3 -14 -15 -1 -12 7 -22 22 -28 26
-10 31 -43 10 -70 -6 -8 -12 -26 -13 -39 0 -14 -8 -29 -17 -34 -12 -7 -13 -12
-5 -22 7 -8 9 -19 5 -25 -3 -5 -1 -10 4 -10 6 0 11 -11 11 -24 0 -19 -4 -23
-20 -19 -17 5 -18 2 -11 -23 4 -16 7 -46 5 -67 -2 -21 0 -36 5 -33 4 3 6 -13
4 -35 -2 -21 2 -39 7 -39 6 0 10 -7 10 -15 0 -9 -6 -12 -15 -9 -20 8 -19 -6 3
-22 16 -13 15 -15 -8 -36 -24 -21 -24 -21 -2 -15 19 4 22 1 21 -21 0 -15 -3
-21 -6 -14 -2 6 -8 12 -13 12 -10 0 -8 -20 5 -39 5 -10 4 -16 -3 -19 -7 -2
-12 -12 -12 -23 0 -13 5 -17 17 -12 12 5 14 3 7 -8 -12 -20 -14 -39 -3 -39 5
0 9 -5 9 -11 0 -5 -4 -8 -9 -4 -5 3 -17 -2 -25 -11 -14 -13 -16 -13 -16 -1 0
8 -6 15 -12 14 -31 -1 -48 4 -48 14 0 5 6 7 13 3 9 -6 9 -5 -1 8 -10 12 -9 18
3 28 12 10 19 10 27 2 18 -18 27 -14 23 9 -6 29 -13 35 -27 21 -19 -19 -28
-14 -28 12 0 14 -3 27 -7 29 -11 7 -11 -46 -1 -54 5 -3 -3 -19 -17 -35 -28
-32 -30 -40 -15 -49 6 -4 8 -10 5 -15 -3 -4 6 -7 20 -6 16 0 23 6 20 14 -3 7
0 10 6 7 5 -4 7 -16 3 -27 -5 -18 -3 -20 17 -15 14 3 31 2 39 -3 12 -7 12 -12
-4 -28 -16 -18 -16 -21 -2 -29 14 -8 14 -14 -3 -58 -10 -27 -28 -56 -40 -63
-11 -8 -21 -20 -21 -28 0 -7 -8 -17 -17 -23 -15 -8 -16 -13 -5 -30 14 -25 0
-57 -30 -64 -10 -3 -18 -14 -18 -25 0 -12 -4 -23 -10 -27 -5 -3 -7 -11 -4 -19
3 -8 -3 -12 -18 -12 -24 1 -42 17 -30 26 5 3 17 22 29 42 23 39 24 69 4 76 -9
3 -11 -2 -7 -16 4 -11 2 -23 -4 -27 -6 -4 -10 5 -11 22 -1 27 -1 27 -8 4 -5
-20 -8 -21 -18 -9 -7 8 -14 25 -16 38 -2 13 -9 26 -15 28 -7 2 -12 8 -12 14 0
6 7 8 15 4 9 -3 15 0 15 9 0 8 -6 15 -12 15 -9 0 -8 4 2 10 8 5 11 10 6 10 -5
0 -4 6 2 13 5 6 12 37 13 67 4 48 2 55 -13 52 -10 -2 -18 2 -18 8 0 5 5 10 10
10 6 0 10 8 9 18 0 10 -3 12 -6 5 -5 -15 -23 -17 -23 -4 0 5 9 13 20 16 13 4
20 15 20 31 0 14 4 22 10 19 6 -3 10 -2 10 4 0 5 -5 13 -10 16 -7 4 -7 13 0
26 7 12 7 25 2 35 -8 15 -11 15 -30 -4 -26 -26 -38 -12 -24 26 6 15 13 36 17
47 6 20 7 20 21 1 7 -11 16 -17 19 -14 3 2 -4 13 -15 23 -19 17 -21 17 -40 0
-11 -10 -20 -28 -20 -40 0 -12 -10 -30 -22 -41 -20 -18 -21 -18 -15 -1 4 10 7
23 7 28 0 6 5 7 10 4 6 -3 10 -1 10 5 0 7 -9 14 -20 17 -11 3 -20 9 -20 14 0
5 7 6 15 3 11 -5 15 1 15 17 0 13 -4 19 -8 14 -10 -15 -34 -13 -40 4 -3 8 0
11 6 7 6 -3 17 0 25 8 8 8 29 16 48 18 29 2 34 7 34 28 0 15 -5 24 -12 23 -7
-2 -13 6 -13 16 0 11 -4 22 -10 26 -5 3 -9 -5 -8 -17 2 -41 -2 -58 -12 -58
-22 0 -6 82 17 86 31 6 52 18 46 28 -4 6 1 5 10 -3 10 -8 17 -9 17 -3 0 6 3
19 7 29 6 16 5 16 -10 4 -10 -8 -17 -9 -17 -3 0 11 -32 10 -60 -2 -23 -9 -80
-2 -137 18 -29 10 -53 19 -53 21 0 1 8 9 17 16 14 12 16 12 11 -1 -4 -10 1
-15 16 -16 11 -1 32 -5 46 -8 19 -5 20 -4 6 2 -14 6 -16 11 -8 16 7 4 10 11 7
16 -3 5 -1 11 5 15 5 3 10 1 10 -5 0 -6 5 -8 10 -5 6 4 17 1 25 -5 12 -10 17
-7 26 16 7 16 13 32 13 37 2 15 21 1 20 -15 -1 -10 3 -15 10 -11 6 4 26 6 44
4 32 -3 33 -2 30 31 -2 24 1 32 11 30 19 -4 31 16 31 53 -1 27 -2 28 -14 13
-16 -22 -36 -23 -36 -3 0 12 -7 14 -26 9 -17 -4 -29 -2 -35 7 -8 12 -11 12
-19 -1 -8 -12 -10 -13 -10 -1 0 8 -3 12 -6 9 -3 -4 -18 -3 -34 2 -18 5 -32 4
-39 -3 -8 -8 -11 -8 -11 1 0 8 -20 12 -59 12 -33 0 -63 5 -66 10 -3 6 -11 10
-16 10 -6 0 -7 -4 -4 -10 3 -5 -3 -10 -14 -10 -12 0 -21 4 -21 9 0 5 -3 17 -7
27 -5 14 -2 16 15 12 15 -4 22 -2 22 8 0 18 -10 18 -39 -3 -23 -16 -24 -16
-19 5 4 12 2 22 -3 22 -5 0 -9 4 -9 9 0 6 8 10 18 10 142 -3 251 5 256 17 4
11 -5 14 -34 14 -22 0 -40 4 -40 10 0 6 -25 8 -60 6 -65 -3 -69 0 -71 57 -1
18 -3 24 -6 14 -2 -9 -9 -15 -14 -12 -5 3 -6 -1 -3 -9 5 -13 1 -14 -25 -5 -17
6 -34 16 -38 22 -3 5 -1 7 5 3 6 -3 13 -2 17 4 3 5 15 10 26 10 10 0 19 4 19
9 0 9 55 21 103 23 25 1 32 9 28 31 -1 5 2 6 7 3 11 -7 72 15 72 26 0 4 6 5
13 2 8 -3 20 2 27 11 7 8 19 15 27 15 8 0 12 4 8 9 -3 6 -14 8 -25 6 -11 -2
-20 1 -20 6 0 13 91 9 109 -5 11 -8 13 -8 7 2 -4 7 -2 12 4 12 6 0 8 6 4 13
-4 6 1 5 12 -4 10 -9 37 -17 59 -17z m-1769 -27 c-4 -12 1 -15 27 -14 17 1 52
-7 77 -19 39 -18 47 -19 61 -6 20 18 33 18 50 -2 16 -20 23 -52 7 -36 -8 8
-15 7 -25 -4 -8 -8 -20 -14 -26 -14 -8 0 -8 3 -2 8 6 4 11 13 13 20 2 10 -3
10 -20 -2 -12 -9 -30 -16 -40 -16 -10 0 -18 -4 -18 -9 0 -5 -29 -9 -65 -9 -59
0 -65 2 -66 22 -5 68 -3 82 11 88 22 10 23 9 16 -7z m104 -5 c0 -5 -4 -10 -10
-10 -5 0 -10 5 -10 10 0 6 5 10 10 10 6 0 10 -4 10 -10z m44 -15 c-7 -16 -24
-21 -24 -6 0 8 7 13 27 20 1 1 0 -6 -3 -14z m-254 -85 c0 -5 -2 -10 -4 -10 -3
0 -8 5 -11 10 -3 6 -1 10 4 10 6 0 11 -4 11 -10z m330 -51 c0 -5 6 -9 13 -7 7
2 12 -1 12 -7 0 -5 -9 -11 -20 -12 -11 0 -26 -1 -34 -2 -7 -1 -11 -7 -7 -16 4
-11 -1 -15 -19 -15 -14 0 -25 5 -25 11 0 7 -19 10 -52 7 -46 -3 -53 -1 -55 17
-1 11 0 14 3 8 3 -7 10 -13 15 -13 6 0 8 4 4 9 -3 6 2 14 12 19 23 14 153 14
153 1z m1020 7 c0 -3 -4 -8 -10 -11 -5 -3 -10 -1 -10 4 0 6 5 11 10 11 6 0 10
-2 10 -4z m-1256 -41 c7 -29 0 -48 -15 -40 -5 3 -6 -1 -3 -9 7 -18 -21 -23
-31 -6 -3 6 -1 10 4 10 6 0 2 9 -9 20 -27 27 -25 38 8 43 15 2 30 5 33 6 4 0
10 -10 13 -24z m36 15 c0 -5 -2 -10 -4 -10 -3 0 -8 5 -11 10 -3 6 -1 10 4 10
6 0 11 -4 11 -10z m1304 4 c23 -9 20 -23 -4 -17 -11 3 -20 9 -20 14 0 11 3 11
24 3z m-1434 -26 c0 -13 -5 -30 -10 -38 -7 -11 -10 -5 -10 23 0 20 5 37 10 37
6 0 10 -10 10 -22z m-70 -11 c0 -6 -3 -7 -7 -4 -3 4 -11 3 -17 -3 -8 -6 -12
-3 -13 9 -1 14 4 17 18 14 10 -3 19 -10 19 -16z m33 -6 c3 -14 1 -18 -9 -14
-8 3 -14 11 -14 19 0 21 17 17 23 -5z m187 -42 c0 -4 -11 -2 -24 4 -13 7 -22
15 -20 19 5 8 44 -13 44 -23z m-221 -22 c7 8 16 11 19 8 4 -4 -1 -12 -10 -19
-17 -13 -88 -10 -88 4 0 5 11 7 24 6 18 -2 23 1 19 13 -2 9 2 6 9 -5 11 -19
15 -20 27 -7z m61 -3 c0 -14 -4 -23 -10 -19 -5 3 -10 15 -10 26 0 10 5 19 10
19 6 0 10 -12 10 -26z m1796 -159 c-10 -21 -18 -24 -61 -23 -27 1 -60 -5 -72
-12 -12 -8 -26 -11 -30 -6 -10 10 28 38 44 32 7 -3 12 0 10 6 -1 7 7 13 18 15
16 3 17 2 5 -6 -13 -9 -12 -11 3 -11 10 0 20 6 22 13 3 6 20 13 39 14 32 1 33
0 22 -22z m-188 -40 c-6 -13 -15 -22 -19 -19 -5 3 -9 -2 -9 -10 0 -9 -4 -16
-10 -16 -20 0 -9 29 18 49 34 26 34 26 20 -4z m-1222 -50 c6 -15 -8 -34 -41
-52 -15 -9 -22 -8 -31 4 -9 13 -11 12 -9 -8 3 -35 -5 -43 -21 -22 -13 16 -14
16 -8 1 8 -23 -12 -24 -20 -2 -4 10 3 25 19 40 14 13 25 21 25 18 0 -3 12 4
26 15 31 25 52 27 60 6z m1211 -10 c0 -8 -4 -15 -9 -15 -10 0 -11 14 -1 23 9
10 10 9 10 -8z m-1362 -55 c-3 -5 -11 -10 -16 -10 -6 0 -7 5 -4 10 3 6 11 10
16 10 6 0 7 -4 4 -10z m540 -59 c3 -5 1 -12 -5 -16 -5 -3 -10 1 -10 9 0 18 6
21 15 7z m904 -35 c1 -4 -10 -5 -24 -2 -14 4 -25 3 -25 -1 0 -5 -11 -9 -25 -9
-14 -1 -25 2 -25 7 0 15 47 40 64 33 10 -4 16 -1 17 7 0 14 17 -17 18 -35z
m-188 -9 c-13 -13 -26 -3 -16 12 3 6 11 8 17 5 6 -4 6 -10 -1 -17z m139 -102
c13 -14 19 -25 13 -25 -6 0 -18 11 -27 25 -9 14 -15 25 -13 25 2 0 14 -11 27
-25z m25 -85 c3 -5 1 -10 -4 -10 -6 0 -11 5 -11 10 0 6 2 10 4 10 3 0 8 -4 11
-10z m-75 -49 c0 -5 -9 -11 -20 -14 -11 -3 -20 -1 -20 4 0 5 7 9 16 9 9 0 12
5 8 12 -4 7 -3 8 4 4 7 -4 12 -11 12 -15z m130 -66 c0 -16 -6 -25 -15 -25 -9
0 -15 9 -15 25 0 16 6 25 15 25 9 0 15 -9 15 -25z m23 -213 c-7 -27 -29 -29
-36 -3 -3 14 0 17 14 14 11 -3 19 0 19 8 0 7 2 10 5 8 2 -3 2 -15 -2 -27z
m-153 -11 c0 -4 -6 -8 -12 -9 -7 -1 -25 -4 -40 -8 -22 -5 -28 -3 -28 10 0 10
4 14 10 11 5 -3 17 -2 27 3 17 10 43 6 43 -7z m62 -13 c-15 -15 -24 -6 -16 16
5 12 10 14 17 7 8 -8 8 -14 -1 -23z m36 -1 c-16 -33 -18 -33 -18 1 0 24 4 30
15 26 12 -5 12 -10 3 -27z m-3 -97 c-7 -8 -10 -28 -8 -43 3 -21 0 -28 -9 -24
-7 2 -12 10 -10 16 1 6 -5 14 -15 18 -15 6 -15 7 3 13 10 4 19 13 20 21 1 8 5
25 9 39 l9 25 6 -25 c4 -14 2 -31 -5 -40z m255 40 c0 -5 -2 -10 -4 -10 -3 0
-8 5 -11 10 -3 6 -1 10 4 10 6 0 11 -4 11 -10z m-171 -53 c-1 -17 -2 -18 -6
-4 -2 9 -9 17 -14 17 -6 0 -7 5 -4 10 10 16 25 1 24 -23z m-9 -37 c0 12 3 11
11 -3 6 -10 8 -24 5 -32 -3 -8 -1 -15 4 -17 12 -4 20 -68 9 -68 -5 0 -9 9 -9
21 0 12 -5 19 -12 17 -7 -3 -19 2 -27 10 -13 13 -13 16 2 27 21 15 22 25 3 25
-17 0 -25 19 -18 39 4 9 9 6 18 -10 8 -15 14 -18 14 -9z m146 -37 c-3 -8 -6
-22 -6 -31 0 -14 -2 -14 -9 -3 -5 7 -14 10 -20 7 -6 -4 -11 -2 -11 3 0 6 7 11
15 11 8 0 15 7 15 16 0 9 -5 12 -12 8 -7 -4 -8 -3 -4 4 10 16 38 2 32 -15z
m-204 -28 c17 -23 6 -22 -17 1 -14 14 -25 28 -25 31 0 6 31 -17 42 -32z m252
14 c-8 -14 -21 -11 -21 5 0 8 6 12 14 9 7 -3 10 -9 7 -14z m-211 -50 c4 -16 3
-18 -9 -8 -16 13 -19 29 -5 29 5 0 11 -9 14 -21z m107 -3 c0 -7 -8 -20 -17
-27 -15 -11 -16 -11 -6 0 6 7 9 20 6 27 -3 8 0 14 6 14 6 0 11 -6 11 -14z
m-52 -73 c0 -32 -1 -35 -8 -15 -8 18 -5 52 4 52 2 0 3 -17 4 -37z m-28 8 c0
-13 -9 -20 -30 -23 -19 -3 -30 0 -30 8 0 7 8 10 19 7 11 -3 21 2 24 11 9 22
17 20 17 -3z m71 -6 c1 -17 -18 -17 -25 0 -4 11 -1 15 10 13 8 -2 15 -7 15
-13z m-183 -45 c-7 -11 -16 -16 -21 -11 -12 12 0 31 19 31 12 0 12 -3 2 -20z
m115 -22 c15 1 18 -6 17 -31 -3 -53 -2 -56 30 -52 24 3 30 0 30 -14 0 -12 -9
-20 -25 -23 -17 -4 -25 -1 -25 8 0 12 -4 12 -20 2 -13 -8 -16 -16 -10 -22 15
-15 12 -46 -5 -46 -8 0 -15 9 -15 20 0 11 -5 20 -11 20 -5 0 -7 5 -4 10 3 6 2
10 -3 10 -15 0 -52 40 -52 56 0 12 4 11 18 -6 24 -30 54 -20 70 22 6 17 10 34
7 36 -2 3 -7 -3 -11 -12 -6 -15 -7 -15 -21 1 -14 17 -14 17 -9 1 3 -10 1 -18
-4 -18 -6 0 -10 10 -10 23 0 16 -3 18 -9 9 -7 -11 -10 -10 -15 3 -5 14 -1 16
27 9 17 -4 40 -7 50 -6z m57 -32 c0 -3 -4 -8 -10 -11 -5 -3 -10 -1 -10 4 0 6
5 11 10 11 6 0 10 -2 10 -4z m20 -121 c0 -8 -4 -17 -10 -20 -6 -4 -10 5 -10
20 0 15 4 24 10 20 6 -3 10 -12 10 -20z m90 21 c0 -3 -4 -8 -10 -11 -5 -3 -10
-1 -10 4 0 6 5 11 10 11 6 0 10 -2 10 -4z m-221 -15 c7 -5 9 -11 4 -14 -6 -4
-19 0 -29 8 -15 11 -16 14 -4 15 8 0 21 -4 29 -9z m91 -17 c0 -8 -5 -12 -10
-9 -6 4 -8 11 -5 16 9 14 15 11 15 -7z"/>
<path d="M16560 21571 c0 -5 7 -11 15 -15 8 -3 15 -1 15 3 0 5 -7 11 -15 15
-8 3 -15 1 -15 -3z"/>
<path d="M16795 21450 c3 -5 8 -10 11 -10 2 0 4 5 4 10 0 6 -5 10 -11 10 -5 0
-7 -4 -4 -10z"/>
<path d="M16195 20061 c-4 -7 -14 -10 -22 -7 -8 4 -11 1 -8 -5 4 -6 14 -8 23
-4 8 3 19 0 23 -7 7 -10 11 -10 21 1 8 9 9 12 1 7 -6 -3 -16 1 -21 10 -7 12
-11 13 -17 5z"/>
<path d="M16406 20021 c-4 -6 -2 -11 3 -11 6 0 11 -4 11 -8 0 -5 -33 -10 -72
-11 -88 -3 -105 -11 -22 -11 32 0 69 -3 82 -6 17 -5 22 -2 22 12 0 27 -16 49
-24 35z"/>
<path d="M16640 20010 c0 -5 5 -10 10 -10 6 0 10 5 10 10 0 6 -4 10 -10 10 -5
0 -10 -4 -10 -10z"/>
<path d="M16575 20000 c-19 -8 -19 -9 3 -9 12 -1 22 4 22 9 0 6 -1 10 -2 9 -2
0 -12 -4 -23 -9z"/>
<path d="M16440 19982 c0 -4 19 -6 43 -4 70 5 76 10 15 11 -32 0 -58 -2 -58
-7z"/>
<path d="M18060 19199 c0 -5 5 -7 10 -4 6 3 10 8 10 11 0 2 -4 4 -10 4 -5 0
-10 -5 -10 -11z"/>
<path d="M15161 17794 c0 -11 3 -14 6 -6 3 7 2 16 -1 19 -3 4 -6 -2 -5 -13z"/>
<path d="M15150 17745 c0 -8 2 -15 4 -15 2 0 6 7 10 15 3 8 1 15 -4 15 -6 0
-10 -7 -10 -15z"/>
<path d="M15207 17698 c9 -49 21 -67 48 -74 15 -4 22 -11 18 -18 -3 -6 -2 -7
3 -3 18 17 8 50 -27 88 -20 21 -39 39 -42 39 -4 0 -4 -15 0 -32z"/>
<path d="M15307 16224 c7 -19 30 -24 43 -10 8 11 4 15 -19 18 -20 3 -27 0 -24
-8z"/>
<path d="M15253 15825 c0 -8 4 -15 7 -15 4 0 13 7 20 15 10 12 9 15 -7 15 -11
0 -20 -7 -20 -15z"/>
<path d="M15860 15440 c0 -35 -72 -68 -83 -37 -2 6 -8 8 -13 4 -12 -11 15 -27
47 -27 14 0 29 -4 35 -9 5 -6 24 -6 44 -1 24 5 28 8 13 9 -19 1 -23 7 -23 36
0 19 -4 35 -10 35 -5 0 -10 -4 -10 -10z"/>
<path d="M15983 15410 c-23 -9 -33 -50 -13 -50 6 0 10 5 10 11 0 6 7 9 15 5
11 -4 14 1 13 19 -1 14 -3 25 -3 24 0 0 -10 -4 -22 -9z"/>
<path d="M15895 15310 c3 -5 8 -10 11 -10 2 0 4 5 4 10 0 6 -5 10 -11 10 -5 0
-7 -4 -4 -10z"/>
<path d="M17307 15421 c3 -12 11 -17 19 -14 18 7 13 27 -9 31 -11 2 -14 -2
-10 -17z"/>
<path d="M17264 15416 c-8 -22 3 -33 18 -18 9 9 9 15 0 24 -9 9 -13 7 -18 -6z"/>
<path d="M17475 15400 c-3 -5 -1 -10 4 -10 6 0 11 5 11 10 0 6 -2 10 -4 10 -3
0 -8 -4 -11 -10z"/>
<path d="M17650 15340 c0 -5 5 -10 11 -10 5 0 7 5 4 10 -3 6 -8 10 -11 10 -2
0 -4 -4 -4 -10z"/>
<path d="M17338 15253 c6 -2 18 -2 25 0 6 3 1 5 -13 5 -14 0 -19 -2 -12 -5z"/>
<path d="M17672 14990 c0 -14 2 -19 5 -12 2 6 2 18 0 25 -3 6 -5 1 -5 -13z"/>
<path d="M17525 14960 c-3 -4 2 -10 9 -13 8 -3 16 -1 19 6 2 6 6 3 10 -7 4
-10 3 -15 -3 -11 -6 3 -10 1 -10 -4 0 -6 4 -11 9 -11 16 0 24 21 12 33 -14 14
-39 18 -46 7z"/>
<path d="M17366 14948 c3 -5 9 -6 14 -3 7 4 20 -17 19 -31 0 -4 5 -11 13 -16
9 -7 7 -8 -10 -5 -12 3 -20 1 -16 -4 3 -6 13 -9 22 -7 10 1 24 -2 32 -6 9 -6
8 -1 -4 12 -14 16 -16 25 -8 35 17 20 -1 38 -36 35 -17 -1 -28 -6 -26 -10z"/>
<path d="M17497 14928 c2 -5 13 -8 24 -8 10 0 19 3 19 8 0 4 -11 7 -24 7 -13
0 -22 -3 -19 -7z"/>
<path d="M17280 14870 c0 -6 7 -10 15 -10 8 0 15 2 15 4 0 2 -7 6 -15 10 -8 3
-15 1 -15 -4z"/>
<path d="M17397 14864 c7 -3 9 -13 6 -22 -6 -15 -5 -15 11 -3 13 11 14 16 4
22 -7 5 -17 8 -23 8 -5 0 -5 -3 2 -5z"/>
<path d="M17395 14810 c3 -5 8 -10 11 -10 2 0 4 5 4 10 0 6 -5 10 -11 10 -5 0
-7 -4 -4 -10z"/>
<path d="M17424 14798 c-9 -14 -2 -16 26 -8 25 6 25 6 3 12 -13 3 -26 2 -29
-4z"/>
<path d="M17500 14542 c0 -5 7 -13 16 -16 10 -4 14 -1 12 6 -5 15 -28 23 -28
10z"/>
<path d="M17629 14479 c-9 -32 -6 -59 7 -59 11 0 13 7 8 28 -7 26 -13 40 -15
31z"/>
<path d="M17564 14448 c3 -10 0 -20 -6 -24 -7 -4 -6 -9 3 -15 19 -12 32 -11
24 1 -3 6 1 10 9 10 9 0 16 5 16 11 0 5 -5 7 -11 4 -6 -4 -17 1 -25 11 -14 17
-15 17 -10 2z"/>
<path d="M17527 14427 c-3 -8 -1 -20 4 -28 5 -8 9 -12 10 -9 0 3 2 15 5 28 4
24 -10 31 -19 9z"/>
<path d="M17485 14410 c-3 -5 1 -10 9 -10 9 0 16 5 16 10 0 6 -4 10 -9 10 -6
0 -13 -4 -16 -10z"/>
<path d="M17530 14310 c0 -11 5 -20 10 -20 6 0 10 9 10 20 0 11 -4 20 -10 20
-5 0 -10 -9 -10 -20z"/>
<path d="M17621 14314 c0 -11 3 -14 6 -6 3 7 2 16 -1 19 -3 4 -6 -2 -5 -13z"/>
<path d="M17576 14275 c4 -8 8 -15 10 -15 2 0 4 7 4 15 0 8 -4 15 -10 15 -5 0
-7 -7 -4 -15z"/>
<path d="M17530 14250 c0 -5 5 -10 10 -10 6 0 10 5 10 10 0 6 -4 10 -10 10 -5
0 -10 -4 -10 -10z"/>
<path d="M17491 14211 c-8 -5 -9 -11 -3 -15 5 -3 12 1 16 9 6 17 6 18 -13 6z"/>
<path d="M17527 14213 c-13 -12 -7 -43 8 -43 8 0 18 0 22 -1 4 0 9 4 11 10 2
7 -3 8 -13 4 -14 -5 -16 -2 -10 15 6 21 -4 29 -18 15z"/>
<path d="M17623 14174 c-3 -8 0 -21 6 -27 9 -9 11 -8 6 5 -4 11 -1 17 12 20
17 3 17 4 0 11 -12 4 -20 1 -24 -9z"/>
<path d="M17485 14170 c3 -5 11 -10 16 -10 6 0 7 5 4 10 -3 6 -11 10 -16 10
-6 0 -7 -4 -4 -10z"/>
<path d="M17521 14034 c0 -11 3 -14 6 -6 3 7 2 16 -1 19 -3 4 -6 -2 -5 -13z"/>
<path d="M17512 13960 c0 -14 2 -19 5 -12 2 6 2 18 0 25 -3 6 -5 1 -5 -13z"/>
<path d="M17550 13946 c0 -14 4 -27 8 -30 5 -3 6 8 4 25 -5 35 -12 38 -12 5z"/>
<path d="M17475 13918 c-3 -18 -7 -55 -9 -83 -2 -27 -5 -54 -6 -60 -5 -21 0
-45 9 -45 5 0 11 10 13 23 2 16 9 21 23 19 16 -2 17 -1 5 7 -8 5 -17 8 -22 5
-4 -3 -4 34 -1 81 6 84 -1 116 -12 53z"/>
<path d="M17590 13941 c0 -6 4 -13 10 -16 6 -3 7 1 4 9 -7 18 -14 21 -14 7z"/>
<path d="M17510 13905 c0 -8 2 -15 4 -15 2 0 6 7 10 15 3 8 1 15 -4 15 -6 0
-10 -7 -10 -15z"/>
<path d="M17576 13874 c-4 -11 1 -22 14 -31 11 -8 18 -19 15 -24 -10 -15 -23
-10 -27 9 -3 14 -5 13 -10 -5 -5 -19 -2 -23 15 -23 32 0 47 13 53 46 3 16 2
25 -2 22 -3 -4 -13 -1 -21 7 -19 19 -29 19 -37 -1z"/>
<path d="M17505 13811 c-3 -5 -1 -12 5 -16 5 -3 10 1 10 9 0 18 -6 21 -15 7z"/>
<path d="M17538 13798 c-3 -7 -2 -22 2 -32 6 -19 7 -19 12 1 7 25 -6 53 -14
31z"/>
<path d="M17498 13743 c7 -3 16 -2 19 1 4 3 -2 6 -13 5 -11 0 -14 -3 -6 -6z"/>
<path d="M17530 13710 c0 -5 7 -10 16 -10 8 0 12 5 9 10 -3 6 -10 10 -16 10
-5 0 -9 -4 -9 -10z"/>
<path d="M17420 13310 c-12 -8 -10 -10 8 -10 13 0 20 4 17 10 -7 12 -6 12 -25
0z"/>
</g>
</svg>
