<?xml version="1.0" standalone="no"?>
<!DOCTYPE svg PUBLIC "-//W3C//DTD SVG 20010904//EN"
 "http://www.w3.org/TR/2001/REC-SVG-20010904/DTD/svg10.dtd">
<svg version="1.0" xmlns="http://www.w3.org/2000/svg"
 width="4032.000000pt" height="3024.000000pt" viewBox="0 0 4032.000000 3024.000000"
 preserveAspectRatio="xMidYMid meet">

<g transform="translate(0.000000,3024.000000) scale(0.100000,-0.100000)"
fill="#0E292A" stroke="none">
<path d="M0 15120 l0 -15120 20160 0 20160 0 0 15120 0 15120 -20160 0 -20160
0 0 -15120z m9745 6720 c3 -5 21 -7 39 -4 43 6 74 -19 54 -44 -11 -13 -11 -14
1 -7 11 6 13 4 8 -8 -5 -14 -2 -15 18 -7 19 7 25 6 25 -4 0 -18 24 -27 39 -15
8 6 8 5 1 -3 -15 -19 -12 -28 11 -28 11 0 17 5 14 10 -3 6 -1 10 4 10 6 0 11
-7 11 -15 0 -8 5 -15 11 -15 5 0 17 -16 25 -35 14 -33 25 -39 72 -38 15 1 15
1 -3 -33 -14 -27 -13 -29 8 -37 12 -4 29 -6 39 -4 14 4 15 2 5 -17 -7 -11 -16
-24 -22 -28 -6 -5 -5 -8 4 -8 9 0 10 -4 3 -12 -5 -8 -6 -22 -1 -33 15 -38 11
-47 -13 -34 -19 9 -21 9 -11 -1 22 -24 -23 -51 -78 -49 -27 2 -54 -3 -63 -10
-8 -7 -20 -10 -26 -6 -5 3 -20 -1 -32 -9 -12 -9 -29 -16 -37 -16 -9 0 -30 -17
-48 -37 -18 -20 -33 -31 -33 -24 0 7 -5 9 -11 5 -6 -4 8 -23 38 -49 l48 -43
-2 -72 c-2 -47 4 -97 17 -143 11 -38 17 -67 13 -63 -3 3 -15 -2 -25 -11 -13
-12 -38 -17 -81 -18 -34 -1 -72 -6 -84 -13 -19 -11 -27 -10 -50 5 l-28 18 29
-35 c26 -32 27 -35 10 -39 -10 -2 -23 -9 -29 -15 -5 -7 -39 -25 -75 -41 -36
-17 -67 -33 -68 -38 -2 -4 -10 -13 -17 -21 -20 -19 2 -147 25 -143 8 1 17 5
20 9 3 4 33 3 65 -3 83 -16 125 -18 125 -9 0 5 12 5 28 1 15 -4 32 -6 39 -4 6
2 14 -1 18 -6 3 -6 -1 -11 -9 -11 -9 0 -16 -9 -16 -20 0 -11 2 -20 4 -20 2 0
13 -3 23 -7 16 -6 16 -5 4 10 -8 10 -11 20 -7 24 3 3 6 2 6 -3 0 -5 19 -10 43
-11 63 -2 74 -5 74 -20 0 -9 -7 -13 -19 -10 -10 3 -16 2 -14 -1 2 -4 -38 -7
-90 -6 -71 0 -94 -3 -94 -13 0 -7 5 -13 11 -13 6 0 24 -9 40 -21 16 -11 29
-15 29 -9 0 6 5 8 10 5 6 -4 8 -10 5 -15 -5 -8 42 -25 58 -22 4 1 16 4 27 5
11 2 22 6 25 9 6 5 24 1 78 -18 18 -7 24 -24 8 -24 -12 0 -26 -39 -22 -62 3
-25 -45 -34 -94 -17 -52 18 -96 14 -88 -8 5 -12 2 -15 -9 -10 -9 3 -19 0 -21
-7 -3 -7 -20 -14 -39 -15 -18 -1 -37 -2 -43 -3 -5 0 -19 3 -30 7 -13 4 -16 4
-7 -2 8 -6 -2 -9 -28 -7 -23 1 -49 9 -59 18 -12 11 -21 13 -25 7 -9 -13 -38
-2 -54 21 -7 10 -18 16 -23 13 -5 -4 -9 -1 -9 4 0 6 5 11 11 11 8 0 7 5 -1 15
-7 9 -18 14 -25 12 -8 -4 -9 14 -4 61 4 36 4 73 1 82 -5 13 -3 13 10 2 15 -12
16 -10 9 15 -4 15 -11 27 -15 27 -44 -9 -48 -13 -42 -38 6 -25 4 -26 -34 -26
-22 0 -40 4 -40 10 0 5 -6 7 -13 4 -7 -2 -21 10 -31 28 -11 18 -22 35 -26 38
-11 9 -40 78 -40 97 -1 35 -50 209 -75 258 -37 76 -55 151 -55 231 0 40 -4 76
-10 79 -5 3 -10 38 -10 76 0 54 7 88 30 148 34 87 82 161 105 161 8 0 15 5 15
10 0 26 53 90 102 122 62 41 212 103 227 94 6 -4 8 -14 5 -24 -2 -9 1 -7 7 5
11 21 44 39 84 45 55 8 134 7 140 -2z m-742 -791 c15 -16 27 -38 27 -48 0 -11
13 -56 30 -100 30 -84 81 -263 75 -269 -1 -2 -20 6 -41 17 -21 12 -54 21 -72
21 -47 0 -81 22 -126 83 -62 84 -80 131 -72 199 6 57 28 115 50 131 6 4 31 5
56 2 32 -4 53 -14 73 -36z m1037 -18 c3 -5 16 -12 30 -16 68 -21 108 -107 69
-146 -11 -11 -19 -26 -19 -35 0 -8 -5 -12 -10 -9 -6 4 -8 11 -5 16 4 5 1 9 -4
9 -6 0 -11 -5 -11 -10 0 -15 -64 59 -87 100 -24 43 -36 87 -27 101 7 11 55 3
64 -10z m89 -258 c2 -1 -2 -9 -9 -18 -16 -20 -30 -10 -30 22 0 23 2 24 18 12
9 -7 19 -15 21 -16z m-207 -51 c14 -14 -4 -15 -167 -16 -87 -1 -106 -4 -142
-25 -24 -14 -45 -22 -48 -19 -7 7 20 59 37 70 19 13 306 4 320 -10z m-179 -83
c17 17 45 13 56 -6 9 -17 11 -17 23 0 19 25 98 14 98 -14 0 -11 -7 -19 -16
-19 -8 0 -13 4 -9 9 3 5 1 12 -5 16 -5 3 -10 -3 -10 -15 0 -26 -27 -37 -52
-21 -15 10 -23 9 -35 0 -23 -19 -53 -21 -53 -4 0 11 -7 14 -25 9 -27 -7 -42
13 -31 41 5 13 10 14 27 5 15 -9 24 -9 32 -1z m-83 -28 c0 -11 -4 -23 -10 -26
-5 -3 -10 -2 -10 4 0 5 -3 16 -6 25 -4 11 -1 16 10 16 9 0 16 -8 16 -19z
m-483 -113 c-3 -8 -6 -5 -6 6 -1 11 2 17 5 13 3 -3 4 -12 1 -19z m15 -70 c-9
-9 -12 -7 -12 12 0 19 3 21 12 12 9 -9 9 -15 0 -24z m98 -143 c41 -60 56 -76
63 -69 3 3 3 -4 0 -16 -4 -13 0 -26 8 -31 8 -5 9 -9 3 -9 -7 0 -14 -6 -17 -13
-3 -8 1 -14 9 -14 8 0 14 4 14 9 0 4 5 8 10 8 6 0 10 -8 10 -18 0 -9 20 -34
45 -55 25 -21 45 -46 45 -55 1 -14 3 -13 12 3 6 11 13 22 14 24 6 6 44 -31 57
-54 9 -17 8 -18 -5 -8 -8 7 -19 9 -23 5 -5 -4 -6 -2 -2 3 3 6 -1 18 -8 28 -12
17 -13 17 -17 -1 -9 -31 23 -60 60 -54 28 4 32 1 32 -18 0 -19 2 -20 15 -10
12 10 15 10 15 -4 0 -9 7 -16 15 -16 12 0 14 -7 9 -27 -6 -21 -4 -25 8 -20 9
3 21 0 27 -6 9 -9 11 -8 6 6 -4 9 -11 17 -17 17 -5 0 -6 5 -3 10 10 16 35 12
29 -5 -4 -9 0 -15 10 -15 23 0 20 -12 -10 -34 -18 -15 -24 -26 -20 -42 4 -13
1 -24 -7 -27 -7 -3 -5 -6 6 -6 23 -1 22 -18 -3 -31 -13 -7 -20 -21 -20 -41 0
-18 -6 -32 -16 -36 -16 -6 -16 -7 0 -18 15 -11 13 -13 -14 -17 -17 -3 -33 -1
-36 4 -3 4 -12 8 -20 8 -20 0 -92 77 -96 103 -2 14 -9 21 -19 19 -9 -1 -19 4
-22 12 -4 11 -1 14 11 10 9 -2 7 1 -6 7 -13 7 -21 18 -18 26 3 8 -1 16 -8 19
-8 3 -22 21 -31 40 -9 19 -21 34 -28 34 -8 0 -7 3 2 9 11 7 9 10 -8 16 -13 4
-21 15 -21 28 0 13 -8 52 -18 89 -11 39 -15 72 -11 80 14 22 10 41 -6 34 -11
-4 -22 8 -38 42 -12 26 -25 49 -28 52 -4 3 -10 21 -13 40 -4 19 -12 47 -18 62
-6 15 -7 35 -4 45 6 14 12 9 34 -28 15 -24 43 -67 62 -94z m732 41 c-3 -5 2
-7 11 -3 11 4 14 2 10 -8 -3 -8 -9 -12 -14 -9 -5 3 -9 -1 -9 -8 0 -9 -3 -9
-10 2 -6 9 -10 11 -10 3 0 -7 -7 -10 -15 -7 -8 4 -15 14 -15 23 0 12 2 13 9 3
6 -10 10 -7 15 12 5 22 9 24 20 14 8 -7 11 -17 8 -22z m-617 -516 c-3 -5 -11
-10 -16 -10 -6 0 -7 5 -4 10 3 6 11 10 16 10 6 0 7 -4 4 -10z m-915 -34 c0 -2
-8 -10 -17 -17 -16 -13 -17 -12 -4 4 13 16 21 21 21 13z m-57 -70 c-10 -13
-20 -22 -22 -20 -4 4 29 44 36 44 2 0 -4 -11 -14 -24z m-90 -44 c-6 -15 -4
-15 15 2 30 26 28 15 -3 -14 l-25 -23 0 32 c0 18 4 30 10 26 5 -3 6 -13 3 -23z
m1648 -334 c16 -30 28 -38 62 -38 15 0 27 -5 27 -11 0 -5 4 -8 9 -5 13 9 20
-43 7 -57 -6 -7 -11 -30 -11 -52 1 -61 -5 -78 -21 -64 -8 6 -14 20 -14 30 0
12 -11 24 -27 30 -33 12 -76 59 -104 111 -26 50 -25 66 5 61 13 -3 27 0 30 6
11 17 24 13 37 -11z m-447 -163 c22 -21 33 -41 30 -50 -4 -9 0 -15 9 -15 17 0
54 -54 90 -134 38 -82 36 -87 -21 -85 -26 1 -57 -3 -67 -8 -11 -6 -37 -13 -57
-17 -31 -6 -38 -4 -38 9 0 8 5 15 12 15 6 0 8 3 5 7 -4 3 -18 -4 -32 -17 -18
-17 -51 -29 -108 -41 -71 -14 -98 -16 -152 -10 -5 1 -2 6 8 12 9 6 26 7 37 4
25 -8 27 16 4 39 -17 18 -16 47 4 54 7 2 12 -5 12 -17 0 -13 7 -21 18 -22 15
-1 15 -2 -1 -6 -18 -5 -18 -5 0 -19 29 -21 36 -17 30 21 -4 27 -2 35 9 35 8 0
14 -6 13 -12 -3 -28 2 -37 21 -35 12 1 20 8 20 19 0 9 5 20 11 23 6 4 8 13 5
21 -3 8 -1 14 3 14 5 0 11 -5 13 -11 6 -17 61 -19 83 -3 13 10 16 21 12 43 -5
23 -3 29 8 25 24 -9 31 44 9 61 -18 13 -18 14 -1 20 13 6 15 11 7 20 -8 9 -7
14 2 18 7 3 3 6 -9 6 -16 1 -23 7 -23 21 0 11 -7 23 -15 26 -19 8 -19 24 0 24
8 0 30 -16 49 -35z m-1379 -25 c4 -6 1 -9 -7 -8 -7 2 -12 -2 -11 -9 2 -7 -4
-10 -12 -6 -13 5 -13 7 2 19 22 16 20 16 28 4z m-55 -46 c0 -19 -44 -18 -60 1
-15 17 -7 19 21 5 15 -9 19 -7 19 5 0 9 5 13 10 10 6 -3 10 -13 10 -21z m33
-8 c8 -19 -3 -57 -14 -50 -12 7 -12 64 0 64 5 0 11 -6 14 -14z m317 4 c0 -5
-5 -10 -11 -10 -5 0 -7 5 -4 10 3 6 8 10 11 10 2 0 4 -4 4 -10z m-262 -21 c-2
-3 4 -14 12 -24 14 -17 14 -17 -7 -4 -23 14 -32 44 -12 37 6 -2 9 -6 7 -9z
m62 -9 c0 -13 -5 -18 -15 -14 -8 4 -15 12 -15 20 0 8 7 14 15 14 8 0 15 -9 15
-20z m5 -40 c-3 -5 -11 -10 -16 -10 -6 0 -7 5 -4 10 3 6 11 10 16 10 6 0 7 -4
4 -10z m-105 -24 c0 -11 -19 -15 -25 -6 -3 5 1 10 9 10 9 0 16 -2 16 -4z m281
-39 c-10 -9 -11 -8 -5 6 3 10 9 15 12 12 3 -3 0 -11 -7 -18z m1054 13 c8 -13
-15 -13 -35 0 -12 8 -11 10 7 10 12 0 25 -4 28 -10z m-1155 -56 c0 -14 -21
-19 -33 -7 -9 9 13 34 24 27 5 -3 9 -12 9 -20z m-83 -20 c-3 -3 -12 -4 -19 -1
-8 3 -5 6 6 6 11 1 17 -2 13 -5z m-672 -88 c22 -8 53 -12 70 -10 16 3 66 -5
110 -16 44 -11 105 -27 136 -35 31 -8 88 -26 125 -41 115 -44 136 -52 229 -80
97 -30 116 -45 136 -109 7 -22 18 -49 25 -60 15 -26 29 -86 14 -65 -5 8 -10
11 -10 5 0 -5 -8 -1 -17 10 -13 16 -15 17 -10 3 5 -14 1 -18 -17 -18 -13 0
-28 -9 -35 -22 -8 -17 -22 -24 -49 -25 -28 -2 -44 -11 -64 -35 -16 -18 -28
-39 -28 -48 0 -21 -23 -70 -32 -70 -5 0 -8 7 -8 15 0 21 -14 19 -36 -6 -18
-20 -18 -21 1 -35 17 -13 18 -16 5 -24 -13 -9 -13 -10 0 -11 8 -1 18 -1 23 0
4 0 7 -4 7 -10 0 -18 -107 -2 -163 25 -29 13 -93 31 -143 40 -50 8 -126 30
-169 47 -43 17 -101 33 -129 36 -44 5 -55 10 -72 37 -12 17 -23 48 -27 69 l-6
38 19 -23 c34 -41 20 14 -16 62 -37 49 -21 168 36 280 16 30 31 63 34 73 6 20
10 21 61 3z m699 -10 c-3 -8 0 -25 6 -38 11 -22 10 -22 -4 -4 -17 21 -20 38
-9 49 10 11 13 8 7 -7z m2374 -282 c13 -4 22 -2 22 5 0 6 7 11 16 11 10 0 14
-6 11 -14 -5 -12 1 -13 29 -9 21 3 34 2 34 -5 0 -17 -21 -26 -30 -12 -6 9 -9
9 -15 0 -7 -12 0 -25 15 -25 5 0 16 -9 24 -20 9 -11 16 -14 16 -7 0 10 40 19
40 8 0 -19 -24 -65 -32 -60 -6 4 -5 10 3 16 10 6 6 7 -11 3 -29 -8 -46 -22
-38 -31 3 -3 28 -9 55 -14 49 -8 46 -9 -43 -16 l-52 -4 -12 50 c-7 28 -16 53
-21 56 -5 3 -9 16 -9 29 0 13 -4 27 -10 30 -5 3 -10 1 -10 -5 0 -6 -4 -8 -10
-5 -15 9 -30 -4 -23 -21 3 -8 13 -12 22 -9 14 4 20 -6 31 -47 7 -29 15 -59 18
-67 3 -9 1 -12 -6 -8 -6 4 -14 22 -18 40 -7 34 -34 80 -34 59 0 -8 4 -21 9
-30 5 -9 10 -30 12 -47 2 -16 6 -34 10 -40 8 -12 26 -118 33 -196 5 -44 3 -58
-8 -62 -8 -3 -16 -16 -18 -28 -2 -12 -10 -23 -18 -25 -8 -1 -22 -5 -31 -9 -18
-7 -19 -2 -38 140 -5 39 -21 113 -34 165 -33 127 -38 160 -27 160 5 0 7 7 4
15 -4 8 -11 12 -18 8 -7 -4 -8 -3 -1 5 13 14 94 31 120 26 11 -2 30 -7 43 -10z
m253 -21 c10 -10 10 -13 1 -13 -7 0 -12 4 -12 8 0 5 -28 7 -62 4 -35 -2 -58 0
-51 5 18 13 111 9 124 -4z m-707 -164 c19 -126 19 -126 6 -113 -8 8 -17 53
-36 194 -5 32 -3 42 4 35 6 -5 18 -58 26 -116z m-214 41 c9 -36 28 -94 42
-130 14 -36 29 -95 33 -130 4 -36 13 -92 21 -125 7 -33 14 -63 14 -66 0 -4
-30 -10 -67 -14 -38 -4 -120 -16 -183 -26 -197 -34 -223 -38 -300 -43 -70 -4
-73 -4 -40 8 19 7 38 12 41 10 7 -4 1 80 -7 105 -4 11 -7 11 -21 0 -15 -13
-15 -12 -1 15 12 22 13 39 6 70 -11 51 -12 51 -39 32 -17 -11 -26 -13 -36 -4
-13 11 -27 5 -29 -13 -1 -5 -2 -15 -3 -21 -1 -8 -5 -7 -11 4 -9 15 -13 15 -40
1 -17 -8 -30 -17 -30 -19 0 -3 5 -2 12 2 7 4 8 3 4 -5 -6 -9 -14 -8 -34 5 -22
14 -25 15 -14 2 10 -13 10 -18 1 -24 -16 -9 -72 -10 -87 0 -16 10 -16 -36 1
-53 10 -11 8 -11 -12 -1 -21 11 -23 10 -18 -4 4 -10 -1 -20 -13 -26 -16 -9
-18 -8 -13 6 4 11 2 15 -4 11 -6 -4 -14 -1 -16 5 -3 7 -6 3 -6 -9 -1 -30 -20
-39 -35 -17 -9 12 -15 14 -20 6 -14 -23 -33 -13 -28 13 2 14 8 25 13 25 5 0 9
4 9 9 0 5 -10 4 -23 -2 -18 -8 -22 -17 -19 -41 5 -28 4 -29 -12 -14 -28 28
-73 1 -55 -33 5 -10 9 -35 9 -56 0 -22 5 -44 11 -50 14 -14 -157 -28 -244 -19
-34 3 -72 6 -84 6 -29 0 -38 16 -13 23 14 3 20 14 20 31 0 24 8 30 35 27 7 0
9 13 7 33 -3 26 -10 36 -28 40 -14 4 -22 11 -19 16 3 6 2 10 -4 10 -20 0 1 30
25 36 14 4 24 14 24 24 0 21 -48 63 -61 54 -5 -3 -9 -2 -9 3 0 16 17 35 44 48
15 8 24 10 21 5 -4 -6 1 -10 9 -10 12 0 14 7 10 30 -6 27 -4 30 20 30 24 0 32
12 27 42 0 5 2 7 7 6 21 -4 81 15 76 26 -3 6 2 2 10 -8 10 -13 16 -15 16 -7 0
11 3 11 16 1 8 -8 33 -14 56 -15 26 -2 44 -8 50 -19 8 -15 11 -15 33 0 14 9
25 14 25 11 0 -3 3 -13 7 -23 5 -14 2 -16 -15 -12 -12 4 -25 2 -28 -3 -3 -6
20 -8 55 -5 34 2 61 -1 61 -5 0 -5 15 -3 34 5 19 8 37 12 40 9 3 -3 8 1 11 9
7 17 39 14 64 -6 11 -8 13 -8 7 2 -5 8 1 12 19 12 30 0 77 -28 69 -41 -3 -5 2
-9 10 -9 19 0 21 11 5 27 -8 8 -7 17 3 32 11 18 11 23 -1 30 -8 5 -21 7 -29 3
-10 -3 -13 -1 -8 6 4 7 2 12 -3 12 -6 0 -11 -4 -11 -10 0 -5 -4 -10 -10 -10
-5 0 -10 9 -10 20 0 11 -7 20 -15 20 -8 0 -12 -6 -9 -13 2 -7 -3 -13 -13 -13
-10 -1 -27 -4 -38 -8 -16 -6 -17 -6 -5 3 11 8 -1 11 -50 11 -36 0 -60 4 -55 8
6 4 10 13 10 21 0 8 6 15 13 17 7 1 8 0 3 -2 -13 -7 -2 -34 13 -34 7 0 22 9
33 19 12 11 24 17 27 14 3 -4 6 -1 6 5 0 17 -8 15 -41 -9 -16 -11 -29 -16 -29
-10 0 5 5 13 10 16 11 7 4 25 -9 25 -4 0 -17 -9 -30 -21 -17 -16 -25 -18 -36
-9 -11 9 -21 8 -46 -4 -23 -11 -28 -12 -20 -2 14 17 109 41 239 61 55 8 113
20 128 26 16 6 38 13 49 15 63 10 300 44 360 52 39 6 88 9 109 8 l40 -1 16
-65z m150 50 c0 -5 -2 -10 -4 -10 -3 0 -8 5 -11 10 -3 6 -1 10 4 10 6 0 11 -4
11 -10z m-1743 -74 c-3 -6 -10 -10 -16 -8 -7 1 -10 -1 -7 -6 2 -4 1 -14 -4
-21 -6 -10 -9 -9 -15 7 -3 13 -1 27 7 36 15 15 41 10 35 -8z m46 -3 c-4 -10
-2 -14 4 -10 5 4 15 -5 21 -18 12 -25 12 -25 -13 -9 -23 15 -38 73 -15 59 5
-3 6 -13 3 -22z m-23 -21 c0 -4 -9 -15 -20 -25 -24 -20 -25 -45 -5 -74 14 -19
13 -21 -4 -16 -12 3 -17 11 -14 19 3 8 0 14 -7 14 -17 0 -37 23 -32 38 2 6 12
12 23 12 10 0 24 9 31 20 13 20 28 27 28 12z m2403 -2 c65 0 31 -19 -46 -27
-55 -5 -67 -3 -67 9 0 23 13 30 44 24 16 -3 47 -6 69 -6z m-133 -10 c0 -5 -2
-10 -4 -10 -3 0 -8 5 -11 10 -3 6 -1 10 4 10 6 0 11 -4 11 -10z m234 -2 c-7
-11 -54 -10 -54 1 0 5 13 9 30 9 16 -1 27 -5 24 -10z m-164 -53 c0 -8 -4 -15
-9 -15 -13 0 -22 16 -14 24 11 11 23 6 23 -9z m66 -12 c1 -13 -2 -23 -7 -23
-5 0 -9 7 -9 15 0 8 -4 15 -10 15 -5 0 -10 4 -10 9 0 22 35 6 36 -16z m-2046
-19 c0 -2 -9 -4 -21 -4 -11 0 -18 4 -14 10 5 8 35 3 35 -6z m2013 -23 c14 -28
12 -55 -4 -45 -5 3 -9 1 -9 -5 0 -5 5 -13 10 -16 6 -3 10 -1 10 4 0 6 9 11 20
11 16 0 20 -7 20 -35 0 -30 -3 -35 -22 -35 -18 0 -20 2 -8 10 12 7 10 11 -10
18 -29 11 -40 7 -40 -14 0 -8 -7 -14 -15 -14 -13 0 -15 13 -13 78 3 75 4 78
25 74 13 -2 29 -16 36 -31z m87 9 c8 -5 11 -10 5 -10 -5 0 -17 5 -25 10 -8 5
-10 10 -5 10 6 0 17 -5 25 -10z m-634 -85 c5 -21 3 -27 -4 -20 -6 6 -13 23
-16 39 -7 38 10 21 20 -19z m474 -40 c0 -5 -5 -3 -10 5 -5 8 -10 20 -10 25 0
6 5 3 10 -5 5 -8 10 -19 10 -25z m-2330 -17 c0 -5 -7 -3 -15 6 -8 8 -15 18
-15 22 0 3 7 1 15 -6 8 -7 15 -17 15 -22z m2400 22 c0 -5 -4 -10 -10 -10 -5 0
-10 5 -10 10 0 6 5 10 10 10 6 0 10 -4 10 -10z m-521 -93 c1 -10 -3 -15 -9
-12 -5 3 -10 23 -9 43 1 33 2 34 9 12 4 -14 8 -33 9 -43z m-795 41 c-3 -5 0
-17 8 -26 8 -9 15 -28 16 -42 1 -16 -2 -20 -7 -12 -5 9 -17 11 -37 6 -16 -5
-35 -7 -43 -5 -7 1 -10 -2 -7 -7 3 -5 -8 -12 -24 -14 -29 -4 -30 -4 -15 19 9
13 12 23 8 23 -5 0 11 12 35 26 23 14 42 29 42 33 0 4 7 8 15 8 8 0 12 -4 9
-9z m-145 -68 c4 0 8 -6 8 -14 0 -8 -6 -12 -13 -9 -7 2 -11 -3 -11 -14 2 -13
-4 -17 -18 -15 -21 4 -45 29 -45 46 0 6 7 3 14 -6 19 -25 40 -23 33 3 -4 15
-2 19 10 15 8 -3 18 -6 22 -6z m141 -29 c0 -5 -7 -11 -15 -15 -9 -3 -15 0 -15
9 0 8 7 15 15 15 8 0 15 -4 15 -9z m-6 -46 c4 -11 -16 -15 -86 -16 -21 0 -40
-4 -43 -10 -4 -5 -10 -9 -16 -9 -5 0 -4 8 2 18 8 12 25 19 47 20 19 1 36 3 38
4 7 8 54 2 58 -7z m-394 -15 c0 -5 -2 -10 -4 -10 -3 0 -8 5 -11 10 -3 6 -1 10
4 10 6 0 11 -4 11 -10z m137 -1 c-14 -8 -22 -8 -30 0 -8 8 -3 11 19 11 25 -1
27 -2 11 -11z m313 -1 c0 -4 -4 -8 -9 -8 -6 0 -12 4 -15 8 -3 5 1 9 9 9 8 0
15 -4 15 -9z m-483 -4 c-3 -3 -12 -4 -19 -1 -8 3 -5 6 6 6 11 1 17 -2 13 -5z
m253 -1 c-8 -3 -21 -10 -28 -16 -9 -7 -11 -6 -6 7 3 9 16 16 28 15 14 0 16 -2
6 -6z m174 -38 c4 -12 -3 -15 -36 -15 -44 0 -43 15 2 23 14 2 26 5 26 6 1 0 4
-6 8 -14z m-451 -10 c-3 -9 -8 -14 -10 -11 -3 3 -2 9 2 15 9 16 15 13 8 -4z
m198 6 c13 -2 4 -51 -9 -51 -7 0 -10 5 -7 10 3 6 -1 10 -9 10 -9 0 -16 -4 -16
-10 0 -5 -15 -9 -32 -9 -20 1 -26 3 -14 6 15 4 16 7 5 14 -9 6 0 9 29 9 23 0
42 5 42 11 0 5 -4 8 -8 5 -4 -2 -14 0 -22 5 -11 7 -8 8 10 5 14 -3 28 -5 31
-5z m-176 -21 c3 -5 1 -10 -4 -10 -6 0 -11 5 -11 10 0 6 2 10 4 10 3 0 8 -4
11 -10z m-10 -30 c3 -5 1 -10 -4 -10 -6 0 -11 5 -11 10 0 6 2 10 4 10 3 0 8
-4 11 -10z m-1455 -117 c1 -16 2 -16 13 -3 7 9 20 14 30 12 21 -4 23 -22 2
-22 -8 0 -15 -7 -15 -15 0 -13 -4 -12 -22 5 -12 11 -25 20 -30 20 -4 0 -8 5
-8 10 0 18 30 11 30 -7z m2114 -129 c4 -11 1 -14 -11 -12 -9 2 -18 9 -21 16
-6 18 25 15 32 -4z m-1914 -4 c0 -5 -4 -10 -10 -10 -5 0 -10 5 -10 10 0 6 5
10 10 10 6 0 10 -4 10 -10z m1870 -9 c0 -11 5 -23 10 -26 18 -11 11 -34 -10
-32 -16 1 -20 8 -20 39 0 21 5 38 10 38 6 0 10 -9 10 -19z m-1810 -11 c0 -5
-4 -10 -10 -10 -5 0 -10 5 -10 10 0 6 5 10 10 10 6 0 10 -4 10 -10z m2343
-199 l2 -46 -40 -6 c-30 -4 -36 -7 -22 -13 9 -5 26 -6 37 -3 13 3 20 0 20 -8
0 -7 2 -19 3 -27 2 -7 2 -9 -1 -5 -5 11 -32 -40 -32 -62 -1 -14 -2 -14 -11 2
-11 19 -29 14 -29 -9 0 -9 5 -12 11 -8 7 4 10 2 7 -6 -4 -14 -78 -41 -91 -33
-5 3 -6 -4 -2 -16 4 -15 2 -21 -9 -21 -16 0 -31 -18 -23 -27 3 -3 20 2 38 11
37 18 39 19 39 9 0 -14 -79 -53 -94 -47 -11 4 -16 1 -16 -10 0 -9 8 -16 19
-16 21 0 41 -42 23 -48 -6 -2 -9 -9 -6 -16 3 -7 -1 -18 -9 -24 -12 -10 -13 -8
-10 12 3 13 0 32 -6 43 -8 15 -10 9 -11 -29 0 -47 -5 -53 -39 -48 -10 1 -12
-7 -9 -29 5 -35 -4 -40 -102 -48 -131 -11 -125 -13 -128 30 -2 21 1 37 7 37 6
0 11 -9 11 -20 0 -11 5 -20 10 -20 6 0 8 12 5 28 -5 23 -4 24 5 9 6 -9 15 -15
21 -12 11 7 11 16 0 33 -7 12 -12 12 -30 0 -30 -18 -41 1 -41 70 0 29 -5 63
-11 74 -15 27 -18 180 -4 193 37 34 80 51 130 51 34 -1 41 -5 43 -23 4 -27 28
-29 59 -5 30 24 21 64 -20 82 -28 12 -32 12 -45 -8 -8 -12 -21 -22 -28 -22
-19 0 -18 6 6 30 30 30 180 55 180 30 0 -5 -11 -10 -25 -10 -14 0 -25 -4 -25
-10 0 -5 11 -10 25 -10 18 0 31 9 43 30 9 16 24 30 32 31 8 0 24 2 35 4 11 2
32 5 48 8 15 2 30 7 34 11 11 10 23 -30 26 -83z m-295 -54 l23 -13 -23 -11
c-20 -9 -25 -7 -35 13 -13 28 -2 31 35 11z m-230 -28 c-3 -8 -7 -3 -11 10 -4
17 -3 21 5 13 5 -5 8 -16 6 -23z m-1030 0 c-2 -6 -8 -10 -13 -10 -5 0 -11 4
-13 10 -2 6 4 11 13 11 9 0 15 -5 13 -11z m156 -1 c-6 -9 -70 -6 -79 4 -3 3
15 5 39 5 25 0 43 -4 40 -9z m122 -24 c-5 -19 -10 -24 -17 -17 -8 8 -7 18 1
33 15 28 24 19 16 -16z m-1519 -106 c-3 -7 -5 -2 -5 12 0 14 2 19 5 13 2 -7 2
-19 0 -25z m1703 -52 c0 -2 -7 -7 -16 -10 -8 -3 -12 -2 -9 4 6 10 25 14 25 6z
m-110 -80 c0 -3 -4 -8 -10 -11 -5 -3 -10 -1 -10 4 0 6 5 11 10 11 6 0 10 -2
10 -4z m70 -10 c0 -2 -7 -7 -16 -10 -8 -3 -12 -2 -9 4 6 10 25 14 25 6z m-22
-61 c-3 -3 -9 2 -12 12 -6 14 -5 15 5 6 7 -7 10 -15 7 -18z m-1550 -13 c24
-12 53 -22 65 -22 12 0 32 -6 43 -14 11 -8 35 -16 54 -18 19 -1 41 -9 48 -16
8 -7 18 -10 23 -7 5 4 9 2 9 -2 0 -5 15 -14 33 -21 39 -14 107 -62 88 -62 -29
0 -131 31 -192 58 -35 16 -100 41 -144 56 -44 15 -89 31 -100 36 -11 4 -28 11
-38 14 -10 3 -16 10 -13 15 10 16 80 6 124 -17z m2705 -19 c-7 -2 -21 -2 -30
0 -10 3 -4 5 12 5 17 0 24 -2 18 -5z m-1088 -142 c3 -6 -3 -9 -14 -8 -11 0
-17 5 -15 9 7 11 22 10 29 -1z m-1803 -140 c2 -17 1 -28 -4 -25 -8 5 -12 54
-4 54 2 0 6 -13 8 -29z m359 10 c-8 -14 -25 -20 -73 -23 -87 -7 -94 2 -17 22
91 24 102 24 90 1z m3626 -43 c-3 -7 -5 -2 -5 12 0 14 2 19 5 13 2 -7 2 -19 0
-25z m-3779 3 c3 -9 0 -12 -11 -8 -20 7 -60 -36 -55 -60 3 -15 13 -18 53 -18
28 0 57 3 66 7 18 8 44 -13 32 -25 -11 -11 -110 -8 -138 5 -14 6 -25 19 -25
28 0 9 -7 17 -15 17 -9 0 -14 -6 -11 -14 3 -7 1 -13 -3 -13 -9 0 -21 24 -21
41 0 4 6 6 13 4 7 -3 27 8 46 25 34 32 61 36 69 11z m132 -81 c0 -5 -9 -10
-19 -10 -11 0 -23 5 -26 10 -4 6 5 10 19 10 14 0 26 -4 26 -10z m40 -35 c0
-10 -10 -15 -32 -15 -31 1 -32 1 -14 15 25 19 46 19 46 0z m215 -3 c-11 -2
-27 -9 -35 -15 -8 -7 -7 -2 3 10 12 14 25 19 35 15 15 -5 14 -7 -3 -10z m-140
-2 c4 -6 -7 -10 -24 -10 -17 0 -31 5 -31 10 0 6 11 10 24 10 14 0 28 -4 31
-10z m3075 -31 c-14 -11 -19 -18 -12 -14 7 3 21 3 32 0 17 -5 20 -15 20 -58 0
-29 -4 -47 -8 -40 -13 21 -35 -2 -27 -28 4 -16 3 -20 -3 -11 -14 20 -33 -41
-25 -80 6 -28 4 -31 -15 -26 -13 4 -22 1 -22 -5 -2 -33 -32 80 -44 161 l-13
92 24 0 c13 0 26 -7 29 -15 4 -8 10 -12 15 -9 5 3 7 10 3 15 -3 5 10 16 28 24
44 19 47 18 18 -6z m-3040 -3 c-18 -16 -70 -30 -70 -18 0 7 18 14 80 31 2 0
-2 -5 -10 -13z m-304 -28 c-17 -10 -22 -38 -6 -38 6 0 10 4 10 9 0 4 23 8 51
7 28 -1 53 2 55 6 3 4 18 8 35 8 23 0 29 -4 29 -21 0 -11 4 -17 10 -14 6 3 7
-1 4 -9 -7 -19 -16 -20 -30 -6 -8 8 -19 7 -38 -1 -21 -10 -32 -10 -46 -1 -10
6 -20 7 -22 2 -4 -13 -98 9 -98 23 0 7 -5 6 -11 -3 -8 -11 -9 -9 -3 10 10 38
22 48 50 42 22 -4 24 -6 10 -14z m2770 -110 c-2 -35 7 -148 19 -253 14 -115
19 -194 13 -200 -7 -8 -429 -70 -528 -78 -24 -2 -25 0 -34 91 l-8 93 -18 -33
c-16 -28 -16 -35 -4 -44 17 -14 19 -28 2 -18 -10 6 -10 4 0 -8 9 -11 10 -18 2
-23 -5 -3 -10 -1 -10 4 0 22 -26 10 -43 -21 -14 -25 -15 -33 -5 -39 7 -5 9 -9
3 -10 -5 0 -17 -2 -26 -4 -8 -1 -96 -8 -195 -14 -98 -7 -200 -16 -225 -21 -32
-6 -56 -5 -77 2 -26 10 -34 9 -51 -6 -18 -17 -42 -19 -215 -20 -107 0 -198 2
-202 6 -10 11 -6 85 6 108 7 13 7 21 0 25 -5 3 -10 19 -10 35 0 16 -5 32 -10
35 -6 4 -7 23 -4 45 4 21 1 63 -7 92 -7 29 -12 67 -11 83 3 37 -33 67 -41 36
-3 -14 -11 -17 -31 -14 -20 4 -24 9 -17 16 6 6 11 18 11 26 0 11 -4 10 -18 -5
-10 -10 -17 -26 -14 -35 2 -9 -1 -20 -6 -23 -14 -8 -25 29 -17 54 4 11 2 20
-4 20 -6 0 -11 4 -11 9 0 4 107 9 238 9 130 1 321 4 424 8 144 5 191 4 203 -6
10 -8 15 -9 15 -1 0 6 8 11 18 11 26 0 23 -30 -2 -31 -12 -1 -24 -1 -28 0 -4
0 -10 -8 -13 -19 -7 -22 -35 -28 -36 -7 0 10 -2 10 -6 0 -2 -7 -13 -13 -24
-13 -10 0 -19 -6 -19 -14 0 -8 -11 -17 -25 -20 -19 -5 -25 -13 -25 -35 0 -16
-7 -34 -15 -41 -12 -10 -14 -27 -10 -76 3 -38 1 -64 -5 -64 -6 0 -10 11 -10
24 0 14 -4 27 -10 31 -5 3 -7 12 -3 20 3 8 0 15 -6 15 -20 0 -23 -28 -6 -54
19 -29 12 -86 -11 -86 -8 0 -14 -5 -14 -11 0 -6 -9 -9 -20 -6 -26 7 -26 -15 1
-31 18 -11 27 -10 61 6 27 14 40 16 43 9 16 -59 24 -80 21 -55 -3 29 12 38 73
38 29 0 32 2 21 15 -11 13 -8 15 16 15 19 0 24 3 16 8 -9 7 -7 14 10 33 13 13
30 24 38 24 8 0 14 7 12 16 -2 18 23 33 39 23 5 -3 9 -1 9 5 0 5 -5 13 -11 17
-8 4 -7 10 1 18 8 8 15 7 24 -7 12 -15 15 -16 26 -2 7 9 22 14 33 13 18 -3 23
6 36 57 9 33 21 64 28 68 7 4 13 17 13 27 0 14 11 22 40 30 22 6 40 15 40 21
0 20 24 3 31 -22 4 -13 6 9 5 50 l-1 75 155 22 c85 12 180 27 210 32 30 5 85
10 122 11 l67 1 -3 -62z m143 -15 c1 -32 -1 -55 -5 -51 -9 9 -13 119 -4 113 3
-2 8 -30 9 -62z m-2924 -21 c-3 -3 -11 0 -18 7 -9 10 -8 11 6 5 10 -3 15 -9
12 -12z m2188 -28 c-3 -9 -9 -12 -12 -7 -3 4 -10 11 -15 16 -5 4 0 7 12 7 15
0 20 -4 15 -16z m-1200 -44 c3 -11 1 -23 -4 -26 -5 -3 -9 6 -9 20 0 31 6 34
13 6z m2117 -46 c0 -3 -7 -12 -15 -20 -16 -17 -18 -14 -9 10 6 15 24 23 24 10z
m187 -26 c-3 -7 -5 -2 -5 12 0 14 2 19 5 13 2 -7 2 -19 0 -25z m181 20 c-3 -7
-13 -15 -24 -17 -16 -3 -17 -1 -5 13 16 19 34 21 29 4z m-2338 -3 c0 -2 -9 -9
-20 -15 -16 -9 -18 -8 -14 5 5 13 34 22 34 10z m1814 -112 c3 -32 8 -78 11
-103 5 -33 4 -41 -4 -30 -5 8 -12 37 -15 65 -14 143 -15 160 -6 143 6 -9 12
-43 14 -75z m-1949 27 c3 -5 1 -10 -4 -10 -6 0 -11 5 -11 10 0 6 2 10 4 10 3
0 8 -4 11 -10z m15 -60 c5 0 11 4 14 9 3 5 21 11 40 13 28 3 37 0 45 -18 14
-32 -3 -90 -28 -90 -11 0 -17 5 -14 13 3 7 0 13 -5 13 -6 0 -18 7 -26 16 -9 8
-16 11 -16 6 0 -6 -7 -13 -16 -16 -14 -5 -16 -1 -11 23 4 18 2 31 -5 33 -7 3
-8 9 -3 19 8 12 10 11 13 -3 2 -10 7 -18 12 -18z m2340 -14 c0 -3 -4 -8 -10
-11 -5 -3 -10 -1 -10 4 0 6 5 11 10 11 6 0 10 -2 10 -4z m-2330 -87 c0 -16 -4
-28 -9 -24 -6 3 -6 -7 0 -27 5 -18 9 -35 9 -37 0 -2 11 4 25 13 32 21 51 20
81 -3 24 -19 24 -20 4 -26 -11 -3 -20 -11 -20 -16 0 -6 -9 -5 -21 2 -13 6 -38
9 -60 5 -41 -7 -52 7 -27 32 9 9 9 12 0 12 -8 0 -12 17 -12 46 0 27 4 43 10
39 6 -3 10 -1 10 4 0 6 2 11 5 11 3 0 5 -14 5 -31z m-517 -62 c19 -13 91 -282
82 -304 -2 -7 -23 -16 -45 -19 -22 -4 -38 -9 -35 -12 2 -3 -1 -12 -7 -21 -10
-13 -10 -14 2 -3 8 6 20 12 28 12 8 0 10 -5 6 -12 -4 -8 -3 -10 2 -5 5 5 9 13
9 19 0 6 8 12 18 14 12 1 17 -5 17 -21 0 -13 4 -26 9 -29 5 -3 11 -20 14 -38
3 -18 9 -45 12 -60 6 -22 4 -28 -9 -28 -9 0 -16 8 -17 18 0 10 -3 12 -6 5 -5
-14 -33 -18 -33 -5 0 5 -7 17 -15 28 -14 18 -14 17 -9 -13 6 -32 6 -33 -25
-29 -20 2 -31 -1 -31 -9 0 -8 9 -10 26 -7 17 3 25 1 21 -5 -4 -6 -28 -14 -53
-18 -26 -3 -53 -9 -60 -12 -10 -4 -12 0 -8 11 7 19 -5 20 -29 2 -18 -14 -18
-14 0 -18 18 -4 -153 -68 -182 -68 -18 0 -38 43 -55 120 -7 30 -16 62 -21 70
-10 22 -86 260 -94 297 -5 26 -3 34 15 43 49 26 140 51 235 65 55 8 125 21
155 29 30 8 58 14 61 15 3 1 13 -5 22 -12z m2133 -96 c-4 -5 0 -12 6 -15 10
-5 10 -7 0 -12 -10 -5 -10 -9 -1 -20 19 -23 -18 -17 -44 7 l-22 21 25 -4 c14
-2 25 2 26 10 2 19 4 22 10 22 3 0 3 -4 0 -9z m-1548 -10 c13 -1 21 -5 18 -10
-5 -8 -34 -9 -98 -3 -10 1 -18 7 -18 12 0 6 16 9 38 6 20 -3 47 -5 60 -5z
m1432 -45 c0 -3 -4 -8 -10 -11 -5 -3 -10 -1 -10 4 0 6 5 11 10 11 6 0 10 -2
10 -4z m110 -46 c-30 -26 -63 -36 -93 -31 -5 1 -7 -4 -5 -10 5 -14 -42 -69
-59 -69 -7 0 -12 10 -11 24 1 14 5 24 8 23 3 -1 19 10 35 26 23 21 26 27 12
27 -28 0 -19 15 11 17 38 2 116 14 121 19 2 2 7 4 10 4 3 0 -10 -14 -29 -30z
m-353 -92 c-3 -8 -6 -5 -6 6 -1 11 2 17 5 13 3 -3 4 -12 1 -19z m-2248 -18
c11 -24 11 -24 -3 -6 -9 11 -16 24 -16 30 0 12 5 7 19 -24z m2354 -3 c3 -8 -3
-14 -14 -14 -11 -1 -19 5 -19 13 0 18 26 19 33 1z m182 -37 c3 -5 1 -10 -4
-10 -6 0 -11 -16 -11 -35 0 -33 -2 -35 -34 -35 -19 0 -38 5 -41 10 -6 10 7 14
31 11 14 -2 26 27 18 41 -4 6 0 14 7 19 18 11 26 11 34 -1z m-45 -35 c0 -3 -9
-1 -20 5 -11 6 -18 15 -15 21 6 9 35 -12 35 -26z m-100 -29 c0 -3 -4 -8 -10
-11 -5 -3 -10 -1 -10 4 0 6 5 11 10 11 6 0 10 -2 10 -4z m-1529 -38 c1 -54 6
-99 13 -105 6 -7 8 12 9 85 0 36 3 42 22 42 23 0 26 -9 26 -65 0 -48 -3 -65
-12 -60 -13 9 -16 -41 -2 -53 7 -7 13 -18 13 -25 0 -8 -3 -8 -9 2 -6 9 -10 0
-13 -29 -3 -30 1 -44 12 -51 12 -7 11 -10 -8 -15 -22 -6 -25 -31 -3 -26 7 1 5
-8 -5 -23 -10 -15 -12 -25 -5 -25 6 0 11 -9 11 -20 0 -11 -6 -20 -14 -20 -17
0 -26 69 -15 117 4 18 2 36 -4 42 -7 7 -7 19 2 37 10 23 9 30 -3 43 -9 8 -16
11 -16 5 0 -5 -10 -11 -22 -11 -17 -2 -19 0 -8 7 16 10 21 93 7 123 -9 20 0
57 14 57 5 0 9 -15 10 -32z m1396 -20 c-3 -8 -6 -5 -6 6 -1 11 2 17 5 13 3 -3
4 -12 1 -19z m9 -55 c-10 -10 -19 5 -10 18 6 11 8 11 12 0 2 -7 1 -15 -2 -18z
m519 -80 c7 -47 6 -51 -16 -56 -47 -13 -77 -8 -84 13 -3 11 -13 20 -21 20 -21
0 -17 13 7 29 20 12 21 11 15 -6 -4 -12 0 -10 14 7 19 24 20 24 20 4 0 -12 8
-28 17 -35 15 -12 16 -12 8 1 -5 8 -8 25 -7 37 2 12 -4 26 -15 31 -15 9 -15
11 -3 16 53 17 56 15 65 -61z m-329 22 c-13 -14 -56 -10 -56 6 0 8 49 17 63
11 4 -2 1 -9 -7 -17z m-64 -3 c4 -13 -1 -18 -15 -19 -24 -2 -36 -14 -19 -20 6
-3 12 -14 12 -24 0 -11 -5 -17 -10 -14 -6 3 -14 -4 -19 -17 -6 -13 -10 -17
-10 -10 -2 24 -36 13 -38 -13 -4 -46 -6 -54 -15 -49 -5 3 -5 10 -2 16 4 7 2 8
-4 4 -7 -4 -12 -15 -13 -24 0 -10 -4 -7 -8 8 -7 22 -7 56 -2 138 1 26 21 30
21 5 0 -14 5 -12 25 10 31 33 90 38 97 9z m-1879 -17 c15 -11 16 -13 2 -18
-19 -8 -20 -33 -1 -40 10 -4 18 4 25 21 8 23 10 19 10 -30 1 -40 5 -57 13 -55
14 2 37 -55 37 -95 1 -23 -3 -27 -29 -26 -41 1 -48 -9 -12 -17 17 -3 34 -16
40 -30 11 -23 10 -24 -8 -13 -11 7 -20 16 -20 20 0 11 -38 10 -42 -1 -5 -15
-76 19 -81 40 -5 19 -37 27 -37 9 0 -6 -8 -6 -22 0 -13 5 -35 11 -50 14 -19 4
-28 13 -28 26 0 10 -5 22 -12 26 -6 4 -8 3 -5 -2 10 -18 -8 -35 -29 -27 -20 9
-24 22 -27 93 -2 44 -1 44 43 62 65 25 161 53 190 55 13 0 33 -5 43 -12z
m2157 -45 c21 -13 7 -22 -25 -14 -20 5 -23 9 -13 15 16 11 20 11 38 -1z
m-1810 -35 c0 -19 -4 -35 -10 -35 -5 0 -10 10 -10 21 0 19 -2 20 -17 8 -13
-11 -13 -8 2 13 27 37 35 35 35 -7z m390 -1 c0 -12 27 -18 86 -17 6 0 11 -6
11 -13 0 -8 -4 -14 -9 -14 -4 0 -8 -11 -8 -25 0 -14 -4 -25 -10 -25 -5 0 -7 6
-4 13 2 8 -4 13 -16 14 -11 1 -27 9 -36 17 -18 18 -34 21 -34 5 0 -5 -4 -8
-10 -4 -5 3 -7 12 -4 19 4 10 -2 12 -20 9 -14 -3 -26 -10 -26 -15 0 -5 -4 -6
-10 -3 -20 13 -9 -7 18 -30 21 -18 24 -26 15 -36 -16 -16 -45 6 -41 30 2 10
-4 15 -14 15 -24 -2 -23 13 3 26 16 9 18 14 8 26 -9 11 -8 14 5 14 9 0 16 -5
16 -12 0 -9 3 -9 12 0 7 7 20 12 30 12 10 0 18 5 18 11 0 5 5 7 10 4 6 -3 10
-13 10 -21z m246 -13 c-4 -6 -12 -11 -17 -11 -6 0 -7 5 -3 11 4 8 0 9 -15 4
-28 -9 -27 3 2 14 24 10 43 -1 33 -18z m-643 -71 c-5 -18 -25 -30 -22 -12 1 4
0 9 -1 12 -1 3 -3 13 -5 22 -3 14 0 16 15 8 12 -6 16 -17 13 -30z m57 -105 c0
-9 -6 -12 -16 -8 -13 5 -13 7 -2 14 17 11 18 11 18 -6z"/>
<path d="M9840 21719 c0 -5 5 -7 10 -4 6 3 10 8 10 11 0 2 -4 4 -10 4 -5 0
-10 -5 -10 -11z"/>
<path d="M9365 21421 c-3 -5 -28 -17 -55 -26 -32 -11 -57 -27 -68 -43 -9 -15
-20 -29 -23 -32 -7 -5 -12 -35 -10 -57 0 -7 8 -10 17 -6 9 3 14 13 11 24 -4
13 2 19 22 23 49 9 98 5 117 -8 17 -13 15 -15 -21 -25 -22 -6 -51 -11 -65 -11
-17 0 -21 -3 -12 -8 15 -10 6 -43 -15 -55 -22 -14 -16 -56 10 -61 12 -2 45
-10 72 -16 28 -7 72 -14 99 -17 61 -6 42 -23 -26 -23 -28 0 -48 -5 -48 -11 0
-15 166 -7 205 11 17 7 32 14 35 14 21 5 30 19 19 32 -9 11 -7 16 12 23 14 5
31 5 42 -1 9 -5 16 -5 16 -1 -4 17 14 63 24 63 6 0 7 3 4 7 -4 3 -2 12 4 20 6
7 9 13 6 13 -3 0 -1 17 4 38 17 68 18 75 12 69 -3 -4 -17 0 -32 7 -14 7 -46
16 -71 20 -24 4 -50 12 -58 18 -8 7 -33 11 -57 9 -24 -1 -46 2 -50 8 -8 13
-112 15 -120 2z m95 -178 c21 -6 16 -8 -30 -19 -64 -14 -73 -12 -33 10 33 18
31 18 63 9z m-50 -67 c0 -2 3 -12 7 -21 5 -15 3 -16 -15 -6 -25 13 -29 31 -7
31 8 0 15 -2 15 -4z"/>
<path d="M9517 20852 c-15 -9 -26 -24 -25 -32 1 -8 -1 -22 -6 -30 -5 -8 10 4
33 28 55 56 54 69 -2 34z"/>
<path d="M9181 20730 c0 -8 4 -22 9 -30 12 -18 12 -2 0 25 -6 13 -9 15 -9 5z"/>
<path d="M9207 20673 c-4 -3 -7 -11 -7 -17 0 -6 5 -5 12 2 6 6 9 14 7 17 -3 3
-9 2 -12 -2z"/>
<path d="M9310 20540 c0 -5 5 -10 11 -10 5 0 7 5 4 10 -3 6 -8 10 -11 10 -2 0
-4 -4 -4 -10z"/>
<path d="M9725 20530 c-3 -5 -1 -10 4 -10 6 0 11 5 11 10 0 6 -2 10 -4 10 -3
0 -8 -4 -11 -10z"/>
<path d="M8861 21027 c-17 -52 -18 -162 -1 -182 13 -15 16 -9 27 61 9 56 19
84 33 96 l21 17 -23 20 c-31 29 -45 26 -57 -12z"/>
<path d="M8966 20937 c-18 -18 -26 -37 -26 -62 0 -19 3 -35 8 -35 7 0 72 58
72 64 0 2 -6 16 -14 31 l-14 27 -26 -25z"/>
<path d="M9627 18995 c-4 -8 -2 -17 3 -20 6 -4 10 3 10 14 0 25 -6 27 -13 6z"/>
<path d="M9557 18966 c-16 -13 -16 -14 4 -19 14 -4 20 -11 16 -21 -3 -8 0 -17
7 -19 9 -4 13 4 12 24 -1 16 -5 29 -9 29 -5 0 -5 5 -2 10 9 14 -7 12 -28 -4z"/>
<path d="M7543 18733 c-7 -3 -13 -9 -13 -14 0 -6 4 -8 9 -4 5 3 12 1 16 -5 10
-16 29 -12 43 11 12 18 11 19 -6 10 -10 -6 -23 -6 -28 -2 -5 5 -15 6 -21 4z"/>
<path d="M7612 18704 c4 -3 0 -13 -8 -21 -8 -9 -12 -18 -8 -22 4 -3 9 0 11 7
4 10 8 10 19 1 11 -9 14 -7 14 9 0 11 -8 23 -17 26 -10 4 -14 4 -11 0z"/>
<path d="M7550 18639 c0 -5 5 -7 10 -4 6 3 10 8 10 11 0 2 -4 4 -10 4 -5 0
-10 -5 -10 -11z"/>
<path d="M7580 18628 c0 -12 3 -18 7 -14 11 10 12 36 2 36 -5 0 -9 -10 -9 -22z"/>
<path d="M7610 18625 c0 -5 5 -17 10 -25 5 -8 10 -10 10 -5 0 6 -5 17 -10 25
-5 8 -10 11 -10 5z"/>
<path d="M8080 18460 c0 -19 3 -21 12 -12 9 9 9 15 0 24 -9 9 -12 7 -12 -12z"/>
<path d="M7621 18384 c0 -11 3 -14 6 -6 3 7 2 16 -1 19 -3 4 -6 -2 -5 -13z"/>
<path d="M7615 18327 c-4 -10 -5 -21 -1 -24 10 -10 18 4 13 24 -4 17 -4 17
-12 0z"/>
<path d="M7895 18240 c-3 -5 1 -10 9 -10 9 0 16 5 16 10 0 6 -4 10 -9 10 -6 0
-13 -4 -16 -10z"/>
<path d="M10546 18441 c-4 -7 -6 -13 -5 -14 2 -2 13 -9 24 -17 18 -13 19 -13
9 0 -6 8 -13 22 -16 30 -3 11 -6 11 -12 1z"/>
<path d="M10584 18435 c3 -21 16 -31 16 -12 0 9 -4 18 -9 21 -5 4 -8 -1 -7 -9z"/>
<path d="M10580 18323 c0 -12 5 -25 12 -29 7 -5 9 -2 5 9 -3 8 0 18 8 21 8 3
16 0 18 -7 3 -7 5 -2 4 9 -2 31 -47 28 -47 -3z"/>
<path d="M10582 18154 c2 -30 5 -34 31 -34 20 0 30 -6 34 -20 3 -11 10 -20 15
-20 6 0 7 8 3 18 -4 9 -8 28 -9 42 -1 18 -6 24 -18 22 -10 -2 -18 1 -18 6 0 5
-9 12 -20 15 -18 5 -20 1 -18 -29z"/>
<path d="M10626 18044 c-4 -10 -1 -14 6 -12 15 5 23 28 10 28 -5 0 -13 -7 -16
-16z"/>
<path d="M9414 18319 c-4 -7 -3 -9 3 -6 6 4 14 0 17 -9 8 -20 -2 -33 -12 -17
-5 8 -14 6 -29 -7 l-23 -18 30 -4 c17 -3 30 0 30 6 0 18 20 -9 25 -32 2 -14
-1 -22 -11 -22 -8 0 -14 -9 -14 -21 0 -19 4 -21 30 -15 28 5 30 4 25 -17 -4
-16 0 -29 14 -41 12 -11 21 -16 21 -12 0 14 -83 216 -90 221 -5 3 -12 0 -16
-6z"/>
<path d="M9300 18312 c0 -5 -10 -14 -22 -20 -13 -6 -17 -11 -10 -11 14 -1 72
27 72 34 0 3 -9 5 -20 5 -11 0 -20 -4 -20 -8z"/>
<path d="M9340 18270 c0 -19 3 -21 12 -12 9 9 9 15 0 24 -9 9 -12 7 -12 -12z"/>
<path d="M9330 18161 c0 -6 4 -12 8 -15 5 -3 9 1 9 9 0 8 -4 15 -9 15 -4 0 -8
-4 -8 -9z"/>
<path d="M9287 18133 c-11 -11 -8 -34 7 -49 9 -9 17 -10 21 -4 3 5 1 10 -5 10
-8 0 -10 9 -6 25 6 24 -3 33 -17 18z"/>
<path d="M9180 18119 c0 -15 18 -19 23 -6 3 8 -1 14 -9 14 -8 0 -14 -4 -14 -8z"/>
<path d="M9030 18116 c0 -2 7 -6 15 -10 8 -3 15 -1 15 4 0 6 -7 10 -15 10 -8
0 -15 -2 -15 -4z"/>
<path d="M8942 18094 c-7 -8 -10 -20 -5 -27 4 -6 9 -24 10 -39 4 -46 6 -57 12
-56 19 2 24 -4 11 -12 -12 -8 -9 -10 13 -10 28 0 61 22 50 33 -3 4 -14 2 -23
-3 -12 -7 -21 -6 -27 3 -18 22 -22 46 -10 51 9 3 8 7 -2 14 -7 5 -11 14 -9 18
3 5 3 16 -1 25 -5 15 -8 15 -19 3z"/>
<path d="M9083 18084 c-13 -14 -19 -31 -16 -44 4 -13 0 -20 -10 -20 -18 0 -29
24 -21 45 5 11 2 13 -10 9 -9 -3 -16 -7 -16 -8 0 -10 39 -78 40 -68 0 6 11 12
24 12 13 0 26 6 29 13 2 6 8 9 12 4 5 -4 0 -14 -11 -21 -10 -8 -16 -18 -11
-22 4 -4 7 -2 7 4 0 6 6 9 14 6 20 -7 30 14 16 31 -7 8 -10 23 -7 34 3 15 0
18 -17 14 -20 -4 -20 -4 -3 10 10 8 14 17 10 20 -5 3 -18 -5 -30 -19z"/>
<path d="M9378 18099 c-10 -5 -18 -20 -17 -32 0 -12 3 -16 6 -9 2 6 13 12 24
12 12 0 19 7 19 20 0 22 -7 24 -32 9z"/>
<path d="M9213 18093 c-7 -3 -13 -9 -13 -15 0 -6 7 -7 16 -4 12 5 15 2 10 -10
-5 -14 -4 -15 9 -4 8 7 15 16 15 20 0 11 -22 18 -37 13z"/>
<path d="M8721 18024 c0 -11 3 -14 6 -6 3 7 2 16 -1 19 -3 4 -6 -2 -5 -13z"/>
<path d="M9158 17995 c5 -28 22 -44 22 -21 0 21 -11 46 -20 46 -4 0 -5 -11 -2
-25z"/>
<path d="M8909 17949 c-10 -6 -7 -9 14 -9 29 0 35 5 14 13 -8 3 -20 1 -28 -4z"/>
<path d="M8770 17890 c0 -6 -4 -9 -9 -6 -5 3 -12 -1 -15 -10 -10 -27 -7 -44
10 -44 9 0 14 6 11 13 -2 6 2 19 10 29 10 11 11 18 4 23 -6 3 -11 1 -11 -5z"/>
<path d="M8800 17850 c0 -5 5 -10 11 -10 5 0 7 5 4 10 -3 6 -8 10 -11 10 -2 0
-4 -4 -4 -10z"/>
<path d="M10746 18164 c-4 -9 -4 -19 -1 -22 3 -3 5 0 5 7 0 7 4 9 10 6 6 -3 7
1 4 9 -8 20 -10 20 -18 0z"/>
<path d="M9965 17240 c-15 -7 -10 -9 23 -9 26 -1 41 3 37 9 -7 12 -32 12 -60
0z"/>
<path d="M10097 17234 c-8 -8 3 -34 14 -34 11 0 12 27 0 34 -4 3 -11 3 -14 0z"/>
<path d="M9770 17210 c-20 -12 -9 -21 18 -13 12 3 19 9 16 14 -7 11 -15 11
-34 -1z"/>
<path d="M9675 17190 c-4 -6 -3 -16 3 -22 6 -6 12 -6 17 2 4 6 3 16 -3 22 -6
6 -12 6 -17 -2z"/>
<path d="M9841 17151 c-8 -6 -9 -11 -3 -15 6 -3 14 -1 17 5 9 14 2 20 -14 10z"/>
<path d="M10036 17134 c-9 -24 -8 -26 14 -14 11 6 20 15 20 20 0 16 -27 11
-34 -6z"/>
<path d="M10000 17121 c0 -5 5 -13 10 -16 6 -3 10 -2 10 4 0 5 -4 13 -10 16
-5 3 -10 2 -10 -4z"/>
<path d="M9683 17045 c0 -8 4 -12 9 -9 4 3 8 9 8 15 0 5 -4 9 -8 9 -5 0 -9 -7
-9 -15z"/>
<path d="M9920 17002 c6 -13 14 -21 18 -18 3 4 -2 14 -12 24 -18 16 -18 16 -6
-6z"/>
<path d="M9696 16985 c-12 -9 -16 -20 -11 -34 3 -12 10 -19 15 -16 5 3 7 12 3
20 -3 9 1 15 11 15 9 0 16 4 16 9 0 17 -15 20 -34 6z"/>
<path d="M9819 17000 c0 -3 -2 -13 -4 -22 -2 -10 1 -18 5 -18 15 0 19 15 9 30
-5 8 -9 13 -10 10z"/>
<path d="M9870 16981 c0 -12 28 -22 35 -12 3 5 -2 12 -11 15 -21 8 -24 8 -24
-3z"/>
<path d="M9749 16953 c-8 -16 -18 -31 -24 -35 -13 -10 -1 -20 16 -13 15 5 41
75 29 75 -4 0 -13 -12 -21 -27z"/>
<path d="M10717 16365 c-4 -8 -2 -17 3 -20 6 -4 10 3 10 14 0 25 -6 27 -13 6z"/>
<path d="M9590 16096 c0 -8 5 -18 10 -21 6 -3 10 1 10 9 0 8 -4 18 -10 21 -5
3 -10 -1 -10 -9z"/>
<path d="M9140 16048 c0 -36 4 -35 14 5 4 16 2 27 -4 27 -5 0 -10 -14 -10 -32z"/>
<path d="M9395 15873 c2 -10 4 -22 5 -28 0 -5 5 -2 11 8 10 17 5 37 -11 37 -4
0 -7 -8 -5 -17z"/>
<path d="M9022 15868 c-17 -17 -15 -28 7 -28 11 0 18 6 17 15 -3 22 -11 26
-24 13z"/>
<path d="M8720 15786 c0 -2 7 -7 16 -10 8 -3 12 -2 9 4 -6 10 -25 14 -25 6z"/>
<path d="M8957 15766 c-3 -8 -2 -18 4 -22 16 -9 22 2 11 21 -8 15 -10 16 -15
1z"/>
<path d="M8990 15756 c0 -8 5 -18 10 -21 6 -3 10 3 10 14 0 12 -4 21 -10 21
-5 0 -10 -6 -10 -14z"/>
<path d="M8930 15718 c28 -23 40 -23 40 0 0 14 -2 15 -10 2 -9 -13 -10 -13
-10 0 0 9 -9 16 -21 16 -21 0 -21 0 1 -18z"/>
<path d="M9200 15710 c0 -5 5 -10 10 -10 6 0 10 5 10 10 0 6 -4 10 -10 10 -5
0 -10 -4 -10 -10z"/>
<path d="M7905 15440 l-20 -9 20 0 c11 0 27 4 35 9 13 9 13 10 0 9 -8 0 -24
-4 -35 -9z"/>
<path d="M7800 15410 c-22 -7 -21 -8 13 -9 20 -1 37 4 37 9 0 11 -14 11 -50 0z"/>
<path d="M8011 15396 c-16 -19 -11 -29 8 -17 7 5 12 14 9 21 -3 9 -8 7 -17 -4z"/>
<path d="M7725 15390 c-13 -6 -15 -9 -5 -9 8 0 22 4 30 9 18 12 2 12 -25 0z"/>
<path d="M7630 15360 c-8 -5 -10 -10 -5 -10 6 0 17 5 25 10 8 5 11 10 5 10 -5
0 -17 -5 -25 -10z"/>
<path d="M7905 15260 c3 -5 8 -10 11 -10 2 0 4 5 4 10 0 6 -5 10 -11 10 -5 0
-7 -4 -4 -10z"/>
<path d="M9951 15526 c-9 -11 -9 -16 1 -22 7 -4 10 -4 6 1 -4 4 -3 14 3 22 6
7 9 13 6 13 -2 0 -10 -6 -16 -14z"/>
<path d="M8390 15330 c0 -5 5 -10 10 -10 6 0 10 5 10 10 0 6 -4 10 -10 10 -5
0 -10 -4 -10 -10z"/>
<path d="M10240 15200 c0 -5 5 -10 11 -10 5 0 7 5 4 10 -3 6 -8 10 -11 10 -2
0 -4 -4 -4 -10z"/>
<path d="M9755 15110 c3 -5 8 -10 11 -10 2 0 4 5 4 10 0 6 -5 10 -11 10 -5 0
-7 -4 -4 -10z"/>
<path d="M7940 15116 c0 -8 4 -17 9 -20 5 -4 7 3 4 14 -6 23 -13 26 -13 6z"/>
<path d="M8030 14981 c0 -6 5 -13 10 -16 6 -3 10 1 10 9 0 9 -4 16 -10 16 -5
0 -10 -4 -10 -9z"/>
</g>
</svg>
