<?xml version="1.0" standalone="no"?>
<!DOCTYPE svg PUBLIC "-//W3C//DTD SVG 20010904//EN"
 "http://www.w3.org/TR/2001/REC-SVG-20010904/DTD/svg10.dtd">
<svg version="1.0" xmlns="http://www.w3.org/2000/svg"
 width="4032.000000pt" height="3024.000000pt" viewBox="0 0 4032.000000 3024.000000"
 preserveAspectRatio="xMidYMid meet">

<g transform="translate(0.000000,3024.000000) scale(0.100000,-0.100000)"
fill="#0E292A" stroke="none">
<path d="M0 15120 l0 -15120 20160 0 20160 0 0 15120 0 15120 -20160 0 -20160
0 0 -15120z m12899 6338 c-4 -30 2 -62 9 -52 4 6 19 14 34 18 22 5 26 3 22 -9
-4 -8 -12 -15 -20 -15 -10 0 -11 -6 -5 -22 6 -16 2 -33 -11 -56 -14 -26 -16
-37 -7 -53 10 -20 11 -20 35 6 13 14 24 28 24 31 0 3 10 18 21 32 18 22 21 23
17 7 -3 -11 -9 -28 -13 -37 -11 -27 10 -21 25 7 7 13 17 22 22 19 5 -3 8 2 6
12 -2 14 3 19 17 17 21 -2 69 43 60 57 -6 9 28 21 70 25 17 2 22 1 13 -2 -22
-5 -24 -23 -3 -23 15 0 22 -40 9 -53 -9 -9 -35 4 -28 14 3 5 1 9 -4 9 -5 0
-12 -9 -15 -19 -6 -25 3 -71 14 -71 12 0 11 27 -1 35 -5 3 -10 10 -10 16 0 5
5 9 10 9 6 0 10 -8 10 -17 0 -14 2 -15 9 -5 7 11 9 11 14 -2 3 -8 1 -16 -5
-18 -18 -6 0 -99 21 -105 27 -7 45 -41 30 -59 -6 -7 -15 -11 -20 -8 -5 3 -9
-5 -10 -18 0 -13 -3 -17 -6 -10 -4 10 -9 7 -20 -8 -12 -17 -17 -19 -24 -9 -7
11 -9 10 -9 -3 0 -15 -27 -31 -54 -33 -5 0 -10 -10 -11 -22 -1 -12 3 -21 8
-20 28 5 26 -88 -2 -133 -15 -22 -15 -24 0 -18 9 3 22 2 30 -3 10 -6 7 -9 -13
-9 -23 0 -28 -4 -28 -24 0 -14 7 -31 15 -40 16 -16 35 -60 34 -79 0 -7 -4 -3
-9 8 -8 19 -9 19 -9 -2 -1 -13 4 -23 9 -23 6 0 10 -6 10 -14 0 -8 9 -18 20
-21 21 -7 37 -46 25 -65 -4 -6 -16 -8 -26 -5 -11 4 -26 1 -34 -5 -9 -8 -20 -8
-32 -2 -24 13 -64 17 -86 7 -28 -12 -33 3 -9 25 12 12 22 25 22 30 0 5 11 12
25 16 25 6 35 24 14 24 -6 0 -7 5 -2 13 10 16 11 57 1 51 -4 -3 -8 -1 -8 3 0
5 -14 10 -31 11 -19 2 -28 -2 -24 -8 3 -5 17 -10 31 -10 33 0 30 -12 -6 -28
-16 -7 -39 -24 -52 -37 -13 -14 -29 -25 -36 -25 -7 0 -28 -15 -47 -34 -18 -19
-37 -31 -41 -28 -4 4 -4 1 0 -5 4 -7 -4 -25 -19 -40 -14 -16 -23 -34 -20 -41
3 -8 -2 -12 -13 -10 -10 2 -16 -3 -14 -10 3 -15 0 -15 -46 13 -17 11 -35 28
-38 38 -3 9 -14 17 -25 17 -11 0 -17 5 -14 10 4 6 11 8 16 5 5 -4 9 -4 9 -1 0
3 -16 13 -35 22 -19 9 -33 20 -30 24 3 4 -5 10 -16 13 -13 4 -18 10 -14 17 6
9 10 9 16 -1 6 -10 9 -8 9 8 0 16 -4 21 -15 17 -17 -7 -21 11 -5 21 6 4 8 11
4 16 -3 5 -11 6 -17 2 -7 -4 -19 -8 -27 -10 -12 -1 -11 1 3 11 20 15 23 46 5
46 -30 1 -41 16 -27 41 11 23 11 23 -6 9 -17 -14 -17 -13 -12 10 4 14 4 19 1
12 -5 -10 -9 -10 -20 -1 -11 9 -14 8 -14 -4 0 -9 -4 -18 -8 -21 -4 -2 -8 8 -7
22 0 18 8 31 24 40 29 15 44 16 35 0 -4 -7 -3 -8 4 -4 7 4 12 16 12 28 0 17 2
18 15 8 11 -9 15 -9 15 -1 0 9 6 9 23 -1 12 -6 37 -11 55 -9 19 1 46 -2 60 -7
15 -6 50 -14 77 -18 48 -7 49 -7 20 -16 -16 -5 -48 -6 -70 -3 l-40 5 30 -16
c26 -14 43 -15 120 -6 129 14 135 14 135 -9 0 -20 15 -26 25 -9 3 6 1 10 -4
10 -6 0 -11 5 -11 10 0 6 7 10 15 10 17 0 18 7 19 97 1 35 -2 63 -6 63 -5 0
-8 4 -8 10 0 5 6 7 14 4 20 -7 33 36 15 47 -8 5 -22 9 -32 9 -10 0 -36 9 -59
20 -24 12 -46 16 -52 11 -6 -5 -45 -9 -86 -9 -97 -2 -146 -10 -161 -28 -6 -8
-20 -14 -30 -14 -17 0 -17 2 -3 36 9 22 12 40 6 47 -16 21 -23 49 -10 41 8 -5
9 -2 5 9 -4 10 -2 16 5 14 6 -1 13 4 15 11 3 6 0 12 -6 12 -16 0 -13 26 5 44
8 9 13 20 9 25 -9 15 8 20 34 10 14 -6 21 -15 18 -24 -4 -9 -1 -12 7 -9 8 3
16 -4 19 -16 3 -13 10 -19 16 -15 6 3 9 10 6 15 -10 17 7 61 21 56 8 -3 14 -1
14 5 0 6 9 8 20 4 16 -5 19 -3 14 10 -4 10 -14 15 -25 12 -16 -4 -18 0 -15 33
5 55 12 62 58 55 27 -4 38 -3 33 4 -3 6 -15 11 -26 11 -17 0 -18 2 -7 15 16
18 49 20 47 3z m346 -188 c3 -5 1 -10 -4 -10 -6 0 -11 5 -11 10 0 6 2 10 4 10
3 0 8 -4 11 -10z m92 -86 c-3 -3 -12 -4 -19 -1 -8 3 -5 6 6 6 11 1 17 -2 13
-5z m-835 -288 c-7 -12 -20 33 -20 74 0 17 4 11 14 -19 7 -24 10 -49 6 -55z
m-202 14 c23 -23 24 -22 -12 -24 -20 -1 -28 3 -28 14 0 15 8 30 17 30 2 0 12
-9 23 -20z m1195 -50 c3 -6 -1 -13 -9 -16 -9 -3 -16 -10 -16 -16 0 -5 5 -6 10
-3 19 12 76 -14 77 -35 1 -11 -2 -22 -8 -25 -5 -4 -5 -14 2 -27 10 -18 9 -20
-6 -14 -13 5 -16 2 -11 -10 9 -23 -13 -48 -29 -34 -9 8 -14 5 -18 -10 -3 -11
-12 -20 -21 -20 -9 0 -16 -6 -17 -12 0 -7 -7 1 -15 17 l-15 30 6 -39 c6 -36 5
-38 -9 -27 -9 8 -16 20 -16 27 0 13 -17 18 -46 15 -6 -1 -21 10 -34 24 -13 14
-19 25 -12 25 11 0 3 41 -16 76 -9 17 -6 19 19 19 16 0 27 4 26 9 -3 14 47 29
51 16 3 -7 10 -4 18 7 10 14 16 15 22 5 7 -10 13 -8 27 8 20 22 31 25 40 10z
m-1122 -60 c7 -1 2 -9 -11 -19 -13 -12 -20 -25 -16 -35 3 -9 1 -16 -5 -16 -6
0 -11 18 -11 41 0 33 3 40 16 35 9 -3 21 -6 27 -6z m92 -102 c4 -24 9 -49 11
-56 1 -8 -4 -11 -16 -7 -27 8 -35 -13 -14 -36 16 -17 16 -22 4 -30 -11 -6 -20
-3 -32 12 -22 26 -22 33 -3 49 10 9 12 17 5 30 -7 12 -5 27 6 49 21 42 30 39
39 -11z m-106 -24 c6 -13 18 -27 26 -30 17 -7 20 -24 5 -24 -18 0 -53 38 -45
49 3 6 2 11 -3 11 -6 0 -12 7 -15 14 -10 26 19 7 32 -20z m1351 -30 c0 -14 -3
-14 -15 -4 -8 7 -15 14 -15 16 0 2 7 4 15 4 8 0 15 -7 15 -16z m15 -33 c3 -5
1 -12 -5 -16 -5 -3 -10 1 -10 9 0 18 6 21 15 7z m-1297 -57 c19 -15 44 -27 56
-28 15 -1 22 -9 24 -27 3 -23 -1 -26 -27 -27 -23 0 -38 8 -60 35 -28 34 -46
73 -34 73 4 0 22 -12 41 -26z m556 14 c7 -7 20 -25 30 -40 16 -25 17 -28 2
-28 -9 0 -16 -3 -16 -7 0 -11 -62 -10 -77 0 -7 5 -13 14 -13 20 0 7 7 3 15 -7
11 -14 15 -16 15 -5 0 12 2 12 10 -1 7 -11 10 -11 10 -2 0 7 5 10 10 7 6 -3
10 -1 10 4 0 9 -19 15 -41 13 -10 -1 -6 32 5 45 14 16 24 16 40 1z m66 -105
c0 -14 2 -15 9 -4 6 10 20 11 52 6 24 -4 52 -7 62 -7 10 1 16 -5 14 -11 -2 -7
-19 -13 -38 -13 -19 -1 -56 -9 -84 -18 -27 -9 -64 -16 -82 -16 -28 0 -31 3
-27 24 3 17 -1 26 -13 29 -14 4 -13 5 5 6 12 0 22 4 22 9 0 4 18 8 40 10 33 2
40 -1 40 -15z m238 -95 c18 -18 15 -28 -8 -28 -12 0 -32 -7 -45 -16 -14 -9
-35 -14 -47 -11 -12 3 -30 1 -41 -4 -13 -7 -27 -7 -45 -1 -15 6 -44 13 -64 17
-21 3 -38 11 -38 17 0 6 9 8 20 5 11 -3 20 -1 20 4 0 5 9 9 20 9 11 0 20 -5
20 -12 0 -6 6 -4 13 7 10 12 21 16 38 12 19 -4 97 2 140 12 3 0 10 -4 17 -11z
m-438 -18 c0 -5 -2 -10 -4 -10 -3 0 -8 5 -11 10 -3 6 -1 10 4 10 6 0 11 -4 11
-10z m-34 -16 c-4 -10 0 -15 12 -13 9 1 38 1 63 0 42 -1 48 -4 59 -31 9 -22
23 -33 51 -42 43 -12 53 -21 64 -56 6 -22 5 -23 -15 -12 -18 10 -20 14 -9 21
8 5 11 9 7 9 -3 0 -15 3 -25 6 -15 5 -15 4 -3 -5 13 -9 12 -11 -4 -11 -13 0
-17 -5 -13 -20 3 -11 0 -18 -7 -17 -6 1 -11 -4 -10 -10 1 -7 2 -20 3 -29 0
-10 7 -14 15 -11 8 3 16 1 18 -5 3 -7 12 -9 22 -5 15 6 16 10 6 22 -10 13 -6
12 26 -1 24 -11 70 -17 121 -18 44 -1 76 -4 70 -8 -7 -4 -8 -8 -2 -9 42 -4 74
-13 94 -26 24 -15 24 -16 5 -30 -12 -9 -31 -12 -51 -8 -27 5 -32 3 -27 -10 3
-8 1 -15 -5 -15 -6 0 -11 -9 -11 -20 0 -11 -4 -20 -10 -20 -5 0 -10 7 -10 16
0 10 -4 12 -12 7 -20 -12 -41 -10 -60 5 -14 12 -18 11 -27 -6 -6 -11 -21 -22
-35 -26 -27 -7 -59 2 -51 14 6 9 -43 35 -51 27 -4 -4 -13 1 -20 11 -12 15 -15
15 -25 2 -8 -12 -9 -8 -5 18 3 19 1 32 -5 32 -6 0 -8 -4 -4 -9 3 -5 1 -12 -4
-15 -5 -4 -12 3 -16 14 -3 11 -14 20 -23 21 -9 0 -12 3 -6 5 7 3 10 14 7 24
-3 11 0 20 6 20 6 0 11 -6 11 -12 0 -9 4 -8 10 2 5 8 10 11 10 7 0 -4 6 -2 14
5 8 7 12 16 9 20 -2 4 1 16 7 27 6 12 6 22 1 25 -5 4 -11 0 -14 -6 -3 -10 -12
-9 -35 5 -37 21 -46 22 -38 1 4 -9 1 -14 -6 -12 -6 2 -13 15 -15 28 -2 14 -10
28 -18 33 -9 4 -13 12 -10 18 4 5 1 9 -5 9 -7 0 -10 7 -6 15 3 9 -3 19 -14 25
-16 9 -19 40 -3 40 3 0 2 -7 -1 -16z m84 -206 c0 -16 -3 -19 -11 -11 -6 6 -8
16 -5 22 11 17 16 13 16 -11z m-290 -134 c0 -8 -5 -12 -10 -9 -6 4 -8 11 -5
16 9 14 15 11 15 -7z m1026 -29 c36 -39 72 -137 125 -345 72 -281 84 -391 46
-398 -16 -3 -18 0 -10 20 13 36 7 105 -11 133 -21 32 -74 65 -103 65 -20 0
-23 -5 -23 -42 0 -41 -22 -80 -77 -137 -25 -26 -32 -51 -8 -31 10 8 15 9 15 2
0 -6 7 -9 15 -6 8 4 15 13 15 20 0 12 5 11 28 -3 15 -10 30 -22 34 -28 4 -5 8
1 8 15 1 24 1 24 14 -5 l14 -30 10 25 c9 21 11 22 11 5 0 -24 -28 -78 -29 -55
0 11 -4 10 -12 -4 -8 -15 -8 -21 0 -24 17 -5 15 -48 -3 -66 -8 -8 -15 -32 -15
-53 0 -41 -57 -161 -98 -208 -13 -15 -29 -44 -37 -64 -19 -55 -71 -156 -87
-167 -27 -21 -50 -10 -63 31 -7 22 -36 113 -65 203 l-52 163 -120 129 c-71 77
-132 133 -151 141 -18 6 -76 13 -130 15 -54 1 -101 5 -104 7 -7 8 36 87 48 87
5 0 3 -10 -5 -22 -9 -12 -16 -32 -16 -43 0 -16 2 -17 10 -5 7 12 12 12 22 2
16 -16 41 -16 35 1 -2 6 3 17 12 24 14 11 14 12 -1 13 -10 0 -18 6 -18 13 0 8
9 13 23 11 12 -1 25 -3 29 -3 4 -1 4 -8 1 -18 -5 -11 -3 -14 6 -8 8 4 17 2 22
-6 8 -11 11 -11 20 4 8 14 14 15 24 7 7 -6 25 -8 39 -4 16 4 26 2 26 -5 0 -6
7 -8 16 -4 9 3 19 0 24 -6 4 -7 18 -11 31 -9 23 4 23 5 -8 23 -20 13 -33 29
-35 45 -2 20 -8 25 -30 23 -26 -2 -32 5 -29 33 0 5 -12 23 -28 38 -35 34 -46
29 -114 -43 -26 -28 -51 -51 -55 -51 -13 0 -72 70 -92 111 -12 22 -23 63 -26
91 -3 29 -17 83 -31 122 -13 39 -28 85 -33 101 -5 17 -18 57 -30 90 -22 63
-21 100 1 50 13 -28 48 -77 113 -155 17 -19 118 -123 225 -231 108 -108 212
-215 231 -238 37 -44 51 -49 70 -26 10 12 15 13 21 4 5 -9 11 -10 21 -2 7 6
26 13 43 17 16 4 33 13 37 19 5 8 8 5 8 -8 0 -17 2 -17 10 -5 8 13 10 12 10
-3 0 -12 4 -16 13 -11 8 6 8 3 -2 -9 -7 -9 -10 -25 -7 -34 6 -15 8 -15 16 -3
11 17 13 9 4 -14 -3 -9 -11 -13 -18 -9 -7 4 -7 1 1 -7 10 -11 22 -4 65 35 29
27 59 63 66 79 8 17 22 49 33 71 10 22 25 81 34 130 9 50 20 101 24 115 17 50
33 189 26 228 -4 24 -20 56 -41 81 -43 50 -24 55 22 6z m-806 -204 c0 -5 -7
-11 -14 -14 -10 -4 -13 -1 -9 9 6 15 23 19 23 5z m24 -27 c3 -8 2 -12 -4 -9
-6 3 -10 10 -10 16 0 14 7 11 14 -7z m36 6 c0 -5 -4 -10 -10 -10 -5 0 -10 5
-10 10 0 6 5 10 10 10 6 0 10 -4 10 -10z m21 -19 c-11 -7 -11 -13 3 -32 14
-20 20 -20 18 2 -1 4 8 5 19 2 15 -4 17 -8 8 -19 -7 -8 -9 -17 -5 -21 3 -3 -3
-12 -14 -20 -15 -11 -24 -11 -41 -3 -11 7 -18 14 -15 17 3 4 -1 15 -11 25 -9
10 -13 21 -10 25 4 3 7 1 7 -5 0 -7 7 -12 16 -12 8 0 12 -4 9 -10 -3 -5 0 -10
7 -10 11 0 10 -2 0 -9 -11 -7 -11 -9 2 -14 9 -4 16 -2 16 4 0 6 5 7 10 4 6 -3
10 1 10 9 0 9 -3 15 -7 14 -5 -2 -18 7 -31 20 -23 23 -23 24 -5 37 10 7 20 11
23 9 2 -3 -2 -9 -9 -13z m157 -196 c0 -14 -6 -25 -14 -25 -21 0 -26 18 -7 30
15 9 12 10 -17 6 l-35 -6 25 19 c29 23 48 13 48 -24z m52 -16 c0 -5 -10 -8
-22 -8 -18 1 -19 2 -5 6 9 2 14 9 11 15 -4 7 -2 8 4 4 7 -4 12 -11 12 -17z
m39 -13 c-2 -2 -18 -7 -34 -10 -26 -6 -27 -5 -7 3 12 6 22 16 22 23 0 9 3 9
12 0 6 -6 10 -14 7 -16z m1402 -803 c-8 -15 -10 -15 -11 -2 0 17 10 32 18 25
2 -3 -1 -13 -7 -23z m-1162 -351 c6 -12 4 -23 -9 -40 -25 -31 -30 -28 -30 18
0 43 21 55 39 22z m-59 -19 c0 -20 -3 -24 -11 -16 -7 7 -9 19 -6 27 10 24 17
19 17 -11z m-9 -130 c-12 -20 -14 -14 -5 12 4 9 9 14 11 11 3 -2 0 -13 -6 -23z
m-321 -43 c0 -10 12 -33 26 -50 15 -17 23 -34 19 -38 -4 -4 -10 -1 -12 6 -8
20 -54 15 -60 -8 -8 -29 -23 -24 -23 8 0 15 -2 45 -5 67 -3 28 -2 33 3 15 4
-14 16 -26 25 -28 14 -3 16 2 10 29 -4 23 -3 30 5 25 7 -4 12 -16 12 -26z"/>
<path d="M12840 21372 c0 -4 10 -9 22 -9 18 -2 20 0 8 7 -18 12 -30 13 -30 2z"/>
<path d="M13140 21370 c0 -5 5 -10 10 -10 6 0 10 5 10 10 0 6 -4 10 -10 10 -5
0 -10 -4 -10 -10z"/>
<path d="M13137 21334 c-4 -4 -7 -11 -7 -15 0 -10 24 -5 28 6 4 12 -12 18 -21
9z"/>
<path d="M13080 21299 c0 -5 5 -7 10 -4 6 3 10 8 10 11 0 2 -4 4 -10 4 -5 0
-10 -5 -10 -11z"/>
<path d="M13140 21290 c0 -5 5 -10 11 -10 5 0 7 5 4 10 -3 6 -8 10 -11 10 -2
0 -4 -4 -4 -10z"/>
<path d="M13195 21230 c3 -5 8 -10 11 -10 2 0 4 5 4 10 0 6 -5 10 -11 10 -5 0
-7 -4 -4 -10z"/>
<path d="M12730 21212 c0 -4 4 -13 9 -20 6 -10 10 -10 20 1 9 12 7 16 -9 20
-11 3 -20 2 -20 -1z"/>
<path d="M12650 21181 c0 -18 12 -41 22 -41 6 0 5 6 -2 15 -6 8 -9 19 -5 25 3
5 1 10 -4 10 -6 0 -11 -4 -11 -9z"/>
<path d="M13046 20824 c-10 -26 -7 -46 7 -42 6 3 12 17 13 31 1 30 -10 36 -20
11z"/>
<path d="M13065 20650 c3 -5 11 -10 16 -10 6 0 7 5 4 10 -3 6 -11 10 -16 10
-6 0 -7 -4 -4 -10z"/>
<path d="M12665 20610 c3 -5 8 -10 11 -10 2 0 4 5 4 10 0 6 -5 10 -11 10 -5 0
-7 -4 -4 -10z"/>
<path d="M13410 20810 c0 -5 5 -10 10 -10 6 0 10 5 10 10 0 6 -4 10 -10 10 -5
0 -10 -4 -10 -10z"/>
<path d="M12950 20080 c0 -5 5 -10 11 -10 5 0 7 5 4 10 -3 6 -8 10 -11 10 -2
0 -4 -4 -4 -10z"/>
<path d="M13338 20043 c7 -3 16 -2 19 1 4 3 -2 6 -13 5 -11 0 -14 -3 -6 -6z"/>
<path d="M13125 20000 c-3 -6 1 -7 9 -4 18 7 21 14 7 14 -6 0 -13 -4 -16 -10z"/>
<path d="M13300 19128 c0 -15 18 -17 30 -3 9 11 8 14 -9 12 -12 -1 -21 -5 -21
-9z"/>
</g>
</svg>
