<?xml version="1.0" encoding="UTF-8"?><svg id="a" xmlns="http://www.w3.org/2000/svg" viewBox="0 0 628.45 153.08"><defs><style>.b{fill:#005193;}.c{fill:#ebab00;}.d{fill:#fff;}.e{fill:#fcd38b;}.f{fill:#1a171b;}</style></defs><g><path class="b" d="M436.69,143.61h-6.06l-.28-3.18h-.13c-1.34,2.42-4.03,3.68-6.86,3.68-5.21,0-9.39-4.45-9.39-11.27-.05-7.41,4.59-11.72,9.84-11.72,2.73,0,4.79,.99,5.79,2.47h.08v-11.89h6.84v25.36c0,2.47,.08,5.07,.17,6.55Zm-7.01-9.79v-2.87c0-.36,0-.85-.08-1.25-.4-1.8-1.89-3.32-4.01-3.32-3.13,0-4.71,2.77-4.71,6.24,0,3.72,1.84,6.05,4.67,6.05,1.98,0,3.6-1.34,4-3.27,.09-.5,.13-1.04,.13-1.58Z"/><path class="b" d="M411.4,143.61h-6.15l-.4-2.2h-.14c-1.44,1.75-3.68,2.7-6.29,2.7-4.45,0-7.09-3.23-7.09-6.74,0-5.7,5.11-8.39,12.88-8.39v-.27c0-1.21-.63-2.87-3.99-2.87-2.24,0-4.63,.76-6.07,1.66l-1.25-4.4c1.51-.86,4.53-1.98,8.53-1.98,7.32,0,9.61,4.31,9.61,9.52v7.68c0,2.06,.08,4.08,.36,5.29Zm-6.96-7.99v-2.38c-3.59,0-6.38,.86-6.38,3.46,0,1.75,1.17,2.6,2.69,2.6,1.67,0,3.1-1.12,3.55-2.51,.09-.36,.14-.77,.14-1.17Z"/><path class="b" d="M388.72,143.61h-6.07l-.28-3.18h-.13c-1.34,2.42-4.03,3.68-6.86,3.68-5.21,0-9.4-4.45-9.4-11.27-.03-7.41,4.59-11.72,9.85-11.72,2.74,0,4.8,.99,5.79,2.47h.09v-11.89h6.82v25.36c0,2.47,.1,5.07,.19,6.55Zm-7.01-9.79v-2.87c0-.36,0-.85-.09-1.25-.41-1.8-1.9-3.32-4.01-3.32-3.13,0-4.7,2.77-4.7,6.24,0,3.72,1.84,6.05,4.66,6.05,1.98,0,3.6-1.34,4-3.27,.1-.5,.14-1.04,.14-1.58Z"/><path class="b" d="M359.65,111.45c2.21,0,3.55,1.48,3.59,3.41,0,1.88-1.38,3.41-3.69,3.41-2.14,0-3.54-1.53-3.54-3.41s1.43-3.41,3.64-3.41Z"/><rect class="b" x="356.19" y="121.66" width="6.82" height="21.95"/><path class="b" d="M352.32,122.42l-1.17,4.72c-.98-.54-2.92-1.26-4.76-1.26-1.66,0-2.6,.67-2.6,1.75s.85,1.62,3.54,2.56c4.19,1.44,5.89,3.59,5.94,6.78,0,4.13-3.2,7.14-9.48,7.14-2.88,0-5.44-.67-7.1-1.57l1.22-4.85c1.25,.76,3.86,1.61,5.88,1.61s2.92-.67,2.92-1.79-.68-1.71-3.19-2.56c-4.58-1.53-6.34-4-6.29-6.6,0-4.13,3.5-7.23,8.94-7.23,2.56,0,4.8,.63,6.15,1.3Z"/><path class="b" d="M335.61,127.68c-.54-.09-1.09-.18-1.84-.18-2.51,0-4.22,1.34-4.68,3.45-.08,.45-.13,.99-.13,1.53v11.13h-6.82v-14.72c0-3.23-.05-5.34-.19-7.23h5.84l.27,4.04h.18c1.12-3.23,3.78-4.58,5.93-4.58,.63,0,.95,.04,1.44,.14v6.42Z"/><path class="b" d="M319.3,132.12c0,1.17-.14,2.2-.23,2.69h-14.15c.18,2.83,3.02,4.18,6.2,4.18,2.34,0,4.23-.32,6.06-.94l.9,4.62c-2.24,.94-4.98,1.39-7.94,1.39-7.46,0-11.73-4.31-11.73-11.17,0-5.57,3.46-11.72,11.1-11.72,7.09,0,9.79,5.52,9.79,10.95Zm-14.42-1.97h8.08c0-1.67-.71-4.45-3.86-4.45-2.87,0-4.04,2.65-4.22,4.45Z"/><path class="b" d="M298.45,121.66l-8.17,21.95h-6.83l-7.99-21.95h7.41l2.96,10.19c.54,1.88,.9,3.59,1.26,5.34h.13c.36-1.79,.72-3.46,1.22-5.34l2.82-10.19h7.19Z"/><path class="b" d="M273.79,114.86c0,1.88-1.4,3.41-3.68,3.41-2.16,0-3.55-1.53-3.55-3.41s1.43-3.41,3.64-3.41,3.54,1.48,3.59,3.41Z"/><rect class="b" x="266.74" y="121.66" width="6.82" height="21.95"/><path class="b" d="M262.51,130.64v12.97h-6.83v-12.16c0-2.83-.99-4.76-3.46-4.76-1.89,0-3.01,1.29-3.5,2.56-.18,.45-.23,1.07-.23,1.7v12.66h-6.82v-14.95c0-2.73-.09-5.02-.18-7h5.93l.31,3.05h.14c.9-1.43,3.09-3.55,6.78-3.55,4.49,0,7.86,3.02,7.86,9.48Z"/><path class="b" d="M237.22,111.45v18.87c0,9.34-4.72,13.79-12.62,13.79s-12.09-4.27-12.09-13.87v-18.79h6.83v19.28c0,5.25,2.02,7.91,5.48,7.91s5.57-2.52,5.57-7.91v-19.28h6.83Z"/><path class="f" d="M624.22,132.16c-4.41-.09-9.4,.69-9.4,5,0,2.66,1.74,3.86,3.76,3.86,2.93,0,4.82-1.84,5.46-3.72,.14-.46,.18-.92,.18-1.28v-3.86Zm-5.13-8.35c-2.12,0-4.27,.59-5.83,1.65l-.92-2.7c1.83-1.15,4.54-1.93,7.35-1.93,6.79,0,8.44,4.63,8.44,9.04v8.3c0,1.93,.09,3.8,.32,5.32h-3.63l-.32-2.8h-.14c-1.23,1.75-3.62,3.31-6.79,3.31-4.5,0-6.79-3.17-6.79-6.38,0-5.37,4.77-8.3,13.35-8.25v-.46c0-1.79-.5-5.14-5.04-5.1Z"/><path class="f" d="M607.07,140.28v3.21h-17.99v-2.33l10.01-13.08c1.01-1.24,.64-2.29,1.65-3.49v-.08h-12.02v-3.22h16.9v2.52l-8.65,12.89c-.96,1.24-1.83,2.39-2.84,3.49v.09h12.94Z"/><path class="f" d="M574.87,120.83c6.37,0,10.69,4.63,10.69,11.38,0,8.21-5.74,11.79-11.06,11.79-5.96,0-10.66-4.41-10.66-11.44s4.92-11.73,11.03-11.73Zm6.55,11.51c0-3.75-1.87-8.48-6.65-8.48s-6.79,4.4-6.79,8.58c0,4.86,2.76,8.53,6.7,8.53s6.74-3.62,6.74-8.63Z"/><path class="f" d="M553.44,139.69c-1.19,2.06-3.62,3.71-7.06,3.71-5.51,0-9.46-4.68-9.46-10.84,0-7.51,4.91-11.73,10.05-11.73,3.85,0,5.92,1.97,6.93,3.81h.08l.15-3.35h3.58c-.14,1.56-.18,3.4-.18,6.05v12.89c0,5.14-1.07,8.22-3.17,10.19-2.2,1.97-5.32,2.66-8.13,2.66-2.66,0-5.59-.64-7.38-1.83l1-3.12c1.48,.95,3.77,1.79,6.53,1.79,4.12,0,7.15-2.16,7.15-7.8v-2.43h-.09Zm-.18-11.43c-.74-2.38-2.66-4.31-5.65-4.31-3.86,0-6.6,3.26-6.6,8.39,0,4.37,2.24,7.99,6.55,7.99,2.54,0,4.78-1.57,5.61-4.14,.22-.68,.31-1.46,.31-2.15v-3.99c0-.68-.04-1.28-.22-1.79Z"/><path class="f" d="M526.96,140.69c-1.23,1.75-3.62,3.31-6.78,3.31-4.5,0-6.79-3.17-6.79-6.38,0-5.37,4.77-8.3,13.35-8.25v-.46c0-1.79-.5-5.14-5.05-5.1-2.11,0-4.27,.59-5.83,1.65l-.92-2.7c1.85-1.15,4.54-1.93,7.35-1.93,6.8,0,8.43,4.63,8.43,9.04v8.3c0,1.93,.11,3.8,.33,5.32h-3.62l-.33-2.8h-.14Zm-5.78,.33c2.95,0,4.82-1.84,5.47-3.72,.14-.46,.18-.92,.18-1.28v-3.86c-4.41-.09-9.41,.69-9.41,5,0,2.66,1.75,3.86,3.76,3.86Z"/><path class="f" d="M502.75,125.7c1.01-2.98,3.49-4.87,6.2-4.87,.4,0,.73,.05,1.09,.09v3.81c-.41-.09-.82-.09-1.37-.09-2.85,0-4.87,2.11-5.43,5.13-.09,.55-.13,1.25-.13,1.88v11.84h-4.03v-15.28c0-2.61-.05-4.85-.19-6.92h3.54l.17,4.41h.15Z"/><path class="f" d="M487.38,132.16c-4.4-.09-9.4,.69-9.4,5,0,2.66,1.74,3.86,3.75,3.86,2.95,0,4.82-1.84,5.47-3.72,.13-.46,.18-.92,.18-1.28v-3.86Zm-13.44,5.46c0-5.37,4.77-8.3,13.35-8.25v-.46c0-1.79-.5-5.14-5.05-5.1-2.11,0-4.26,.59-5.82,1.65l-.94-2.7c1.86-1.15,4.56-1.93,7.35-1.93,6.8,0,8.45,4.63,8.45,9.04v8.3c0,1.93,.1,3.8,.32,5.32h-3.62l-.32-2.8h-.14c-1.25,1.75-3.63,3.31-6.79,3.31-4.5,0-6.79-3.17-6.79-6.38Z"/><polygon class="f" points="469.94 140.14 469.94 143.49 444.7 143.49 444.7 141.16 464.55 116.06 464.55 115.92 444.7 115.92 444.7 112.58 469.78 112.58 469.78 115.01 449.98 140.01 449.98 140.14 469.94 140.14"/><path class="f" d="M599.83,78.81c-2.06,0-3.46,1.07-3.82,2.83-.08,.38-.12,.78-.12,1.25v9.09h-5.59l.03-12.07c0-2.64-.03-4.37-.14-5.92h4.78l.22,3.35h.15c.92-2.65,3.1-3.75,4.86-3.75,.52,0,.78,.03,1.18,.11v5.26c-.48-.07-.92-.15-1.55-.15Z"/><path class="f" d="M619.57,91.98h-5.04l-.34-1.8h-.11c-1.18,1.43-3.01,2.21-5.15,2.21-3.64,0-5.81-2.65-5.81-5.52,0-4.67,4.19-6.88,10.56-6.88v-.22c0-.96-.52-2.32-3.28-2.32-1.84,0-3.78,.63-4.96,1.32l-1.04-3.56c1.25-.7,3.72-1.62,7-1.62,6,0,7.87,3.53,7.87,7.76v6.29c0,1.69,.07,3.35,.3,4.34Zm-5.7-6.55v-1.94c-2.95,0-5.24,.69-5.24,2.83,0,1.43,.96,2.13,2.22,2.13,1.35,0,2.53-.92,2.9-2.06,.08-.29,.12-.63,.12-.96Z"/><path class="f" d="M585.95,91.98h-4.86l-.26-2.54h-.12c-.69,1.11-2.38,2.95-5.62,2.95-3.69,0-6.33-2.28-6.33-7.84v-10.56h5.59v9.68c0,2.61,.85,4.19,2.83,4.19,1.55,0,2.47-1.07,2.8-1.95,.15-.33,.22-.73,.22-1.21v-10.71h5.59v12.22c0,2.35,.08,4.26,.16,5.77Z"/><path class="f" d="M565.59,73.99v4.12h-4.02v6.55c0,2.17,.56,3.16,2.22,3.16,.76,0,1.13-.03,1.65-.14l.04,4.23c-.71,.25-2.06,.47-3.61,.47-1.81,0-3.31-.62-4.23-1.54-1.04-1.07-1.55-2.8-1.55-5.33v-7.4h-2.39v-4.12h2.39v-3.38l5.48-1.51v4.89h4.02Z"/><path class="f" d="M552.25,74.29l-.88,4.16c-.67-.3-1.66-.56-3.13-.56-2.95,0-4.86,2.1-4.82,5.04,0,3.31,2.2,5.08,4.93,5.08,1.32,0,2.35-.22,3.2-.59l.66,4.12c-.99,.48-2.87,.85-5,.85-5.81,0-9.54-3.57-9.54-9.24,0-5.26,3.61-9.56,10.31-9.56,1.47,0,3.09,.25,4.27,.7Z"/><path class="f" d="M527.32,73.55c5.82,0,8.02,4.53,8.02,8.98,0,.96-.1,1.8-.18,2.24l-11.59-.03c.19,2.35,2.46,3.45,5.08,3.45,1.92,0,3.46-.25,4.97-.77l.73,3.79c-1.84,.77-4.09,1.14-6.51,1.14-6.11,0-9.61-3.53-9.61-9.2,0-4.56,2.88-9.6,9.09-9.6Zm-3.78,7.36h6.62c0-1.33-.59-3.64-3.13-3.64-2.4,0-3.35,2.17-3.49,3.64Z"/><path class="f" d="M516.01,73.99v4.12h-4.01v6.55c0,2.17,.56,3.16,2.21,3.16,.78,0,1.14-.03,1.65-.14l.04,4.23c-.7,.25-2.05,.47-3.6,.47-1.81,0-3.31-.62-4.23-1.54-1.03-1.07-1.55-2.8-1.55-5.33v-7.4h-2.39v-4.12h2.39v-3.38l5.48-1.51v4.89h4.01Z"/><path class="f" d="M501.62,68.66c0,1.65-1.22,2.98-3.17,2.98h-.03c-1.88,0-3.09-1.33-3.09-2.98s1.25-2.98,3.16-2.98,3.09,1.28,3.13,2.98Z"/><rect class="f" x="495.66" y="73.99" width="5.59" height="17.99"/><path class="f" d="M491.3,91.98h-4.86l-.26-2.54h-.11c-.7,1.11-2.39,2.95-5.62,2.95-3.69,0-6.34-2.28-6.34-7.84v-10.56h5.6v9.68c0,2.61,.85,4.19,2.83,4.19,1.55,0,2.47-1.07,2.8-1.95,.14-.33,.22-.73,.22-1.21v-10.71h5.59v12.22c0,2.35,.08,4.26,.15,5.77Z"/><path class="f" d="M464.45,73.99h5.38c-.03,1.73-.11,3.54-.11,5.41v19.87h-5.59v-9.57h-.07c-1.15,1.73-2.95,2.69-5.38,2.69-3.9,0-7.44-3.46-7.44-9.16,0-6.44,4.09-9.64,7.96-9.64,2.31,0,4,.85,5.04,2.5h.07l.14-2.1Zm-.32,10.23v-2.68c0-.3-.04-.63-.11-.89-.3-1.47-1.51-2.68-3.24-2.68-2.54,0-3.87,2.13-3.87,5.04s1.48,4.97,3.83,4.97c1.59,0,2.87-1.07,3.24-2.55,.11-.36,.15-.84,.15-1.21Z"/><path class="f" d="M447.82,78.81c-2.07,0-3.47,1.07-3.83,2.83-.08,.38-.12,.78-.12,1.25v9.09h-5.59l.04-12.07c0-2.64-.04-4.37-.15-5.92h4.79l.22,3.35h.15c.92-2.65,3.08-3.75,4.85-3.75,.52,0,.78,.03,1.18,.11v5.26c-.48-.07-.92-.15-1.54-.15Z"/><path class="f" d="M427.41,67.19l7.73,24.79h-6.03l-1.92-6.36h-7.14l-1.73,6.36h-5.82l7.58-24.79h7.33Zm-1.07,14.23l-1.54-5.26c-.4-1.47-.85-3.35-1.22-4.78h-.11c-.33,1.47-.73,3.35-1.1,4.78l-1.51,5.26h5.48Z"/><path class="f" d="M404.32,73.99l-4.2,11.85c-2.57,7.14-4.31,9.97-6.33,11.77-1.92,1.7-3.97,2.32-5.41,2.47l-1.18-4.71c.7-.15,1.58-.48,2.43-.96,.85-.44,1.8-1.36,2.32-2.25,.19-.29,.29-.55,.29-.8,0-.19-.03-.48-.22-.92l-6.62-16.45h6.22l2.69,8.84c.29,1.06,.66,2.39,.88,3.34h.11c.26-.95,.55-2.32,.81-3.34l2.21-8.84h6Z"/><path class="f" d="M375.81,91.98h-5.04l-.33-1.8h-.11c-1.18,1.43-3.02,2.21-5.15,2.21-3.65,0-5.82-2.65-5.82-5.52,0-4.67,4.2-6.88,10.57-6.88v-.22c0-.96-.52-2.32-3.28-2.32-1.84,0-3.79,.63-4.97,1.32l-1.03-3.56c1.25-.7,3.71-1.62,6.99-1.62,6,0,7.87,3.53,7.87,7.76v6.29c0,1.69,.08,3.35,.3,4.34Zm-5.7-6.55v-1.94c-2.94,0-5.23,.69-5.23,2.83,0,1.43,.96,2.13,2.21,2.13,1.36,0,2.54-.92,2.91-2.06,.07-.29,.11-.63,.11-.96Z"/><polygon class="f" points="359.25 66.23 354.75 71.82 350.93 71.82 354.09 66.23 359.25 66.23"/><rect class="f" x="350.45" y="73.99" width="5.6" height="17.99"/><path class="f" d="M341.5,77.34c.92-2.65,3.09-3.75,4.85-3.75,.52,0,.78,.03,1.19,.11v5.26c-.48-.07-.93-.15-1.55-.15-2.06,0-3.47,1.07-3.83,2.83-.07,.38-.11,.78-.11,1.25v9.09h-5.59l.03-12.07c0-2.64-.03-4.37-.15-5.92h4.79l.22,3.35h.15Z"/><path class="f" d="M333.09,82.53c0,.96-.1,1.8-.18,2.24l-11.6-.03c.19,2.35,2.47,3.45,5.08,3.45,1.92,0,3.46-.25,4.97-.77l.74,3.79c-1.84,.77-4.09,1.14-6.51,1.14-6.11,0-9.61-3.53-9.61-9.2,0-4.56,2.87-9.6,9.09-9.6,5.82,0,8.02,4.53,8.02,8.98Zm-11.81-1.62h6.62c0-1.33-.58-3.64-3.13-3.64-2.39,0-3.34,2.17-3.49,3.64Z"/><path class="f" d="M312.88,68.66c0,1.65-1.21,2.98-3.16,2.98h-.04c-1.88,0-3.09-1.33-3.09-2.98s1.25-2.98,3.17-2.98,3.08,1.28,3.12,2.98Z"/><rect class="f" x="306.92" y="73.99" width="5.6" height="17.99"/><path class="f" d="M293.99,78.11c-1.55,0-2.47,1.07-2.87,2.1-.15,.37-.18,.88-.18,1.4v10.37h-5.6v-12.25c0-2.24-.07-4.12-.15-5.74h4.86l.26,2.5h.11c.74-1.17,2.54-2.9,5.56-2.9,3.68,0,6.44,2.46,6.44,7.76v10.63h-5.6v-9.96c0-2.33-.81-3.91-2.83-3.91Z"/><path class="f" d="M281.98,82.53c0,.96-.11,1.8-.18,2.24l-11.6-.03c.18,2.35,2.46,3.45,5.08,3.45,1.91,0,3.46-.25,4.97-.77l.73,3.79c-1.84,.77-4.08,1.14-6.51,1.14-6.11,0-9.61-3.53-9.61-9.2,0-4.56,2.87-9.6,9.1-9.6,5.81,0,8.02,4.53,8.02,8.98Zm-11.82-1.62h6.63c0-1.33-.59-3.64-3.13-3.64-2.39,0-3.35,2.17-3.5,3.64Z"/><path class="f" d="M256.68,73.99h4.86c-.07,1.18-.15,2.69-.15,5.38v10c0,3.46-.7,6.29-2.76,8.09-1.95,1.7-4.64,2.21-7.29,2.21-2.39,0-4.85-.48-6.47-1.36l1.1-4.27c1.14,.66,3.09,1.37,5.23,1.37,2.65,0,4.67-1.4,4.67-4.75v-1.14h-.07c-1.07,1.47-2.8,2.32-4.86,2.32-4.45,0-7.62-3.61-7.62-8.76,0-5.81,3.72-9.49,8.17-9.49,2.47,0,4.01,1.06,4.93,2.54h.08l.18-2.14Zm-.88,9.97v-2.65c0-.32-.04-.69-.11-1.02-.41-1.47-1.48-2.47-3.02-2.47-2.06,0-3.68,1.84-3.68,5.11,0,2.69,1.32,4.79,3.64,4.79,1.48,0,2.61-.96,2.98-2.25,.15-.44,.19-1.03,.19-1.51Z"/><rect class="f" x="212.49" y="67.19" width="5.6" height="24.79"/><path class="f" d="M227.85,76.49c.74-1.17,2.54-2.9,5.56-2.9,3.68,0,6.44,2.46,6.44,7.76v10.63h-5.6v-9.96c0-2.33-.81-3.91-2.83-3.91-1.54,0-2.47,1.07-2.87,2.1-.15,.37-.19,.88-.19,1.4v10.37h-5.59v-12.25c0-2.24-.07-4.12-.15-5.74h4.86l.26,2.5h.11Z"/><path class="f" d="M380.45,44.5c0,.96-.11,1.81-.18,2.25l-11.6-.04c.19,2.35,2.47,3.46,5.08,3.46,1.92,0,3.46-.26,4.98-.77l.73,3.79c-1.84,.76-4.09,1.14-6.52,1.14-6.1,0-9.61-3.54-9.61-9.2,0-4.57,2.88-9.61,9.1-9.61,5.81,0,8.02,4.53,8.02,8.98Zm-11.81-1.62h6.62c0-1.32-.59-3.64-3.13-3.64-2.39,0-3.35,2.17-3.49,3.64Z"/><path class="f" d="M360.02,53.95h-4.97l-.22-2.61h-.11c-1.11,1.99-3.32,3.02-5.63,3.02-4.28,0-7.7-3.64-7.7-9.23-.04-6.04,3.75-9.57,8.06-9.57,2.25,0,3.94,.81,4.75,2.02h.07v-9.75h5.6v20.76c0,2.05,.07,4.15,.15,5.36Zm-5.75-7.97v-2.36c0-.33,0-.7-.07-1.03-.33-1.51-1.54-2.72-3.28-2.72-2.58,0-3.86,2.28-3.86,5.11,0,3.02,1.51,4.93,3.82,4.93,1.63,0,2.95-1.1,3.28-2.69,.08-.36,.11-.81,.11-1.24Z"/><path class="f" d="M330.81,53.95h-5.04l-.33-1.8h-.11c-1.18,1.44-3.02,2.21-5.15,2.21-3.65,0-5.82-2.65-5.82-5.52,0-4.67,4.2-6.88,10.56-6.88v-.22c0-.95-.51-2.31-3.28-2.31-1.84,0-3.78,.62-4.96,1.32l-1.04-3.57c1.26-.7,3.73-1.62,7-1.62,6,0,7.88,3.53,7.88,7.76v6.29c0,1.7,.07,3.35,.29,4.34Zm-5.7-6.54v-1.95c-2.95,0-5.23,.7-5.23,2.83,0,1.43,.96,2.14,2.21,2.14,1.36,0,2.54-.92,2.91-2.06,.07-.3,.11-.63,.11-.96Z"/><rect class="f" x="305.45" y="27.83" width="5.59" height="26.12"/><path class="f" d="M302.08,44.5c0,.96-.11,1.81-.18,2.25l-11.59-.04c.18,2.35,2.46,3.46,5.08,3.46,1.91,0,3.46-.26,4.97-.77l.73,3.79c-1.84,.76-4.08,1.14-6.51,1.14-6.11,0-9.61-3.54-9.61-9.2,0-4.57,2.87-9.61,9.09-9.61,5.82,0,8.02,4.53,8.02,8.98Zm-11.81-1.62h6.62c0-1.32-.58-3.64-3.12-3.64-2.4,0-3.35,2.17-3.5,3.64Z"/><path class="f" d="M281.65,53.95h-4.86l-.26-2.53h-.11c-.7,1.1-2.39,2.94-5.63,2.94-3.68,0-6.33-2.28-6.33-7.83v-10.56h5.59v9.67c0,2.62,.85,4.2,2.84,4.2,1.54,0,2.46-1.07,2.79-1.95,.15-.33,.22-.74,.22-1.22v-10.7h5.6v12.21c0,2.36,.07,4.27,.15,5.77Z"/><path class="f" d="M261.47,36.26l-.89,4.16c-.66-.29-1.65-.55-3.13-.55-2.94,0-4.85,2.09-4.82,5.03,0,3.32,2.21,5.08,4.94,5.08,1.32,0,2.35-.21,3.2-.59l.66,4.12c-.99,.48-2.87,.85-5,.85-5.82,0-9.54-3.57-9.54-9.23,0-5.26,3.61-9.57,10.31-9.57,1.47,0,3.09,.26,4.27,.7Z"/><path class="f" d="M239.63,42.99c3.42,1.14,4.82,2.91,4.86,5.52,0,3.39-2.61,5.85-7.76,5.85-2.36,0-4.46-.55-5.82-1.29l.99-3.97c1.03,.62,3.17,1.32,4.83,1.32s2.39-.55,2.39-1.47-.56-1.39-2.62-2.09c-3.75-1.22-5.19-3.28-5.15-5.38,0-3.38,2.87-5.92,7.33-5.92,2.1,0,3.93,.52,5.04,1.07l-.96,3.83c-.81-.41-2.39-1-3.9-1-1.36,0-2.13,.55-2.13,1.44s.69,1.32,2.9,2.09Z"/><polygon class="f" points="228.28 49.36 228.28 53.95 212.5 53.95 212.5 29.16 227.77 29.16 227.77 33.76 218.09 33.76 218.09 38.91 227.22 38.91 227.22 43.47 218.09 43.47 218.09 49.36 228.28 49.36"/></g><g><polygon class="e" points="161.67 55.53 150.84 72.03 144.83 72.03 122.53 67.91 122.53 64.22 133.21 65.91 145.86 53.68 145.9 53.72 161.67 55.53"/><polygon class="c" points="145.9 53.63 145.86 53.68 133.21 65.91 133.21 13.82 145.9 4.26 145.9 53.63"/><polygon class="c" points="145.9 4.26 133.21 13.82 85.64 9.57 102.55 0 145.9 4.26"/><polygon class="e" points="145.59 80.03 131.15 102.05 120.32 102.05 91.98 96.31 91.98 92.93 103.9 94.72 122.48 76.54 122.53 76.54 122.53 76.6 145.59 80.03"/><polygon class="d" points="122.33 21.99 85.63 17.51 85.64 17.44 85.64 9.57 133.21 13.82 133.21 65.91 122.53 64.22 122.53 22.01 122.33 21.99"/><polygon class="e" points="91.98 106.84 124.83 111.68 103.43 144.31 85.42 144.31 1.28 122.86 62.93 134.8 63.56 134.19 91.55 106.78 91.98 106.84"/><polygon class="c" points="122.53 67.91 122.53 76.54 122.48 76.54 103.9 94.72 103.9 35.86 122.33 21.99 122.53 22.01 122.53 64.22 122.53 67.91"/><polygon class="c" points="122.33 21.99 103.9 35.86 47.61 28.7 47.61 28.69 72.96 15.96 85.63 17.51 122.33 21.99"/><polygon class="d" points="103.9 35.86 103.9 94.72 91.98 92.93 91.98 45.71 47.61 39.45 47.61 28.7 103.9 35.86"/><polygon class="c" points="91.98 96.31 91.98 106.84 91.55 106.78 63.56 134.19 63.42 134.04 63.42 65.91 63.44 65.91 91.98 45.71 91.98 92.93 91.98 96.31"/><polygon class="c" points="47.61 39.45 91.98 45.71 63.44 65.91 63.42 65.91 0 54.23 31.67 37.2 47.61 39.45"/><polygon class="d" points="63.42 134.04 63.56 134.19 62.93 134.8 1.28 122.86 0 122.61 0 54.23 63.42 65.91 63.42 134.04"/></g></svg>