<svg xmlns="http://www.w3.org/2000/svg" viewBox="0 0 664.99 355.56"><defs><style>.cls-1{fill:#0fcfc8;}.cls-2{fill:#22b02a;}.cls-3{fill:#ff6f70;}.cls-4{fill:#efbc6c;}.cls-5{fill:#e3ab45;}.cls-6{fill:#f5f6f6;}</style></defs><title>Logo sin fondo</title><g id="Capa_2" data-name="Capa 2"><g id="Capa_1-2" data-name="Capa 1"><path class="cls-1" d="M332.49,20.51C149,20.51.27,169.11,0,352.51H665C664.72,169.11,516,20.51,332.49,20.51Z"/><path class="cls-2" d="M187.91,355.52a36.33,36.33,0,0,0-72.65,0Z"/><path class="cls-2" d="M152.75,355.52a50.95,50.95,0,0,0-101.89,0Z"/><polygon class="cls-3" points="297.08 116.68 106.89 116.68 221.68 0 411.87 0 297.08 116.68"/><polygon class="cls-4" points="411.87 0 296.13 115.73 296.13 355.56 509.37 355.56 509.37 122.87 411.87 0"/><polygon class="cls-5" points="106.89 116.68 106.89 355.56 296.13 355.56 296.13 115.73 106.89 116.68"/><rect class="cls-6" x="421.13" y="146.16" width="47.85" height="109.59"/><rect class="cls-6" x="355.25" y="146.16" width="47.85" height="109.59"/><path class="cls-2" d="M466.14,355.56a36.32,36.32,0,0,1,72.64,0Z"/><path class="cls-2" d="M516.1,355.56a50.95,50.95,0,1,1,101.89,0Z"/><path class="cls-3" d="M243.4,274.1a45.14,45.14,0,0,0-90.26,0h0v81.42h90.31V274.1Z"/></g></g></svg>