<svg xmlns="http://www.w3.org/2000/svg" viewBox="0 0 664.99 519.51"><defs><style>.cls-1{fill:#0fcfc8;}.cls-2{fill:#22b02a;}.cls-3{fill:#ff6f70;}.cls-4{fill:#efbc6c;}.cls-5{fill:#e3ab45;}.cls-6{fill:#f5f6f6;}</style></defs><title>Recurso 3</title><g id="Capa_2" data-name="Capa 2"><g id="Capa_1-2" data-name="Capa 1"><path class="cls-1" d="M332.5,20.51C149,20.51.28,169.11,0,352.51H665C664.72,169.11,516,20.51,332.5,20.51Z"/><path d="M28.81,518,0,438.28H15l22.4,65.92h.78l22.24-65.92H75.17L46.35,518Z"/><path d="M85.19,417.19c0-5.78,4.7-10.15,10.65-10.15a10.16,10.16,0,1,1,0,20.31C89.89,427.35,85.19,423,85.19,417.19ZM88.79,518V438.28h14.1V518Z"/><path d="M145.32,518l-28.81-79.67h15l22.4,65.92h.78L177,438.28h14.72L162.86,518Z"/><path d="M273.58,483H214.86c1.4,15.15,10.49,24.84,23.95,24.84,9.09,0,15.82-3.91,20.52-13.28l12.53,4.53c-5.64,13.59-17.39,20.46-33.05,20.46-23.8,0-38.36-18.12-38.36-41.39s14.41-41.4,38.21-41.4c21,0,35.39,14.53,35.39,39.37A47.85,47.85,0,0,1,273.58,483ZM215,471.71h45.57c-1.25-14.84-9.86-23.27-21.92-23.27C225.66,448.44,216.89,457.34,215,471.71Z"/><path class="cls-1" d="M348.44,436.88v30.61a41.42,41.42,0,0,0-6.11-.31c-12.06,0-22.08,5.78-22.08,23.9V518H289.71V480.77c0-14.21,0-28.27-.78-42.49h29.28l2.51,17.19h2.19c3.91-12.81,11.59-18.75,21.14-18.75A43.29,43.29,0,0,1,348.44,436.88Z"/><path class="cls-1" d="M358.62,488V438.28h30.53v41.4c0,9.06,4.07,14.06,11.43,14.06,8.62,0,13.63-7,13.63-17.34V438.28h30.53v37.18c0,14.22,0,28.27.79,42.49H416.24l-1.88-12.5H412.8c-7.05,9.38-15.82,14.06-26.94,14.06C368.79,519.51,358.62,508.42,358.62,488Z"/><path class="cls-1" d="M520.7,436.88v30.61a41.42,41.42,0,0,0-6.11-.31c-12.06,0-22.08,5.78-22.08,23.9V518H462V480.77c0-14.21,0-28.27-.78-42.49h29.28L493,455.47h2.19c3.92-12.81,11.59-18.75,21.14-18.75A43.29,43.29,0,0,1,520.7,436.88Z"/><path class="cls-1" d="M608.86,477c0,13.75,0,27.18.79,40.93H581.77l-1.88-12.5h-1.56c-4.86,9.22-12.38,14.06-24.75,14.06-15.34,0-25.36-9.37-25.36-23.27,0-15.78,10.64-24.53,32.72-25.93l18.48-1.1v-1.87c0-7.19-4.38-9.84-11.27-9.84s-11.43,3.28-12.22,9.21l-26.77-5.46c2.5-15,16.44-24.53,39-24.53,27.56,0,40.71,11.4,40.71,29.37Zm-29.44,6.25-11,.63c-8.14.47-11.12,3-11.12,7.65,0,4.06,2.82,6.56,8.77,6.56C573.16,498.11,579.27,493.58,579.42,483.27Z"/><path class="cls-1" d="M625.46,518V408.6H656V518Z"/><path class="cls-2" d="M187.91,355.52a36.32,36.32,0,0,0-72.64,0Z"/><path class="cls-2" d="M152.76,355.52a50.95,50.95,0,0,0-101.89,0Z"/><polygon class="cls-3" points="297.09 116.68 106.9 116.68 221.68 0 411.87 0 297.09 116.68"/><polygon class="cls-4" points="411.87 0 296.14 115.73 296.14 355.56 509.37 355.56 509.37 122.87 411.87 0"/><polygon class="cls-5" points="106.9 116.68 106.9 355.56 296.14 355.56 296.14 115.73 106.9 116.68"/><rect class="cls-6" x="421.14" y="146.16" width="47.85" height="109.59"/><rect class="cls-6" x="355.26" y="146.16" width="47.85" height="109.59"/><path class="cls-2" d="M466.15,355.56a36.32,36.32,0,1,1,72.64,0Z"/><path class="cls-2" d="M516.11,355.56a50.95,50.95,0,1,1,101.89,0Z"/><path class="cls-3" d="M243.41,274.1a45.15,45.15,0,0,0-90.27,0h0v81.42h90.31V274.1Z"/></g></g></svg>