<svg xmlns="http://www.w3.org/2000/svg" viewBox="0 0 1000 1000"><defs><style>.cls-1{fill:#0fcfc8;}.cls-2{fill:#fff;}.cls-3{fill:#22b02a;}.cls-4{fill:#ff6f70;}.cls-5{fill:#efbc6c;}.cls-6{fill:#e3ab45;}.cls-7{fill:#f5f6f6;}</style></defs><title>Recurso 1</title><g id="Capa_2" data-name="Capa 2"><g id="Capa_1-2" data-name="Capa 1"><rect class="cls-1" width="1000" height="1000"/><path class="cls-2" d="M501.5,259C318,259,169.28,407.6,169,591H834C833.72,407.6,685,259,501.5,259Z"/><path class="cls-2" d="M197.81,756.44,169,676.77h15l22.4,65.92h.78l22.24-65.92h14.72l-28.82,79.67Z"/><path class="cls-2" d="M254.19,655.68c0-5.78,4.7-10.15,10.65-10.15a10.16,10.16,0,1,1,0,20.31C258.89,665.84,254.19,661.46,254.19,655.68Zm3.6,100.76V676.77h14.1v79.67Z"/><path class="cls-2" d="M314.32,756.44l-28.81-79.67h15l22.4,65.92h.78L346,676.77h14.72l-28.82,79.67Z"/><path class="cls-2" d="M442.58,721.45H383.86c1.4,15.15,10.49,24.83,23.95,24.83,9.09,0,15.82-3.9,20.52-13.27l12.53,4.53C435.22,751.13,423.47,758,407.81,758c-23.8,0-38.36-18.12-38.36-41.4s14.41-41.39,38.21-41.39c21,0,35.39,14.53,35.39,39.36A47.89,47.89,0,0,1,442.58,721.45ZM384,710.2h45.57c-1.25-14.84-9.86-23.28-21.92-23.28C394.66,686.92,385.89,695.83,384,710.2Z"/><path class="cls-2" d="M517.44,675.36V706a41.42,41.42,0,0,0-6.11-.31c-12.06,0-22.08,5.78-22.08,23.9v26.87H458.71V719.26c0-14.22,0-28.27-.78-42.49h29.28L489.72,694h2.19c3.91-12.81,11.59-18.74,21.14-18.74C514.46,675.21,515.71,675.21,517.44,675.36Z"/><path class="cls-2" d="M527.62,726.45V676.77h30.53v41.4c0,9.06,4.07,14.06,11.43,14.06,8.62,0,13.63-7,13.63-17.34V676.77h30.53V714c0,14.21,0,28.27.79,42.49H585.24l-1.88-12.5H581.8c-7,9.37-15.82,14.06-26.94,14.06C537.79,758,527.62,746.91,527.62,726.45Z"/><path class="cls-2" d="M689.7,675.36V706a41.42,41.42,0,0,0-6.11-.31c-12.06,0-22.08,5.78-22.08,23.9v26.87H631V719.26c0-14.22,0-28.27-.78-42.49h29.28L662,694h2.19c3.92-12.81,11.59-18.74,21.14-18.74C686.72,675.21,688,675.21,689.7,675.36Z"/><path class="cls-2" d="M777.86,715.51c0,13.75,0,27.18.79,40.93H750.77l-1.88-12.5h-1.56C742.47,753.16,735,758,722.58,758c-15.34,0-25.36-9.37-25.36-23.28,0-15.77,10.64-24.52,32.72-25.93l18.48-1.09v-1.87c0-7.19-4.38-9.85-11.27-9.85s-11.43,3.28-12.22,9.22l-26.77-5.47c2.5-15,16.44-24.52,39-24.52,27.56,0,40.71,11.4,40.71,29.37Zm-29.44,6.25-11,.62c-8.14.47-11.12,3-11.12,7.66,0,4.06,2.82,6.56,8.77,6.56C742.16,736.6,748.27,732.07,748.42,721.76Z"/><path class="cls-2" d="M794.46,756.44V647.09H825V756.44Z"/><path class="cls-3" d="M356.91,594a36.32,36.32,0,0,0-72.64,0Z"/><path class="cls-3" d="M321.76,594a50.95,50.95,0,1,0-101.89,0Z"/><polygon class="cls-4" points="466.09 355.17 275.9 355.17 390.68 238.49 580.87 238.49 466.09 355.17"/><polygon class="cls-5" points="580.87 238.49 465.14 354.22 465.14 594.04 678.37 594.04 678.37 361.36 580.87 238.49"/><polygon class="cls-6" points="275.9 355.17 275.9 594.04 465.14 594.04 465.14 354.22 275.9 355.17"/><rect class="cls-7" x="590.14" y="384.64" width="47.85" height="109.59"/><rect class="cls-7" x="524.26" y="384.64" width="47.85" height="109.59"/><path class="cls-3" d="M635.15,594a36.32,36.32,0,1,1,72.64,0Z"/><path class="cls-3" d="M685.11,594A50.95,50.95,0,0,1,787,594Z"/><path class="cls-4" d="M412.41,512.58a45.15,45.15,0,0,0-90.27,0h0V594h90.31V512.58Z"/></g></g></svg>