<svg xmlns="http://www.w3.org/2000/svg" viewBox="0 0 656 112.47"><defs><style>.cls-1{fill:#fff;}</style></defs><title>Recurso 2</title><g id="Capa_2" data-name="Capa 2"><g id="Capa_1-2" data-name="Capa 1"><path class="cls-1" d="M28.81,110.91,0,31.24H15l22.4,65.92h.78L60.45,31.24H75.17L46.35,110.91Z"/><path class="cls-1" d="M85.19,10.15C85.19,4.37,89.89,0,95.84,0a10.16,10.16,0,1,1,0,20.31C89.89,20.31,85.19,15.93,85.19,10.15Zm3.6,100.76V31.24h14.1v79.67Z"/><path class="cls-1" d="M145.32,110.91,116.51,31.24h15l22.4,65.92h.78L177,31.24h14.72l-28.82,79.67Z"/><path class="cls-1" d="M273.58,75.92H214.86c1.4,15.15,10.49,24.84,23.95,24.84,9.09,0,15.82-3.91,20.52-13.28L271.86,92c-5.64,13.59-17.39,20.46-33.05,20.46-23.8,0-38.36-18.12-38.36-41.39s14.41-41.4,38.21-41.4c21,0,35.39,14.53,35.39,39.37A47.85,47.85,0,0,1,273.58,75.92ZM215,64.67h45.57c-1.25-14.84-9.86-23.27-21.92-23.27C225.66,41.4,216.89,50.3,215,64.67Z"/><path class="cls-1" d="M348.44,29.84V60.45a41.42,41.42,0,0,0-6.11-.31c-12.06,0-22.08,5.78-22.08,23.9v26.87H289.71V73.73c0-14.21,0-28.27-.78-42.49h29.28l2.51,17.19h2.19c3.91-12.81,11.59-18.75,21.14-18.75A43.29,43.29,0,0,1,348.44,29.84Z"/><path class="cls-1" d="M358.62,80.92V31.24h30.53v41.4c0,9.06,4.07,14.06,11.43,14.06,8.62,0,13.63-7,13.63-17.34V31.24h30.53V68.42c0,14.22,0,28.27.79,42.49H416.24l-1.88-12.5H412.8c-7.05,9.38-15.82,14.06-26.94,14.06C368.79,112.47,358.62,101.38,358.62,80.92Z"/><path class="cls-1" d="M520.7,29.84V60.45a41.42,41.42,0,0,0-6.11-.31c-12.06,0-22.08,5.78-22.08,23.9v26.87H462V73.73c0-14.21,0-28.27-.78-42.49h29.28L493,48.43h2.19c3.92-12.81,11.59-18.75,21.14-18.75A43.29,43.29,0,0,1,520.7,29.84Z"/><path class="cls-1" d="M608.86,70c0,13.75,0,27.18.79,40.93H581.77l-1.88-12.5h-1.56c-4.86,9.22-12.38,14.06-24.75,14.06-15.34,0-25.36-9.37-25.36-23.27,0-15.78,10.64-24.53,32.72-25.93l18.48-1.1V60.3c0-7.19-4.38-9.84-11.27-9.84s-11.43,3.28-12.22,9.21l-26.77-5.46c2.5-15,16.44-24.53,39-24.53,27.56,0,40.71,11.4,40.71,29.37Zm-29.44,6.25-11,.63c-8.14.47-11.12,3-11.12,7.65,0,4.06,2.82,6.56,8.77,6.56C573.16,91.07,579.27,86.54,579.42,76.23Z"/><path class="cls-1" d="M625.46,110.91V1.56H656V110.91Z"/></g></g></svg>